<?xml version="1.0" encoding="utf-8"?>
<!-- Generator: Adobe Illustrator 27.0.0, SVG Export Plug-In . SVG Version: 6.00 Build 0)  -->
<svg version="1.1" id="_圖層_2" xmlns="http://www.w3.org/2000/svg" xmlns:xlink="http://www.w3.org/1999/xlink" x="0px" y="0px"
	 viewBox="0 0 590.9 51.7" style="enable-background:new 0 0 590.9 51.7;" xml:space="preserve">
<style type="text/css">
	.st0{fill:#4E6875;}
</style>
<g id="_圖層_1-2">
	<g>
		<path class="st0" d="M83.8,10.2C83,9.1,82.2,8,81.2,6.9c-0.5,1.2-1.4,2.6-2.7,4.1c-0.4-0.5-0.9-1-1.4-1.4c1.9-2,3.2-4.6,3.7-7.7
			l1.9,0.2C82.5,3.2,82.3,4.2,82,5c0.6,0.6,1.3,1.4,2.2,2.5c0.5,0.6,0.8,1,1.1,1.2L83.8,10.2L83.8,10.2z M79.2,13.3v-1.9h6.2v-11
			h2.2v11h6.2v1.9h-6.2v2.9h8.3v1.9H77.2v-1.9h8.2v-2.9L79.2,13.3L79.2,13.3z M94.4,10.4c-0.5-0.7-1.4-1.9-2.7-3.5
			c-0.4,0.7-1.2,1.9-2.4,3.4c-0.5-0.5-1-0.9-1.5-1.3c1.9-2.1,3.1-4.5,3.5-7l2,0.2c-0.1,0.2-0.1,0.5-0.2,0.8
			c-0.1,0.6-0.3,1.3-0.6,2.1c0.6,0.7,1.4,1.6,2.4,2.7c0.5,0.5,0.8,0.9,1,1.2L94.4,10.4L94.4,10.4z"/>
		<path class="st0" d="M99.3,5.9V4h1.6V0.5h1.8V4h1.5v1.9h-1.5v3.7c0.2-0.1,0.5-0.1,0.8-0.2c0.4-0.1,0.6-0.1,0.8-0.2
			c-0.1,0.8-0.1,1.4,0,1.9l-1.6,0.4v5.3c0.1,1.4-0.6,2-1.8,2c-0.5,0-1,0.1-1.6,0.1c-0.1-0.3-0.1-0.8-0.2-1.4
			c-0.1-0.2-0.1-0.4-0.1-0.5h1.1c0.5,0,0.8-0.2,0.8-0.6V12l-1.7,0.4L99,10.2l1.9-0.4v-4L99.3,5.9L99.3,5.9z M104.5,4V2.2h5.6V0.4
			h1.9v1.8h5.9V4h-11.2l1.6,0.5c-0.8,1.5-1.5,2.6-2,3.4l0.9,0.6c0.5-0.8,0.9-1.5,1.2-2.2l1.4,0.7c-1.1,1.9-2.2,3.6-3.2,5.2l1.4-0.2
			c0.1-0.4,0.2-0.8,0.2-1.2h1.6c-0.3,4.1-2.1,6.8-5.2,8.3c-0.1,0-0.1-0.2-0.2-0.3c-0.4-0.6-0.7-1-0.9-1.2c2.3-1,3.7-2.4,4.1-4
			c-0.2,0.1-0.5,0.1-0.9,0.2c-0.9,0.1-1.9,0.3-2.8,0.5l-0.3-1.6c0.2-0.1,0.4-0.1,0.7-0.1c0.3-0.1,0.5-0.1,0.6-0.1
			c0.6-0.9,1.1-1.7,1.6-2.6c-0.3-0.2-0.7-0.4-1.2-0.7c-0.7-0.4-1.3-0.8-1.7-1l0.9-1.2l0.6,0.3c0.7-1.1,1.2-2.2,1.7-3.2L104.5,4
			L104.5,4z M109.1,10.6c-0.1-0.3-0.1-0.8-0.2-1.4c-0.1-0.2-0.1-0.4-0.1-0.5c1.1-1.3,2-2.9,2.7-4.7l1.7,0.1c-0.3,0.8-0.7,1.5-1,2.3
			h1.7c0.3-0.7,0.5-1.4,0.6-1.9l1.8,0.2c-0.2,0.5-0.4,1-0.7,1.7h2.2V8h-2.3v1.9h2.1v1.6h-2.1v1.8h2.1v1.6h-2.1v1.8h2.4V18h-6.2v1
			H110V9.6c-0.1,0.1-0.2,0.2-0.3,0.4C109.4,10.3,109.2,10.5,109.1,10.6L109.1,10.6z M111.7,8v1.9h2.1V8H111.7z M111.7,11.4v1.8h2.1
			v-1.8H111.7z M111.7,14.8v1.8h2.1v-1.8H111.7z"/>
		<path class="st0" d="M137.1,18.9c-1.4,0-2.5-0.9-3.4-2.8c-0.9,0.9-2.1,1.8-3.4,2.8c-0.4-0.5-0.8-1-1.4-1.6c1.6-1,3-2.2,4.1-3.4
			c-0.6-2.1-1-4.9-1.2-8.3h-6.9v2.6h5.3c0,1.1-0.1,2.7-0.2,4.8v0.6c0,2-0.9,3-2.7,3c-0.5,0-1.1,0.1-1.9,0.1c0-0.3-0.1-0.6-0.2-1
			c-0.1-0.5-0.1-0.8-0.2-1h1.6c0.9,0.1,1.3-0.4,1.3-1.2c0.1-0.4,0.1-1,0.1-1.6c0.1-0.7,0.1-1.3,0.1-1.6h-3.4c0.1,3.6-0.6,6.6-2,9.1
			c-0.1,0-0.3-0.2-0.5-0.3c-0.6-0.5-1.1-0.8-1.3-0.9c0.7-1.2,1.2-2.4,1.5-3.6c0.2-1.1,0.3-2.8,0.3-5V3.8h8.8
			c-0.1-0.7-0.1-1.9-0.1-3.5h2c0,1.6,0,2.7,0.1,3.5h6.2v1.9h-6.1c0.2,2.7,0.4,4.8,0.8,6.3c0.7-1.1,1.6-2.8,2.6-5l1.9,0.8
			c-1.3,2.9-2.6,5-3.8,6.5c0.1,0.1,0.1,0.1,0.1,0.2c0.6,1.5,1.1,2.3,1.7,2.3c0.4,0,0.6-0.3,0.8-0.9c0.3-1,0.4-1.9,0.5-2.7
			c0.3,0.2,0.8,0.3,1.3,0.6c0.2,0.1,0.3,0.1,0.4,0.1c-0.2,1.4-0.3,2.4-0.6,3C139,18.3,138.2,18.9,137.1,18.9L137.1,18.9z M137.1,3.8
			c-0.8-0.7-1.6-1.4-2.4-2.1l1.4-1c0.9,0.6,1.7,1.3,2.5,2L137.1,3.8L137.1,3.8z"/>
		<path class="st0" d="M143.2,12.7l-0.2-1.5c0.5,0,1.2,0,2.1-0.1c0.9,0,1.6,0,2.1-0.1v-0.3l2-1.1h-5.5V8.3h8v1.3l-2.3,1.4
			c0.9-0.1,1.9-0.2,2.9-0.2l-0.2,1.4l-3.1,0.2v0.8c0,1.2-0.6,1.8-1.9,1.8H146c-0.5,0.1-0.9,0.1-1.2,0.1c-0.1-0.5-0.2-0.9-0.3-1.4
			c0.6,0.1,1.1,0.1,1.7,0.1c0.7,0,1-0.3,1-0.9v-0.4C146,12.6,144.6,12.6,143.2,12.7L143.2,12.7z M143.2,3.2V1.7h3.9V0.3h1.8v1.4h3.8
			v1.5L143.2,3.2L143.2,3.2z M145.3,19.1c-0.6-0.2-1.3-0.4-1.9-0.5c0.1-0.2,0.2-0.3,0.3-0.5c0.6-1,1.1-1.8,1.3-2.5l1.9,0.3
			c0,0.1,0,0.1-0.1,0.2C146.2,17.3,145.7,18.4,145.3,19.1L145.3,19.1z M144,7.3V4.1h7.7v3.2H144z M145.7,5.2v1h4.2v-1H145.7z
			 M149.6,18.9l-1-3l1.9-0.2c0.3,0.8,0.7,1.7,1.1,2.9L149.6,18.9L149.6,18.9z M152.6,15.3c-0.5-0.4-1-0.8-1.6-1.2
			c1.5-1.5,2.4-3,2.7-4.4c-0.3-0.3-0.6-0.6-1.2-1c-0.3-0.3-0.5-0.4-0.6-0.6l0.9-1.2c0.5,0.3,0.9,0.6,1.2,0.9
			c0.1-0.3,0.1-0.9,0.2-1.7c0.1-0.4,0.1-0.7,0.1-0.9h-1.6V3.4h1.6v-3h1.8v3.1h3.3c-0.1,4.3,0,7.2,0.4,8.8c0.1,0.4,0.2,0.6,0.4,0.6
			c0.2,0,0.3-0.2,0.3-0.6c0.1-0.4,0.1-0.9,0.2-1.6c0.1-0.4,0.1-0.6,0.1-0.8c0.5,0.2,0.9,0.3,1.2,0.5c-0.1,1.1-0.2,2.1-0.3,2.7
			c-0.2,1.1-0.8,1.7-1.6,1.7c-1.1-0.1-1.8-0.7-1.9-2c-0.4-1.4-0.5-3.9-0.5-7.4h-1.6c0,1.5-0.1,2.8-0.4,3.9l1.9,1.5l-1.1,1.6
			l-1.3-1.2C154.8,12.4,154,13.8,152.6,15.3L152.6,15.3z M154.4,18.8c-0.1,0-0.1-0.1-0.1-0.2c-0.5-1.2-1-2.1-1.3-2.7l1.9-0.3
			c0.5,0.9,1,1.9,1.5,2.9L154.4,18.8L154.4,18.8z M159.9,19c-0.6-1.1-1.3-2.2-2-3.2l1.9-0.5c0.7,1,1.4,2,2,3.1L159.9,19z"/>
		<path class="st0" d="M169.8,11.5c-0.2-0.3-0.5-0.7-0.9-1.3c2-0.3,3.1-1,3.1-2.2h-3.7v11h-2V6.3h4.5c-0.1-0.2-0.3-0.5-0.6-0.9
			c-0.3-0.5-0.6-0.8-0.7-0.9l1.9-0.5c0.5,0.6,1,1.3,1.6,2.3l-0.6,0.1h3.4c0.4-0.4,0.8-1.1,1.4-2c0.1-0.2,0.2-0.3,0.2-0.4h-12.3V2.3
			h8.4V0.4h2.2v1.9h8.1v1.6h-6.2l1.9,0.5c-0.1,0.2-0.3,0.5-0.6,0.9c-0.3,0.5-0.6,0.8-0.7,1h4.5v9.9c0.1,1.7-0.8,2.5-2.5,2.4
			c-0.6,0-1.5,0.1-2.7,0.1c-0.1-0.2-0.1-0.4-0.2-0.6c-0.1-0.5-0.2-0.9-0.3-1.2c0.3,0,0.7,0,1.2,0.1h1.1c0.9,0,1.4-0.4,1.2-1.1V8
			h-4.2v0.9c-0.1,0.5,0.2,0.7,0.7,0.6h0.7c0.4,0.1,0.6-0.3,0.7-1c0.5,0.3,1,0.4,1.3,0.5c-0.2,1.2-0.8,1.9-2,1.8h-1.3
			c-1.1,0.1-1.6-0.4-1.6-1.6V8h-1.6C173.4,9.7,172.2,10.9,169.8,11.5L169.8,11.5z M170.7,16.6v-5.2h7.6v5.2H170.7z M176.6,15.2v-2.1
			h-4.1v2.1H176.6z"/>
		<path class="st0" d="M187.9,19.1v-18h17.3v18h-1.9v-0.9h-13.4v0.9H187.9L187.9,19.1z M202.2,12.3c-1-0.5-1.9-1.1-2.7-1.9
			c0,0.2,0,0.6-0.1,1v0.7c-0.1,0.9-0.7,1.4-1.7,1.5h-1.9v-0.2c-0.1-0.3-0.2-0.6-0.3-0.9h1.7c0.5,0,0.7-0.2,0.7-0.6
			c0.1-0.1,0.1-0.3,0.1-0.5h-3.8v1.9c-0.1,0.7,0.3,1.1,1.1,1h3.5c0.8,0,1.2-0.3,1.3-0.8c0.2-0.4,0.3-0.8,0.3-1.3
			c0.5,0.2,1,0.4,1.5,0.6c-0.1,0.1-0.1,0.3-0.1,0.5c-0.1,0.5-0.2,0.8-0.3,1c-0.3,0.9-1.1,1.4-2.4,1.4h-4.4c-1.5,0.1-2.2-0.6-2.2-2
			v-2.3c-0.1,0.1-0.3,0.1-0.5,0.2c-0.2,0.2-0.7,0.4-1.5,0.9c-0.2-0.4-0.4-0.9-0.7-1.3v5.5h13.4V2.7h-13.4v8.4
			c1.5-0.6,2.7-1.3,3.5-2.2h-2.9V7.6h3.9c0-0.1,0-0.1,0.1-0.2c0.2-0.4,0.3-0.7,0.4-0.9H191V5.2h1.8c-0.4-0.5-0.8-1-1.2-1.5l1.5-0.4
			c0.5,0.5,0.9,1.1,1.2,1.6l-0.5,0.2h1.4c0.2-0.7,0.3-1.4,0.3-2.1h1.6c-0.1,0.8-0.2,1.5-0.4,2.1h2.3L198.5,5
			c0.3-0.4,0.7-0.9,1.2-1.7l1.5,0.4c-0.3,0.5-0.7,1-1.2,1.6h1.9v1.2h-3.2c0.2,0.4,0.3,0.8,0.6,1.1h3.2v1.3h-2.3
			c0.8,0.9,1.7,1.5,2.7,1.7c-0.1,0.2-0.2,0.4-0.4,0.8C202.5,11.8,202.3,12,202.2,12.3L202.2,12.3z M195.4,8.9
			c-0.4,0.5-0.8,0.9-1.2,1.4h5.3c-0.5-0.5-0.8-1-1-1.4H195.4L195.4,8.9z M196.4,6.5c-0.1,0.4-0.2,0.8-0.4,1.1h1.6
			c-0.2-0.3-0.3-0.7-0.5-1.1H196.4z"/>
		<path class="st0" d="M209.3,5.9V4.1h1.9V0.4h1.7v3.7h1.4v1.8h-1.4v1.9c0.6,0.6,1.2,1.2,1.9,1.8l-0.8,1.7c-0.3-0.5-0.7-0.9-1.1-1.4
			v9.1h-1.7v-9c-0.4,1.6-1,3.1-1.8,4.4c-0.1-0.4-0.2-1.1-0.4-2c-0.1-0.3-0.1-0.4-0.1-0.6c0.8-1.5,1.6-3.5,2.2-6H209.3L209.3,5.9z
			 M225.3,19c-1.2,0-2.2-0.6-2.9-2c-0.9,0.6-2,1.2-3.3,1.8c-0.3-0.5-0.6-1-1-1.5c1.7-0.6,2.8-1.2,3.5-1.6c-0.4-1-0.7-2.1-0.9-3.1
			h-3.1c0,0.2,0,0.3-0.1,0.6v0.4c0.3,0.2,0.6,0.4,1.2,0.6c0.7,0.4,1.3,0.7,1.6,0.9l-0.9,1.5c-0.3-0.2-0.6-0.4-1.2-0.8
			c-0.5-0.3-0.8-0.6-1-0.7c-0.3,1.4-1.2,2.7-2.7,4.1c-0.4-0.5-0.8-1-1.2-1.4c1.6-1.1,2.5-2.9,2.6-5.2h-1.4V11h5.9
			c-0.1-0.3-0.1-0.6-0.1-0.9c-0.4-2.4-0.6-5.6-0.6-9.6h1.8c0,4.2,0.2,7.3,0.5,9.4c0,0.1,0,0.3,0.1,0.6V11h2
			c-0.1-0.1-0.2-0.3-0.3-0.5c-0.3-0.4-0.4-0.6-0.6-0.9l1.5-0.4c0.2,0.3,0.4,0.6,0.7,1c0.2,0.3,0.4,0.6,0.5,0.7h1.6v1.6h-5.2
			c0.1,0.2,0.1,0.4,0.2,0.7c0.1,0.4,0.3,0.9,0.5,1.5c0.1-0.1,0.3-0.3,0.6-0.5c0.7-0.6,1.2-1.1,1.6-1.5l1.2,1
			c-0.9,0.9-1.8,1.7-2.7,2.3v0.1c0.5,0.6,1,0.9,1.5,0.9c0.4,0,0.6-0.2,0.8-0.6c0.3-0.8,0.4-1.4,0.5-1.8c0.1,0.1,0.1,0.1,0.2,0.2
			c0.6,0.3,1,0.6,1.2,0.7c-0.2,0.7-0.4,1.4-0.8,2.1C226.8,18.6,226.2,19,225.3,19L225.3,19z M215,9.4l-0.5-1.3h0.9
			c0.3-0.4,0.6-1,1.1-1.7c0.2-0.3,0.3-0.4,0.4-0.6c-0.3-0.3-0.7-0.7-1.2-1.3c-0.6-0.6-1-1-1.2-1.2l0.9-0.9l0.3,0.4
			c0.5-0.7,1-1.5,1.3-2.3l1.5,0.5c-0.6,0.9-1.2,1.8-1.9,2.7c0.4,0.3,0.7,0.7,0.9,1c0.5-0.8,0.9-1.5,1.2-2l1.2,0.7
			c-0.3,0.5-0.9,1.4-1.8,2.7c-0.6,0.9-1.1,1.5-1.3,1.9l1.6-0.1c-0.2-0.4-0.3-0.8-0.6-1.2l1-0.5c0.2,0.4,0.5,1,0.9,1.8
			c0.2,0.5,0.4,0.9,0.5,1.1l-1.1,0.6l-0.3-0.7c-0.5,0.1-1.2,0.1-2.1,0.2C215.9,9.3,215.3,9.4,215,9.4L215,9.4z M222.6,9.1l-0.3-1.2
			h0.3c0.2-0.1,0.4-0.1,0.5-0.1c0.2-0.4,0.6-0.9,1-1.6c0.2-0.3,0.3-0.4,0.3-0.6c-1-1.1-1.9-2-2.5-2.7l0.9-0.9l0.5,0.5
			c0.3-0.4,0.7-1.1,1.2-2l0.2-0.5l1.3,0.5c-0.1,0.2-0.3,0.5-0.6,0.9c-0.5,0.9-1,1.5-1.3,1.9l1,1l1.2-2.1l1.2,0.6
			c-1.1,1.8-2.1,3.4-3.1,4.6l1.5-0.1l-0.5-1.1l1.1-0.5c0.2,0.4,0.5,1.1,0.9,2.1c0.2,0.4,0.3,0.6,0.4,0.9l-1.1,0.5l-0.2-0.7
			C224.6,8.9,223.3,9,222.6,9.1L222.6,9.1z"/>
		<path class="st0" d="M231.2,6.6l-0.5-1.8h1.2c1.4-2,2.4-3.6,3.1-4.8l1.9,0.8c-0.8,1.2-1.8,2.5-2.9,3.9c1.4-0.1,2.7-0.2,3.9-0.2
			l-1.2-1.6l1.4-0.9c1.4,1.5,2.5,2.9,3.4,4.1L240,7.2c-0.1-0.2-0.2-0.4-0.4-0.6c-0.2-0.3-0.4-0.4-0.5-0.6c-1,0.1-2.6,0.2-4.6,0.3
			C233,6.4,231.9,6.5,231.2,6.6L231.2,6.6z M232,18.9V7.8h8.1v8.9c0.1,1.3-0.6,2-1.9,2h-0.9c-0.6,0-1,0.1-1.2,0.1
			c-0.1-0.3-0.1-0.7-0.2-1.2c-0.1-0.3-0.1-0.4-0.1-0.5h1.7c0.6,0,0.9-0.2,0.9-0.6v-1.2h-4.4v3.6L232,18.9L232,18.9z M233.8,9.4v1.5
			h4.4V9.4C238.3,9.4,233.8,9.4,233.8,9.4z M233.8,12.3v1.5h4.4v-1.5H233.8z M244.3,9.1c-1.7,0.1-2.6-0.8-2.5-2.5V0.5h1.9v2.9
			c1.4-0.5,3-1.2,4.7-2.2l1.1,1.5c-1.9,0.9-3.8,1.8-5.8,2.6v1c-0.1,0.8,0.3,1.2,1.2,1.1h1.6c0.8,0,1.2-0.3,1.3-0.9
			c0.1-0.5,0.1-0.6,0.1-0.5c0.1-0.6,0.1-1.1,0.2-1.5c0.3,0.1,0.7,0.2,1.2,0.3c0.3,0.1,0.5,0.2,0.6,0.2c-0.1,0.6-0.2,1.2-0.3,2
			c0-0.1,0,0-0.1,0.2c-0.2,1.2-1.1,1.8-2.6,1.8L244.3,9.1L244.3,9.1z M244.3,18.7c-1.7,0-2.5-0.8-2.5-2.4V10h1.9v2.5
			c1.5-0.5,3.1-1.3,4.8-2.3l1.1,1.6c-2.3,1.1-4.3,1.9-5.9,2.6v1.4c-0.1,0.7,0.3,1.1,1.2,1h1.6c0.8,0,1.2-0.2,1.2-0.8
			c0.1-0.6,0.2-1.3,0.2-2.1c0.2,0.1,0.5,0.2,0.9,0.3c0.4,0.2,0.7,0.3,0.9,0.3c-0.1,0.6-0.1,1.2-0.2,2l-0.1,0.2
			c-0.3,1.2-1.2,1.9-2.6,1.9L244.3,18.7L244.3,18.7z"/>
		<path class="st0" d="M264.2,6.1v2.6c0,2-0.8,3.5-2.6,4.4l-0.7-0.9c1.3-0.8,2-1.9,2-3.2h-1.6v-3H264.2L264.2,6.1z"/>
		<path class="st0" d="M293.2,7.3c-0.8-0.2-1.5-0.5-2.2-0.8v6.6l1.2,1.2c-1,0.6-2,1.1-3,1.6c1.2,0.5,2.5,0.9,3.9,1.3l-0.9,1.7
			c-2.9-1.3-6.3-2.6-10.1-3.9l0.9-1.3c1.4,0.5,2.8,0.9,4.1,1.4c1.1-0.5,2.1-1,3-1.6h-10.2v3.2L284,16l0.2,1.6
			c-1.8,0.4-4.2,0.9-7.1,1.5l-0.5-1.6l1.3-0.3V6.8c-0.3,0.2-0.6,0.3-1.2,0.6c-0.4,0.2-0.6,0.3-0.8,0.3c-0.1-0.3-0.4-0.8-0.9-1.6
			c0-0.1-0.1-0.1-0.1-0.2c4.5-1.6,7.5-3.5,9.1-5.7l2.5,0.2l-0.5,0.7c1.9,2,4.7,3.5,8.2,4.4C293.7,6.2,293.4,6.8,293.2,7.3L293.2,7.3
			z M282.2,4.4c-1,0.6-2.1,1.2-3.3,1.9h11.6c-1.3-0.6-2.5-1.3-3.4-1.9v0.9h-4.8V4.4L282.2,4.4z M279.8,7.8v1.4h9.2V7.8H279.8z
			 M279.8,10.6v1.5h9.2v-1.5H279.8z M284.7,2.3c-0.6,0.6-1.3,1.2-2,1.6h3.8C285.9,3.5,285.3,3,284.7,2.3z"/>
		<path class="st0" d="M297.9,5.5v-2h8v-3h2v3h7.9v2h-8.1c0.5,1.9,1.1,3.5,1.8,4.8c2.1-1.3,3.6-2.3,4.5-3.1l1.3,1.7
			c-1.6,1-3.1,2-4.8,3c1.2,1.5,3.1,3,5.6,4.4c-0.6,0.6-1.1,1.1-1.6,1.7c-4.4-2.4-7.2-5.9-8.4-10.3c-0.7,1-1.5,1.9-2.3,2.8l0.3-0.1
			v5.9l3.8-1.6c0.1,0.8,0.2,1.5,0.2,2.1c-1.6,0.5-3.8,1.3-6.6,2.6l-0.8-1.9l1.3-0.5v-4.8c-1.2,1-2.6,1.9-4.1,2.9
			c0-0.2-0.2-0.4-0.3-0.9c-0.3-0.6-0.4-1.1-0.5-1.3c3.5-2,6.2-4.4,8.2-7.3C305.2,5.5,297.9,5.5,297.9,5.5z"/>
		<path class="st0" d="M319.6,11.9c-0.2-0.9-0.4-1.8-0.7-2.7c2-2.9,3.4-5.8,4.4-8.8l2.2,0.5c-0.6,1.5-1.2,2.9-1.8,4.2v14h-2V8.9
			C321,9.8,320.4,10.8,319.6,11.9L319.6,11.9z M325.4,5.8v-2h5.4c0-0.2-0.2-0.5-0.3-0.9c-0.3-1-0.5-1.7-0.7-2.2l2.2-0.3
			c0,0.2,0.2,0.5,0.3,0.9c0.4,1,0.6,1.7,0.7,2.1l-2,0.4h6.5v2h-4.9v4h4.5v1.9h-4.5v4.5h5.4V18h-13v-1.8h5.5v-4.5H326V9.8h4.5v-4
			L325.4,5.8L325.4,5.8z"/>
		<path class="st0" d="M341.7,13.6c-0.1-0.4-0.3-0.9-0.5-1.6c0-0.2-0.1-0.4-0.2-0.5c1.8-1.5,3.5-3.5,5.2-6l1.7,1.2
			c-0.4,0.6-1,1.5-1.8,2.5c0,0.1-0.1,0.1-0.2,0.2v9.7h-2.1v-7.4C343.2,12.3,342.5,13,341.7,13.6L341.7,13.6z M342.2,7.1
			c-0.4-0.9-0.7-1.6-0.9-2c1.9-1.5,3.4-3,4.7-4.8l1.8,1.2C345.9,3.8,344.1,5.6,342.2,7.1z M348.3,9.4v-2H360v2h-3.2v6.3
			c0,1.9-0.9,2.9-2.9,2.9h-3.2c-0.2-0.6-0.3-1.3-0.5-2c0.6,0,1.5,0.1,2.8,0.1c1.1,0,1.6-0.5,1.6-1.4V9.4L348.3,9.4L348.3,9.4z
			 M349.3,3.6V1.6h9.8v2C359.1,3.6,349.3,3.6,349.3,3.6z"/>
		<path class="st0" d="M363,10.6V8.2h19v2.3H363z"/>
		<path class="st0" d="M386.9,19V9c-0.5,0.9-0.9,1.8-1.4,2.6c-0.2-0.9-0.3-1.8-0.5-2.7c1.3-2.3,2.3-5.2,3.1-8.5l2,0.3
			c-0.4,1.3-0.8,2.6-1.2,4V19L386.9,19L386.9,19z M390.1,15.1V3.1h1.7v12L390.1,15.1L390.1,15.1z M392.7,12.9v-1.8h4.4V9.4h1.9v1.6
			h4.8v1.8h-3.8c1.2,1.3,2.7,2.6,4.5,3.8c-0.4,0.3-0.8,0.8-1.1,1.3c-1.9-1.2-3.3-2.5-4.3-4v5.1h-1.9v-4.8c-1.2,1.4-2.8,2.7-4.9,3.9
			c-0.4-0.6-0.8-1-1.2-1.3c2.1-1.1,3.9-2.4,5.3-3.9L392.7,12.9L392.7,12.9z M393.4,6.5c-0.3-0.5-0.7-1-1.2-1.5
			c1.6-1.3,2.8-2.9,3.6-4.7l2,0.2c-0.2,0.5-0.5,1-0.8,1.4h6.6v1.6h-1.1c-0.8,1.2-1.8,2.3-2.8,3.1c1,0.6,2.5,1,4.5,1.3l-0.8,1.7
			c-2.4-0.6-4.1-1.2-5.2-1.9c-1.4,0.8-3.1,1.5-5.3,2.1c0-0.1-0.1-0.3-0.2-0.6c-0.3-0.5-0.4-0.8-0.5-1c1.8-0.4,3.3-0.9,4.5-1.6
			c-0.6-0.6-1.2-1.2-1.7-1.8C394.4,5.4,393.9,5.9,393.4,6.5L393.4,6.5z M398.1,5.8c0.9-0.6,1.7-1.3,2.3-2.2h-4.4v0.1
			C396.6,4.5,397.3,5.2,398.1,5.8L398.1,5.8z"/>
		<path class="st0" d="M409.1,19v-7.5c-0.2,0.2-0.4,0.5-0.8,0.9c-0.3,0.3-0.5,0.6-0.7,0.8c0-0.2-0.1-0.4-0.2-0.7
			c-0.1-0.3-0.2-0.8-0.4-1.4c1.4-1.5,2.8-3.3,4.2-5.6l1.5,1.2c-0.2,0.2-0.4,0.5-0.6,0.9c-0.2,0.3-0.6,0.9-1.1,1.6V19H409.1L409.1,19
			z M408,6.9c-0.3-0.7-0.5-1.4-0.9-1.9c1.6-1.3,2.9-2.8,3.9-4.6l1.7,1.1C411.4,3.5,409.8,5.3,408,6.9L408,6.9z M412.7,13v-1.8h2.6
			V9.4h1.8v1.8h2.6V13h-2.6v2.5c0.5-0.1,1.3-0.2,2.4-0.3c0.3-0.1,0.4-0.1,0.5-0.1v1.8c-0.6,0-1.4,0.2-2.6,0.3
			c-2.2,0.2-3.9,0.4-5.2,0.6l-0.2-1.9c1.1-0.1,2.2-0.2,3.2-0.2V13H412.7z M413,4.5V2.7h2.3V0.4h1.8v2.3h2.3v1.8h-2.3v2.3h2.7v1.8
			h-7.2V6.9h2.7V4.5L413,4.5L413,4.5z M420.3,8.7V6.9h5.7v1.8h-1.7v7.9c0,1.4-0.6,2.1-2.1,2.1c-0.4,0-1.1,0.1-2.1,0.1
			c0-0.1,0-0.3-0.1-0.5c-0.1-0.6-0.2-1.1-0.2-1.3c0.5,0,1.1,0.1,1.7,0.1s0.9-0.3,0.9-0.9V8.7H420.3L420.3,8.7z M420.5,3.3V1.6h5v1.8
			L420.5,3.3L420.5,3.3z"/>
		<path class="st0" d="M429.2,18v-2h7.2V0.6h2.4v5.6h7.5v2.1h-7.5V16h9v2L429.2,18L429.2,18z"/>
		<path class="st0" d="M451.4,6v-2h1.8V0.5h2v3.6h1.6v2h-1.6v3.5l1.5-0.4c0,0.7,0,1.4,0.1,2l-1.6,0.3v5.2c0,1.4-0.6,2.1-2,2.2h-1.6
			v-0.2c0-0.5-0.2-1.1-0.3-1.8h1.2c0.6,0,0.9-0.2,0.9-0.7V12c-0.6,0.2-1.3,0.3-2,0.6l-0.2-2.2l2.2-0.5V6L451.4,6L451.4,6z M457,3.8
			V2.2h5.3V0.4h2v1.8h5.5v1.6H457z M457.2,19v-9h12.1v6.9c0.1,1.4-0.6,2-2,2c-0.7,0-1.4,0.1-2,0.1c0-0.5-0.2-1.1-0.3-1.6h1.6
			c0.6,0,0.9-0.2,0.9-0.6v-5.2h-8.4V19C459.1,19,457.2,19,457.2,19z M458.4,8.9v-4h9.6v4H458.4z M460.3,6.2v1.3h5.9V6.2H460.3z
			 M460.5,16.8v-4.1h5.5v4.1H460.5z M461.9,14.1v1.6h2.5v-1.6H461.9z"/>
		<path class="st0" d="M473.9,8.8V6.9h17.3v1.9h-7.3v2.7h6.5v1.9h-6.5v3.3c3.3,0,6,0,8-0.1c-0.2,0.6-0.4,1.2-0.6,2
			c-2.8,0-5.6,0-8.5-0.2c-2.7,0-4.6-1-5.8-2.9c-0.6,1.1-1.5,2.3-2.7,3.5c-0.2-0.2-0.4-0.4-0.7-0.8c-0.3-0.4-0.5-0.6-0.7-0.8
			c2-1.8,3.1-4.2,3.4-7.4l2,0.2c-0.2,1.1-0.4,2.1-0.6,3c1,1.9,2.3,3,4,3.3V8.8C481.8,8.8,473.9,8.8,473.9,8.8z M489.1,6.1V4.4H476
			v1.7h-2V2.5h7.7V0.4h2.2v2.1h7.4v3.6L489.1,6.1L489.1,6.1z"/>
		<path class="st0" d="M505.9,1.9l-0.5,11.4h-2L503,1.9L505.9,1.9L505.9,1.9z M505.7,17.8h-2.5v-2.4h2.5V17.8z"/>
		<path class="st0" d="M2.2,51.5v-9.9c-0.1,0.1-0.2,0.3-0.4,0.5c-0.5,0.9-1,1.6-1.3,2c-0.2-0.8-0.3-1.7-0.5-2.7
			c1.5-2.4,2.7-5.3,3.7-8.7l2,0.5c-0.4,1.5-0.9,2.9-1.6,4.3v13.8L2.2,51.5L2.2,51.5z M5.6,38.3v-1.6h13.3v1.6H5.6L5.6,38.3z M6.5,41
			v-1.5h11.4V41H6.5L6.5,41z M6.5,43.7v-1.6h11.4v1.6H6.5L6.5,43.7z M6.6,51.5v-6.6h11.2v6.6h-1.9v-1H8.5v1H6.6L6.6,51.5z M7.4,35.5
			v-1.6h9.7v1.6H7.4L7.4,35.5z M8.5,46.5V49h7.3v-2.5H8.5z"/>
		<path class="st0" d="M22.5,36.2v-1.4h5L26,33.2l2-0.4c0.7,0.5,1.4,1.2,2,1.9l-0.2,0.1h3.4l-0.2-0.1c0.8-0.7,1.5-1.3,2.1-1.9l2,0.4
			c-0.5,0.5-1,1-1.6,1.6h5.1v1.4h-8v1.1h7v1.2h-7v1.1h8.4v1.5H22.2v-1.5h8.4v-1.1h-6.9v-1.2h6.9v-1.1C30.5,36.2,22.6,36.2,22.5,36.2
			z M38.2,51.4c-1.2,0-2.2-0.4-3-1.2c-0.2-0.2-0.3-0.4-0.5-0.5c-1.2,0.6-2.7,1.2-4.2,1.7c0-0.2-0.3-0.6-0.6-1.2
			c-0.1-0.2-0.2-0.3-0.2-0.4c0.1,0,0.3-0.1,0.5-0.2c1.7-0.4,3-0.8,3.8-1.2c-0.4-0.8-0.7-1.7-0.9-2.7h-4.5v1.2l3.2-0.2V48l-3.2,0.3v1
			c0,1.2-0.7,1.9-2.1,2h-2.4c0-0.3-0.2-0.6-0.3-1.1c0-0.2-0.1-0.3-0.1-0.4c0.5,0,1.1,0.1,1.7,0.1c0.8,0,1.2-0.3,1.2-0.9v-0.5l-4,0.3
			l-0.3-1.6l4.3-0.2v-1.3h-4.3v-1.5h4.3v-1l-3.1,0.1c0-0.2,0-0.4-0.2-0.6c0-0.3-0.1-0.4-0.2-0.5c2.9,0,5.5-0.1,7.8-0.3l0.2,1.2h-0.2
			c-0.8,0.1-1.6,0.2-2.4,0.2v1.1h4.3c-0.1-0.8-0.2-1.7-0.2-2.7h1.9c0,0.9,0.1,1.8,0.2,2.7h3.3c0,0-0.1-0.1-0.2-0.2
			c-0.5-0.4-1.1-0.9-1.9-1.6l1.2-1c0.2,0.2,0.5,0.4,0.9,0.7c0.6,0.5,1,0.8,1.2,1l-1.2,1.1h3v1.5H35c0.2,0.7,0.3,1.3,0.5,1.8
			c0.9-0.5,1.7-1.1,2.5-1.8l1.2,1.1c-0.9,0.8-1.9,1.5-2.8,2.1c0.1,0,0.2,0.1,0.3,0.2c0.2,0.2,0.3,0.2,0.3,0.2
			c0.3,0.3,0.7,0.4,1.1,0.4c0.5,0,0.8-0.2,0.9-0.5c0.1-0.3,0.3-0.9,0.5-1.9c0.2,0.1,0.5,0.2,0.9,0.4c0.3,0.2,0.5,0.3,0.7,0.3
			c-0.2,0.6-0.3,1.2-0.5,1.9C40.1,50.8,39.3,51.3,38.2,51.4L38.2,51.4z"/>
		<path class="st0" d="M48.8,44c-0.2-0.3-0.5-0.7-0.9-1.3c2-0.3,3-1,3-2.2h-3.7v11h-2V38.8h4.5c-0.1-0.2-0.3-0.5-0.6-0.9
			c-0.3-0.5-0.5-0.8-0.7-0.9l2-0.5c0.5,0.6,1,1.3,1.6,2.3l-0.5,0.1h3.4c0.4-0.4,0.8-1.1,1.4-2c0.1-0.2,0.2-0.3,0.2-0.4H44.2v-1.6
			h8.4v-1.9h2.2v1.9h8.1v1.6h-6.2l1.9,0.5c-0.1,0.2-0.3,0.5-0.6,0.9c-0.3,0.5-0.5,0.8-0.7,1h4.5v9.9c0,1.7-0.8,2.5-2.5,2.4
			c-0.6,0-1.5,0.1-2.7,0.1c0-0.2-0.1-0.4-0.2-0.6c-0.1-0.5-0.2-0.9-0.3-1.2c0.3,0,0.7,0,1.2,0.1h1.1c0.9,0,1.3-0.4,1.2-1.1v-7.9
			h-4.2v0.9c0,0.5,0.2,0.7,0.7,0.6h0.7c0.4,0,0.7-0.3,0.7-1c0.5,0.3,1,0.4,1.3,0.5c-0.2,1.2-0.8,1.8-2,1.8h-1.3
			c-1.1,0.1-1.6-0.4-1.6-1.6v-1.1h-1.6C52.4,42.2,51.2,43.4,48.8,44L48.8,44z M49.7,49.1V44h7.6v5.2C57.3,49.1,49.7,49.1,49.7,49.1z
			 M55.6,47.7v-2.1h-4.1v2.1H55.6z"/>
		<path class="st0" d="M66.9,51.5v-18h17.3v18h-1.9v-0.9H68.8v0.9L66.9,51.5L66.9,51.5z M81.2,44.8c-1-0.5-1.9-1.1-2.7-1.9
			c0,0.2,0,0.5-0.1,1v0.7c-0.1,0.9-0.7,1.4-1.7,1.5h-1.9v-0.2c-0.1-0.3-0.2-0.5-0.3-0.9h1.7c0.5,0,0.7-0.2,0.7-0.5
			c0.1-0.1,0.1-0.3,0.1-0.5h-3.8v2c-0.1,0.7,0.3,1.1,1.1,1h3.5c0.8,0,1.2-0.3,1.3-0.8c0.2-0.4,0.3-0.8,0.3-1.3
			c0.5,0.2,1,0.4,1.5,0.5c-0.1,0.1-0.1,0.3-0.1,0.5c-0.1,0.5-0.2,0.8-0.3,1c-0.3,0.9-1.1,1.4-2.4,1.4h-4.4c-1.5,0-2.2-0.6-2.2-2V44
			c-0.1,0-0.3,0.1-0.5,0.2c-0.2,0.2-0.7,0.4-1.5,0.9c-0.2-0.4-0.4-0.9-0.7-1.3v5.5h13.4V35.1H68.8v8.4c1.5-0.6,2.7-1.3,3.5-2.2h-2.9
			V40h3.9c0,0,0-0.1,0.1-0.2c0.2-0.4,0.3-0.7,0.4-0.9H70v-1.2h1.8c-0.4-0.5-0.8-1-1.2-1.5l1.5-0.4c0.5,0.5,0.9,1.1,1.2,1.6l-0.5,0.2
			h1.4c0.2-0.7,0.3-1.4,0.3-2.1h1.6c-0.1,0.8-0.2,1.5-0.4,2.1h2.3l-0.6-0.2c0.3-0.4,0.7-0.9,1.2-1.7l1.5,0.4c-0.3,0.5-0.7,1-1.2,1.6
			H81V39h-3.2c0.2,0.4,0.3,0.8,0.6,1.1h3.2v1.3h-2.3c0.8,0.9,1.7,1.5,2.7,1.7c-0.1,0.2-0.2,0.4-0.4,0.8
			C81.5,44.2,81.3,44.5,81.2,44.8L81.2,44.8z M74.4,41.4c-0.4,0.5-0.8,0.9-1.2,1.4h5.3c-0.5-0.5-0.8-1-1-1.4H74.4L74.4,41.4z
			 M75.4,39c-0.1,0.4-0.2,0.8-0.4,1.1h1.6c-0.2-0.3-0.3-0.7-0.5-1.1H75.4z"/>
		<path class="st0" d="M88,43v-2.3h19V43H88z"/>
		<path class="st0" d="M110.4,50.2l-0.4-2c1.2-0.2,2.6-0.3,4-0.5c0.2-0.9,0.5-2.1,0.9-3.6c0.5-2.1,0.8-3.7,1-4.6l1.9,0.4
			c-0.8,3-1.5,5.5-2.1,7.5L118,47c-0.1,0.7-0.1,1.4,0,2C116.1,49.2,113.6,49.6,110.4,50.2L110.4,50.2z M110.2,38.5v-1.9h3v-3.7h2
			v3.7h3.1v1.9C118.3,38.5,110.2,38.5,110.2,38.5z M112,46.3c-0.1-0.3-0.2-0.8-0.3-1.4c-0.4-2.2-0.8-3.9-1-5.1l1.7-0.3
			c0.1,0.2,0.1,0.5,0.2,1c0.5,2.2,0.9,4,1.2,5.3L112,46.3L112,46.3z M118.8,51.5V42h3.4v-9.1h2v3.5h4.8v1.9h-4.8V42h4.1v9.5h-2v-1.2
			h-5.5v1.2L118.8,51.5L118.8,51.5z M120.7,43.9v4.7h5.5v-4.7H120.7z"/>
		<path class="st0" d="M133.6,49.4c-0.3-0.1-0.9-0.3-1.6-0.5c0.3-0.6,0.8-1.8,1.5-3.6c0.1-0.2,0.1-0.3,0.2-0.4l1.7,0.5
			C134.6,47.4,134.1,48.7,133.6,49.4z M132.3,36.8v-1.7h3.9v-2.1h1.9v2.1h3.8v1.7H132.3L132.3,36.8z M133.2,44v-5.7h7.9V44h-2.9v5
			c0.1,1.5-0.6,2.3-2.1,2.3c-0.4,0-1,0.1-1.8,0.1c-0.1-0.6-0.2-1.2-0.4-1.8c0.2,0,0.4,0,0.8,0.1h0.7c0.6,0,0.9-0.3,0.9-0.9V44
			C136.3,44,133.2,44,133.2,44z M135.1,39.9v2.4h4.1v-2.4H135.1z M140.1,48.1c-0.2-0.5-0.6-1.5-1.3-2.8l1.6-0.5
			c0.5,0.9,1,1.8,1.3,2.7L140.1,48.1L140.1,48.1z M141.8,39.7v-1.8h1.9v-2.3c0.1-1.1,0.1-2.1,0.1-2.7h1.9c0,1.1-0.1,2.8-0.2,5.1h5.1
			v1.8h-5.2c-0.1,4.9-1.4,8.9-4,11.9c-0.3-0.2-0.8-0.6-1.6-1.2c2.5-2.7,3.8-6.2,3.8-10.6L141.8,39.7L141.8,39.7z M147.6,51.1
			c-1.4,0-2-0.7-2-2v-8.2h1.9v7.7c0,0.5,0.2,0.8,0.7,0.8h0.3c0.5,0,0.8-0.3,0.9-0.9c0.1-1,0.2-2,0.2-3c0.8,0.3,1.3,0.4,1.6,0.5
			c-0.1,1.3-0.2,2.4-0.3,3.3c-0.2,1.3-1,2-2.3,2H147.6z M148.7,37.2c-0.7-0.8-1.5-1.6-2.3-2.3l1.3-1c0.9,0.7,1.7,1.5,2.4,2.3
			L148.7,37.2z"/>
		<path class="st0" d="M154.6,45.6v-1.9h4v-2h2v2h3.9v1.9h-3.9v2.8l4.4-0.4c-0.1,0.6-0.1,1.2-0.1,1.8c-4.3,0.4-7.8,0.7-10.5,1.1
			l-0.3-2c0.4,0,1.1,0,2-0.2c1,0,1.9-0.1,2.4-0.2v-3L154.6,45.6L154.6,45.6z M154.3,35.7v-1.9h10.6v1.9h-5.1
			c-0.9,1.6-1.7,2.8-2.3,3.8l4.2-0.4l-1.1-1.6l1.6-0.9c0.4,0.6,1,1.5,1.8,2.7c0.6,0.8,1,1.4,1.2,1.8l-1.6,1l-0.7-1.2
			c-0.3,0-0.7,0.1-1.3,0.2c-3.3,0.3-5.5,0.5-6.7,0.6l-0.4-2.1h0.9c0.4-0.6,1.1-1.8,2.1-3.4c0.1-0.2,0.2-0.3,0.2-0.4H154.3
			L154.3,35.7z M165.9,46.8V35.1h1.9v11.7H165.9z M166.7,51.3c-0.1-0.8-0.2-1.5-0.4-2h2.6c0.8,0,1.2-0.4,1.2-1.2V33h2.1v15.7
			c0.1,1.7-0.7,2.5-2.5,2.6h-1.4C167.5,51.3,167,51.3,166.7,51.3z"/>
		<path class="st0" d="M187.2,38.6v2.6c0.1,2-0.8,3.5-2.6,4.5l-0.7-0.9c1.3-0.8,1.9-1.8,1.9-3.2h-1.6v-3H187.2z"/>
		<path class="st0" d="M198.3,36.3v-1.6h3.1v-1.8h1.9v1.8h3v1.6h-3v1.5h2.7v7.8h-2.7v1.5h3.2v1.7h-3.2v2.7h-1.9v-2.7h-3.2v-1.7h3.2
			v-1.5h-2.7v-7.8h2.7v-1.5H198.3z M199.9,39.4V41h1.6v-1.6H199.9z M199.9,42.3v1.7h1.6v-1.7H199.9z M204.6,39.4h-1.7V41h1.7V39.4z
			 M202.9,42.3v1.7h1.7v-1.7H202.9z M207,45.9V44h9.4v1.9h-3.8v3.2h4.4v1.7H206v-1.7h4.6v-3.2H207z M208.6,43.6
			c-0.3-0.6-1-1.6-2-3.2c-0.2-0.2-0.3-0.4-0.3-0.5c0.8-1,1.5-2.2,2.3-3.6l1.5,0.6c-0.8,1.4-1.4,2.3-1.9,3c0.3,0.4,0.8,1.2,1.6,2.2
			c0.2,0.3,0.4,0.5,0.5,0.7L208.6,43.6L208.6,43.6z M206.8,35.8v-1.9h9.8v1.9H206.8z M211.9,43.5c-0.5-0.9-1.3-2.1-2.3-3.6
			c1-1.6,1.8-2.8,2.2-3.6l1.5,0.6c-0.8,1.3-1.4,2.3-1.9,3l0.1,0.1c0.9,1.2,1.6,2.1,2,2.8C213.5,42.8,211.9,43.5,211.9,43.5z
			 M215.3,43.5c-1-1.5-1.8-2.7-2.5-3.6c0.7-0.9,1.5-2.1,2.3-3.6l1.5,0.6c-0.4,0.6-0.9,1.4-1.6,2.3c-0.2,0.3-0.4,0.5-0.5,0.6
			c0.7,0.9,1.5,1.8,2.2,2.8L215.3,43.5L215.3,43.5z"/>
		<path class="st0" d="M220.6,45.4v-1.6h2.8v-1.3h1.9v1.3h2.5v1.6h-2.5V47l0.6-0.6c0.2,0.1,0.4,0.3,0.7,0.5c0.4,0.3,1,0.7,1.6,1.2
			l-1.2,1.2c-0.1-0.1-0.3-0.3-0.6-0.5c-0.6-0.4-1-0.8-1.2-1v3.7h-1.9v-3.9c-0.7,1.2-1.6,2.1-2.5,2.7c-0.1-0.3-0.4-0.9-0.8-1.6
			c1.2-0.8,2.3-1.9,3.1-3.3L220.6,45.4L220.6,45.4z M220.3,39.9v-1.1h1.3v-5.2h8v1.1h-6.1v0.9h5.9v0.8h-5.9v0.9h5.9V38h-5.9v0.9h6.5
			v1.1h-1.7c0.9,0.9,1.5,1.5,1.9,2l-1.3,0.8c-0.1,0-0.1-0.1-0.2-0.2c-0.2-0.2-0.3-0.4-0.5-0.5c-1,0-2.7,0.1-4.9,0.2
			c-1.1,0-1.9,0.1-2.4,0.1l-0.2-1.2h1.2c0.3-0.4,0.6-0.7,0.8-1.1H220.3z M224.5,39.9l-0.8,1c0.4,0,0.9,0,1.7-0.1
			c0.8,0,1.4,0,1.7-0.1l-0.8-0.7l0.2-0.2C226.7,39.9,224.5,39.9,224.5,39.9z M228.8,48c-0.1,0-0.2-0.2-0.3-0.3
			c-0.4-0.4-0.6-0.7-0.9-0.9c1.2-0.8,2.2-1.9,2.9-3.1l1.4,0.6C231.1,45.8,230,47,228.8,48L228.8,48z M228.5,51.1l-0.2-1.4l1.4-0.1
			c0.7-0.9,1.6-2.3,2.7-4.2l1.8,0.5c-0.2,0.3-0.6,0.8-1.1,1.6c-0.7,1-1.2,1.7-1.6,2c1.2,0,2.5,0,3.7-0.2L234,48l1.4-0.6
			c1.2,1.4,2.2,2.5,2.9,3.5l-1.5,0.8l-0.7-0.9C232.5,51,230,51.1,228.5,51.1L228.5,51.1z M231,36.4c-0.2-0.5-0.4-1-0.6-1.5
			c2.3-0.5,4.5-1.1,6.6-1.8l0.7,1.4C235,35.3,232.8,36,231,36.4L231,36.4z M231.2,42.2c-0.2-0.7-0.4-1.2-0.6-1.5
			c2.6-0.4,5-1.1,7.4-2l0.6,1.4C236,41,233.5,41.7,231.2,42.2L231.2,42.2z M231.3,39.2c-0.1-0.1-0.1-0.3-0.2-0.5
			c-0.2-0.4-0.3-0.7-0.4-0.9c2.1-0.4,4.4-1,6.6-1.9l0.6,1.3C235.9,38,233.7,38.7,231.3,39.2L231.3,39.2z M231.3,44v-1.3h4.4v0.1
			c0.8,1.5,2.1,2.7,3.7,3.7c-0.2,0.2-0.4,0.5-0.7,0.9c-0.2,0.3-0.3,0.4-0.4,0.5c-1.6-1-2.8-2.3-3.7-3.8L231.3,44L231.3,44z"/>
		<path class="st0" d="M242.1,48v-1.6h8.8v-0.5l4.1-1.2h-11.2V43h14.9v1.6l-5.1,1.7h7.3V48h-8V49c0,1.5-0.8,2.3-2.3,2.3h-3.4
			c-0.1-0.5-0.2-1-0.4-1.7h2.7c0.9,0,1.3-0.2,1.2-0.9v-0.9L242.1,48L242.1,48z M242.2,36.4v-1.7h8.4v-1.7h2v1.7h8.2v1.7H242.2
			L242.2,36.4z M244.6,41.9v-4.4h13.8v4.4H244.6L244.6,41.9z M246.6,39v1.3h9.7V39H246.6L246.6,39z"/>
		<path class="st0" d="M264.6,42.7V39h3.1c-0.5-0.8-0.9-1.6-1.4-2.4l2-0.4c0.5,0.8,1,1.6,1.5,2.5l-1,0.3h4.2
			c-0.3-0.6-0.7-1.5-1.2-2.7l2.1-0.4c0.4,0.8,0.8,1.7,1.1,2.7l-1.9,0.4h3.5c0.7-1.1,1.3-2.2,1.8-3.2l2.1,0.5
			c-0.5,0.8-1.1,1.7-1.7,2.7h3.6v3.8h-2.1v-2h-13.6v1.9h13v1.8c-1,1.6-2.3,2.9-4,3.9c1.8,0.6,4.1,1,7.1,1.2c-0.2,0.4-0.5,1.1-0.9,2
			c-3.5-0.4-6.3-1.1-8.4-2.1c-1.9,0.9-4.7,1.7-8.4,2.3c-0.2-0.6-0.5-1.3-0.9-2c3.1-0.3,5.5-0.8,7.3-1.4c-1.2-0.8-2.5-2.2-3.7-4h-1.1
			v-1.6L264.6,42.7L264.6,42.7z M265.5,35.7c0-0.2-0.1-0.4-0.2-0.7c-0.1-0.5-0.2-0.8-0.3-1.1c5,0,10.5-0.2,16.2-0.5l0.4,1.8
			C276.1,35.5,270.7,35.6,265.5,35.7L265.5,35.7z M277.4,44.3h-7.2c0.9,1.2,2,2.3,3.4,3C275,46.7,276.2,45.6,277.4,44.3z"/>
		<path class="st0" d="M286.9,50.5V34.2h5.8v15.9h-1.8V49h-2.2v1.5H286.9L286.9,50.5z M288.7,36.1v4.6h2.2v-4.6H288.7z M288.7,42.4
			v4.8h2.2v-4.8H288.7z M294,37.1v-1.8h3.9v-2.4h2v2.4h4.1v1.8H300v2.3h4.9v1.8h-11.6v-1.8h4.7v-2.3H294z M293.3,45v-1.8h7.3v-1.5h2
			v1.5h2.3V45h-2.3v3.8c0,1.6-0.8,2.4-2.4,2.4c-0.8,0-1.8,0.1-2.9,0.1c0-0.3-0.1-0.7-0.2-1.3c-0.1-0.4-0.2-0.6-0.2-0.7
			c0.7,0,1.5,0.1,2.3,0.1c0.9,0,1.4-0.3,1.3-1.1V45L293.3,45L293.3,45z M296.5,48.9c-0.6-0.8-1.4-1.6-2.3-2.6l1.5-1.2
			c0.4,0.4,0.9,0.9,1.5,1.5c0.4,0.5,0.7,0.8,0.9,1L296.5,48.9L296.5,48.9z"/>
		<path class="st0" d="M309.2,51.3V38.2h7.3v-5.3h2.1v5.3h7.3v10.5c0.1,1.7-0.7,2.5-2.4,2.5h-1.2c-0.7,0-1.2,0.1-1.6,0.1
			c-0.2-0.6-0.3-1.3-0.5-2h2.5c0.8,0,1.2-0.3,1.2-1V40h-12.6v11.3L309.2,51.3L309.2,51.3z M312.9,37.8c-1.1-1.1-2.3-2.1-3.5-3
			l1.4-1.3c1.2,0.9,2.4,1.9,3.7,3L312.9,37.8L312.9,37.8z M313.3,48.2v-6.2h8.4v6.2H313.3z M315.3,43.7v2.7h4.5v-2.7H315.3z
			 M321.7,37.9l-1.3-1.4c1.4-1,2.6-2.1,3.7-3l1.4,1.3C324,36,322.7,37.1,321.7,37.9L321.7,37.9z"/>
		<path class="st0" d="M331.9,42.2c-0.3-0.6-0.9-1.6-1.8-3.2l1.6-0.7c0.3,0.4,0.6,1,1.1,1.8c0.4,0.6,0.6,1.1,0.8,1.3L331.9,42.2
			L331.9,42.2z M332.1,51.4l-1.9-0.5c0.5-2,1-4.4,1.6-7.2l1.9,0.5C333.1,46.7,332.5,49.1,332.1,51.4z M332.1,37
			c-0.6-1.1-1.2-2.2-1.8-3.3l1.7-0.6c0.3,0.4,0.6,1,1.1,1.9c0.4,0.6,0.6,1,0.8,1.2L332.1,37L332.1,37z M334.1,36.2v-1.6h2.8v-1.8
			h1.8v1.8h2.8v1.6h-2.8v1.5h2.5v7.6h-2.5v1.6h3v1.4c0.4-1.1,0.6-2.9,0.6-5.3v-9.2h5.8v15.5c0,1.3-0.5,2-1.6,2c-0.2,0-0.5,0-1,0.1
			h-1c0,0,0-0.2-0.1-0.3c0-0.7-0.1-1.2-0.2-1.6h0.6c0.3,0,0.5,0.1,0.7,0.1c0.7,0,1-0.2,0.9-0.9v-3.4H344c0,2.4-0.6,4.5-2,6.3
			c-0.5-0.2-1-0.5-1.6-0.9c0.6-0.9,1-1.6,1.2-2.1h-3v3h-1.8v-3h-3.2v-1.6h3.2v-1.6h-2.5v-7.6h2.5v-1.5L334.1,36.2L334.1,36.2z
			 M336.1,39.2v1.6h3.4v-1.6H336.1z M336.1,42.2v1.6h3.4v-1.6H336.1z M344.1,35.6v3h2.3v-3H344.1z M344.1,43.1v0.4h2.3v-3.1h-2.3
			V43.1z"/>
		<path class="st0" d="M355,42.3c-0.6-0.6-1.4-1.3-2.6-2.3c0.1,0.1,0,0-0.4-0.3l1.3-1.5c1,0.8,2.1,1.6,3,2.4L355,42.3L355,42.3z
			 M354.4,51.4l-2.1-0.6c0.6-1.7,1.3-4,2-6.9c0.2,0,0.5,0.2,0.9,0.3c0.5,0.2,0.9,0.3,1.2,0.3C355.4,47.7,354.7,50,354.4,51.4z
			 M355.4,37.2c-1-0.9-2-1.8-3-2.6l1.3-1.5c0.4,0.3,0.9,0.8,1.7,1.3c0.6,0.5,1,0.8,1.3,1.1L355.4,37.2L355.4,37.2z M357.5,51.6
			c0,0-0.1-0.1-0.2-0.2c-0.3-0.3-0.8-0.7-1.3-1.1c1.6-1.1,2.5-2.6,2.5-4.6V43h2c0,1.2,0,2.1-0.1,3C360.3,48.3,359.3,50.2,357.5,51.6
			L357.5,51.6z M357.2,36.9v-1.9h5.5v-2.1h2v2.1h5.7v1.9h-6.6c-0.3,0.4-0.8,0.9-1.5,1.7c-0.7,0.7-1.2,1.3-1.5,1.6
			c1.9,0,3.8-0.2,5.5-0.3c-0.1-0.1-0.3-0.3-0.5-0.5c-0.4-0.4-0.7-0.8-0.9-1.1l1.6-0.9c1.7,1.8,3,3.2,4,4.3l-1.8,1.2l-1-1.4
			c-3.2,0.2-6.6,0.4-10.2,0.6l-0.4-1.8h1.3c1.2-1.4,2.1-2.5,2.7-3.4L357.2,36.9L357.2,36.9z M362.2,51.1V43h2v8.1H362.2z
			 M367.9,51.1c-1.4,0-2-0.6-2-1.9v-6.2h1.9v5.9c0,0.3,0.2,0.5,0.5,0.5h0.4c0.3,0,0.5-0.1,0.6-0.5c0.1-1,0.2-1.9,0.2-2.7
			c0.5,0.2,1,0.4,1.5,0.5c0,1.2-0.2,2-0.3,2.7c-0.2,1.2-0.9,1.8-2,1.8H367.9L367.9,51.1z"/>
		<path class="st0" d="M387.2,39.3v-1.6h2.6v-2.2h-3v-1.7h4.9v11.4h1.1V47h-18.5v-1.8h1.2V34.4c1.2-0.3,2.6-0.7,4.2-1.2l0.7,1.5
			c-1.1,0.4-2.1,0.7-3,0.9v2h2.9v1.6h-2.9v2.2h2.9v1.6h-2.9v2.3h3.8v-4h1.8v4h1.6v-5h-3.4V33h1.9v2h3.4v1.6H383v2h3.4v6.6h3.4V43
			h-2.6v-1.6h2.6v-2.2L387.2,39.3L387.2,39.3z M375.3,51.5c-0.2-0.4-0.5-0.9-0.9-1.7c1.9-0.5,4.1-1.3,6.5-2.3l1,1.6
			c-0.4,0.1-1,0.3-1.9,0.7C377.9,50.7,376.4,51.2,375.3,51.5L375.3,51.5z M391.8,51.5c-2.1-0.9-4.4-1.7-6.7-2.3l0.8-1.6
			c1,0.3,2.5,0.8,4.5,1.5c1,0.3,1.8,0.5,2.3,0.7L391.8,51.5L391.8,51.5z"/>
		<path class="st0" d="M396.9,37.1v-3h7.7v-1.3h2.1v1.3h7.5v3h-1.9l-0.1,1.2h2.7v1.4h-2.8l-0.2,2h-13.4l0.2-2h-2.7v-1.4h2.9l0.2-1.9
			h13.2v-0.9h-13.6v1.6L396.9,37.1L396.9,37.1z M397,51.6c-0.2-0.6-0.4-1-0.7-1.4c0.6-0.1,1.4-0.2,2.6-0.4c0.8-0.1,2.3-0.3,4.5-0.6
			l0.7,1.2C401.5,50.9,399.2,51.3,397,51.6z M398.3,49v-6.5h14.5V49H398.3z M400.3,43.7v0.9h10.5v-0.9H400.3z M400.3,45.4v0.9h10.5
			v-0.9H400.3z M400.3,47.1V48h10.5v-0.9H400.3z M400.6,40.6h3.8l0.1-0.9h-3.8L400.6,40.6z M400.9,37.6l-0.1,0.9h3.8l0.1-0.9H400.9z
			 M406.3,40.6h3.9l0.1-0.9h-3.9L406.3,40.6z M410.5,37.6h-3.8l-0.1,0.9h3.8L410.5,37.6z M414.1,51.6c-1.8-0.4-4.2-0.8-7.2-1.2
			l0.6-1.2c2.2,0.2,4.6,0.5,7.1,1L414.1,51.6L414.1,51.6z"/>
		<path class="st0" d="M420,51.6c-0.2-0.1-0.5-0.3-0.9-0.5c-0.5-0.3-0.8-0.5-1-0.6c0.8-1.2,1.3-2.4,1.6-3.5c0.3-1.1,0.4-2.9,0.4-5.2
			v-8h15.9v14.9c0.1,1.7-0.8,2.5-2.6,2.5c-0.7,0-1.5,0.1-2.5,0.1c0-0.2-0.1-0.4-0.2-0.7c-0.1-0.6-0.2-1-0.3-1.3c0.3,0,0.6,0,1.1,0.1
			h1c0.9,0,1.4-0.3,1.3-1v-2.6h-4.9v5.3h-2.1v-5.3H422C421.9,47.6,421.2,49.6,420,51.6L420,51.6z M422.1,41.8c0,0.3,0,0.7-0.1,1.2
			v0.9h4.7v-3.1h-4.6L422.1,41.8L422.1,41.8z M422.1,35.8v3.1h4.6v-3.1H422.1z M433.8,35.8h-4.9v3.1h4.9V35.8z M428.9,40.8v3.1h4.9
			v-3.1H428.9z"/>
		<path class="st0" d="M440.3,38.3v-1.8h1.9v-3.7h1.7v3.7h1.4v1.8h-1.4v2c0.6,0.6,1.2,1.2,1.9,1.8l-0.8,1.7
			c-0.3-0.5-0.7-0.9-1.1-1.4v9.1h-1.7v-9c-0.4,1.6-1,3.1-1.8,4.4c0-0.4-0.2-1.1-0.4-2c0-0.3-0.1-0.4-0.1-0.5c0.8-1.5,1.6-3.5,2.2-6
			L440.3,38.3L440.3,38.3z M456.3,51.5c-1.2,0-2.2-0.7-2.9-2c-0.9,0.6-2,1.2-3.3,1.8c-0.3-0.5-0.6-1-1-1.5c1.7-0.6,2.8-1.2,3.5-1.6
			c-0.4-1-0.7-2.1-0.9-3.1h-3c0,0.2,0,0.3-0.1,0.5V46c0.3,0.2,0.6,0.4,1.2,0.6c0.7,0.4,1.3,0.7,1.6,0.9l-0.9,1.5
			c-0.3-0.2-0.6-0.4-1.2-0.8c-0.5-0.3-0.8-0.5-1-0.7c-0.3,1.4-1.2,2.7-2.7,4.1c-0.4-0.5-0.8-1-1.2-1.4c1.6-1.1,2.5-2.9,2.6-5.2h-1.4
			v-1.6h5.9c0-0.3-0.1-0.6-0.1-0.9c-0.4-2.4-0.5-5.6-0.5-9.6h1.8c0,4.2,0.2,7.3,0.5,9.4c0,0.1,0,0.3,0.1,0.5v0.6h2
			c0-0.1-0.2-0.3-0.3-0.5c-0.3-0.4-0.4-0.7-0.5-0.9l1.5-0.4c0.2,0.3,0.4,0.6,0.7,1c0.2,0.3,0.4,0.5,0.5,0.7h1.6v1.6h-5.2
			c0,0.2,0.1,0.4,0.2,0.7c0.1,0.4,0.3,0.9,0.5,1.5c0.1-0.1,0.3-0.3,0.5-0.5c0.7-0.6,1.2-1.1,1.6-1.5l1.2,1c-0.9,0.9-1.8,1.7-2.7,2.3
			v0.1c0.5,0.6,1,0.9,1.5,0.9c0.4,0,0.6-0.2,0.8-0.6c0.3-0.8,0.4-1.4,0.5-1.8c0,0,0.1,0.1,0.2,0.2c0.6,0.3,1,0.5,1.2,0.7
			c-0.2,0.7-0.4,1.4-0.8,2.1C457.8,51.1,457.2,51.5,456.3,51.5L456.3,51.5z M446,41.9l-0.5-1.3h0.9c0.3-0.4,0.6-1,1.1-1.7
			c0.2-0.3,0.3-0.4,0.4-0.5c-0.3-0.3-0.7-0.7-1.2-1.3c-0.6-0.6-1-1-1.2-1.2l0.9-0.9l0.3,0.4c0.5-0.7,1-1.5,1.3-2.3l1.5,0.5
			c-0.6,0.9-1.2,1.8-1.9,2.7c0.4,0.3,0.7,0.7,0.9,1c0.5-0.8,0.9-1.5,1.2-2l1.2,0.7c-0.3,0.5-0.9,1.4-1.8,2.7c-0.6,0.9-1.1,1.5-1.3,2
			l1.6-0.1c-0.2-0.4-0.3-0.8-0.5-1.2l1-0.5c0.2,0.4,0.5,1,0.9,1.8c0.2,0.5,0.4,0.9,0.5,1.1l-1.1,0.5l-0.3-0.7
			c-0.5,0-1.2,0.1-2.1,0.2C446.9,41.8,446.3,41.9,446,41.9L446,41.9z M453.6,41.6l-0.3-1.2h0.3c0.2,0,0.4-0.1,0.5-0.1
			c0.2-0.4,0.5-0.9,1-1.6c0.2-0.3,0.3-0.4,0.3-0.5c-1-1.1-1.9-2-2.5-2.7l0.9-0.9l0.5,0.5c0.3-0.4,0.7-1.1,1.2-2l0.2-0.5l1.3,0.5
			c-0.1,0.2-0.3,0.5-0.5,0.9c-0.5,0.9-1,1.5-1.3,2l1,1l1.2-2.1l1.2,0.6c-1.1,1.8-2.1,3.4-3,4.6l1.5-0.1l-0.5-1.1l1.1-0.5
			c0.2,0.4,0.5,1.1,0.9,2.1c0.2,0.4,0.3,0.7,0.4,0.9l-1.1,0.5l-0.2-0.7C455.6,41.4,454.3,41.5,453.6,41.6L453.6,41.6z"/>
		<path class="st0" d="M462.2,39l-0.5-1.8h1.2c1.4-2,2.4-3.6,3-4.8l2,0.8c-0.8,1.2-1.8,2.5-2.9,3.9c1.4-0.1,2.7-0.2,3.9-0.2
			l-1.2-1.6l1.4-0.9c1.4,1.5,2.5,2.9,3.4,4.1l-1.6,1.1c-0.1-0.2-0.2-0.4-0.4-0.6c-0.2-0.3-0.4-0.4-0.5-0.5c-1,0-2.6,0.2-4.6,0.3
			C464,38.9,462.9,39,462.2,39L462.2,39z M463,51.4V40.3h8v8.9c0,1.3-0.6,2-2,2h-0.9c-0.6,0-1,0.1-1.2,0.1c0-0.3-0.1-0.7-0.2-1.2
			c0-0.3-0.1-0.4-0.1-0.5h1.7c0.6,0,0.9-0.2,0.9-0.6v-1.2h-4.5v3.6L463,51.4L463,51.4z M464.8,41.9v1.5h4.5v-1.5H464.8z M464.8,44.8
			v1.5h4.5v-1.5H464.8z M475.3,41.6c-1.7,0-2.5-0.8-2.5-2.5V33h2v2.9c1.4-0.5,3-1.2,4.7-2.2l1.1,1.5c-1.9,0.9-3.8,1.8-5.8,2.6v1
			c0,0.8,0.3,1.2,1.2,1.1h1.6c0.8,0,1.2-0.3,1.3-0.9c0-0.5,0.1-0.6,0.1-0.5c0-0.6,0.1-1.1,0.2-1.5c0.3,0,0.7,0.2,1.2,0.3
			c0.3,0.1,0.5,0.2,0.6,0.2c0,0.6-0.2,1.2-0.3,2c0,0,0,0-0.1,0.2c-0.2,1.2-1.1,1.8-2.6,1.8L475.3,41.6L475.3,41.6z M475.3,51.2
			c-1.7,0-2.5-0.8-2.5-2.4v-6.2h2V45c1.5-0.5,3.1-1.3,4.8-2.3l1.1,1.6c-2.3,1.1-4.3,2-5.9,2.6v1.4c0,0.7,0.3,1.1,1.2,1h1.6
			c0.8,0,1.2-0.2,1.2-0.8c0.1-0.6,0.2-1.3,0.2-2.1c0.2,0,0.5,0.2,0.9,0.3c0.4,0.2,0.7,0.3,0.9,0.3c0,0.6-0.1,1.2-0.2,2l-0.1,0.2
			c-0.3,1.2-1.2,1.9-2.6,1.9L475.3,51.2L475.3,51.2z"/>
		<path class="st0" d="M484.2,36.4v-1.6h5.1c-0.1-0.1-0.3-0.3-0.5-0.5c-0.4-0.5-0.7-0.8-0.9-1l2.2-0.4c0.3,0.3,0.8,0.9,1.6,2h2.9
			c0.3-0.3,0.6-0.8,1.1-1.5c0.2-0.2,0.3-0.4,0.3-0.5l2.3,0.3c-0.1,0.1-0.2,0.3-0.4,0.5c-0.4,0.5-0.6,0.9-0.8,1.1h5.6v1.6h-6.6v1.5
			h4.7V41h2v1.7h-2v3.1h-4.5c1.5,1.5,3.5,2.7,6.2,3.4c-0.2,0.2-0.4,0.7-0.9,1.3c0,0.2-0.1,0.3-0.2,0.3c-2.4-0.9-4.2-1.9-5.4-3.1v3.8
			h-2v-5.7h-2.6v5.7h-2v-3.6c-1,1-2.6,2.1-4.8,3c-0.3-0.6-0.7-1.2-1.1-1.7c2.7-0.8,4.6-2,5.8-3.4h-4.5v-1.6h4.5v-1.6h-5.6V41h5.6
			v-1.6h-4.3v-1.6h4.3v-1.5C489.8,36.4,484.2,36.4,484.2,36.4z M491.7,36.4v1.5h2.6v-1.5H491.7z M491.7,39.4V41h2.6v-1.6H491.7z
			 M491.7,42.7v1.6h2.6v-1.6H491.7z M499.1,39.4h-2.8V41h2.8V39.4z M496.3,44.3h2.8v-1.6h-2.8V44.3z"/>
		<path class="st0" d="M506.1,47.6V46h2.3V33.7h14.2V46h2.3v1.6H506.1L506.1,47.6z M507.6,51.6c-0.2-0.6-0.5-1.2-0.9-1.8
			c2.5-0.4,4.6-1.1,6.3-2l1,1.5C512,50.3,509.9,51,507.6,51.6L507.6,51.6z M510.4,35.4v1.6h10.2v-1.6H510.4z M510.4,38.3v1.6h10.2
			v-1.6H510.4z M510.4,41.3V43h10.2v-1.6H510.4z M510.4,44.4V46h10.2v-1.6H510.4z M523.3,51.7c-2.7-1.2-4.8-2.1-6.4-2.5l0.8-1.4
			c2.1,0.6,4.3,1.3,6.6,2.1C524,50.3,523.7,50.9,523.3,51.7L523.3,51.7z"/>
		<path class="st0" d="M528.8,51.2V35.9h2.1c0.2-0.6,0.4-1.3,0.6-2.3c0-0.3,0.1-0.5,0.2-0.7l2.2,0.3c-0.2,0.9-0.5,1.8-0.8,2.7h3.4
			v15.2h-2v-1.4h-3.7v1.5L528.8,51.2L528.8,51.2z M530.8,37.9v4.1h3.7v-4.1H530.8z M530.8,43.9V48h3.7v-4.1H530.8z M539.3,51.2
			c-0.1-0.8-0.2-1.4-0.4-2h1.4c0.7,0,1.2,0.1,1.6,0.1c1.4,0,2.1-0.7,2.1-2c0-0.8,0.1-2.6,0.2-5.3c0-1.9,0.1-3.3,0.1-4.1H540
			c-0.5,1-0.9,2-1.4,2.9c-0.1,0-0.3-0.2-0.5-0.3c-0.3-0.2-0.7-0.4-1.3-0.7c1.2-2.2,2.1-4.5,2.8-6.9l2.1,0.5c0,0.2-0.2,0.5-0.3,0.9
			c-0.2,0.7-0.4,1.3-0.6,1.7h5.6c-0.1,5.7-0.2,9.6-0.3,11.7c0,2.3-1.1,3.5-3.4,3.4C541.7,51.1,540.5,51.2,539.3,51.2L539.3,51.2z
			 M541,45.9c-0.9-1.3-1.8-2.7-2.9-4.1l1.6-1c0.9,1.1,2,2.4,3,4L541,45.9L541,45.9z"/>
		<path class="st0" d="M552.2,42c-0.5-0.4-1.2-0.8-2-1.2c1.6-2,2.8-4.3,3.7-7.1l2.2,0.4c-0.3,0.9-0.7,1.8-1,2.6h3.9v-3.9h2.2v3.9
			h6.8v2h-6.8v3.8h6.2v2h-6.2v4.2h7.8v1.8h-18.5v-1.8h8.5v-4.2h-6.7v-2h6.7v-3.8h-4.8C553.7,39.8,553,40.9,552.2,42L552.2,42z"/>
		<path class="st0" d="M575,42.3c-1.1-1-2.1-2-3.1-2.8l1.4-1.4c1.2,0.8,2.3,1.7,3.3,2.7L575,42.3L575,42.3z M574.6,51.4l-2.1-0.7
			c0.9-2.6,1.7-4.9,2.2-7c0.6,0.2,1.3,0.4,2,0.7c-0.2,0.7-0.6,2-1.1,3.7C575.2,49.5,574.8,50.6,574.6,51.4z M575.6,37.3
			c-1.2-1.1-2.3-2.1-3-2.7l1.3-1.4c1.2,0.8,2.2,1.7,3.2,2.6L575.6,37.3L575.6,37.3z M578.2,36l-0.2-1.9c4.5-0.1,8.5-0.3,12-0.5
			l0.2,1.8c-1.7,0.2-3.3,0.3-5,0.3v2.8h5.8v1.9h-5.8v2.8h4.6v8.3h-2v-1.1h-7.3v1.1h-2.1v-8.3h4.6v-2.8h-5.6v-1.9h5.6v-2.7
			C581.4,35.8,579.8,35.9,578.2,36L578.2,36z M580.5,45v3.8h7.3V45H580.5z"/>
	</g>
</g>
</svg>
