<?xml version="1.0" encoding="utf-8"?>
<!-- Generator: Adobe Illustrator 27.0.0, SVG Export Plug-In . SVG Version: 6.00 Build 0)  -->
<svg version="1.1" id="_圖層_2" xmlns="http://www.w3.org/2000/svg" xmlns:xlink="http://www.w3.org/1999/xlink" x="0px" y="0px"
	 viewBox="0 0 615.1 72.2" style="enable-background:new 0 0 615.1 72.2;" xml:space="preserve">
<style type="text/css">
	.st0{fill:#FFFFFF;}
</style>
<g id="_圖層_1-2">
	<g>
		<path class="st0" d="M0,4.4h27.8v53.2c3.1-5.3,4.6-13.4,4.4-24.3V3.8h33.6v54.4c0.4,7.4-3,11.2-10.2,11.4c-2.3,0.2-6,0.3-10.8,0.3
			c-0.8-4.1-1.7-7.8-2.6-11.1c2.3,0.2,4.8,0.3,7.3,0.3c2.9,0,4.3-1.5,4.1-4.4v-5H43.3c-0.8,6.6-4,13.9-9.7,21.9
			c-2.9-2.7-6.3-5.5-10.2-8.2H11.1v5H0V4.4z M11.1,14.9v14H17v-14C17,14.9,11.1,14.9,11.1,14.9z M11.1,53.5H17V39.2h-5.9
			C11.1,39.2,11.1,53.5,11.1,53.5z M44.5,34.2c0,2-0.1,3.8-0.3,5.6h9.4v-7.9h-9.1V34.2z M44.5,14v7.9h9.1V14H44.5z"/>
		<path class="st0" d="M124.3,70.8v-4.4H91.6v4.4H79V4.7h58.2v66.1C137.2,70.8,124.3,70.8,124.3,70.8z M91.6,16.1v14h32.8v-14H91.6z
			 M91.6,41.2v14.3h32.8V41.2H91.6z"/>
		<path class="st0" d="M182.2,58.2c8.4,0.2,20.5,0.1,36.3-0.3c-1,2.9-2.1,6.7-3.5,11.4h-20.8c-5.5-0.2-10.5-0.4-15.2-0.6
			c-7-0.2-12.5-2.7-16.4-7.6c-0.6-1-1.4-1-2.3,0c-2.9,3.1-5.9,6.5-9.1,10.2l-4.1-13.5c2.5-2.7,5.6-5.7,9.4-8.8
			c1.9-2,3.9-2.9,5.9-2.9c1,0,1.9,0.2,2.6,0.6c9.9-5.8,20.4-13.3,31.3-22.2h-44.2V13.4h25.1V1.2h11.4v12.3h24.6v12
			C200.7,37.1,187.3,47,172.9,55C175.2,57.3,178.3,58.4,182.2,58.2L182.2,58.2z"/>
		<path class="st0" d="M287.5,57h-22.2v3.2h27.8v8.5h-70.2v-8.5h30.4V57h-20.2v-5.3c-0.2,0.4-0.7,1-1.5,1.8c-0.6,1-1.1,1.7-1.5,2
			c-2.9-2-5.9-4.1-8.8-6.4c4.5-4.3,7.4-9.2,8.8-14.6h11.1c0,0.2-0.1,0.7-0.3,1.5c-0.2,0.6-0.4,1.1-0.6,1.5h12.9v-4.1h-24.6V3.5h58.5
			v29.8h-21.9v4.1h24.9v8.5h-24.9v2.9h22.2L287.5,57L287.5,57z M236.6,45.9c-0.2,0.6-0.6,1.4-1.2,2.3c-0.2,0.2-0.4,0.4-0.6,0.6h18.4
			v-2.9H236.6L236.6,45.9z M240.7,12.6v2.6h34.8v-2.6H240.7L240.7,12.6z M240.7,25.2h34.8v-2.9h-34.8L240.7,25.2L240.7,25.2z"/>
		<path class="st0" d="M323.2,26.3v-8.5H384v8.5h-6.4v4.1h11.1v8.5h-11.1v4.4h6.7v8.2h-24.9V55h20.5v8.5h-20.5v7.6h-11.7v-7.6H327
			V55h20.8v-3.5h-24.9v-8.2h6.7v-4.4h-11.1v-8.5h11.1v-4.1L323.2,26.3L323.2,26.3z M360.6,1.2h11.7v4.1h15.8V14h-15.8v2.6h-11.7V14
			h-14.3v2.6h-11.4V14h-15.8V5.3h15.8V1.2h11.4v4.1h14.3V1.2z M340.8,26.3v4.1h7v-4.1H340.8z M340.8,38.9v4.4h7v-4.4H340.8z
			 M359.5,26.3v4.1h7v-4.1H359.5z M359.5,38.9v4.4h7v-4.4H359.5z"/>
		<path class="st0" d="M461.5,35.7v15.5h-3.2l2.9,5.6l-5,1.2c0.4,0.2,0.9,0.4,1.5,0.6c1.6,0.6,3.6,1.2,6.1,1.8
			c-0.4,2.2-0.9,4-1.5,5.6c-0.4,3.1-3.2,4.7-8.5,4.7h-11.1c-6,0.2-9-2.7-8.8-8.8V51.2h-13.2v2.3H432v6.1h-11.1v2.9
			c4.1-0.4,7.9-0.9,11.4-1.5c0,2.9,0.1,5.1,0.3,6.4c-2.5,0.4-8.2,1.5-17,3.2c-3.1,0.6-5.2,1-6.1,1.2l-1.8-7.6l3.2-0.6V51.2h-3.2
			c-0.2,6.4-2.3,13.4-6.4,21.1c-2.9-2.3-6-4.6-9.1-6.7c3.9-5.3,5.6-12.9,5.3-22.8V25.5h26V24h-6.1v-6.4h-10V24h-9.9V12.3h29.8v9.1
			h3.2v-9.1h30.1V24h-10v-6.4h-10.2V24h-5.9v1.5h28.1v7H444v3.2H461.5L461.5,35.7z M427.6,10.2h-31.3V3.5h31.3V10.2L427.6,10.2z
			 M409.8,24.3l-2-5.3l7-1.5l2,5.6L409.8,24.3z M407.7,32.5v3.2h8.5v-3.2H407.7z M407.7,43.9V45h8.5v-3.2h-8.5
			C407.7,41.8,407.7,43.9,407.7,43.9z M426.2,32.5v3.2h7.9v-3.2H426.2z M426.2,41.8V45h7.9v-3.2H426.2z M461.5,10.2h-31.3V3.5h31.3
			V10.2L461.5,10.2z M442.8,24.6l-2-5.9l7.3-1.2l2,5.6C450.1,23.1,442.8,24.6,442.8,24.6z M451.9,41.8H444V45h7.9V41.8z M444.3,54.4
			c4.1-1,8-2,11.7-3.2h-11.7V54.4z M454.8,58.5c-0.8,0.2-2,0.5-3.5,0.9c-2.9,0.8-5.3,1.4-7,1.8c0.2,1.2,1.2,1.8,2.9,1.8h4.1
			c1.8,0,2.7-0.6,2.9-1.8L454.8,58.5L454.8,58.5z"/>
		<path class="st0" d="M526.2,3.2c4.1,9.2,8.9,16.1,14.3,20.8c-0.8,2-2,5.5-3.5,10.5c-0.8-0.6-1.7-1.3-2.6-2v17.8h-7V60
			c0,1.2,0.5,1.8,1.5,1.8h0.6c0.6,0,1.1-0.8,1.5-2.3c0.2-0.8,0.3-2,0.3-3.8c0.2-1.8,0.3-3.1,0.3-4.1c0.8,0.2,1.7,0.6,2.6,1.2
			c2,0.8,3.5,1.4,4.7,1.8c-0.4,3.7-0.9,6.8-1.5,9.4c-0.6,4.1-3.3,6.1-8.2,6.1h-2.9c-5.8,0.2-8.7-2.3-8.5-7.6v-12h-2.6
			c-0.2,8.8-4.4,16-12.6,21.6l-4.4-5l-4.7,1.2l-0.9-3.5c-8.6,1.2-16.4,2.3-23.4,3.5l-1.8-9.9c3.3,0,6.9-0.3,10.8-0.9V45.6h-1.5v3.5
			h-7V12.9h8.5V1.5h9.6v11.4h8.2v12.6c3.9-4.1,6.3-8.5,7.3-13.2l8.8,2.9c-1.4,4.3-3,8-5,11.1h20.8c-3.1-3.7-5.8-8.2-8.2-13.4h-10.5
			V3.2H526.2L526.2,3.2z M476.8,23.1v12.6h3.2V23.1H476.8z M489,23.1h-2.9v12.6h2.9V23.1z M496.1,49.1c0.4,1.4,0.9,3.2,1.5,5.6
			c0.8,3.3,1.4,5.8,1.8,7.6c3.9-2.9,6-6.9,6.4-12h-5.3V34.5l-2.3,1.8c-0.6-2-1.3-3.8-2-5.6v17.8h-7v-2.9h-1.8v11.1l3.5-0.6
			c0-0.6-0.2-1.4-0.6-2.3c-0.2-1.6-0.4-2.7-0.6-3.5L496.1,49.1L496.1,49.1z M510.4,35.1v6.4h14v-6.4H510.4z"/>
		<path class="st0" d="M591.1,30.7l-0.9-7h1.5c0.8-0.2,1.4-0.3,1.8-0.3c0.8-0.8,2.2-2.4,4.4-5c-1.4,1.8-1.1,1.5,0.9-0.9
			c-0.6-0.4-1.6-1.2-2.9-2.3c-2.2-1.4-3.7-2.4-4.7-3.2v2.9h-24.3v-2.6c-1,1-2.7,2.7-5.3,5.3c-1.4,1.4-2.3,2.3-2.9,2.9l5.6-1.8
			c1.8,5.3,3,9.2,3.8,11.7l-6.1,1.8l-0.6-1.8l-2,0.3v12.9H552V31c-4.1,0.4-6.7,0.7-7.9,0.9l-0.9-7.3h3.2c1.6-1.6,3.2-3.5,5-5.9
			c-2.7-2.1-5.8-4.4-9.1-6.7l4.7-5.8l1.8,1.5c1.6-2.5,2.9-4.7,4.1-6.4l7.9,3.2c-1,1-2.3,2.5-4.1,4.7c-1,1.4-1.7,2.2-2,2.6
			c0.6,0.6,1.2,1,1.8,1.2c1.4-1.8,2.6-3.3,3.8-4.7l6.7,3.5V9.1h24.3l3.2-4.1l1.8,1.5c1.6-2.1,2.8-4.3,3.8-6.4l7.9,3.2
			c-0.6,0.6-1.6,1.7-2.9,3.5c-1.6,1.8-2.6,3-3.2,3.8l1.8,1.2c0.6-0.6,1.5-1.6,2.6-3.2c0.6-0.6,1-1.1,1.2-1.5l7,3.8
			c-3.3,3.3-6.1,6.2-8.5,8.8l5.6-1.8c1.6,4.7,2.8,8.6,3.8,11.7l-6.1,1.8l-0.3-2l-2,0.3v13.8H599V30.1L591.1,30.7L591.1,30.7z
			 M608.7,46.2v7.3h-5.8c-3.5,2.9-7,5.4-10.5,7.3c5.8,0.8,13.1,1.4,21.6,1.8c-1,1.4-2.2,3.6-3.5,6.7c-0.2,0.6-0.4,1.1-0.6,1.5
			c-14.6-1.2-25.1-2.6-31.3-4.4c-8.4,2.3-18.6,4.1-30.7,5.3c-0.4-0.8-1.1-2.2-2-4.1c-0.8-1.8-1.5-3.2-2-4.4c9.2-0.4,16.2-1,21.1-1.8
			c-2-1.2-4-2.5-6.1-4.1c-2.5,1.8-5.6,3.5-9.1,5.3c-0.8-1-2.2-2.8-4.4-5.6c-0.6-1-1.1-1.7-1.5-2c7.2-3.1,13.3-7,18.1-11.7l11.1,0.9
			l-2,2L608.7,46.2L608.7,46.2z M551.1,33.3c-0.2,3.1-0.6,6.4-1.2,9.9l-5.8-0.9c0.2-1.2,0.5-2.7,0.9-4.7c0.2-2,0.4-3.5,0.6-4.7
			L551.1,33.3L551.1,33.3z M559.8,24.3l-1.2-3.5l-3.8,3.8C556.6,24.4,558.3,24.3,559.8,24.3z M564.8,32.2c1,2.2,1.8,5.3,2.6,9.4
			l-5.6,1.2c-0.2-1-0.5-2.4-0.9-4.4c-0.2-1.2-0.6-2.9-1.2-5.3L564.8,32.2L564.8,32.2z M568.3,16.7h21.3v5h-21.3V16.7z M568.3,23.7
			h21.3v5h-21.3V23.7z M568.3,42.7V30.4h21.3v12.3H568.3z M568.3,53.5c2.9,1.8,6.2,3.2,9.9,4.4c3.5-1.2,6.8-2.6,10-4.4H568.3z
			 M569.2,2.3h20.2V7h-20.2V2.3L569.2,2.3z M576.2,35.4v2.3h5.6v-2.3H576.2z M598.2,32.5c-0.2,2.3-0.6,5.7-1.2,9.9l-5.8-1.2
			c0.2-0.8,0.4-1.8,0.6-2.9c0.4-2.5,0.7-4.7,0.9-6.4L598.2,32.5L598.2,32.5z M606.9,23.1l-1.2-3.5l-3.8,3.8c0.6,0,1.5-0.1,2.6-0.3
			L606.9,23.1L606.9,23.1z M611.9,31c1,2.1,1.8,5.3,2.6,9.4l-5.3,1.2c-0.4-2.1-1-4.8-1.8-7.9c-0.4-0.8-0.6-1.4-0.6-1.8L611.9,31
			L611.9,31z"/>
	</g>
</g>
</svg>
