<?xml version="1.0" encoding="UTF-8"?>
<svg id="_圖層_2" data-name="圖層 2" xmlns="http://www.w3.org/2000/svg" viewBox="0 0 403.6 31.71">
  <defs>
    <style>
      .cls-1 {
        fill: #231815;
      }
    </style>
  </defs>
  <g id="_圖層_1-2" data-name="圖層 1">
    <g>
      <path class="cls-1" d="M12.43,1.88c-.13,.43-.56,.73-1.36,.73-.89,2.55-1.95,4.83-3.11,6.88l1.72,.63c-.1,.33-.36,.53-1.02,.66V30.22c-.07,.36-1.98,1.32-3.84,1.32h-.89V15.08c-1.12,1.22-2.31,2.31-3.6,3.27l-.33-.23C2.41,13.66,4.83,6.65,5.85,.03l6.58,1.85Zm15.57,1.45s2.61,2.15,4.13,3.57c-.1,.36-.46,.53-.93,.53H10.12l-.26-.93h15.84l2.31-3.17ZM12.1,12.07l-.26-.93h12.3l2.12-2.91s2.38,1.98,3.77,3.31c-.07,.36-.43,.53-.93,.53H12.1Zm.26,4.86l-.26-.93h11.97l2.12-2.91s2.41,1.98,3.8,3.31c-.1,.36-.46,.53-.93,.53H12.37Zm13.66,1.06l4.3,3.24c-.2,.26-.6,.6-1.29,.73v7.94c-.03,.3-2.35,1.22-3.97,1.22h-.83v-2.51h-7.31v1.49c0,.43-2.08,1.46-4.03,1.46h-.66v-13.16l4.93,1.88h6.75l2.12-2.28ZM16.67,0c10.68,.23,6.68,8.63,2.31,5.56-.23-1.98-1.32-4.07-2.51-5.39l.2-.17Zm7.57,27.68v-6.48h-7.31v6.48h7.31Z"/>
      <path class="cls-1" d="M70.1,27.28c1.12,1.09,1.62,2.12,1.22,2.98-.76,1.69-3.11,1.59-5.32,.76-2.18-.69-3.87-1.82-5.19-3.21-2.45,1.22-5.22,2.18-8.23,2.78l-.23-.4c2.55-1.16,4.89-2.71,6.84-4.43-1.12-1.82-1.85-3.9-2.35-6.08h-4.83v1.75c1.45-.2,2.94-.4,4.4-.63l.07,.5c-1.29,.53-2.78,1.09-4.46,1.69v4.13c0,2.71-.73,4.23-5.62,4.53-.07-1.19-.2-2.08-.73-2.65-.46-.5-1.09-.96-2.81-1.22v-.4s3.21,.2,3.9,.2c.5,0,.63-.23,.63-.56v-2.51c-1.42,.43-2.98,.86-4.66,1.32-.17,.43-.5,.69-.86,.79l-1.98-3.97c1.72-.07,4.43-.3,7.51-.66v-2.31h-7.14l-.26-.93h7.41v-2.05c-2.12,.07-4.33,.07-6.32-.07l-.1-.46c3.97-.73,8.8-2.35,11.28-3.64l3.84,3.5c-.4,.3-1.09,.36-2.08,.03-.6,.1-1.26,.2-1.98,.26v2.41h4.66c-.36-1.92-.56-3.9-.66-5.79l5.79,.43v.07c8.37-.5,5.03,6.12,1.42,3.77-.13-1.26-.83-2.58-1.55-3.44-.17,.23-.46,.4-.93,.5,.07,1.39,.2,2.94,.53,4.46h4.46l2.02-2.88s2.28,1.95,3.6,3.27c-.1,.36-.43,.53-.89,.53h-5.56l4.36,2.48c-.2,.33-.53,.53-1.29,.4-.83,.93-1.85,1.85-3.01,2.71,.73,.53,1.52,.96,2.48,1.26,.66,.23,.99,.2,1.22-.13,.46-.6,1.06-1.95,1.45-2.98l.3,.07-.33,3.8Zm-16.86-15.77v-2.61h-9.82l-.26-.93h10.08v-2.48h-11.61l-.26-.93h8.13c-.56-1.49-1.72-3.08-2.65-4.07l.23-.17c6.28-.43,7.04,2.78,5.65,4.23h4.4c.6-1.36,1.22-3.14,1.55-4.46l5.75,1.59c-.13,.4-.5,.66-1.26,.63-1.09,.69-2.81,1.55-4.43,2.25h5.26l2.25-2.74s2.51,1.85,4.07,3.14c-.1,.36-.46,.53-.93,.53h-11.38v2.48h4.83l2.15-2.48s2.41,1.65,3.97,2.88c-.1,.36-.46,.53-.93,.53h-1.02c.73,.53,2.74,1.95,4.03,3.01-.1,.36-.46,.53-.93,.53h-29.16l-.26-.93h12.53Zm4.79,0h6.42l2.15-2.61h-8.56v2.61Zm3.47,8.17c.23,.93,.56,1.79,1.02,2.61,.69-.86,1.29-1.75,1.79-2.61h-2.81Z"/>
      <path class="cls-1" d="M106.1,25.39s3.08,2.31,4.93,3.87c-.1,.36-.46,.53-.99,.53h-30.12l-.26-.93h12.93v-10.12h-8.63l-.26-.93h8.89V9.32h-5.03c-2.15,3.57-4.79,6.28-7.94,8.3l-.33-.23c2.35-3.94,4.63-10.08,5.52-16.07l6.68,1.92c-.13,.43-.56,.73-1.36,.73-.63,1.59-1.29,3.08-2.05,4.43h4.5V.4l6.51,.6c-.07,.5-.3,.83-1.22,.96v6.45h4.03l2.61-3.21s2.88,2.05,4.73,3.6c-.1,.36-.46,.53-.99,.53h-10.38v8.5h3.04l2.65-3.31s3.01,2.22,4.83,3.7c-.1,.36-.46,.53-.96,.53h-9.56v10.12h5.49l2.74-3.47Z"/>
      <path class="cls-1" d="M119.39,8.07c9.95,.17,6.71,7.9,2.65,5.36-.4-1.88-1.69-3.9-2.88-5.16l.23-.2Zm27.51,.1s2.65,2.18,4.17,3.64c-.07,.36-.46,.53-.93,.53h-8.3v6.28h1.75l2.15-2.31,4.3,3.27c-.23,.26-.63,.6-1.32,.73v9.72c-.03,.3-2.31,1.26-3.94,1.26h-.83v-2.84h-8.83v1.59c0,.43-2.05,1.46-4.03,1.46h-.66v-14.75l4.89,1.88h1.62v-6.28h-7.97l-.23-.83c-1.12,3.34-2.25,6.94-2.58,8.13-.3,1.09-.6,2.35-.56,3.21,.07,1.88,1.65,2.81,1.55,5.79-.07,1.79-1.45,2.98-3.37,2.98-.86,0-1.85-.43-2.22-1.72,.69-3.47,.56-6.68-.23-7.21-.5-.33-1.09-.53-1.79-.6v-.56h1.55c.56,0,.73,0,1.16-.66q.89-1.26,7.41-13.52l.46,.13c-.4,1.09-.86,2.48-1.36,3.94h8.17V5.98c-2.61,.2-5.32,.33-7.8,.36l-.07-.43c5.49-1.29,12.56-3.7,16.14-5.49l4.53,4.36c-.43,.33-1.26,.36-2.41-.07-1.55,.26-3.44,.53-5.49,.79v5.89h2.71l2.35-3.24ZM121.87,.83c10.32,.03,7.37,7.94,3.11,5.56-.6-1.92-2.08-4.03-3.34-5.36l.23-.2Zm13.26,18.72v7.97h8.83v-7.97h-8.83Z"/>
      <path class="cls-1" d="M190.18,3.84c-.23,.3-.63,.56-1.32,.73V29.92c-.03,.33-2.25,1.46-4.03,1.46h-.76v-2.74h-18.91v1.16c0,.6-1.88,1.75-3.9,1.75h-.79V.86l5.09,2.02h18.19l2.22-2.45,4.23,3.41Zm-6.12,23.87v-10.28c-1.09,.46-1.82,1.55-2.12,3.14-1.09-.69-2.02-1.52-2.71-2.48l-.33,.07c-.03,2.74-.23,3.74-1.19,4.36-.73,.43-1.52,.56-2.78,.56,0-.79-.07-1.39-.36-1.79-.3-.36-.66-.6-1.29-.76v-.46c.5,.03,1.22,.07,1.65,.07,.36,0,.5-.07,.6-.17,.13-.17,.2-.83,.23-2.28h-2.98v5.39c0,.43,.13,.53,.99,.53h2.58c.89,0,1.75,0,2.15-.03,.36,0,.6-.07,.79-.3,.33-.36,.79-1.39,1.29-2.68h.36l.1,2.71c1.03,.4,1.26,.79,1.26,1.45,0,1.46-1.42,2.05-6.38,2.05h-3.04c-3.17,0-3.77-.66-3.77-3.01v-5.29c-1.09,.83-2.31,1.55-3.7,2.22l-.26-.33c2.05-1.72,3.54-3.77,4.6-5.98h-4.23l-.26-.93h4.93c.36-.86,.66-1.72,.93-2.58h-4.43l-.26-.93h4.96c.5-2.02,.76-4.03,.86-5.92l5.42,.89c-.1,.5-.46,.79-1.26,.83-.26,1.39-.63,2.81-1.12,4.2h.79c.56-1.29,1.26-3.14,1.82-4.89l3.87,1.69c-.17,.36-.59,.63-1.26,.56-.99,.93-2.12,1.88-3.21,2.65h.96l1.65-1.88s1.88,1.29,3.08,2.28c-.07,.36-.4,.53-.86,.53h-7.21c-.36,.89-.76,1.75-1.29,2.58h5.62l1.72-1.98s1.85,1.29,3.11,2.31V3.8h-18.91V27.71h18.91Zm-16.57-22.72c6.61,1.69,3.08,6.45,.6,4.07,.1-1.36-.36-2.91-.93-3.9l.33-.17Zm9.56,10.25l1.03,.79c-.23-.5-.4-1.06-.56-1.62h-4.46c-.43,.6-.89,1.19-1.39,1.75l1.55,.6h2.22l1.62-1.52Zm1.36-.83c1.32,1.36,3.5,2.18,5.65,2.58v-2.91c-.17,.23-.43,.33-.79,.33h-4.86Z"/>
      <path class="cls-1" d="M231.67,6.02v4.4h5.62l2.15-2.38,4.36,3.37c-.2,.26-.6,.56-1.29,.69v14.42c0,3.04-.76,4.73-5.98,5.19-.1-1.52-.26-2.58-.83-3.27-.56-.66-1.22-1.22-3.01-1.52v-.43s3.34,.23,4.27,.23c.53,0,.66-.26,.66-.66V11.34h-16.43V29.92c0,.53-2.08,1.65-4.1,1.65h-.76V8.4l5.19,2.02h5.29V6.02h-12.83l-.26-.93h13.09V.13l6.05,.46c-.07,.46-.26,.79-1.19,.96v3.54h5.62l2.61-3.27s2.94,2.18,4.76,3.67c-.1,.36-.5,.53-.99,.53h-12Zm-.26,17.23v6.22c-.03,.17-1.39,.89-3.77,.89h-.86v-7.11h-4.93l-.26-.93h5.19v-3.9h-4.3l-.26-.93h7.44c.46-1.75,.89-4.2,1.12-5.89l5.06,1.39c-.13,.4-.53,.66-1.26,.63-.99,1.09-2.48,2.61-3.9,3.87h1.65l1.75-2.08s1.98,1.42,3.24,2.48c-.1,.36-.43,.53-.89,.53h-5.03v3.9h.46l1.95-2.41s2.22,1.65,3.57,2.81c-.1,.36-.43,.53-.89,.53h-5.09Zm-8.17-11.41c8.53,1.32,4.43,7.67,1.12,4.79,.03-1.65-.63-3.47-1.39-4.63l.26-.17Z"/>
      <path class="cls-1" d="M253.3,7.64c9.19,1.32,5.26,8.27,1.65,5.39-.1-1.85-.96-3.9-1.92-5.22l.26-.17Zm9.16,.03c-1.03,3.57-2.74,10.12-3.11,11.8-.23,1.06-.46,2.25-.43,3.08,.1,1.92,1.59,3.01,1.49,6.05-.07,1.75-1.36,2.94-3.11,2.94-.83,0-1.72-.46-2.05-1.75,.69-3.54,.56-6.84-.23-7.37-.46-.33-.99-.5-1.72-.56v-.6h1.49c.53,0,.66,0,1.06-.66q.73-1.19,6.12-13.03l.5,.1Zm-6.71-7.24c9.62,1.36,5.79,8.53,1.98,5.69-.26-1.95-1.32-4.07-2.25-5.52l.26-.17Zm20.43,12c2.02,2.31,5.49,3.94,8.8,4.63l-.07,.36c-1.69,.46-2.91,1.98-3.44,4.4-1.39-.89-2.51-2.02-3.44-3.34v4.5c-.03,.2-2.25,.76-3.54,.76h-.76v-1.55h-4.13v3.84c0,.56,.23,.69,1.42,.69h3.9c1.22,0,2.41,0,3.01-.03,.53-.03,.86-.13,1.12-.46,.46-.53,1.06-1.75,1.79-3.57h.33l.13,3.67c1.29,.5,1.65,.99,1.65,1.79,0,1.92-1.79,2.71-8.53,2.71h-4.13c-4.07,0-5.19-.66-5.19-3.77v-7.74c-1.62,1.19-3.44,2.22-5.46,3.07l-.26-.4c3.01-2.45,5.29-6.05,6.58-9.56h-4.17l-.26-.93h4.46V6.75h-3.67l-.26-.93h3.94V.46l5.52,.43c-.07,.5-.3,.83-1.22,.96v3.97h3.01V.46l5.72,.46c-.07,.46-.3,.79-1.22,.93v3.97h.56l2.12-2.98s2.41,2.02,3.8,3.37c-.1,.36-.46,.53-.93,.53h-5.56v4.76h.83l2.22-3.08s2.51,2.08,3.97,3.47c-.07,.36-.43,.53-.93,.53h-7.7Zm.13,2.78c-.36-.86-.66-1.79-.93-2.78h-4.3c-.63,1.22-1.39,2.38-2.28,3.47l1.26,.46h3.37l1.82-1.92,1.06,.76Zm-2.58,6.05v-3.97h-4.13v3.97h4.13Zm-3.44-9.75h3.01V6.75h-3.01v4.76Z"/>
      <path class="cls-1" d="M321.14,19.84s2.25,1.79,3.6,3.01c-.07,.36-.43,.53-.89,.53h-5.95v3.84c0,2.71-.66,4.07-5.26,4.4-.1-1.12-.2-1.98-.69-2.51-.5-.5-1.09-.89-2.71-1.19v-.4s3.21,.2,3.84,.2c.4,0,.53-.13,.53-.5v-3.84h-5.85l-.13-.46v6.91c-.03,.26-1.82,1.09-3.14,1.09h-.6v-2.48h-6.81v1.65c0,.4-1.32,1.22-2.84,1.22h-.56V7.27l3.57,1.52V3.84h-4.1l-.26-.93h10.45l2.02-2.81s2.31,1.92,3.64,3.21c-.1,.36-.43,.53-.89,.53h-4.63v4.96h.1l1.79-1.92,3.51,2.78c-.2,.23-.63,.5-1.22,.63v12.17h5.98v-2.81l2.65,.2c.53-.69,1.09-1.45,1.52-2.08h-8.63l-.3-.93h9.23l1.88-1.79c-.36,.07-.73,.1-1.06,.1h-.76v-1.42h-4.93v.66c0,.33-1.79,1.19-3.41,1.19h-.56V6.45l4.1,1.59h4.46l1.88-2.02,3.9,2.91c-.17,.23-.56,.53-1.16,.63v4.66c-.03,.17-1.06,.53-2.15,.76l3.27,3.01c-.26,.26-.6,.33-1.32,.36-1.03,.46-2.38,1.09-3.77,1.69l.53,.03c-.07,.5-.4,.73-1.09,.86v1.52h1.26l1.98-2.61Zm-21.13-8.86c0,2.35-.17,6.02-2.71,8.53l-.23-.26v2.71h6.81v-3.67c-.26,.03-.6,.07-.96,.07h-.66c-1.39,0-1.59-.5-1.59-1.75v-6.88h-.66v1.26Zm-2.94-1.26v8.96c1.12-2.58,1.06-5.52,1.06-7.74v-1.22h-1.06Zm6.81,17.79v-4.63h-6.81v4.63h6.81Zm-3.87-23.68v4.96h.66V3.84h-.66Zm2.61,5.89v5.92c0,.33,.07,.43,.23,.43h.83l.2-.07v-6.28h-1.26Zm11.8-5.19c-.3-.13-.56-.3-.83-.53,.1-1.36-.33-2.74-.89-3.57l.2-.13c6.35,.1,6.02,3.27,4,4.23h1.88l2.02-2.74s2.28,1.85,3.6,3.14c-.1,.36-.46,.53-.93,.53h-15.94l-.26-.93h7.14Zm3.7,8.27v-3.84h-4.93v3.84h4.93Z"/>
      <path class="cls-1" d="M362.44,14.71s1.52,1.69,2.25,2.78c-.07,.36-.36,.53-.79,.53h-2.25v5.92c-.07,.13-1.88,.79-3.57,.79h-.83v-1.65h-1.59v3.8c0,2.78-.63,4.43-5.16,4.76-.03-1.29-.1-2.22-.43-2.78-.3-.56-.76-1.06-2.05-1.26v-.43s1.95,.13,2.48,.13c.43,0,.53-.2,.53-.53v-3.7h-2.94l-.3-.93h3.24v-4.13h-3.93l-.26-.93h4.2v-4.07h-2.78l-.1-.36c-.1,.03-.2,.03-.3,.03h-15.24l-.26-.93h5.32v-3.14h-4.23l-.26-.93h4.5v-2.71h-4.63l-.26-.93h4.89V.26l5.62,.46c-.03,.43-.26,.73-1.06,.86v2.48h.66l1.88-2.45s2.12,1.65,3.37,2.84c-.1,.36-.43,.53-.89,.53h-5.03v2.71h.43l1.79-2.35s2.05,1.62,3.24,2.74c-.07,.36-.4,.53-.86,.53h-4.6v3.14h1.16l1.92-2.51s2.12,1.65,3.41,2.84h9.26l1.72-1.95,3.14,3.14c-.23,.23-.69,.46-1.19,.56v2.31l.79-1.45Zm-14.98,1.22c-.2,.26-.56,.53-1.19,.66v10.22c0,2.88-.56,4.43-4.79,4.79-.03-1.39-.1-2.45-.36-3.08-.3-.63-.66-1.06-1.72-1.29v-.43s1.52,.07,1.98,.07c.4,0,.5-.2,.5-.53v-2.81h-3.44v6.58c0,.43-1.82,1.42-3.67,1.42h-.63V13.29l4.43,1.75h2.98l1.88-2.12,4.03,3.01Zm-9.03,.03v2.88h3.44v-2.88h-3.44Zm3.44,6.65v-2.84h-3.44v2.84h3.44Zm5.65-17.19c7.64,2.08,3.64,7.9,.76,5.06,.23-1.72-.3-3.64-1.09-4.89l.33-.17Zm14.81-1.29c-.46,.33-1.22,.33-2.25-.1-3.01,.5-7.74,.83-11.74,.79l-.07-.4c3.44-1.02,7.8-2.98,10.02-4.3l4.03,4Zm-10.35,.89c7.77,1.85,3.77,7.74,.86,4.89,.17-1.65-.36-3.54-1.16-4.73l.3-.17Zm3.67,12.07h1.59v-4.07h-1.59v4.07Zm1.59,.93h-1.59v4.13h1.59v-4.13Zm6.35-11.08c-.13,.3-.46,.5-1.29,.36-1.29,1.22-4.1,3.27-5.85,4.56l-.3-.3c.86-2.02,2.02-5.49,2.58-7.21l4.86,2.58Z"/>
      <path class="cls-1" d="M403.6,7.44c-.26,.3-.59,.4-1.29,.43-1.36,1.16-3.57,2.61-5.36,3.44l-.2-.2c.26-1.19,.5-2.91,.63-4.23h-19.48c.4,2.61-.36,4.5-1.69,5.32-1.29,.83-3.44,.23-4-1.52-.43-1.65,.53-2.88,1.88-3.5,1.06-.53,2.55-1.88,2.51-3.31h.36c.33,.73,.56,1.42,.73,2.08h9.95c-.43-.13-.89-.33-1.32-.66,.03-1.85-.76-3.77-2.05-4.86l.17-.17c8.7-.5,7.94,4.79,4.96,5.69h7.7l2.38-2.38,4.1,3.87Zm-2.45,18.09c1.46,.53,1.82,1.09,1.82,2.08,0,2.08-1.75,2.98-9.09,2.98h-4.2c-4.4,0-5.79-.69-5.79-4.2v-5.89l-10.78,1.36-.36-.89,11.14-1.42v-5.29c-2.74,.3-5.56,.46-8.23,.53l-.1-.43c6.02-1.29,13.33-3.87,17-5.92l4.4,4c-.36,.36-1.16,.43-2.28,0-1.65,.43-3.67,.83-5.82,1.16v5.36l6.68-.86,2.05-3.31s2.94,1.62,4.79,2.81c-.03,.36-.4,.63-.86,.69l-12.66,1.59v5.22c0,.66,.33,.86,1.52,.86h4.07c1.12,0,2.28,0,2.91-.07,.63-.03,.93-.13,1.26-.53,.53-.69,1.19-2.22,2.12-4.53h.3l.13,4.7Z"/>
    </g>
  </g>
</svg>