<svg width="166" height="43" viewBox="0 0 166 43" fill="none" xmlns="http://www.w3.org/2000/svg">
<path d="M109.993 13.3027V12.4027L111.342 12.5227C111.592 12.5427 111.723 12.6027 111.723 12.7327C111.723 12.8127 111.643 12.9427 111.473 13.1127V13.3127H114.883V15.5027H116.353V16.7827H114.883V18.9727H111.473V19.9927H115.062V21.2727H111.473V22.3127H115.453V23.6627H111.473V25.4727C112.343 25.5027 113.333 25.5227 114.423 25.5227C114.913 25.5227 115.563 25.5027 116.353 25.4627L115.643 27.0727C112.743 27.0727 110.543 26.9727 108.993 26.8127C107.723 26.6727 106.683 26.4627 105.883 26.1827C105.273 25.9727 104.733 25.7027 104.273 25.4027C103.733 26.1427 103.073 26.7727 102.283 27.2627L101.193 26.0927C101.953 25.6927 102.593 25.1527 103.083 24.4627C102.553 23.9327 102.013 23.1327 101.443 22.0427L102.613 21.6027C103.063 22.2827 103.473 22.8027 103.833 23.2027C104.233 22.2927 104.493 21.0327 104.603 19.4127H103.253L102.723 20.5027L101.443 20.0527L103.963 14.7827H101.513V13.4327H104.283L104.673 13.3027C104.803 13.3027 104.923 13.3527 105.053 13.4327L105.863 13.9227C105.963 13.9927 106.023 14.0727 106.023 14.1327C106.023 14.2827 105.893 14.4327 105.633 14.5727L103.923 18.0427H106.033C105.933 20.6827 105.622 22.6327 105.092 23.8927C105.062 23.9927 105.013 24.0727 104.973 24.1427C105.693 24.6027 106.513 24.9227 107.413 25.0827C107.993 25.2327 108.863 25.3327 110.013 25.3927V23.6427H106.033V22.2927H110.013V21.2527H106.543V19.9727H110.013V18.9527H106.913V17.6627H110.013V16.7627H105.562V15.4827H110.013V14.5827H106.913V13.2927H110.013L109.993 13.3027ZM111.473 15.4927H113.463V14.5927H111.473V15.4927ZM111.473 17.6827H113.463V16.7827H111.473V17.6827Z" fill="white"/>
<path d="M123.823 14.8527V16.1327H117.893V14.8527H123.823ZM123.492 21.8027V27.0027H122.143V26.2327H119.643V27.1327H118.293V21.8027H123.492ZM123.172 17.2327V18.4527H118.463V17.2327H123.172ZM123.172 19.4227V20.6427H118.463V19.4227H123.172ZM123.112 12.6727V13.8927H118.533V12.6727H123.112ZM122.143 25.0227V23.0327H119.643V25.0227H122.143ZM129.992 12.7427V16.2827C129.992 16.7627 130.053 16.9927 130.203 16.9927H131.043C131.123 16.9927 131.203 16.9427 131.273 16.8227C131.343 16.6927 131.423 16.2027 131.523 15.3127L132.872 15.7627C132.642 16.8827 132.383 17.5927 132.103 17.8527C131.803 18.1527 131.373 18.2827 130.812 18.2827H130.073C129.073 18.2827 128.573 17.7227 128.573 16.6027V13.9627H126.593C126.523 15.1527 126.383 16.0227 126.143 16.5827C125.853 17.2627 125.333 17.9527 124.633 18.6627L123.543 17.7627C124.203 17.2027 124.632 16.6427 124.862 16.1127C125.092 15.6827 125.223 14.5627 125.223 12.7527H129.982L129.992 12.7427ZM130.122 19.2927C130.282 19.1627 130.402 19.0927 130.432 19.0927C130.532 19.0927 130.642 19.1527 130.742 19.2527L131.503 19.9627C131.603 20.0627 131.653 20.1627 131.653 20.2627C131.653 20.3627 131.503 20.4927 131.213 20.6427C130.583 22.4427 129.893 23.7527 129.133 24.5827C130.023 25.0427 131.243 25.4227 132.753 25.7327L131.853 27.1427C130.273 26.7127 129.003 26.2027 128.013 25.5827C127.123 26.2127 125.993 26.7227 124.633 27.1427L123.672 25.8627C124.642 25.6527 125.433 25.4027 126.033 25.1227C126.333 24.9927 126.593 24.8427 126.843 24.6727C126.083 23.9527 125.313 22.9627 124.523 21.6727L125.543 21.0327C126.303 22.2327 127.102 23.1527 127.932 23.8027C128.052 23.6727 128.163 23.5427 128.263 23.4027C128.753 22.7827 129.223 21.8427 129.643 20.5727H124.773V19.2827H130.122V19.2927Z" fill="white"/>
<path d="M136.172 15.8027V12.1927L137.422 12.2927C137.652 12.3127 137.763 12.3627 137.763 12.4527C137.763 12.5327 137.683 12.6627 137.513 12.8527V15.8027H138.793V17.0927H137.513V17.6527C137.993 18.6427 138.552 19.4627 139.172 20.1227L138.223 21.1427C137.963 20.7527 137.733 20.3327 137.513 19.8927V27.2027H136.163V20.7127C135.863 21.6327 135.553 22.4927 135.193 23.2627L133.913 22.4427C134.443 21.6527 134.903 20.8127 135.293 19.9027C135.523 19.3627 135.823 18.5527 136.163 17.4727V17.0927H134.353V15.8027H136.163H136.172ZM147.482 12.7927C147.612 12.8627 147.672 12.9227 147.672 12.9727C147.672 13.0727 147.573 13.1727 147.413 13.2327L146.112 15.4027C146.372 15.6127 146.623 15.8127 146.853 16.0127L147.742 14.4527L148.682 15.0427C148.782 15.1127 148.833 15.1927 148.833 15.2927C148.833 15.3927 148.733 15.4527 148.573 15.4927L146.922 18.1127C147.242 18.0627 147.553 18.0027 147.843 17.9327C147.763 17.7027 147.672 17.4727 147.612 17.2227L148.633 16.9727C148.993 17.8927 149.263 18.7527 149.403 19.5427L148.253 19.7927C148.223 19.4927 148.153 19.2027 148.083 18.8827C147.473 19.0627 146.652 19.2827 145.612 19.5427C145.512 19.6727 145.433 19.7427 145.353 19.7427C145.273 19.7427 145.223 19.6727 145.223 19.5427L144.973 18.3727C145.173 18.3527 145.353 18.3427 145.543 18.3027L146.302 16.9827C145.742 16.5027 145.133 16.0427 144.503 15.6027C144.583 17.4827 144.762 19.1427 145.062 20.5627H146.432C146.302 20.4327 146.182 20.3127 146.052 20.1827L146.833 19.5427C147.193 19.8227 147.543 20.1727 147.883 20.5627H149.213V21.7927H145.343C145.523 22.4727 145.733 23.0627 145.973 23.5727C146.313 23.1427 146.643 22.6527 146.963 22.1027L148.033 22.6927C148.133 22.7527 148.172 22.8427 148.172 22.9427C148.172 23.0427 148.062 23.0727 147.862 23.0727C147.382 23.7627 146.953 24.3427 146.593 24.7727C146.653 24.9027 146.742 25.0027 146.802 25.1027C147.102 25.5127 147.363 25.7127 147.593 25.7127C147.753 25.7127 148.022 25.1527 148.372 24.0327L149.393 24.8727C148.713 26.4827 148.143 27.3127 147.663 27.3127C147.183 27.3127 146.613 26.8727 145.913 26.0127C145.833 25.8927 145.763 25.8027 145.703 25.7027C145.493 25.8827 145.273 26.0527 145.073 26.2127C144.583 26.5627 143.933 26.9027 143.143 27.2627L142.253 26.1627C143.113 25.8627 143.803 25.5527 144.343 25.1527C144.593 24.9727 144.823 24.7727 145.033 24.5827C144.623 23.7727 144.273 22.8527 144.013 21.8027H141.672C141.622 22.2127 141.573 22.5827 141.523 22.9027C142.243 23.4327 142.953 24.0427 143.663 24.7527L142.562 25.4627C142.132 24.9727 141.692 24.5027 141.232 24.0927V24.1227C141.002 24.7927 140.743 25.3727 140.443 25.8527C140.193 26.2327 139.902 26.6127 139.552 27.0027L138.323 26.2327C138.673 25.9027 138.933 25.6227 139.133 25.3627C139.493 24.8727 139.793 24.3127 140.033 23.6527C140.193 23.1627 140.332 22.5327 140.432 21.8127H139.103V20.5827H143.742C143.382 18.5727 143.213 15.7727 143.213 12.1627L144.393 12.3727C144.543 12.4027 144.622 12.4527 144.622 12.5327C144.622 12.6427 144.552 12.7827 144.422 12.9127C144.422 13.7027 144.443 14.4427 144.473 15.1727L144.953 14.5927C145.053 14.6627 145.133 14.7227 145.213 14.7727L146.543 12.3327L147.453 12.7927H147.482ZM142.062 12.7927C142.192 12.8627 142.273 12.9227 142.273 12.9727C142.273 13.0727 142.173 13.1727 142.013 13.2327L140.593 15.3927C140.823 15.5527 141.023 15.7227 141.203 15.8727L142.143 14.4527L143.083 15.0427C143.183 15.1127 143.232 15.1927 143.232 15.2927C143.232 15.3927 143.152 15.4527 142.982 15.4927L140.903 18.2727C141.263 18.2427 141.613 18.1927 141.973 18.1427C141.903 17.9127 141.852 17.6627 141.802 17.4227L142.773 17.1627C143.033 18.1227 143.233 18.9927 143.353 19.7927L142.263 20.0527C142.233 19.7527 142.193 19.4627 142.143 19.1327C141.473 19.2627 140.562 19.4327 139.422 19.6127C139.322 19.7427 139.243 19.7927 139.163 19.7927C139.083 19.7927 139.033 19.7427 139.033 19.6127L138.783 18.4427C139.033 18.4427 139.273 18.4227 139.523 18.3927L140.573 16.7927C140.003 16.3327 139.373 15.8927 138.713 15.4227L139.413 14.5827C139.513 14.6527 139.593 14.7127 139.693 14.7827L141.143 12.3327L142.033 12.7927H142.062Z" fill="white"/>
<path d="M152.812 15.3627V12.1527L154.062 12.2327C154.293 12.2527 154.422 12.3027 154.422 12.3927C154.422 12.4827 154.323 12.6227 154.163 12.7827V15.3527H155.773V16.6327H154.172C154.702 18.1627 155.363 19.4127 156.153 20.3727L155.193 21.3927C154.813 20.7327 154.473 20.0427 154.153 19.2827V27.3027H152.802V19.5427C152.732 19.7727 152.683 19.9727 152.653 20.1527C152.393 21.2427 152.113 22.2327 151.783 23.1327L150.432 22.2327C150.892 21.4427 151.293 20.5727 151.633 19.6327C151.863 18.9727 152.163 17.9827 152.523 16.6327H150.742V15.3527H152.802L152.812 15.3627ZM158.343 13.5027V12.1527L159.593 12.2327C159.823 12.2527 159.953 12.3027 159.953 12.3927C159.953 12.4827 159.853 12.6227 159.693 12.7827V13.4927H161.812V12.1427L163.062 12.2227C163.293 12.2427 163.422 12.2927 163.422 12.3827C163.422 12.4727 163.323 12.6127 163.163 12.7727V13.4827H165.223V14.6327H163.163V15.5327H164.783V16.6227H163.163V17.5227H165.732V18.6727H161.562V19.4527H164.773V23.6327H165.922V24.7827H164.773V25.8827C164.773 26.5127 164.393 26.9227 163.633 27.1227C163.033 27.2727 162.442 27.3527 161.872 27.3527L161.362 26.0027L162.812 25.9827C163.213 25.9527 163.422 25.7827 163.422 25.4927V24.7827H158.333V27.1727H156.982V24.7827H155.383V23.6327H156.982V19.4527H160.203V18.6727H155.763V17.5227H158.333V16.6227H156.783V15.5327H158.333V14.6327H156.213V13.4827H158.333L158.343 13.5027ZM160.223 21.6627V20.6227H158.343V21.6627H160.223ZM160.223 23.6527V22.7427H158.343V23.6527H160.223ZM161.823 14.6427H159.703V15.5427H161.823V14.6427ZM161.823 16.6327H159.703V17.5327H161.823V16.6327ZM161.573 21.6527H163.432V20.6127H161.573V21.6527ZM161.573 23.6427H163.432V22.7327H161.573V23.6427Z" fill="white"/>
<path d="M101.883 32.5927C101.973 32.5327 102.033 32.4527 102.083 32.3427C102.123 32.2327 102.153 32.1027 102.163 31.9527C102.173 31.8027 102.183 31.6327 102.183 31.4527V30.1727C102.183 29.9727 102.183 29.7627 102.173 29.5727C102.173 29.3727 102.153 29.1727 102.143 28.9727C102.183 28.9727 102.233 28.9827 102.273 28.9927C102.313 28.9927 102.353 28.9927 102.393 28.9927C102.433 28.9927 102.473 28.9927 102.523 28.9927C102.563 28.9927 102.603 28.9827 102.653 28.9727C102.653 29.1727 102.632 29.3827 102.622 29.5727C102.622 29.7727 102.613 29.9727 102.613 30.1727C102.613 30.3127 102.613 30.4527 102.613 30.6027C102.613 30.7527 102.613 30.9027 102.613 31.0427C102.613 31.1927 102.613 31.3227 102.613 31.4627C102.613 31.5927 102.613 31.7227 102.613 31.8327C102.613 31.9727 102.593 32.1027 102.543 32.2127C102.493 32.3327 102.423 32.4327 102.333 32.5227C102.243 32.6127 102.133 32.6827 102.003 32.7327C101.873 32.7827 101.733 32.8127 101.583 32.8127L101.543 32.6827C101.683 32.6827 101.803 32.6527 101.883 32.5927Z" fill="white"/>
<path d="M103.633 28.9727C103.683 28.9327 103.743 28.9027 103.823 28.9027C103.903 28.9027 103.953 28.9227 104.003 28.9727C104.053 29.0227 104.083 29.0727 104.083 29.1427C104.083 29.2127 104.063 29.2627 104.003 29.3027C103.953 29.3527 103.893 29.3727 103.823 29.3727C103.753 29.3727 103.693 29.3527 103.633 29.3027C103.583 29.2527 103.553 29.2027 103.553 29.1427C103.553 29.0827 103.583 29.0227 103.633 28.9727ZM103.622 30.3827C103.622 30.2327 103.602 30.0827 103.592 29.9527C103.682 29.9627 103.763 29.9727 103.823 29.9727C103.883 29.9727 103.953 29.9727 104.053 29.9527C104.033 30.0827 104.023 30.2327 104.023 30.3827C104.023 30.5427 104.023 30.6827 104.023 30.8227V31.3127C104.023 31.4527 104.023 31.6027 104.023 31.7527C104.023 31.9027 104.043 32.0427 104.053 32.1727C103.973 32.1727 103.893 32.1727 103.823 32.1727C103.753 32.1727 103.672 32.1727 103.592 32.1727C103.612 32.0527 103.622 31.9127 103.622 31.7527C103.622 31.6027 103.622 31.4527 103.622 31.3127V30.8227C103.622 30.6827 103.622 30.5327 103.622 30.3827Z" fill="white"/>
<path d="M106.443 30.3227C106.343 30.2027 106.203 30.1427 106.033 30.1427C105.793 30.1427 105.623 30.2027 105.513 30.3427C105.403 30.4727 105.342 30.6627 105.342 30.9027V31.3027C105.342 31.4427 105.342 31.5927 105.342 31.7427C105.342 31.8927 105.362 32.0327 105.372 32.1627C105.292 32.1627 105.213 32.1627 105.143 32.1627C105.073 32.1627 104.993 32.1627 104.913 32.1627C104.933 32.0427 104.943 31.9027 104.943 31.7427C104.943 31.5927 104.943 31.4427 104.943 31.3027V30.8127C104.943 30.6727 104.943 30.5227 104.943 30.3727C104.943 30.2227 104.923 30.0727 104.913 29.9427C105.013 29.9527 105.083 29.9627 105.143 29.9627C105.173 29.9627 105.203 29.9627 105.233 29.9627C105.263 29.9627 105.303 29.9527 105.353 29.9427C105.343 30.0627 105.342 30.1927 105.342 30.3127C105.442 30.1827 105.553 30.0727 105.693 30.0027C105.823 29.9327 105.983 29.8927 106.173 29.8927C106.273 29.8927 106.363 29.9027 106.463 29.9327C106.563 29.9527 106.653 30.0027 106.723 30.0627C106.803 30.1227 106.863 30.2027 106.913 30.3127C106.963 30.4127 106.983 30.5527 106.983 30.7127C106.983 30.8427 106.983 30.9827 106.983 31.1227C106.983 31.2627 106.973 31.4127 106.973 31.5727V31.8727C106.973 31.8727 106.973 31.9727 106.973 32.0127C106.973 32.0627 106.973 32.1027 106.973 32.1527C106.903 32.1527 106.833 32.1527 106.753 32.1527C106.683 32.1527 106.613 32.1527 106.543 32.1527C106.543 31.9927 106.553 31.8227 106.562 31.6527C106.572 31.4827 106.573 31.3027 106.573 31.1227V30.8427C106.573 30.6127 106.523 30.4327 106.423 30.3127L106.443 30.3227Z" fill="white"/>
<path d="M107.713 30.3227C107.763 30.2227 107.833 30.1527 107.923 30.0827C108.013 30.0227 108.123 29.9727 108.233 29.9427C108.353 29.9127 108.473 29.8927 108.613 29.8927C108.673 29.8927 108.743 29.8927 108.803 29.8927C108.863 29.8927 108.933 29.8927 109.033 29.9027C109.113 29.9027 109.183 29.9127 109.243 29.9227C109.303 29.9227 109.353 29.9227 109.383 29.9227C109.573 29.9227 109.713 29.9227 109.803 29.9027C109.803 29.9227 109.803 29.9327 109.803 29.9527C109.803 29.9727 109.803 29.9827 109.803 30.0027C109.803 30.0227 109.803 30.0327 109.803 30.0527C109.803 30.0727 109.803 30.0827 109.803 30.1027C109.703 30.1027 109.603 30.0927 109.513 30.0827C109.423 30.0827 109.323 30.0627 109.233 30.0627H109.223C109.333 30.1227 109.413 30.2027 109.483 30.3127C109.543 30.4227 109.583 30.5427 109.583 30.6527C109.583 30.8827 109.493 31.0727 109.323 31.2027C109.153 31.3327 108.912 31.4027 108.622 31.4027C108.572 31.4027 108.533 31.4027 108.483 31.4027C108.433 31.4027 108.392 31.4027 108.342 31.4027C108.282 31.4027 108.223 31.4227 108.173 31.4627C108.123 31.5027 108.092 31.5527 108.092 31.6127C108.092 31.6927 108.113 31.7527 108.163 31.7927C108.203 31.8327 108.283 31.8527 108.403 31.8527C108.503 31.8527 108.593 31.8527 108.683 31.8527C108.773 31.8527 108.863 31.8527 108.963 31.8527C109.123 31.8527 109.253 31.8727 109.363 31.9027C109.473 31.9327 109.563 31.9727 109.633 32.0227C109.703 32.0727 109.753 32.1327 109.783 32.2027C109.813 32.2727 109.833 32.3427 109.833 32.4227C109.833 32.5327 109.813 32.6427 109.763 32.7527C109.713 32.8627 109.643 32.9627 109.543 33.0527C109.443 33.1427 109.323 33.2127 109.163 33.2727C109.013 33.3327 108.823 33.3627 108.613 33.3627C108.283 33.3627 108.023 33.3027 107.833 33.1827C107.643 33.0627 107.543 32.9027 107.543 32.6927C107.543 32.6127 107.562 32.5427 107.592 32.4727C107.622 32.4027 107.673 32.3427 107.723 32.2927C107.773 32.2427 107.833 32.2027 107.903 32.1627C107.963 32.1327 108.033 32.1127 108.103 32.0927C107.993 32.0527 107.913 32.0127 107.863 31.9427C107.803 31.8727 107.783 31.7927 107.783 31.7127C107.783 31.6627 107.793 31.6127 107.812 31.5627C107.832 31.5227 107.863 31.4827 107.893 31.4427C107.923 31.4027 107.963 31.3827 108.013 31.3527C108.053 31.3327 108.103 31.3227 108.143 31.3127C107.983 31.2427 107.863 31.1527 107.773 31.0427C107.683 30.9327 107.643 30.7927 107.643 30.6127C107.643 30.4827 107.663 30.3727 107.723 30.2727L107.713 30.3227ZM109.273 32.2627C109.153 32.1827 108.953 32.1527 108.673 32.1527C108.423 32.1527 108.223 32.1927 108.083 32.2727C107.943 32.3527 107.872 32.4827 107.872 32.6827C107.872 32.7927 107.893 32.8827 107.933 32.9527C107.973 33.0327 108.022 33.0827 108.092 33.1327C108.162 33.1727 108.243 33.2127 108.333 33.2327C108.423 33.2527 108.523 33.2627 108.633 33.2627C108.733 33.2627 108.833 33.2527 108.933 33.2227C109.033 33.2027 109.123 33.1627 109.203 33.1127C109.273 33.0627 109.343 33.0027 109.393 32.9227C109.443 32.8427 109.463 32.7527 109.463 32.6527C109.463 32.4627 109.403 32.3327 109.283 32.2627H109.273ZM109.023 30.1927C108.923 30.0927 108.783 30.0427 108.613 30.0427C108.433 30.0427 108.283 30.0927 108.183 30.2127C108.083 30.3227 108.023 30.4727 108.023 30.6627C108.023 30.8527 108.073 31.0127 108.163 31.1327C108.253 31.2427 108.403 31.3027 108.603 31.3027C108.703 31.3027 108.783 31.2827 108.863 31.2427C108.933 31.2127 108.993 31.1627 109.033 31.1027C109.083 31.0427 109.113 30.9727 109.133 30.8927C109.153 30.8127 109.163 30.7327 109.163 30.6427C109.163 30.4427 109.113 30.2927 109.013 30.1927H109.023Z" fill="white"/>
<path d="M111.433 30.9327V31.2227H110.153V30.9327H111.433Z" fill="white"/>
<path d="M112.133 29.5626C112.133 29.3626 112.123 29.1626 112.103 28.9626C112.233 28.9626 112.363 28.9726 112.493 28.9826C112.623 28.9826 112.753 28.9826 112.883 28.9826C113.013 28.9826 113.143 28.9826 113.273 28.9726C113.403 28.9726 113.533 28.9626 113.663 28.9626C113.963 28.9626 114.223 28.9926 114.433 29.0726C114.653 29.1426 114.823 29.2426 114.963 29.3726C115.103 29.5026 115.203 29.6626 115.263 29.8626C115.323 30.0526 115.353 30.2726 115.353 30.5026C115.353 30.8126 115.293 31.0726 115.173 31.2926C115.053 31.5026 114.903 31.6726 114.723 31.8026C114.543 31.9326 114.342 32.0226 114.122 32.0826C113.902 32.1326 113.683 32.1626 113.493 32.1626C113.373 32.1626 113.263 32.1626 113.143 32.1626C113.033 32.1626 112.923 32.1626 112.803 32.1626H112.463C112.353 32.1626 112.232 32.1626 112.122 32.1626C112.132 31.9726 112.143 31.7726 112.153 31.5726C112.153 31.3726 112.173 31.1726 112.173 30.9626V30.1626C112.173 29.9626 112.173 29.7526 112.153 29.5626H112.133ZM112.603 31.9526C112.673 31.9726 112.773 31.9826 112.893 31.9826C113.013 31.9826 113.143 31.9926 113.273 31.9926C113.463 31.9926 113.653 31.9726 113.833 31.9326C114.023 31.8926 114.192 31.8126 114.342 31.7026C114.492 31.5926 114.613 31.4326 114.703 31.2426C114.793 31.0426 114.842 30.7926 114.842 30.4926C114.842 30.2226 114.803 30.0026 114.733 29.8226C114.663 29.6526 114.563 29.5126 114.433 29.4126C114.303 29.3126 114.153 29.2426 113.973 29.2026C113.793 29.1626 113.603 29.1426 113.393 29.1426C113.243 29.1426 113.093 29.1426 112.963 29.1526C112.833 29.1526 112.713 29.1726 112.603 29.1826C112.603 29.3326 112.583 29.4926 112.573 29.6526C112.573 29.8126 112.573 29.9826 112.573 30.1526V30.9526C112.573 31.2926 112.573 31.6226 112.603 31.9426V31.9526Z" fill="white"/>
<path d="M116.033 31.0327C116.033 30.9127 116.033 30.8027 116.033 30.6827C116.033 30.5627 116.033 30.4527 116.033 30.3327C116.033 30.2027 116.033 30.0727 116.033 29.9427C116.123 29.9527 116.193 29.9627 116.253 29.9627C116.303 29.9627 116.373 29.9627 116.463 29.9427C116.443 30.1327 116.433 30.3327 116.423 30.5527C116.423 30.7727 116.413 31.0027 116.413 31.2327C116.413 31.3927 116.433 31.5227 116.453 31.6027C116.483 31.6927 116.523 31.7527 116.562 31.7927C116.613 31.8427 116.673 31.8827 116.743 31.9127C116.813 31.9427 116.903 31.9627 117.003 31.9627C117.143 31.9627 117.262 31.9327 117.362 31.8727C117.462 31.8127 117.533 31.7427 117.573 31.6627C117.603 31.6127 117.613 31.5627 117.633 31.5227C117.643 31.4827 117.663 31.4327 117.663 31.3727C117.663 31.3127 117.672 31.2227 117.672 31.1227V30.1027C117.672 30.0427 117.672 29.9827 117.672 29.9227C117.712 29.9227 117.743 29.9327 117.783 29.9427C117.813 29.9427 117.853 29.9427 117.893 29.9427C117.933 29.9427 117.963 29.9427 118.003 29.9427C118.033 29.9427 118.073 29.9327 118.103 29.9227C118.083 30.1627 118.073 30.4027 118.073 30.6227C118.073 30.8527 118.073 31.0827 118.073 31.3427C118.073 31.4827 118.073 31.6227 118.073 31.7527C118.073 31.8927 118.073 32.0127 118.083 32.1427C118.013 32.1427 117.953 32.1427 117.883 32.1427C117.813 32.1427 117.752 32.1427 117.682 32.1427C117.682 32.1127 117.682 32.0827 117.682 32.0527C117.682 32.0227 117.682 31.9927 117.682 31.9527V31.7527H117.672C117.582 31.9027 117.473 32.0127 117.333 32.0827C117.193 32.1527 117.042 32.1927 116.872 32.1927C116.602 32.1927 116.393 32.1327 116.243 32.0027C116.093 31.8727 116.013 31.6927 116.013 31.4427C116.013 31.2827 116.013 31.1427 116.013 31.0227L116.033 31.0327Z" fill="white"/>
<path d="M122.913 32.0527C122.843 32.0827 122.762 32.1127 122.672 32.1327C122.582 32.1527 122.472 32.1827 122.362 32.1927C122.242 32.2127 122.123 32.2227 122.003 32.2227C121.733 32.2227 121.483 32.1827 121.253 32.1227C121.023 32.0527 120.823 31.9427 120.663 31.8027C120.503 31.6627 120.363 31.4827 120.273 31.2827C120.183 31.0727 120.133 30.8427 120.133 30.5727C120.133 30.3027 120.183 30.0727 120.273 29.8727C120.363 29.6627 120.502 29.4927 120.672 29.3427C120.842 29.2027 121.043 29.0927 121.283 29.0127C121.523 28.9327 121.782 28.9027 122.062 28.9027C122.282 28.9027 122.492 28.9227 122.682 28.9627C122.862 29.0027 123.032 29.0527 123.172 29.1127C123.142 29.1527 123.123 29.2127 123.103 29.2927C123.083 29.3727 123.072 29.4327 123.062 29.4827H123.033C123.033 29.4827 122.953 29.4127 122.893 29.3627C122.833 29.3127 122.762 29.2727 122.682 29.2227C122.602 29.1827 122.513 29.1427 122.403 29.1127C122.303 29.0827 122.182 29.0727 122.062 29.0727C121.853 29.0727 121.673 29.1027 121.503 29.1627C121.333 29.2227 121.182 29.3127 121.052 29.4327C120.922 29.5527 120.823 29.7127 120.753 29.8927C120.683 30.0827 120.643 30.3027 120.643 30.5627C120.643 30.8227 120.673 31.0427 120.753 31.2327C120.823 31.4227 120.922 31.5827 121.052 31.7027C121.182 31.8227 121.333 31.9127 121.503 31.9727C121.673 32.0327 121.862 32.0627 122.062 32.0627C122.182 32.0627 122.303 32.0527 122.403 32.0227C122.503 31.9927 122.602 31.9627 122.682 31.9227C122.772 31.8827 122.852 31.8427 122.922 31.7927C122.992 31.7427 123.053 31.7127 123.103 31.6727L123.122 31.6927L123.073 31.9627C123.073 31.9627 122.992 32.0127 122.922 32.0427L122.913 32.0527Z" fill="white"/>
<path d="M123.612 30.5227C123.682 30.3727 123.783 30.2527 123.903 30.1627C124.023 30.0727 124.162 30.0027 124.302 29.9627C124.452 29.9227 124.602 29.9027 124.742 29.9027C124.882 29.9027 125.042 29.9227 125.182 29.9627C125.332 30.0027 125.463 30.0727 125.583 30.1627C125.703 30.2527 125.802 30.3727 125.872 30.5227C125.942 30.6727 125.982 30.8527 125.982 31.0627C125.982 31.2727 125.942 31.4527 125.872 31.6027C125.802 31.7527 125.703 31.8727 125.583 31.9627C125.463 32.0527 125.332 32.1227 125.182 32.1527C125.042 32.1927 124.892 32.2127 124.742 32.2127C124.592 32.2127 124.452 32.1927 124.302 32.1527C124.152 32.1127 124.023 32.0527 123.903 31.9627C123.783 31.8727 123.692 31.7527 123.612 31.6027C123.532 31.4527 123.503 31.2727 123.503 31.0627C123.503 30.8527 123.542 30.6727 123.612 30.5227ZM123.992 31.4327C124.012 31.5527 124.062 31.6627 124.122 31.7627C124.182 31.8527 124.262 31.9327 124.372 31.9827C124.472 32.0427 124.603 32.0727 124.753 32.0727C124.903 32.0727 125.033 32.0427 125.133 31.9827C125.243 31.9227 125.323 31.8527 125.383 31.7627C125.443 31.6727 125.493 31.5527 125.513 31.4327C125.543 31.3127 125.552 31.1827 125.552 31.0527C125.552 30.9227 125.543 30.7927 125.513 30.6727C125.483 30.5527 125.443 30.4427 125.383 30.3527C125.323 30.2527 125.243 30.1827 125.133 30.1227C125.033 30.0627 124.903 30.0427 124.753 30.0427C124.603 30.0427 124.472 30.0727 124.372 30.1227C124.272 30.1827 124.182 30.2527 124.122 30.3527C124.062 30.4427 124.012 30.5527 123.992 30.6727C123.962 30.7927 123.953 30.9227 123.953 31.0527C123.953 31.1827 123.962 31.3127 123.992 31.4327Z" fill="white"/>
<path d="M128.093 30.3227C127.993 30.2027 127.852 30.1427 127.682 30.1427C127.442 30.1427 127.273 30.2027 127.153 30.3427C127.043 30.4727 126.982 30.6627 126.982 30.9027V31.3027C126.982 31.4427 126.982 31.5927 126.982 31.7427C126.982 31.8927 127.003 32.0327 127.013 32.1627C126.933 32.1627 126.853 32.1627 126.783 32.1627C126.713 32.1627 126.632 32.1627 126.552 32.1627C126.572 32.0427 126.583 31.9027 126.583 31.7427C126.583 31.5927 126.583 31.4427 126.583 31.3027V30.8127C126.583 30.6727 126.583 30.5227 126.583 30.3727C126.583 30.2227 126.562 30.0727 126.552 29.9427C126.642 29.9527 126.723 29.9627 126.783 29.9627C126.813 29.9627 126.842 29.9627 126.872 29.9627C126.902 29.9627 126.942 29.9527 126.982 29.9427C126.972 30.0627 126.963 30.1927 126.963 30.3127H126.973C127.073 30.1827 127.183 30.0727 127.312 30.0027C127.442 29.9327 127.603 29.8927 127.793 29.8927C127.883 29.8927 127.983 29.9027 128.083 29.9327C128.183 29.9527 128.273 30.0027 128.343 30.0627C128.423 30.1227 128.493 30.2027 128.533 30.3127C128.583 30.4127 128.612 30.5527 128.612 30.7127C128.612 30.8427 128.613 30.9827 128.603 31.1227C128.603 31.2627 128.593 31.4127 128.593 31.5727V31.8727C128.593 31.8727 128.593 31.9727 128.593 32.0127C128.593 32.0627 128.593 32.1027 128.593 32.1527C128.523 32.1527 128.452 32.1527 128.372 32.1527C128.292 32.1527 128.223 32.1527 128.163 32.1527C128.163 31.9927 128.172 31.8227 128.182 31.6527C128.182 31.4827 128.193 31.3027 128.193 31.1227V30.8427C128.193 30.6127 128.143 30.4327 128.043 30.3127L128.093 30.3227Z" fill="white"/>
<path d="M129.463 31.8327C129.463 31.8327 129.543 31.9027 129.593 31.9327C129.643 31.9627 129.703 31.9927 129.763 32.0127C129.823 32.0327 129.893 32.0427 129.963 32.0427C130.023 32.0427 130.093 32.0427 130.153 32.0127C130.213 31.9927 130.262 31.9727 130.312 31.9327C130.363 31.9027 130.402 31.8527 130.422 31.8027C130.452 31.7527 130.463 31.6927 130.463 31.6227C130.463 31.5227 130.432 31.4527 130.372 31.4027C130.312 31.3527 130.233 31.3127 130.153 31.2727C130.063 31.2427 129.972 31.2127 129.862 31.1827C129.752 31.1627 129.663 31.1227 129.573 31.0827C129.483 31.0327 129.413 30.9827 129.353 30.9027C129.293 30.8227 129.263 30.7227 129.263 30.5927C129.263 30.4927 129.283 30.3927 129.323 30.3127C129.363 30.2227 129.412 30.1527 129.492 30.0927C129.562 30.0327 129.653 29.9827 129.753 29.9427C129.863 29.9127 129.982 29.8927 130.122 29.8927C130.242 29.8927 130.353 29.9127 130.443 29.9427C130.523 29.9727 130.613 30.0027 130.693 30.0227C130.663 30.0727 130.642 30.1327 130.612 30.1927C130.592 30.2627 130.572 30.3127 130.562 30.3527H130.503C130.473 30.2827 130.423 30.2127 130.343 30.1527C130.263 30.0927 130.162 30.0627 130.052 30.0627C130.002 30.0627 129.953 30.0627 129.903 30.0827C129.853 30.1027 129.803 30.1227 129.763 30.1527C129.723 30.1827 129.683 30.2227 129.663 30.2727C129.633 30.3227 129.622 30.3827 129.622 30.4427C129.622 30.5427 129.653 30.6227 129.713 30.6727C129.773 30.7327 129.852 30.7727 129.932 30.8027C130.022 30.8327 130.113 30.8627 130.223 30.8827C130.333 30.9027 130.423 30.9327 130.513 30.9827C130.603 31.0227 130.672 31.0827 130.732 31.1527C130.792 31.2327 130.823 31.3327 130.823 31.4627C130.823 31.5527 130.803 31.6427 130.763 31.7327C130.723 31.8227 130.663 31.8927 130.583 31.9627C130.503 32.0327 130.413 32.0927 130.293 32.1227C130.183 32.1627 130.053 32.1827 129.913 32.1827C129.753 32.1827 129.623 32.1727 129.513 32.1427C129.403 32.1127 129.312 32.0827 129.242 32.0427C129.262 32.0027 129.282 31.9427 129.302 31.8727C129.322 31.8027 129.333 31.7427 129.333 31.6927H129.393C129.393 31.6927 129.433 31.7627 129.473 31.7927L129.463 31.8327Z" fill="white"/>
<path d="M131.872 29.3226C131.872 29.4426 131.853 29.5526 131.853 29.6726C131.853 29.7826 131.843 29.9026 131.833 30.0126C131.873 30.0126 131.943 30.0126 132.043 30.0126C132.143 30.0126 132.262 30.0126 132.372 30.0026C132.372 30.0026 132.372 30.0326 132.372 30.0526V30.1526C132.372 30.1526 132.372 30.1926 132.372 30.2026C132.332 30.2026 132.282 30.2026 132.232 30.2026C132.182 30.2026 132.133 30.2026 132.083 30.2026H131.833C131.833 30.2026 131.833 30.2626 131.823 30.3526C131.823 30.4426 131.822 30.5426 131.812 30.6626C131.812 30.7826 131.812 30.9026 131.812 31.0426C131.812 31.1726 131.812 31.2926 131.812 31.3926C131.812 31.4826 131.812 31.5726 131.812 31.6526C131.812 31.7326 131.832 31.8126 131.862 31.8826C131.892 31.9526 131.932 32.0026 131.982 32.0426C132.032 32.0826 132.113 32.1026 132.213 32.1026C132.243 32.1026 132.283 32.1026 132.323 32.0926C132.363 32.0926 132.403 32.0826 132.443 32.0726V32.1826C132.383 32.1826 132.323 32.2026 132.253 32.2126C132.183 32.2226 132.112 32.2326 132.052 32.2326C131.842 32.2326 131.683 32.1826 131.573 32.0926C131.473 31.9926 131.422 31.8526 131.422 31.6726C131.422 31.5926 131.422 31.5026 131.422 31.4026C131.422 31.3026 131.422 31.2026 131.432 31.0826C131.432 30.9626 131.443 30.8326 131.453 30.6926C131.453 30.5526 131.453 30.3926 131.453 30.2126H131.293C131.293 30.2126 131.233 30.2126 131.203 30.2126C131.173 30.2126 131.143 30.2126 131.103 30.2126C131.103 30.1926 131.103 30.1726 131.103 30.1626C131.103 30.1426 131.103 30.1226 131.103 30.1126C131.103 30.0926 131.103 30.0826 131.103 30.0626C131.103 30.0426 131.103 30.0326 131.103 30.0126C131.253 30.0226 131.363 30.0226 131.443 30.0226C131.443 29.9626 131.443 29.8826 131.443 29.7926C131.443 29.7026 131.442 29.6026 131.432 29.5026L131.862 29.3426H131.883L131.872 29.3226Z" fill="white"/>
<path d="M133.903 30.2827C133.903 30.2827 133.803 30.2627 133.753 30.2627C133.673 30.2627 133.593 30.2827 133.533 30.3127C133.463 30.3427 133.412 30.3927 133.362 30.4527C133.322 30.5127 133.283 30.5827 133.263 30.6527C133.243 30.7327 133.232 30.8127 133.232 30.9127V31.4227C133.232 31.6327 133.232 31.7927 133.232 31.9027C133.232 32.0127 133.233 32.1027 133.253 32.1727C133.183 32.1727 133.113 32.1727 133.043 32.1727C132.973 32.1727 132.893 32.1727 132.833 32.1727C132.843 32.0727 132.853 31.9227 132.853 31.7427C132.853 31.5627 132.853 31.3327 132.853 31.0727V30.9227C132.853 30.8027 132.853 30.6627 132.853 30.5027C132.853 30.3427 132.853 30.1627 132.833 29.9527C132.873 29.9527 132.903 29.9627 132.943 29.9727C132.983 29.9727 133.012 29.9727 133.052 29.9727C133.082 29.9727 133.123 29.9727 133.153 29.9727C133.193 29.9727 133.223 29.9627 133.263 29.9527C133.243 30.0627 133.242 30.1527 133.232 30.2227C133.232 30.2827 133.232 30.3527 133.232 30.4127C133.432 30.0827 133.663 29.9127 133.913 29.9127C133.943 29.9127 133.972 29.9127 133.992 29.9127C134.022 29.9127 134.043 29.9227 134.083 29.9427C134.063 29.9827 134.052 30.0327 134.052 30.1127C134.052 30.1927 134.052 30.2627 134.052 30.3227L134.023 30.3427C134.023 30.3427 133.972 30.3027 133.922 30.2927L133.903 30.2827Z" fill="white"/>
<path d="M134.543 31.0327C134.543 30.9127 134.543 30.8027 134.543 30.6827C134.543 30.5627 134.543 30.4527 134.543 30.3327C134.543 30.2027 134.543 30.0727 134.543 29.9427C134.623 29.9527 134.693 29.9627 134.763 29.9627C134.813 29.9627 134.883 29.9627 134.973 29.9427C134.963 30.1327 134.942 30.3327 134.932 30.5527C134.922 30.7727 134.922 31.0027 134.922 31.2327C134.922 31.3927 134.933 31.5227 134.963 31.6027C134.993 31.6927 135.033 31.7527 135.073 31.7927C135.123 31.8427 135.183 31.8827 135.253 31.9127C135.323 31.9427 135.413 31.9627 135.513 31.9627C135.663 31.9627 135.772 31.9327 135.872 31.8727C135.962 31.8127 136.033 31.7427 136.083 31.6627C136.113 31.6127 136.123 31.5627 136.143 31.5227C136.153 31.4827 136.162 31.4327 136.172 31.3727C136.172 31.3127 136.193 31.2227 136.193 31.1227C136.193 31.0227 136.193 30.8727 136.193 30.6927V30.3027C136.193 30.2327 136.193 30.1727 136.193 30.1027C136.193 30.0427 136.193 29.9827 136.193 29.9227C136.233 29.9227 136.262 29.9327 136.302 29.9427C136.342 29.9427 136.373 29.9427 136.413 29.9427C136.453 29.9427 136.483 29.9427 136.523 29.9427C136.553 29.9427 136.592 29.9327 136.622 29.9227C136.602 30.1627 136.593 30.4027 136.593 30.6227C136.593 30.8527 136.593 31.0827 136.593 31.3427C136.593 31.4827 136.593 31.6227 136.593 31.7527C136.593 31.8927 136.592 32.0127 136.612 32.1427C136.542 32.1427 136.473 32.1427 136.413 32.1427C136.343 32.1427 136.283 32.1427 136.213 32.1427C136.213 32.1127 136.213 32.0827 136.213 32.0527C136.213 32.0227 136.213 31.9927 136.213 31.9527V31.7527C136.123 31.9027 136.012 32.0127 135.872 32.0827C135.732 32.1527 135.583 32.1927 135.413 32.1927C135.143 32.1927 134.943 32.1327 134.793 32.0027C134.643 31.8727 134.562 31.6927 134.562 31.4427C134.562 31.2827 134.562 31.1427 134.562 31.0227L134.543 31.0327Z" fill="white"/>
<path d="M137.323 30.5427C137.393 30.4027 137.492 30.2827 137.612 30.1827C137.732 30.0827 137.873 30.0127 138.033 29.9727C138.193 29.9227 138.353 29.9027 138.513 29.9027C138.703 29.9027 138.863 29.9227 139.023 29.9627C139.173 30.0027 139.273 30.0527 139.343 30.1027C139.323 30.1527 139.293 30.1927 139.283 30.2527C139.263 30.3027 139.252 30.3627 139.232 30.4127H139.193C139.193 30.4127 139.133 30.3327 139.093 30.2827C139.053 30.2427 139.003 30.2027 138.953 30.1627C138.893 30.1227 138.833 30.0927 138.763 30.0727C138.693 30.0527 138.623 30.0427 138.533 30.0427C138.383 30.0427 138.253 30.0627 138.133 30.1227C138.023 30.1727 137.932 30.2427 137.862 30.3327C137.792 30.4227 137.743 30.5327 137.713 30.6527C137.683 30.7727 137.663 30.9027 137.663 31.0527C137.663 31.3727 137.743 31.6127 137.893 31.7727C138.043 31.9327 138.262 32.0227 138.552 32.0227C138.622 32.0227 138.693 32.0227 138.763 32.0027C138.833 31.9827 138.903 31.9627 138.973 31.9327C139.043 31.9027 139.103 31.8727 139.163 31.8327C139.223 31.7927 139.273 31.7427 139.312 31.7027H139.343C139.323 31.7927 139.312 31.8627 139.312 31.9427C139.212 32.0227 139.082 32.0827 138.932 32.1327C138.782 32.1827 138.623 32.2127 138.463 32.2127C138.323 32.2127 138.173 32.1927 138.023 32.1527C137.873 32.1127 137.742 32.0527 137.622 31.9527C137.502 31.8627 137.403 31.7427 137.333 31.5927C137.263 31.4427 137.223 31.2727 137.223 31.0527C137.223 30.8327 137.263 30.6727 137.333 30.5327L137.323 30.5427Z" fill="white"/>
<path d="M140.413 29.3226C140.413 29.4426 140.393 29.5526 140.383 29.6726C140.383 29.7826 140.382 29.9026 140.362 30.0126C140.402 30.0126 140.473 30.0126 140.573 30.0126C140.673 30.0126 140.783 30.0126 140.903 30.0026C140.903 30.0026 140.903 30.0326 140.903 30.0526V30.1526C140.903 30.1526 140.903 30.1926 140.903 30.2026C140.853 30.2026 140.813 30.2026 140.763 30.2026C140.713 30.2026 140.662 30.2026 140.612 30.2026H140.362C140.362 30.2026 140.363 30.2626 140.353 30.3526C140.353 30.4426 140.353 30.5426 140.333 30.6626C140.333 30.7826 140.333 30.9026 140.333 31.0426C140.333 31.1726 140.333 31.2926 140.333 31.3926C140.333 31.4826 140.333 31.5726 140.333 31.6526C140.333 31.7326 140.353 31.8126 140.383 31.8826C140.413 31.9526 140.453 32.0026 140.503 32.0426C140.553 32.0826 140.632 32.1026 140.742 32.1026C140.772 32.1026 140.803 32.1026 140.853 32.0926C140.903 32.0926 140.943 32.0826 140.973 32.0726V32.1826C140.913 32.1826 140.843 32.2026 140.783 32.2126C140.713 32.2226 140.643 32.2326 140.583 32.2326C140.363 32.2326 140.203 32.1826 140.103 32.0926C140.003 31.9926 139.953 31.8526 139.953 31.6726C139.953 31.5926 139.953 31.5026 139.953 31.4026C139.953 31.3026 139.953 31.2026 139.963 31.0826C139.963 30.9626 139.963 30.8326 139.973 30.6926C139.973 30.5526 139.973 30.3926 139.973 30.2126H139.812C139.812 30.2126 139.753 30.2126 139.723 30.2126C139.693 30.2126 139.662 30.2126 139.622 30.2126C139.622 30.1926 139.622 30.1726 139.622 30.1626C139.622 30.1426 139.622 30.1226 139.622 30.1126C139.622 30.0926 139.622 30.0826 139.622 30.0626C139.622 30.0426 139.622 30.0326 139.622 30.0126C139.772 30.0226 139.893 30.0226 139.963 30.0226C139.963 29.9626 139.963 29.8826 139.963 29.7926C139.963 29.7026 139.963 29.6026 139.953 29.5026L140.372 29.3426H140.403L140.413 29.3226Z" fill="white"/>
<path d="M141.513 28.9727C141.563 28.9327 141.623 28.9027 141.703 28.9027C141.783 28.9027 141.833 28.9227 141.893 28.9727C141.943 29.0227 141.973 29.0727 141.973 29.1427C141.973 29.2127 141.953 29.2627 141.893 29.3027C141.843 29.3527 141.783 29.3727 141.703 29.3727C141.623 29.3727 141.573 29.3527 141.513 29.3027C141.463 29.2527 141.443 29.2027 141.443 29.1427C141.443 29.0827 141.473 29.0227 141.513 28.9727ZM141.503 30.3827C141.503 30.2327 141.483 30.0827 141.473 29.9527C141.573 29.9627 141.643 29.9727 141.703 29.9727C141.763 29.9727 141.832 29.9727 141.932 29.9527C141.912 30.0827 141.903 30.2327 141.893 30.3827C141.893 30.5427 141.893 30.6827 141.893 30.8227V31.3127C141.893 31.4527 141.893 31.6027 141.893 31.7527C141.893 31.9027 141.912 32.0427 141.932 32.1727C141.852 32.1727 141.773 32.1727 141.703 32.1727C141.633 32.1727 141.553 32.1727 141.473 32.1727C141.493 32.0527 141.503 31.9127 141.503 31.7527C141.503 31.5927 141.503 31.4527 141.503 31.3127V30.8227C141.503 30.6827 141.503 30.5327 141.503 30.3827Z" fill="white"/>
<path d="M142.703 30.5227C142.773 30.3727 142.872 30.2527 142.992 30.1627C143.112 30.0727 143.243 30.0027 143.393 29.9627C143.543 29.9227 143.693 29.9027 143.833 29.9027C143.973 29.9027 144.133 29.9227 144.273 29.9627C144.423 30.0027 144.552 30.0727 144.672 30.1627C144.792 30.2527 144.883 30.3727 144.963 30.5227C145.043 30.6727 145.073 30.8527 145.073 31.0627C145.073 31.2727 145.033 31.4527 144.963 31.6027C144.893 31.7527 144.792 31.8727 144.672 31.9627C144.552 32.0527 144.423 32.1227 144.273 32.1527C144.123 32.1927 143.983 32.2127 143.833 32.2127C143.683 32.2127 143.533 32.1927 143.393 32.1527C143.243 32.1127 143.112 32.0527 142.992 31.9627C142.872 31.8727 142.773 31.7527 142.703 31.6027C142.633 31.4527 142.593 31.2727 142.593 31.0627C142.593 30.8527 142.633 30.6727 142.703 30.5227ZM143.083 31.4327C143.113 31.5527 143.153 31.6627 143.213 31.7627C143.273 31.8527 143.353 31.9327 143.453 31.9827C143.563 32.0427 143.683 32.0727 143.833 32.0727C143.983 32.0727 144.113 32.0427 144.213 31.9827C144.313 31.9227 144.403 31.8527 144.453 31.7627C144.513 31.6727 144.563 31.5527 144.583 31.4327C144.613 31.3127 144.622 31.1827 144.622 31.0527C144.622 30.9227 144.613 30.7927 144.583 30.6727C144.563 30.5527 144.513 30.4427 144.453 30.3527C144.393 30.2527 144.313 30.1827 144.213 30.1227C144.113 30.0627 143.983 30.0427 143.833 30.0427C143.683 30.0427 143.553 30.0727 143.453 30.1227C143.353 30.1827 143.273 30.2527 143.213 30.3527C143.153 30.4427 143.103 30.5527 143.083 30.6727C143.063 30.7927 143.043 30.9227 143.043 31.0527C143.043 31.1827 143.053 31.3127 143.083 31.4327Z" fill="white"/>
<path d="M147.172 30.3227C147.072 30.2027 146.933 30.1427 146.763 30.1427C146.523 30.1427 146.352 30.2027 146.242 30.3427C146.132 30.4727 146.073 30.6627 146.073 30.9027V31.3027C146.073 31.4427 146.073 31.5927 146.073 31.7427C146.073 31.8927 146.093 32.0327 146.103 32.1627C146.023 32.1627 145.942 32.1627 145.872 32.1627C145.802 32.1627 145.723 32.1627 145.643 32.1627C145.663 32.0427 145.672 31.9027 145.672 31.7427C145.672 31.5927 145.672 31.4427 145.672 31.3027V30.8127C145.672 30.6727 145.672 30.5227 145.672 30.3727C145.672 30.2227 145.653 30.0727 145.643 29.9427C145.743 29.9527 145.822 29.9627 145.872 29.9627C145.902 29.9627 145.933 29.9627 145.963 29.9627C145.993 29.9627 146.033 29.9527 146.083 29.9427C146.073 30.0627 146.062 30.1927 146.062 30.3127H146.073C146.163 30.1827 146.283 30.0727 146.413 30.0027C146.543 29.9327 146.703 29.8927 146.893 29.8927C146.993 29.8927 147.082 29.9027 147.182 29.9327C147.282 29.9627 147.373 30.0027 147.443 30.0627C147.523 30.1227 147.583 30.2027 147.633 30.3127C147.683 30.4127 147.703 30.5527 147.703 30.7127C147.703 30.8427 147.703 30.9827 147.693 31.1227C147.693 31.2627 147.693 31.4127 147.693 31.5727V31.8727C147.693 31.8727 147.693 31.9727 147.693 32.0127C147.693 32.0627 147.693 32.1027 147.693 32.1527C147.623 32.1527 147.553 32.1527 147.473 32.1527C147.393 32.1527 147.333 32.1527 147.263 32.1527C147.263 31.9927 147.283 31.8227 147.283 31.6527C147.283 31.4827 147.293 31.3027 147.293 31.1227V30.8427C147.293 30.6127 147.243 30.4327 147.143 30.3127L147.172 30.3227Z" fill="white"/>
<path d="M152.533 32.0527C152.473 32.0827 152.393 32.1127 152.293 32.1327C152.203 32.1527 152.093 32.1827 151.973 32.1927C151.863 32.2127 151.732 32.2227 151.612 32.2227C151.342 32.2227 151.092 32.1827 150.862 32.1227C150.632 32.0527 150.433 31.9427 150.273 31.8027C150.103 31.6627 149.973 31.4827 149.883 31.2827C149.793 31.0727 149.742 30.8427 149.742 30.5727C149.742 30.3027 149.793 30.0727 149.883 29.8727C149.973 29.6627 150.113 29.4927 150.273 29.3427C150.443 29.2027 150.643 29.0927 150.883 29.0127C151.123 28.9327 151.373 28.9027 151.663 28.9027C151.883 28.9027 152.093 28.9227 152.283 28.9627C152.473 29.0027 152.633 29.0527 152.773 29.1127C152.743 29.1527 152.723 29.2127 152.703 29.2927C152.683 29.3727 152.673 29.4327 152.663 29.4827H152.633C152.633 29.4827 152.552 29.4127 152.492 29.3627C152.432 29.3127 152.353 29.2727 152.283 29.2227C152.203 29.1827 152.103 29.1427 152.003 29.1127C151.903 29.0827 151.793 29.0727 151.663 29.0727C151.463 29.0727 151.273 29.1027 151.103 29.1627C150.933 29.2227 150.783 29.3127 150.653 29.4327C150.523 29.5527 150.423 29.7127 150.353 29.8927C150.283 30.0827 150.242 30.3027 150.242 30.5627C150.242 30.8227 150.283 31.0427 150.353 31.2327C150.423 31.4227 150.523 31.5827 150.653 31.7027C150.783 31.8227 150.933 31.9127 151.103 31.9727C151.273 32.0327 151.463 32.0627 151.663 32.0627C151.783 32.0627 151.903 32.0527 152.003 32.0227C152.113 31.9927 152.203 31.9627 152.293 31.9227C152.383 31.8827 152.453 31.8427 152.533 31.7927C152.603 31.7427 152.663 31.7127 152.713 31.6727L152.732 31.6927L152.693 31.9627C152.693 31.9627 152.613 32.0127 152.543 32.0427L152.533 32.0527Z" fill="white"/>
<path d="M153.242 30.5227C153.312 30.3727 153.413 30.2527 153.533 30.1627C153.653 30.0727 153.782 30.0027 153.932 29.9627C154.082 29.9227 154.232 29.9027 154.372 29.9027C154.512 29.9027 154.673 29.9227 154.823 29.9627C154.963 30.0027 155.103 30.0727 155.223 30.1627C155.343 30.2527 155.443 30.3727 155.513 30.5227C155.593 30.6727 155.622 30.8527 155.622 31.0627C155.622 31.2727 155.593 31.4527 155.513 31.6027C155.443 31.7527 155.343 31.8727 155.223 31.9627C155.103 32.0527 154.973 32.1227 154.823 32.1527C154.673 32.1927 154.522 32.2127 154.372 32.2127C154.222 32.2127 154.082 32.1927 153.932 32.1527C153.782 32.1127 153.653 32.0527 153.533 31.9627C153.413 31.8727 153.312 31.7527 153.242 31.6027C153.162 31.4527 153.133 31.2727 153.133 31.0627C153.133 30.8527 153.172 30.6727 153.242 30.5227ZM153.622 31.4327C153.652 31.5527 153.693 31.6627 153.753 31.7627C153.813 31.8527 153.892 31.9327 153.992 31.9827C154.102 32.0427 154.222 32.0727 154.372 32.0727C154.522 32.0727 154.653 32.0427 154.753 31.9827C154.853 31.9227 154.932 31.8527 154.992 31.7627C155.052 31.6727 155.102 31.5527 155.122 31.4327C155.152 31.3127 155.163 31.1827 155.163 31.0527C155.163 30.9227 155.152 30.7927 155.122 30.6727C155.092 30.5527 155.052 30.4427 154.992 30.3527C154.932 30.2527 154.853 30.1827 154.753 30.1227C154.653 30.0627 154.522 30.0427 154.372 30.0427C154.222 30.0427 154.102 30.0727 153.992 30.1227C153.892 30.1827 153.813 30.2527 153.753 30.3527C153.693 30.4427 153.642 30.5527 153.622 30.6727C153.592 30.7927 153.583 30.9227 153.583 31.0527C153.583 31.1827 153.592 31.3127 153.622 31.4327Z" fill="white"/>
<path d="M156.302 31.7527C156.362 31.7027 156.433 31.6727 156.503 31.6727C156.583 31.6727 156.653 31.7027 156.713 31.7527C156.773 31.8027 156.802 31.8727 156.802 31.9427C156.802 32.0127 156.773 32.0727 156.713 32.1227C156.653 32.1727 156.593 32.1927 156.503 32.1927C156.413 32.1927 156.362 32.1727 156.302 32.1227C156.242 32.0727 156.213 32.0127 156.213 31.9427C156.213 31.8727 156.242 31.8127 156.302 31.7527Z" fill="white"/>
<path d="M157.843 31.6827C157.843 31.6827 157.932 31.6227 157.992 31.6227C158.032 31.6227 158.072 31.6327 158.112 31.6627C158.152 31.6827 158.172 31.7227 158.172 31.7827C158.172 31.8227 158.163 31.8527 158.153 31.8827C158.133 31.9127 158.123 31.9427 158.103 31.9727L157.463 32.9427L157.372 32.9127L157.773 31.7927C157.773 31.7927 157.813 31.7127 157.843 31.6727V31.6827Z" fill="white"/>
<path d="M159.143 29.5626C159.133 29.3626 159.122 29.1626 159.112 28.9626C159.152 28.9626 159.202 28.9726 159.242 28.9826C159.282 28.9826 159.322 28.9826 159.372 28.9826C159.412 28.9826 159.452 28.9826 159.492 28.9826C159.532 28.9826 159.582 28.9726 159.622 28.9626C159.612 29.1626 159.603 29.3726 159.593 29.5626C159.583 29.7626 159.583 29.9626 159.583 30.1626C159.583 30.5526 159.583 30.8926 159.583 31.1826C159.583 31.4726 159.583 31.7326 159.593 31.9526C159.833 31.9526 160.063 31.9526 160.283 31.9526C160.503 31.9526 160.743 31.9326 161.003 31.8926C160.983 31.9526 160.982 31.9926 160.982 32.0326C160.982 32.0626 160.983 32.1126 161.003 32.1526C160.843 32.1526 160.683 32.1526 160.533 32.1526H159.583C159.433 32.1526 159.272 32.1526 159.112 32.1526C159.122 31.9626 159.133 31.7626 159.143 31.5626C159.143 31.3626 159.143 31.1626 159.143 30.9526V30.1526C159.143 29.9526 159.143 29.7426 159.143 29.5526V29.5626Z" fill="white"/>
<path d="M162.062 29.3226C162.053 29.4426 162.043 29.5526 162.043 29.6726C162.043 29.7826 162.033 29.9026 162.023 30.0126C162.063 30.0126 162.132 30.0126 162.232 30.0126C162.332 30.0126 162.443 30.0126 162.562 30.0026C162.562 30.0026 162.562 30.0326 162.562 30.0526V30.1526C162.562 30.1526 162.562 30.1926 162.562 30.2026C162.523 30.2026 162.472 30.2026 162.422 30.2026C162.372 30.2026 162.323 30.2026 162.273 30.2026H162.023C162.023 30.2026 162.023 30.2626 162.013 30.3526C162.013 30.4426 162.013 30.5426 162.003 30.6626C162.003 30.7826 162.003 30.9026 162.003 31.0426C162.003 31.1726 162.003 31.2926 162.003 31.3926C162.003 31.4826 162.003 31.5726 162.003 31.6526C162.003 31.7326 162.022 31.8126 162.052 31.8826C162.082 31.9526 162.122 32.0026 162.172 32.0426C162.232 32.0826 162.303 32.1026 162.413 32.1026C162.443 32.1026 162.483 32.1026 162.523 32.0926C162.573 32.0926 162.613 32.0826 162.643 32.0726V32.1826C162.583 32.1826 162.523 32.2026 162.453 32.2126C162.383 32.2226 162.313 32.2326 162.253 32.2326C162.043 32.2326 161.883 32.1826 161.773 32.0926C161.673 31.9926 161.622 31.8526 161.622 31.6726C161.622 31.5926 161.622 31.5026 161.622 31.4026C161.622 31.3026 161.623 31.2026 161.643 31.0826C161.643 30.9626 161.653 30.8326 161.653 30.6926C161.653 30.5526 161.653 30.3926 161.653 30.2126H161.492C161.492 30.2126 161.433 30.2126 161.403 30.2126C161.373 30.2126 161.342 30.2126 161.302 30.2126C161.302 30.1926 161.302 30.1726 161.302 30.1626C161.302 30.1426 161.302 30.1226 161.302 30.1126C161.302 30.0926 161.302 30.0826 161.302 30.0626C161.302 30.0426 161.302 30.0326 161.302 30.0126C161.452 30.0226 161.573 30.0226 161.643 30.0226C161.643 29.9626 161.643 29.8826 161.643 29.7926C161.643 29.7026 161.642 29.6026 161.622 29.5026L162.052 29.3426H162.073L162.062 29.3226Z" fill="white"/>
<path d="M164.753 31.7227C164.723 31.7727 164.693 31.8227 164.643 31.8827C164.593 31.9427 164.543 31.9927 164.463 32.0427C164.393 32.0927 164.313 32.1327 164.213 32.1627C164.113 32.1927 164.003 32.2127 163.883 32.2127C163.763 32.2127 163.623 32.1927 163.503 32.1527C163.373 32.1127 163.272 32.0427 163.172 31.9527C163.072 31.8627 162.992 31.7427 162.932 31.5927C162.872 31.4527 162.843 31.2727 162.843 31.0727C162.843 30.8727 162.873 30.7027 162.943 30.5527C163.013 30.4127 163.093 30.2827 163.193 30.1827C163.293 30.0827 163.413 30.0127 163.543 29.9627C163.673 29.9127 163.813 29.8927 163.943 29.8927C164.323 29.8927 164.582 30.0427 164.732 30.3627V29.5527C164.732 29.4327 164.732 29.3127 164.732 29.2027C164.732 29.0927 164.732 28.9927 164.732 28.8927C164.732 28.7927 164.732 28.7127 164.732 28.6327C164.772 28.6327 164.813 28.6427 164.853 28.6527C164.893 28.6527 164.923 28.6527 164.963 28.6527C165.003 28.6527 165.033 28.6527 165.073 28.6527C165.113 28.6527 165.153 28.6527 165.193 28.6327C165.183 28.7327 165.173 28.8827 165.163 29.0627C165.163 29.2527 165.153 29.4527 165.143 29.6827C165.143 29.9127 165.143 30.1427 165.133 30.3827C165.133 30.6227 165.133 30.8427 165.133 31.0427C165.133 31.2527 165.133 31.4527 165.133 31.6227C165.133 31.7927 165.133 31.9727 165.133 32.1527C165.063 32.1527 165.002 32.1527 164.932 32.1527C164.862 32.1527 164.802 32.1527 164.732 32.1527L164.753 31.7127H164.742L164.753 31.7227ZM163.362 31.5727C163.402 31.6927 163.463 31.7927 163.523 31.8627C163.593 31.9327 163.663 31.9827 163.753 32.0127C163.833 32.0427 163.923 32.0527 164.003 32.0527C164.133 32.0527 164.253 32.0227 164.343 31.9627C164.433 31.9027 164.523 31.8227 164.583 31.7227C164.643 31.6227 164.693 31.5127 164.723 31.3927C164.753 31.2727 164.763 31.1427 164.763 31.0227C164.763 30.7227 164.703 30.4927 164.573 30.3427C164.443 30.1827 164.263 30.1027 164.013 30.1027C163.893 30.1027 163.783 30.1327 163.693 30.1827C163.603 30.2327 163.523 30.3027 163.463 30.3927C163.403 30.4827 163.363 30.5927 163.333 30.7127C163.303 30.8327 163.283 30.9627 163.283 31.1027C163.283 31.2927 163.303 31.4427 163.343 31.5627L163.362 31.5727Z" fill="white"/>
<path d="M66.7625 25.4927L65.1625 25.4427L65.2725 26.1827L65.7325 26.2827C67.9225 26.9327 68.7925 28.0527 70.4425 29.9527L71.2825 31.0427L71.4925 31.3827C71.9725 31.6927 72.2325 31.5327 72.3925 31.3527C72.7625 30.9427 72.7025 29.9427 72.2625 28.3227C72.0825 27.6327 70.8025 25.8127 66.7625 25.4827V25.4927Z" fill="white"/>
<path d="M68.3425 17.9327L67.2725 19.2627H60.5025L57.3125 17.9527V25.0027H57.5625C57.8625 25.0027 58.0625 25.0027 58.2225 25.0027C57.5725 26.9427 55.7725 29.3427 54.0825 30.6827L53.9025 30.8227L54.3725 31.6027L54.5725 31.5227C56.8525 30.6427 59.4025 28.8227 60.8925 26.7027C61.0025 26.7027 61.1025 26.7027 61.1825 26.7027C61.5925 26.7027 61.8525 26.5727 62.0425 26.2627L62.1825 26.0327L59.6625 24.6327C60.2625 24.3827 60.4725 24.1027 60.5425 23.8327H62.5625V29.8427C62.5625 29.9327 62.5625 29.9727 62.5525 29.9827C62.5425 29.9827 62.5125 29.9827 62.4725 29.9827H59.5825V30.8227L59.8125 30.8427C61.4925 31.0127 61.7225 31.4527 61.7225 33.0727V33.3427L61.9925 33.3227C65.0225 33.1027 65.3725 31.8427 65.3725 29.8827V23.8227H67.3825V24.7727H67.6425C68.7125 24.7727 69.4325 24.5727 69.8525 24.4127C70.0925 24.3127 70.6525 24.0627 70.6525 23.7927V20.8427C71.0925 20.7127 71.4025 20.4927 71.5425 20.3227L71.7225 20.1127L68.3425 17.9327ZM71.5025 17.8227C72.1525 17.8227 72.7125 17.7827 73.0225 17.2327L73.1425 17.0327L70.0125 14.8227C70.4125 14.6327 70.6225 14.4227 70.6225 14.2727V9.15269C71.0825 9.01269 71.1125 9.00269 71.3425 8.75269L71.5325 8.02269L70.0125 6.90269L68.7125 7.44269H60.5425L57.3225 6.13269V15.4827H57.5725C60.0825 15.4827 60.3525 14.4627 60.3525 14.2527V14.1027H62.5425V16.8127H56.0325C56.0325 16.8127 56.3525 16.4727 56.3825 16.4327L56.4925 16.2527L53.9725 13.9927L52.7125 15.1927V10.9227H55.0525C55.7725 10.9227 56.2725 10.8227 56.5625 10.3427L56.6825 10.1527L53.5925 7.80269L50.6225 9.88269H46.6625L46.9225 10.9327H49.9825V15.9827H47.3025L47.6125 17.0327H49.9825V23.4527C48.6725 23.6427 46.4925 24.0327 46.0025 24.0927L45.6725 24.1327L47.6225 28.0327L47.8225 27.9927C48.1725 27.9327 48.5025 27.6427 48.6725 27.2527C52.2425 25.4527 56.3325 23.7427 57.5825 22.9527L57.7225 22.8627L57.5925 22.1527L52.6925 22.9427V17.0327H54.8725C54.9925 17.0327 55.0925 17.0327 55.2025 17.0327L55.3525 17.8627H71.4825L71.5025 17.8227ZM67.5625 11.1427V13.0527H60.3425V11.1427H67.5625ZM60.3425 10.8627V8.49269H66.3125M68.4325 16.8027H65.3425V16.1027C65.7825 16.0227 66.0625 15.8827 66.1625 15.6127L66.2325 15.3627L63.2025 14.0927H67.5725V15.2827H67.8225C68.9025 15.2827 69.4625 15.0827 69.9725 14.8527L68.4425 16.8027H68.4325ZM60.5725 22.7827V20.2727H67.3825V22.7827H60.5725Z" fill="white"/>
<path d="M75.2425 23.3727V36.4727H75.9225C77.1525 36.4727 77.9825 35.8627 77.9825 35.3827V34.1427H83.0925V35.5627H83.3425C84.3725 35.5627 85.0525 35.3627 85.4525 35.1927C85.6825 35.0927 85.9525 34.8427 85.9525 34.5527V25.9327C86.3825 25.8027 86.7325 25.5827 86.9125 25.3127L87.0625 25.0927L84.0925 22.5627L82.9625 24.1727H76.4825L75.2425 23.3627V23.3727ZM83.1025 33.0327H77.9925V29.7027H83.1025V33.0327ZM77.7425 25.2827H83.1025V29.3527" fill="white"/>
<path d="M81.0125 20.2527V16.0927H85.4225L84.8025 15.1927L83.6325 13.7227L81.5825 15.0827H81.0125V12.3727C81.6625 12.2727 82.0825 12.0627 82.1525 11.5227L82.1825 11.2727L78.1825 10.8927V15.0927H74.1425L74.4425 16.1027H78.1825V20.1827H72.1625L72.4225 21.1627H87.5625C87.9225 21.1627 88.1925 21.1427 88.4325 21.0527V36.3627H89.1425C90.5625 36.3627 91.3125 35.6427 91.3125 35.2627V14.2327H94.9025V14.2727C94.4025 16.3827 93.6525 19.5627 93.1825 21.2027L93.1425 21.3427L93.2525 21.4427C95.0225 23.1227 95.9225 25.0727 95.9225 27.2327C95.9225 28.1027 95.7425 28.6327 95.3725 28.8627C95.2425 28.9427 95.1325 28.9627 94.8725 28.9627H92.4225V29.8027L92.6225 29.8327C93.7025 30.0227 94.2625 30.2027 94.2625 31.9227V32.1927L94.5325 32.1627C96.1625 32.0227 97.3125 31.5327 98.0725 30.6827C98.7525 29.9027 99.0925 28.8427 99.0925 27.4327C99.0925 25.0827 97.5325 23.0027 94.3025 21.1027C95.4825 19.4527 97.1325 16.7927 98.0625 15.1727C98.6225 15.1627 99.0525 15.0727 99.2825 14.7327L99.4025 14.5727L96.4925 11.5427L93.2425 13.2327H91.7125L88.4425 11.9527V20.4327L87.4625 18.8527L85.3525 20.2427H81.0225L81.0125 20.2527Z" fill="white"/>
<path d="M89.1125 13.9127C88.4825 13.8527 91.0825 14.3227 91.8925 13.2027L87.6125 10.9027C87.6125 10.9027 85.1325 16.5127 79.6125 21.7227C75.2325 25.8627 70.3625 27.6327 69.4625 28.0827C69.4625 28.0827 74.9925 27.1127 80.1725 23.8827C85.1525 20.7727 89.1125 13.9227 89.1125 13.9227V13.9127Z" fill="white"/>
<path d="M12.2025 40.3227L13.1225 38.6627C12.7825 38.6627 12.4625 38.6327 12.1325 38.6227L11.1725 40.3527C11.5125 40.3527 11.8625 40.3427 12.2025 40.3227Z" fill="white"/>
<path d="M10.1025 40.8328L9.13251 42.5628C9.26251 42.5628 9.4025 42.5628 9.5325 42.5628L10.5025 40.8228C10.3625 40.8228 10.2325 40.8228 10.1025 40.8228V40.8328Z" fill="white"/>
<path d="M10.7825 40.3528L11.7525 38.6128C11.6325 38.6128 11.5025 38.6128 11.3825 38.6028C11.3825 38.6028 11.3625 38.6028 11.3525 38.6028L10.3725 40.3528C10.5025 40.3528 10.6425 40.3528 10.7725 40.3528H10.7825Z" fill="white"/>
<path d="M17.6125 39.5127L18.4625 37.9927C17.5125 38.2227 16.5725 38.3927 15.6425 38.5027L14.7625 40.0727C15.7225 39.9327 16.6725 39.7427 17.6125 39.5127Z" fill="white"/>
<path d="M14.3425 40.1327L15.2225 38.5627C14.6525 38.6127 14.0925 38.6427 13.5325 38.6627L12.6125 40.3027C13.1925 40.2627 13.7725 40.2027 14.3525 40.1327H14.3425Z" fill="white"/>
<path d="M30.6625 4.0127C31.9425 4.1527 33.1825 4.4727 34.3925 4.9027C35.6025 5.3327 36.7425 5.9427 37.7525 6.7527C38.7525 7.5627 39.6025 8.5627 40.2225 9.6827C40.8425 10.8127 41.2525 12.0527 41.4325 13.3327C41.8125 15.8927 41.3625 18.5127 40.4825 20.9227C40.0425 22.1327 39.4925 23.3027 38.8725 24.4227C38.2525 25.5427 37.5525 26.6327 36.7625 27.6527C35.1725 29.6827 33.3025 31.4727 31.2925 33.0727C29.2725 34.6727 27.1025 36.0627 24.8125 37.2327C22.5725 38.3727 20.2225 39.2927 17.7925 39.9227L16.7225 41.8427C25.6325 39.6927 34.7025 33.2227 39.2525 25.0727C45.1125 14.5627 41.2625 5.2327 30.6725 4.0227L30.6625 4.0127Z" fill="white"/>
<path d="M14.4825 40.5727L13.4425 42.4327C14.3725 42.3227 15.3125 42.1427 16.2625 41.9327L17.3225 40.0227C16.3825 40.2527 15.4325 40.4327 14.4825 40.5727Z" fill="white"/>
<path d="M10.9025 40.8427L9.93253 42.5827C10.2625 42.5827 10.6025 42.6027 10.9325 42.6027L11.9325 40.8127C11.5925 40.8227 11.2425 40.8327 10.9025 40.8427Z" fill="white"/>
<path d="M33.9325 4.82267C41.1125 7.15267 43.3125 14.6627 38.6525 22.9927C34.6525 30.1527 26.7425 35.8827 18.9025 37.8827L18.0625 39.3827C20.3225 38.7827 22.5325 37.9327 24.6325 36.8827C26.9125 35.7427 29.0825 34.3727 31.0925 32.8027C33.1025 31.2327 34.9725 29.4627 36.5525 27.4727C37.3425 26.4727 38.0425 25.4027 38.6725 24.2927C39.3025 23.1827 39.8525 22.0327 40.2925 20.8327C41.1825 18.4427 41.6425 15.8627 41.2925 13.3227C41.1125 12.0627 40.7325 10.8227 40.1225 9.70267C39.5125 8.58267 38.6825 7.58267 37.6925 6.77267C36.7125 5.96267 35.5725 5.34267 34.3625 4.90267C33.1625 4.46267 31.9125 4.13267 30.6425 3.98267C31.8525 4.13267 32.9325 4.41267 33.9225 4.79267L33.9325 4.82267Z" fill="white"/>
<path d="M12.3325 40.7927L11.3225 42.6027C11.8925 42.5827 12.4625 42.5427 13.0325 42.4827L14.0725 40.6327C13.4925 40.7027 12.9225 40.7627 12.3425 40.7927H12.3325Z" fill="white"/>
<path d="M27.4725 2.06272L28.5325 0.16272C27.6025 0.27272 26.6625 0.45272 25.7125 0.66272L24.6225 2.61272C25.5625 2.38272 26.5125 2.20272 27.4625 2.06272H27.4725Z" fill="white"/>
<path d="M29.6325 1.84269L30.6525 0.00268555C30.0925 0.0226855 29.5225 0.0626855 28.9525 0.122686L27.9025 2.00269C28.4725 1.93269 29.0525 1.87269 29.6325 1.84269Z" fill="white"/>
<path d="M7.61253 37.7327C6.40253 37.3027 5.26253 36.6927 4.26253 35.8827C3.26253 35.0727 2.41253 34.0827 1.79253 32.9527C1.17253 31.8227 0.762535 30.5827 0.582535 29.3127C0.202535 26.7527 0.652516 24.1327 1.53252 21.7227C1.97252 20.5127 2.52253 19.3427 3.14253 18.2227C3.77253 17.1027 4.46252 16.0127 5.25252 15.0027C6.84252 12.9727 8.70252 11.1827 10.7225 9.58272C12.7425 7.98272 14.9125 6.59271 17.2025 5.41271C19.4225 4.28271 21.7625 3.37271 24.1825 2.74271L25.2725 0.782715C16.3625 2.93271 7.29254 9.40271 2.74254 17.5527C-2.70746 27.3127 0.23252 36.0627 9.19252 38.2227C8.66252 38.0827 8.13253 37.9227 7.61253 37.7427V37.7327Z" fill="white"/>
<path d="M31.0625 1.79273L32.0525 0.0227254C31.7125 0.0127254 31.3825 -0.00727458 31.0425 0.00272542L30.0225 1.82273C30.3625 1.81273 30.7125 1.79273 31.0525 1.79273H31.0625Z" fill="white"/>
<path d="M31.8625 1.80272L32.8425 0.0427246C32.7125 0.0427246 32.5725 0.0427246 32.4325 0.0427246L31.4425 1.80272C31.5825 1.80272 31.7125 1.80272 31.8525 1.80272H31.8625Z" fill="white"/>
<path d="M29.7625 2.31271L28.8625 3.93271C29.1925 3.93271 29.5225 3.96271 29.8525 3.97271L30.8025 2.27271C30.4625 2.27271 30.1125 2.28271 29.7725 2.30271L29.7625 2.31271Z" fill="white"/>
<path d="M31.1825 2.28271L30.2225 3.99271C30.3425 3.99271 30.4725 3.99272 30.5925 4.01272C30.5925 4.01272 30.6125 4.01272 30.6225 4.01272L31.5825 2.28271C31.4425 2.28271 31.3125 2.28271 31.1725 2.28271H31.1825Z" fill="white"/>
<path d="M17.3625 5.7427C15.0825 6.8827 12.9125 8.2527 10.9025 9.8127C8.89252 11.3827 7.0225 13.1527 5.4425 15.1427C4.6525 16.1427 3.9525 17.2127 3.3225 18.3227C2.6925 19.4327 2.14251 20.5827 1.70251 21.7827C0.812509 24.1627 0.342509 26.7527 0.702509 29.2827C0.882509 30.5427 1.26249 31.7827 1.87249 32.9027C2.48249 34.0227 3.31251 35.0227 4.30251 35.8327C5.29251 36.6427 6.4225 37.2627 7.6325 37.7027C8.3625 37.9727 9.11251 38.1927 9.86251 38.3627C10.3425 38.4527 10.8225 38.5427 11.3325 38.6027C10.1225 38.4427 9.04251 38.1727 8.05251 37.7827C0.872515 35.4527 -1.32749 27.9427 3.33251 19.6127C7.33251 12.4527 15.2525 6.7227 23.0825 4.7227L23.8925 3.2627C21.6425 3.8627 19.4525 4.7127 17.3725 5.7527L17.3625 5.7427Z" fill="white"/>
<path d="M27.6225 2.51277L26.7625 4.05277C27.3325 3.99277 27.8925 3.97277 28.4525 3.95277L29.3525 2.34277C28.7725 2.38277 28.1925 2.44277 27.6225 2.51277Z" fill="white"/>
<path d="M24.3425 3.13274L23.5125 4.61274C24.4625 4.39274 25.4025 4.22274 26.3325 4.10274L27.1925 2.56274C26.2325 2.70274 25.2825 2.89274 24.3425 3.13274Z" fill="white"/>
<path d="M19.0025 20.4327C18.9825 20.3827 18.9525 20.3327 18.9225 20.3027C17.4025 18.1327 13.2725 19.1627 9.74252 22.6027C6.19252 26.0327 4.53251 30.5727 6.07251 32.7327C6.39251 33.2027 6.83251 33.5227 7.38251 33.6927L15.9325 23.8427L19.0125 20.4427L19.0025 20.4327Z" fill="white"/>
<path d="M24.0425 20.6427C24.4025 20.4327 24.7425 20.2427 25.1125 20.1027C26.0625 19.5427 27.0125 18.8227 27.9325 17.9227C31.4325 14.5327 33.0725 10.0627 31.5925 7.94275C30.0925 5.83275 26.0325 6.85275 22.5225 10.2527C19.0125 13.6627 17.3725 18.1127 18.8725 20.2427C18.9225 20.2927 18.9625 20.3527 19.0125 20.4027L25.0625 13.7327L24.0325 20.6427H24.0425Z" fill="white"/>
<path d="M25.1125 20.0928C24.7425 20.2928 24.3925 20.4828 24.0425 20.6328L23.5425 23.9728L21.8425 33.6428C23.3725 33.1428 25.0525 32.1028 26.6425 30.6528C30.3125 27.2328 32.1125 22.6928 30.6225 20.5028C29.6425 19.0628 27.5025 19.0028 25.1125 20.0928Z" fill="white"/>
<path d="M18.5325 25.9427C19.2425 24.8327 20.1825 23.7027 21.2625 22.7027C22.1625 21.8727 23.0825 21.1927 23.9925 20.6627C21.8925 21.6027 20.0125 21.5727 19.0225 20.4027L19.0025 20.4227C19.8225 21.7227 19.5725 23.7927 18.5325 25.9427Z" fill="white"/>
<path d="M11.6625 30.3228H11.3025L10.0225 32.7328L9.88252 32.9728C9.82252 33.0728 9.77252 33.1528 9.73252 33.2128C9.67252 33.2828 9.60251 33.3528 9.53251 33.4028C9.46251 33.4428 9.41251 33.4528 9.37251 33.4528C9.35251 33.4528 9.33253 33.4528 9.33253 33.4528C9.33253 33.4528 9.32253 33.4328 9.33253 33.3628C9.33253 33.2928 9.37253 33.1428 9.52253 32.8428L9.58253 32.7328L9.17253 32.8428V32.8628C8.96253 33.2528 8.86251 33.5228 8.87251 33.6828C8.87251 33.8128 8.91253 33.9828 9.17253 33.9828H9.19252C9.34252 33.9828 9.53253 33.8928 9.74253 33.7028C9.93253 33.5228 10.1225 33.2328 10.3725 32.7728L11.6725 30.3228H11.6625Z" fill="white"/>
<path d="M12.2025 30.3228L10.2825 33.9328H10.6425L12.5625 30.3228H12.2025Z" fill="white"/>
<path d="M14.3125 30.3228L12.9925 32.8128L13.4125 30.3228H13.0825L11.1425 33.9328H11.5225L12.8325 31.4428L12.3925 33.9328H12.7625L14.6725 30.3228H14.3125Z" fill="white"/>
<path d="M14.8425 32.5527H15.3925L15.0925 33.1327C14.9925 33.2027 14.8725 33.2727 14.7425 33.3527H14.7325C14.6125 33.4327 14.5025 33.4627 14.4025 33.4627C14.3225 33.4627 14.2625 33.4427 14.2225 33.4027C14.1725 33.3627 14.1525 33.2827 14.1525 33.1727C14.1425 32.9427 14.2425 32.6527 14.5025 32.1327C14.6625 31.8327 14.8225 31.6027 15.0125 31.3927C15.1925 31.1627 15.3325 31.0127 15.4825 30.9127C15.6225 30.8227 15.7525 30.7727 15.8825 30.7727C15.9625 30.7727 16.0325 30.7927 16.0425 30.8227C16.0825 30.8827 16.1025 30.9427 16.1025 31.0127C16.0825 31.1527 16.0425 31.2927 15.9825 31.4427L15.9325 31.5627L16.3425 31.3927V31.3727C16.4625 31.1127 16.5125 30.9327 16.5225 30.7627C16.5225 30.6327 16.5025 30.5227 16.4425 30.4027C16.3725 30.2727 16.2225 30.2627 16.1025 30.2627C15.9025 30.2627 15.6825 30.3427 15.4725 30.4827C15.2625 30.6127 15.0425 30.8127 14.8025 31.0827C14.5425 31.4127 14.3225 31.7527 14.1325 32.1027C13.9325 32.4827 13.8025 32.8027 13.7425 33.0727C13.6725 33.3627 13.6825 33.5727 13.7525 33.7427C13.8325 33.9027 13.9725 33.9727 14.2025 33.9727C14.3225 33.9727 14.4725 33.9227 14.7025 33.8227L14.7825 33.7727C14.9425 33.6827 15.1125 33.5827 15.2925 33.4227L16.0325 32.0227H15.1225L14.8325 32.5327L14.8425 32.5527Z" fill="white"/>
<path d="M19.2725 31.3328C19.3625 31.0628 19.3925 30.8828 19.3925 30.7528C19.3925 30.5728 19.3225 30.4828 19.2525 30.4228C19.1825 30.3528 19.0725 30.3228 18.8825 30.3228H18.2025L16.2825 33.9328H17.0525C17.2425 33.9328 17.4425 33.8628 17.6225 33.7528C17.8125 33.6328 18.0225 33.4428 18.2625 33.1728C18.5025 32.8328 18.7125 32.4828 18.8925 32.1328C19.0625 31.8628 19.1925 31.5828 19.2625 31.3428L19.2725 31.3328ZM18.0225 32.9328C17.9025 33.0828 17.7725 33.2028 17.6325 33.3028C17.5425 33.3728 17.4125 33.4128 17.2425 33.4128H16.9325L18.3225 30.8528H18.6625C18.7725 30.8528 18.8625 30.8828 18.9125 30.9028C18.9525 30.9628 18.9625 31.0828 18.9325 31.2528C18.8925 31.4528 18.7625 31.7328 18.5825 32.0728C18.4125 32.4128 18.2325 32.6928 18.0325 32.9328H18.0225Z" fill="white"/>
<path d="M21.8825 30.3328H21.5125L20.4325 32.3928C20.1425 32.9028 19.9425 33.1528 19.8525 33.2628C19.7025 33.3928 19.5625 33.4628 19.4225 33.4628C19.4125 33.4628 19.3925 33.4628 19.3725 33.4628C19.2625 33.4628 19.2325 33.4228 19.2225 33.3828C19.1925 33.3228 19.1825 33.2528 19.2325 33.0928C19.2725 32.9728 19.3725 32.7628 19.5225 32.4428L20.6625 30.3328H20.2825L19.2025 32.3928C18.8825 32.9528 18.7225 33.3828 18.7425 33.6028C18.7425 33.8428 18.9025 33.9828 19.1725 33.9828C19.3025 33.9828 19.4325 33.9528 19.5525 33.8928C19.7025 33.8328 19.8525 33.7128 19.9825 33.5728C19.9925 33.5728 20.0025 33.5528 20.0125 33.5428C20.3925 33.1428 20.7225 32.4928 20.7525 32.4428L21.8825 30.3328Z" fill="white"/>
</svg>
