<?xml version="1.0" encoding="UTF-8"?>
<svg id="_圖層_2" data-name="圖層 2" xmlns="http://www.w3.org/2000/svg" xmlns:xlink="http://www.w3.org/1999/xlink" viewBox="0 0 588 288">
  <defs>
    <style>
      .cls-1 {
        fill: #fff;
      }

      .cls-2 {
        fill: none;
        stroke: url(#_鍊踑臇蜸馯鳺艜_6);
        stroke-miterlimit: 10;
        stroke-width: 2px;
      }

      .cls-3 {
        filter: url(#drop-shadow-1);
      }
    </style>
    <linearGradient id="_鍊踑臇蜸馯鳺艜_6" data-name="鍊踑臇蜸馯鳺艜 6" x1="-16.45" y1="63.25" x2="604.45" y2="224.75" gradientUnits="userSpaceOnUse">
      <stop offset="0" stop-color="#d5b065"/>
      <stop offset=".06" stop-color="#c6a35b"/>
      <stop offset=".18" stop-color="#9f8343"/>
      <stop offset=".26" stop-color="#806a30"/>
      <stop offset=".52" stop-color="#f3f1be"/>
      <stop offset=".58" stop-color="#e6e2af"/>
      <stop offset=".68" stop-color="#c7bd88"/>
      <stop offset=".82" stop-color="#948249"/>
      <stop offset=".88" stop-color="#806a30"/>
      <stop offset="1" stop-color="#d5b065"/>
    </linearGradient>
    <filter id="drop-shadow-1" filterUnits="userSpaceOnUse">
      <feOffset dx="4" dy="3"/>
      <feGaussianBlur result="blur" stdDeviation="2"/>
      <feFlood flood-color="#213a12" flood-opacity=".75"/>
      <feComposite in2="blur" operator="in"/>
      <feComposite in="SourceGraphic"/>
    </filter>
  </defs>
  <g id="_圖層_1-2" data-name="圖層 1">
    <rect class="cls-2" x="1" y="1" width="586" height="286"/>
    <g class="cls-3">
      <path class="cls-1" d="M67.2,36.29c-1.99,5.64-4.39,11.5-7.11,17.14v77.87h-13.8v-54.25c-2.09,2.93-4.18,5.64-6.38,8.05-1.25-3.45-5.12-11.5-7.53-15.05,8.47-9.2,16.62-23.62,21.32-37.94l13.48,4.18Zm64.39,11.18v12.12H63.33v-12.12h29.06c-1.57-3.66-3.87-7.94-5.75-11.29l12.75-4.91c2.82,4.39,6.06,10.24,7.63,14.11l-4.81,2.09h29.37Zm-62.71,47.45h56.86v35.43h-13.27v-2.4h-30.83v2.72h-12.75v-35.75Zm55.4-19.65h-53.72v-11.71h53.72v11.71Zm-53.72,3.76h53.72v11.71h-53.72v-11.71Zm11.08,27.8v9.2h30.83v-9.2h-30.83Z"/>
      <path class="cls-1" d="M229.1,105.48c-3.03,3.97-6.79,7.42-10.97,10.56,1.36,.73,2.93,1.15,4.39,1.15,2.4,0,3.03-1.46,3.55-6.58,2.82,2.61,7.42,4.81,10.98,5.85-2.09,12.12-6.06,14.42-15.26,14.42-6.58,0-12.33-2.61-17.04-7-6.38,2.93-13.17,5.23-19.96,7.11-1.36-3.03-5.02-9.09-7.32-11.92,6.79-1.25,13.48-3.03,19.55-5.33-1.78-3.34-3.34-7-4.6-10.98h-17.98v2.3l13.8-.63-.1,10.03-13.69,.94v2.93c0,6.38-1.36,9.2-5.85,10.87s-10.24,1.78-17.98,1.78c-.73-3.55-2.51-8.26-4.18-11.5,3.97,.31,9.83,.31,11.29,.21,1.57,0,2.09-.42,2.09-1.78v-1.46c-6.9,.42-13.38,.84-19.02,1.15l-1.15-11.29c5.64-.1,12.54-.42,20.17-.63v-2.93h-19.86v-10.98h19.86v-2.4c-5.02,.42-10.03,.63-14.74,.73-.42-2.51-1.78-6.48-3.03-8.88,10.87-.52,23-1.67,31.88-3.24h-33.76v-11.29h38.99v-2.3h-28.53v-10.24h28.53v-2.3h-33.97v-10.98h16.83c-.94-1.78-1.99-3.55-3.14-5.02l13.38-4.18c2.51,2.61,4.81,6.38,5.96,9.2h19.34c1.46-2.93,3.03-6.69,3.87-9.41l16.93,3.03c-1.78,2.4-3.34,4.49-4.91,6.38h15.99v10.98h-34.6v2.3h29.27v10.24h-29.27v2.3h39.51v11.29h-17.56c5.23,2.2,10.87,5.23,14.11,7.84l-5.64,5.96h9.83v10.98h-14.01l8.05,2.72Zm-39.41-13.69c-.73-3.97-1.25-8.15-1.46-12.54h14.42c.21,4.39,.73,8.57,1.67,12.54h13.17c-3.87-2.51-8.88-5.12-13.17-6.79l6.79-7h-31.25l7.42,7.53c-3.87,.94-8.26,1.78-12.86,2.4v3.87h15.26Zm18.08,10.98c.63,1.57,1.36,2.93,2.09,4.29,1.88-1.36,3.66-2.72,5.12-4.29h-7.21Z"/>
      <path class="cls-1" d="M339.58,113.32v14.84h-95.12v-14.84h39.51v-17.98h-27.07v-14.63h27.07v-15.99h-20.07c-2.93,5.44-5.96,10.35-9.09,14.22-3.03-2.61-9.83-7.11-13.69-9.2,8.05-8.57,14.74-22.89,18.29-37l15.78,3.55c-1.25,4.6-2.82,9.09-4.6,13.59h13.38V31.69h15.89v18.19h34.18v14.84h-34.18v15.99h30v14.63h-30v17.98h39.72Z"/>
      <path class="cls-1" d="M366.96,84.37c-4.29-3.03-13.59-8.05-19.75-11.29l8.15-11.29c5.75,2.61,15.37,7.11,20.07,9.93l-8.47,12.65Zm-18.71,35.22c5.54-7.73,13.48-20.38,19.86-32.61l11.18,10.14c-5.54,10.97-11.81,22.26-18.19,32.72l-12.86-10.24Zm22.79-64.07c-4.08-3.03-13.07-8.05-18.81-11.5l8.57-10.98c5.54,2.82,14.74,7.42,19.23,10.24l-8.99,12.23Zm49.13,21.01v11.08h21.11v42.85h-14.42v-3.76h-28.22v4.18h-13.69v-43.27h20.8v-11.08h-26.76v-14.53h26.76v-9.62c-6.38,.94-12.86,1.67-19.02,2.19-.52-3.66-2.51-9.62-4.08-12.96,17.56-1.67,36.27-5.23,47.87-10.14l11.6,11.92c-6.69,2.61-14.11,4.81-21.95,6.38v12.23h25.5v14.53h-25.5Zm6.69,24.77h-28.22v11.71h28.22v-11.71Z"/>
      <path class="cls-1" d="M546.63,34.82v96.16h-14.74v-3.34h-62.5v3.34h-14.01V34.82h91.25Zm-14.74,80.48V47.58h-62.5v38.88c3.66-1.67,6.79-3.66,9.62-5.96h-7.42v-8.88h15.47c.52-.84,1.04-1.78,1.57-2.72h-14.42v-8.47h5.85c-.63-2.3-1.99-5.12-3.45-7.32l8.99-3.24c1.99,2.61,3.87,6.06,4.29,8.68l-5.23,1.88h7.63c1.25-3.66,2.09-7.53,2.72-11.81l12.12,1.36c-.63,3.66-1.46,7.21-2.4,10.45h5.02c1.36-3.34,2.82-7.32,3.55-10.35l11.29,2.4c-1.46,2.82-2.82,5.54-4.08,7.94h6.9v8.47h-25.71c-.31,.94-.73,1.88-1.15,2.72h28.95v8.88h-6.9c2.61,2.61,5.85,4.91,9.3,6.38-2.61,2.09-6.27,6.38-7.94,9.2-3.55-1.99-6.9-4.91-9.62-8.36-.31,6.69-.84,10.35-2.51,12.12-1.36,1.57-3.24,2.3-5.44,2.4-1.78,.21-4.91,.31-7.94,.1-.21-2.3-1.04-5.54-2.2-7.53,2.3,.31,4.08,.31,5.12,.31,.84,0,1.46-.1,1.99-.73,.31-.42,.52-1.05,.63-2.19h-9.93v9.2c0,2.93,.84,3.34,4.91,3.34h12.75c3.03,0,3.76-.94,4.18-6.38,2.4,1.57,6.79,3.03,9.83,3.55-1.15,9.3-4.29,11.81-12.75,11.81h-15.47c-11.6,0-15.05-2.61-15.05-12.12v-8.78c-2.09,1.46-4.29,2.72-6.69,3.97-1.15-2.09-4.08-6.06-6.38-8.57v27.07h62.5Zm-36.69-34.81c-.84,1.25-1.78,2.4-2.82,3.55h19.23c-.73-1.15-1.46-2.3-2.09-3.55h-14.32Z"/>
      <path class="cls-1" d="M89.46,178.85c-.42,2.09-.84,4.18-1.25,6.06h38.15v56.65c0,6.9-1.67,10.14-6.38,12.23-4.7,2.09-10.97,2.2-19.34,2.2-.73-3.76-3.03-9.3-4.91-12.65,4.29,.31,10.87,.31,12.44,.21,1.88,0,2.51-.52,2.51-2.09v-42.65h-16.51l9.09,1.67c-1.25,3.45-2.51,6.9-3.66,9.82h5.43v11.6h-15.57v4.81h18.08v12.02h-18.08v14.01h-14.32v-14.01h-17.56v-12.02h17.56v-4.81h-15.36v-11.6h6.48c-.73-2.93-2.09-6.69-3.24-9.51l8.78-1.99h-17.56v57.28h-15.26v-71.18h34.07c.31-1.88,.63-3.97,.94-6.06H36.05v-14.11h39.4c.31-2.72,.42-5.33,.52-7.73l16.93,1.46c-.31,2.09-.63,4.18-.94,6.27h37.32v14.11h-39.82Zm-2.61,31.46c1.04-3.66,2.09-8.05,2.72-11.5h-14.22c1.57,3.24,3.03,7.42,3.76,10.14l-5.02,1.36h12.75Z"/>
      <path class="cls-1" d="M153.95,208.75c-3.66-3.24-11.6-8.15-17.14-11.29l8.57-10.87c5.33,2.72,13.48,7,17.56,10.03l-8.99,12.12Zm38.88,25.5v4.08c0,4.08,.84,4.6,6.58,4.6h16.2c4.6,0,5.44-1.46,6.06-10.14,2.82,1.99,8.36,3.97,11.92,4.7-1.67,13.69-5.33,17.46-16.83,17.46h-18.71c-14.11,0-18.19-3.55-18.19-16.41v-16.31c-2.51,2.82-5.23,5.44-8.05,7.53-1.46-2.19-3.87-5.12-6.27-7.63-3.87,10.45-8.47,21.32-13.07,31.25l-13.38-8.57c4.29-7.94,10.35-20.49,15.05-32.61l7.84,5.75c6.48-4.29,12.54-11.18,16.62-18.4h-14.32v-13.59h16.1v-5.44h-12.23v-10.24l-8.78,10.98c-3.55-3.24-11.29-8.26-16.72-11.6l8.99-10.56c4.91,2.72,12.33,7,16.51,10.03v-2.09h12.23v-9.83h14.74v9.83h11.18v-9.83h14.95v9.83h12.33v13.48h-12.33v5.44h15.57v13.59h-14.84c4.08,6.58,10.03,12.75,16.31,16.62-3.45,2.72-8.36,8.26-10.66,12.02-3.03-2.19-5.85-5.02-8.47-8.15v14.22h-26.34Zm.94-34.7c-1.05,2.51-2.2,4.91-3.45,7.32h20.07c-1.25-2.4-2.4-4.91-3.45-7.32h-13.17Zm13.69,17.87h-14.63v6.27h14.63v-6.27Zm-12.33-31.46h11.18v-5.44h-11.18v5.44Z"/>
      <path class="cls-1" d="M243.63,160.77h41.91v12.44h-10.14v7.21h9.51v73.79h-10.66v-4.81h-19.44v6.27h-10.14v-75.26h9.51v-7.21h-10.56v-12.44Zm28.12,55.5c-4.5,0-5.85-1.46-5.85-7.84v-15.57h-2.51v8.15c0,5.54-.73,12.86-4.49,17.77-.73-.94-2.72-2.61-4.08-3.55v7.21h19.44v-6.17h-2.51Zm-16.93-23.41v20.59c2.19-3.97,2.4-8.57,2.4-12.54v-8.05h-2.4Zm19.44,44.94v-5.12h-19.44v5.12h19.44Zm-8.15-64.6h-2.82v7.21h2.82v-7.21Zm5.85,35.12c0,1.36,.1,1.46,.63,1.46h.63c.52,0,.84,0,1.04-.1v-16.83h-2.3v15.47Zm69.19,30.31h-18.6v3.76c0,6.48-1.15,9.93-5.85,11.92-4.6,1.88-10.35,1.88-17.56,1.88-.52-3.97-2.4-9.3-4.08-12.96,3.76,.21,9.2,.21,10.66,.21,1.46-.1,1.88-.31,1.88-1.46v-3.34h-21.32v-12.12h21.32v-3.76c1.78-.84,3.66-1.99,5.44-3.14h-24.04v-11.18h38.57l2.82-.63,7.84,6.9c-4.6,3.66-10.03,7.53-15.68,10.77v1.05h18.6v12.12Zm-.52-59.79h-53.52v-12.02h19.96c-.84-1.99-1.78-3.87-2.82-5.54l11.71-4.7c2.2,3.03,4.18,7,5.23,10.24h19.44v12.02Zm-49.33,27.07v-24.35h44.53v24.35h-44.53Zm13.48-10.45h16.93v-3.55h-16.93v3.55Z"/>
      <path class="cls-1" d="M393.2,201.22h-45.15v-10.66h16.31v-2.61h-12.12v-9.93h12.12v-2.51h-14.95v-10.35h14.95v-8.05h13.17v8.05h14.84v10.35h-14.84v2.51h12.33v9.93h-12.33v2.61h15.68v10.66Zm-4.08,41.91c0,5.54-.84,8.88-4.08,10.87-3.24,2.09-7.11,2.3-12.12,2.3-.52-3.66-2.2-8.88-3.76-12.12,2.3,.1,5.12,.1,6.06,.1s1.25-.31,1.25-1.36v-3.03h-11.29v16.51h-12.23v-52.68h36.17v39.41Zm-23.94-28.64v3.03h11.29v-3.03h-11.29Zm11.29,15.78v-3.14h-11.29v3.14h11.29Zm70.03-12.65h-5.85v15.68h-19.23v8.47c0,7-1.04,10.77-5.02,12.86-3.87,2.09-8.99,2.3-15.78,2.3-.42-4.08-2.09-10.03-3.66-13.9,3.76,.21,8.67,.21,10.03,.21s1.88-.42,1.88-1.88v-8.05h-14.42v-11.81h14.42v-3.87h-16.41v-12.86h16.41v-3.45h-13.48v-11.81h3.03c-1.15-3.24-3.03-7-4.91-9.93l6.17-3.24-3.45,.21c-.31-3.24-1.78-8.36-3.03-11.39,15.16-1.15,32.09-3.66,42.44-7.42l8.68,10.66c-3.24,1.15-6.69,2.09-10.35,3.03l11.08,3.14c-2.82,5.85-5.85,11.18-8.26,14.95h3.87v15.26h5.85v12.86Zm-30.94-42.96c-4.08,.63-8.26,1.05-12.33,1.36,2.4,3.45,4.49,7.84,5.43,10.97l-4.39,2.51h9.93c-.42-3.87-1.67-9.41-3.24-13.48l4.6-1.36Zm10.35,11.6c2.4-3.97,5.33-9.93,6.9-14.63-3.87,.94-7.84,1.67-11.92,2.3,1.57,4.08,3.03,9.41,3.55,13.06l-7.84,2.51h19.44l-10.14-3.24Zm-4.49,18.5h8.05v-3.45h-8.05v3.45Zm8.05,12.86h-8.05v3.87h8.05v-3.87Z"/>
      <path class="cls-1" d="M527.61,239.48c5.43,0,6.38-2.09,7.21-13.8,3.55,2.61,10.56,5.23,15.16,6.27-1.99,17.46-6.58,22.47-21.01,22.47h-18.4c-17.14,0-21.74-4.81-21.74-20.07v-7.63l-33.55,3.34-1.88-14.74,35.43-3.24v-8.68c-7.21,.94-14.53,1.67-21.53,2.2-.52-3.87-2.61-9.93-4.39-13.38,21.22-1.88,43.69-5.64,58.12-11.29l11.6,12.65c-8.15,2.93-17.46,5.33-27.07,7.11v9.83l40.45-3.66,1.78,14.11-42.23,4.18v8.99c0,4.81,.84,5.33,6.9,5.33h15.16Zm-56.86-49.44h-15.47v-24.67h37.94c-.73-1.99-1.46-3.97-2.3-5.64l15.16-4.39c1.67,3.03,3.45,6.79,4.39,10.03h35.64v24.67h-16.31v-10.35h-59.05v10.35Z"/>
    </g>
  </g>
</svg>