<?xml version="1.0" encoding="utf-8"?>
<!-- Generator: Adobe Illustrator 27.0.0, SVG Export Plug-In . SVG Version: 6.00 Build 0)  -->
<svg version="1.1" id="_圖層_2" xmlns="http://www.w3.org/2000/svg" xmlns:xlink="http://www.w3.org/1999/xlink" x="0px" y="0px"
	 viewBox="0 0 598 52.3" style="enable-background:new 0 0 598 52.3;" xml:space="preserve">
<style type="text/css">
	.st0{fill:#4E6875;}
</style>
<g id="_圖層_1-2">
	<g>
		<path class="st0" d="M0.7,13.7c-0.1-0.2-0.1-0.4-0.2-0.7c-0.2-0.7-0.4-1.2-0.5-1.5c1.9-1.6,3.6-3.6,5-6l1.8,1.2
			C6.4,7.3,5.9,8,5.3,8.9C5,9.3,4.8,9.5,4.7,9.7v10H2.5V12C2,12.5,1.4,13.1,0.7,13.7z M1.1,7.1C1,6.8,0.8,6.3,0.4,5.5
			C0.3,5.2,0.2,5,0.2,4.9C2,3.6,3.6,2,4.9,0.2l1.7,1.2C5,3.5,3.2,5.4,1.1,7.1z M6.2,19.8c-0.5-1-0.8-1.6-1-1.9c0.1,0,0.2,0,0.4-0.1
			c2.6-0.5,4.3-1.1,5.2-1.6c-0.5-0.4-1.2-1.1-2.1-2.2c-0.1,0.1-0.3,0.3-0.5,0.5c-0.3,0.3-0.8,0.7-1.6,1.3C6.4,15.5,6,15,5.3,14.4
			c1.9-1.4,3.3-2.9,4.4-4.7l2.1,0.2l-0.7,1h6.7v1.9c-1,1.4-2.1,2.5-3.3,3.5c1.3,0.5,3.1,1,5.4,1.2c-0.5,0.8-0.8,1.5-1,1.9
			c-2.6-0.5-4.7-1.2-6.3-2C11.1,18.3,8.9,19.1,6.2,19.8z M7,9.6l-0.7-2h2.2c0.3-0.2,0.7-0.4,1.2-0.8c0.3-0.2,0.6-0.4,0.7-0.5
			C10,5.8,9.2,5.1,8.1,4.1C7.6,3.6,7.2,3.3,7,3l1.4-1.2l0.9,0.7c1.1-0.8,2.1-1.7,3.1-2.5l1.9,1c-0.3,0.2-0.8,0.6-1.5,1.1
			c-1.1,0.8-1.9,1.4-2.3,1.6l1.6,1.5c2.3-1.6,3.9-2.8,4.8-3.5L18.6,3c-0.8,0.5-2.2,1.3-4.1,2.5c-1.5,0.9-2.6,1.6-3.3,2.1l4.6-0.2
			l-1.1-1.2l1.4-0.9c1.1,1.2,2.4,2.3,3.6,3.6l-1.6,1.1l-1-1.1c-0.2,0-0.6,0-1.1,0.1C11.7,9.3,8.6,9.4,7,9.6L7,9.6z M15.6,12.6h-5.5
			c0.7,1.1,1.6,2,2.6,2.6C13.7,14.7,14.7,13.8,15.6,12.6z"/>
		<path class="st0" d="M24.6,19.5V3.9h2.2V16h5.1V0.2h2.5V16h5.1V3.9h2.3v15.6h-2.3V18H26.8v1.6H24.6z"/>
		<path class="st0" d="M53.5,11.4V1.9h3.7c0,0,0-0.2,0.1-0.3c0.1-0.4,0.2-1,0.3-1.6L60,0.2c-0.2,0.6-0.4,1.1-0.6,1.7h5.8v9.5h-6
			c-0.7,1.1-1.8,2.1-3.4,3h3.6v-2.1h2.1v2.1h4.6v1.8h-4.6v3.5h-2.1v-3.5h-6.8v-1.1c-0.7,0.2-2,0.6-4,1.3c-0.9,0.3-1.5,0.5-1.9,0.7
			l-0.4-2.3c0.7-0.2,1.5-0.4,2.3-0.7V7h-2v-2h2V0h2v4.9h1.8v2h-1.8v6.6l2.2-0.7c0,0.2,0,0.4,0.1,0.8v0.7h1.9l-0.9-1
			c1.4-0.8,2.4-1.4,2.9-2L53.5,11.4L53.5,11.4z M55.4,3.6v2.2h3V3.6C58.4,3.6,55.4,3.6,55.4,3.6z M57.9,9.8c0.3-0.7,0.4-1.4,0.5-2.4
			h-3v2.4H57.9L57.9,9.8z M59.9,9.8h3.3V7.4h-2.9C60.3,8.3,60.1,9.1,59.9,9.8z M63.1,3.6h-2.9v2.2h2.9C63.1,5.8,63.1,3.6,63.1,3.6z"
			/>
		<path class="st0" d="M69.7,5.8v-2h2V0.1h2v3.8h1.7v2h-1.7v3.7L75.4,9c0,0.9,0,1.6,0.1,2.1l-1.8,0.4v5.5c0.1,1.4-0.6,2.2-2,2.3
			c-0.2,0-0.6,0-1,0.1h-1c0-0.7-0.1-1.4-0.2-2.1c0.2,0,0.4,0,0.7,0.1h0.6c0.7,0,1-0.2,1-0.8v-4.4c-0.7,0.2-1.3,0.4-2.1,0.7l-0.2-2.3
			l2.3-0.5V5.8H69.7L69.7,5.8z M76.4,12.6V11h4.3V9.5h-4.9V7.9h4.9V6.4h-4.3V4.8h4.3V3.4h-5V1.7h5V0.1h2.1v1.6h5.8v1.6h-5.8v1.5h4.9
			v3h1.6v1.6h-1.6v3h-4.9v1.7h5.4v1.6h-5.4v1.6h6.6c-0.1,0.3-0.3,0.8-0.5,1.5c-0.1,0.2-0.1,0.3-0.1,0.3c-0.9,0-3.3-0.1-7.1-0.2
			c-1.9,0-3.3-0.6-4.3-1.8c-0.5,0.8-1.3,1.7-2.3,2.5c-0.4-0.5-0.9-1-1.4-1.5c1.8-1.1,2.8-2.8,2.9-5l2,0.2c-0.1,0.8-0.2,1.4-0.4,1.9
			c0.7,1.3,1.6,1.9,2.6,1.9v-4.8C80.8,12.6,76.4,12.6,76.4,12.6z M85.9,6.4h-3v1.5h3V6.4z M82.8,9.5V11h3V9.5
			C85.9,9.5,82.8,9.5,82.8,9.5z"/>
		<path class="st0" d="M95.8,8.5c-1.1-1-2.2-2-3.4-2.9l1.3-1.5c1.5,1.1,2.7,2,3.4,2.8L95.8,8.5L95.8,8.5z M93.4,19.5l-0.9-2.2
			c0.8-0.8,1.6-1.4,2.3-2.1V11h-2.1V9.1h4.2v6.2c0.9,1.4,2.5,2.1,4.7,2.1c3.4,0,7.1,0,11,0c-0.1,0.1-0.1,0.3-0.2,0.7
			c-0.2,0.5-0.4,0.9-0.4,1.2h-6.4c-1.6,0-3.1,0-4.3-0.1c-2.3-0.1-4.1-0.8-5.2-2.1C94.7,18.1,93.9,18.9,93.4,19.5L93.4,19.5z
			 M96.4,4.4c-1.2-1-2.3-2-3.4-2.9l1.3-1.4c0.7,0.4,1.5,1.1,2.6,2c0.4,0.3,0.8,0.6,1,0.7L96.4,4.4z M98.2,4.3V0.9h13.4v3.4h-1.5v1.1
			h-4.2v1.2h4.9v6.2h-4.9v1.3h6v1.5h-6v1.7h-2.1v-1.7H98v-1.5h5.9v-1.3H99V6.6h4.9V5.3h-4.2V4.3L98.2,4.3L98.2,4.3z M100.2,2.6V4
			h3.7V2.6C103.9,2.6,100.2,2.6,100.2,2.6z M101,7.8v1.3h2.9V7.8C103.9,7.8,101,7.8,101,7.8z M101,10.3v1.3h2.9v-1.3
			C103.9,10.3,101,10.3,101,10.3z M109.7,2.5H106v1.4h3.7V2.5z M108.9,7.8h-3v1.3h3V7.8z M106,10.3v1.3h3v-1.3H106z"/>
		<path class="st0" d="M116,18.3l-0.4-2.1c1.3-0.2,2.7-0.3,4.2-0.5c0.2-0.9,0.5-2.2,0.9-3.8c0.5-2.2,0.8-3.9,1.1-4.8l2.1,0.4
			c-0.8,3.1-1.6,5.8-2.2,7.9l2.5-0.4c-0.1,0.8-0.1,1.5,0,2.1C122,17.2,119.3,17.7,116,18.3L116,18.3z M115.8,6V4h3.1V0.2h2.1V4h3.2
			v2H115.8L115.8,6z M117.7,14.2c-0.1-0.3-0.2-0.8-0.3-1.5c-0.4-2.4-0.8-4.1-1.1-5.3l1.8-0.3c0.1,0.2,0.1,0.6,0.2,1.1
			c0.6,2.3,1,4.2,1.2,5.6L117.7,14.2L117.7,14.2z M124.8,19.7v-10h3.5V0.1h2.1v3.7h5.1v2h-5.1v3.9h4.3v10h-2.1v-1.3h-5.8v1.3
			L124.8,19.7L124.8,19.7z M126.8,11.7v4.9h5.8v-4.9C132.6,11.6,126.9,11.6,126.8,11.7z"/>
		<path class="st0" d="M151.8,11.6l-1.7,1.6l-4.4-5l1.6-1.4L151.8,11.6L151.8,11.6z"/>
		<path class="st0" d="M163.2,19.7l-0.7-2.2l1.2-0.2v-6.9h2.2V12h5.3v1.8h-5.3v3.1c0.7-0.2,1.6-0.4,3-0.7c1.1-0.3,1.9-0.4,2.3-0.5
			c0,0.2,0,0.6,0.1,1.1v0.8C167.3,18.7,164.6,19.3,163.2,19.7z M164.1,9.5V0.9h15.4v8.6L164.1,9.5L164.1,9.5z M166.3,2.7v1.8h11.1
			V2.7H166.3z M166.3,6v1.8h11.1V6H166.3z M175.1,19.3c-1.9,0-2.8-0.9-2.7-2.7v-6.2h2.2v2.7c1.8-0.7,3.5-1.6,5.2-2.5l1.2,1.6
			c-0.2,0.1-0.6,0.3-1,0.5c-2.2,1.1-4.1,1.9-5.4,2.5v1c-0.1,0.8,0.4,1.2,1.3,1.2h2.1c0.8,0,1.3-0.3,1.4-0.9c0,0,0-0.2,0.1-0.3
			c0.1-0.8,0.2-1.4,0.2-1.9c0.2,0.1,0.4,0.1,0.7,0.2c0.3,0.1,0.7,0.2,1.2,0.4c-0.2,1.2-0.3,2-0.5,2.6c-0.3,1.2-1.3,1.8-2.8,1.8
			L175.1,19.3L175.1,19.3z"/>
		<path class="st0" d="M192.4,19c-0.4-0.5-0.9-1-1.2-1.4c2.2-1,3.8-2.4,4.7-4.1h-1.6c-0.5,0.6-1,1.1-1.6,1.6l-0.9-1
			c-0.2,1.2-0.8,1.9-2,2.1c-0.2,0-0.4,0.1-0.7,0.1c-0.3,0.1-0.5,0.1-0.7,0.1c0-0.1,0-0.2-0.1-0.4c-0.2-0.8-0.4-1.3-0.6-1.6h1.2
			c0.7,0.1,1.1-0.5,1.1-1.6c0.1-1.3-0.4-2.6-1.5-4.2l1.6-5.7h-2.4v16.9h-1.8V0.9h5.9V3l-1.5,5.4c0.9,1.4,1.4,2.9,1.4,4.6v0.5
			c0.9-0.7,1.8-1.6,2.5-2.8h-2.1V9h12.8v1.6h-8.9c-0.2,0.5-0.5,0.9-0.7,1.3h8.9c0,1.5-0.1,3.1-0.2,5c-0.1,1.6-1,2.5-2.6,2.5h-1.8
			c-0.2-0.8-0.3-1.4-0.4-1.8h0.7c0.4,0,0.8,0.1,1,0.1c0.7,0,1.1-0.3,1.1-1.1c0.1-0.8,0.2-1.9,0.2-3.2H201c-0.7,2.6-2.1,4.7-4.1,6.2
			c-0.3-0.3-0.7-0.7-1.4-1.2c1.9-1.3,3.2-2.9,3.8-5h-1.6C196.6,15.8,194.8,17.7,192.4,19L192.4,19z M193.3,7.9v-7h10.2v7L193.3,7.9
			L193.3,7.9z M195.3,2.4v1.3h6.2V2.4H195.3z M195.3,5.1v1.3h6.2V5.1H195.3z"/>
		<path class="st0" d="M208.4,5.8v-2h2V0.1h2v3.8h1.7v2h-1.7v3.7l1.7-0.5c0,0.9,0,1.6,0.1,2.1l-1.8,0.4v5.5c0.1,1.4-0.6,2.2-2,2.3
			c-0.2,0-0.6,0-1,0.1h-1c0-0.7-0.1-1.4-0.2-2.1c0.2,0,0.4,0,0.7,0.1h0.6c0.7,0,1-0.2,1-0.8v-4.4c-0.7,0.2-1.3,0.4-2.1,0.7l-0.2-2.3
			l2.3-0.5V5.8H208.4L208.4,5.8z M215.1,12.6V11h4.4V9.5h-4.9V7.9h4.9V6.4h-4.4V4.8h4.4V3.4h-5V1.7h5V0.1h2.1v1.6h5.8v1.6h-5.8v1.5
			h4.9v3h1.6v1.6h-1.6v3h-4.9v1.7h5.4v1.6h-5.4v1.6h6.6c-0.1,0.3-0.3,0.8-0.5,1.5c-0.1,0.2-0.1,0.3-0.1,0.3c-0.9,0-3.3-0.1-7.1-0.2
			c-1.9,0-3.3-0.6-4.3-1.8c-0.5,0.8-1.3,1.7-2.3,2.5c-0.4-0.5-0.9-1-1.4-1.5c1.8-1.1,2.8-2.8,2.9-5l2,0.2c-0.1,0.8-0.2,1.4-0.4,1.9
			c0.7,1.3,1.6,1.9,2.6,1.9v-4.8C219.5,12.6,215.1,12.6,215.1,12.6z M224.6,6.4h-3v1.5h3V6.4z M221.5,9.5V11h3V9.5
			C224.6,9.5,221.5,9.5,221.5,9.5z"/>
		<path class="st0" d="M234.5,8.5c-1.1-1-2.2-2-3.4-2.9l1.3-1.5c1.5,1.1,2.7,2,3.4,2.8L234.5,8.5L234.5,8.5z M232.1,19.5l-0.9-2.2
			c0.8-0.8,1.6-1.4,2.3-2.1V11h-2.1V9.1h4.2v6.2c0.9,1.4,2.5,2.1,4.7,2.1c3.4,0,7.1,0,11,0c-0.1,0.1-0.1,0.3-0.2,0.7
			c-0.2,0.5-0.4,0.9-0.4,1.2h-6.4c-1.6,0-3.1,0-4.4-0.1c-2.4-0.1-4.1-0.8-5.2-2.1C233.4,18.1,232.6,18.9,232.1,19.5L232.1,19.5z
			 M235.1,4.4c-1.1-1-2.3-2-3.4-2.9l1.3-1.4c0.7,0.4,1.5,1.1,2.6,2c0.4,0.3,0.8,0.6,1,0.7L235.1,4.4L235.1,4.4z M237,4.3V0.9h13.4
			v3.4h-1.5v1.1h-4.2v1.2h4.9v6.2h-4.9v1.3h6v1.5h-6v1.7h-2.1v-1.7h-5.9v-1.5h5.9v-1.3h-4.9V6.6h4.9V5.3h-4.2V4.3L237,4.3L237,4.3z
			 M238.9,2.6V4h3.7V2.6C242.6,2.6,238.9,2.6,238.9,2.6z M239.8,7.8v1.3h2.9V7.8C242.6,7.8,239.8,7.8,239.8,7.8z M239.8,10.3v1.3
			h2.9v-1.3C242.6,10.3,239.8,10.3,239.8,10.3z M248.4,2.5h-3.7v1.4h3.7V2.5z M247.6,7.8h-3v1.3h3V7.8z M244.7,10.3v1.3h3v-1.3
			H244.7z"/>
		<path class="st0" d="M254.7,18.3l-0.4-2.1c1.3-0.2,2.7-0.3,4.2-0.5c0.2-0.9,0.5-2.2,0.9-3.8c0.5-2.2,0.9-3.9,1.1-4.8l2,0.4
			c-0.8,3.1-1.6,5.8-2.2,7.9l2.5-0.4c-0.1,0.8-0.1,1.5,0,2.1C260.7,17.2,258.1,17.7,254.7,18.3L254.7,18.3z M254.6,6V4h3.1V0.2h2.1
			V4h3.2v2H254.6L254.6,6z M256.5,14.2c-0.1-0.3-0.2-0.8-0.3-1.5c-0.4-2.4-0.8-4.1-1.1-5.3l1.8-0.3c0,0.2,0.1,0.6,0.2,1.1
			c0.5,2.3,1,4.2,1.2,5.6L256.5,14.2L256.5,14.2z M263.5,19.7v-10h3.5V0.1h2.1v3.7h5.1v2h-5.1v3.9h4.3v10h-2.1v-1.3h-5.8v1.3
			L263.5,19.7L263.5,19.7z M265.6,11.7v4.9h5.8v-4.9C271.3,11.6,265.6,11.6,265.6,11.7z"/>
		<path class="st0" d="M278.1,7c-0.1-0.2-0.2-0.6-0.3-1c-0.2-0.4-0.3-0.8-0.3-1c1.1-1.4,2-3.1,2.7-4.9l1.8,0.3
			c-0.2,0.6-0.5,1.1-0.7,1.6h2c0.1-0.2,0.2-0.5,0.3-0.9c0.2-0.4,0.4-0.8,0.5-1l1.6,0.3L284.8,2h2.3v1.4h-2.3v1.4h2v1.3h-2v1.3h2v1.3
			h-2v1.4h2.5v1.4h-6.5v0.7H279V5.8C278.7,6.1,278.4,6.5,278.1,7L278.1,7z M296.4,19.5c-3.7-0.3-6.6-0.9-8.9-1.6
			c-2.4,0.7-5.4,1.3-9,1.8c-0.1,0-0.1-0.2-0.2-0.3c-0.3-0.7-0.6-1.1-0.8-1.5c2.7-0.3,5.1-0.6,7.2-0.9c-1.3-0.7-2.6-1.6-3.9-2.8H279
			v-1.5h16.1v1.6c-1.5,1-3,1.9-4.7,2.6c2.3,0.3,4.6,0.5,7,0.6C297,18.3,296.7,18.9,296.4,19.5L296.4,19.5z M280.8,3.5v1.4h2.2V3.5
			H280.8z M280.8,6.2v1.3h2.2V6.2H280.8z M280.8,8.8v1.4h2.2V8.8H280.8z M291.8,14.3h-8.2c1.2,0.9,2.5,1.6,3.9,2
			C289.1,15.8,290.5,15.1,291.8,14.3z M287.5,6.7c-0.1-0.2-0.1-0.6-0.2-1c-0.2-0.4-0.3-0.7-0.3-0.9c1.2-1.5,2-3.1,2.5-4.8l1.8,0.2
			c-0.1,0.3-0.2,0.7-0.5,1.1c-0.1,0.3-0.2,0.5-0.2,0.6h2c0.3-0.7,0.6-1.3,0.9-1.9l1.6,0.3l-0.7,1.6h2.7v1.4h-2.7v1.4h2.4v1.3h-2.4
			v1.3h2.4v1.3h-2.4v1.4h3v1.4H290v0.7h-1.7V5.8C288.1,6.1,287.8,6.4,287.5,6.7L287.5,6.7z M290,3.5v1.4h2.5V3.5
			C292.5,3.5,290,3.5,290,3.5z M290,6.2v1.3h2.5V6.2H290z M290,8.8v1.4h2.5V8.8H290z"/>
		<path class="st0" d="M300.9,5.8v-2h2V0.1h2v3.8h1.7v2h-1.7v3.7l1.7-0.5c0,0.9,0,1.6,0.1,2.1l-1.8,0.4v5.5c0,1.4-0.6,2.2-2,2.3
			c-0.2,0-0.5,0-1,0.1h-1c0-0.7-0.1-1.4-0.2-2.1c0.2,0,0.4,0,0.7,0.1h0.6c0.7,0,1-0.2,1-0.8v-4.4c-0.7,0.2-1.3,0.4-2,0.7l-0.2-2.3
			l2.3-0.5V5.8H300.9L300.9,5.8z M307.6,12.6V11h4.4V9.5H307V7.9h4.9V6.4h-4.4V4.8h4.4V3.4h-5V1.7h5V0.1h2v1.6h5.8v1.6H314v1.5h4.9
			v3h1.6v1.6H319v3H314v1.7h5.4v1.6H314v1.6h6.6c-0.1,0.3-0.3,0.8-0.5,1.5c-0.1,0.2-0.1,0.3-0.1,0.3c-0.9,0-3.3-0.1-7.1-0.2
			c-1.9,0-3.3-0.6-4.3-1.8c-0.5,0.8-1.3,1.7-2.3,2.5c-0.4-0.5-0.9-1-1.4-1.5c1.8-1.1,2.8-2.8,2.9-5l2,0.2c-0.1,0.8-0.2,1.4-0.4,1.9
			c0.7,1.3,1.6,1.9,2.6,1.9v-4.8L307.6,12.6L307.6,12.6z M317.1,6.4h-3v1.5h3V6.4z M314,9.5V11h3V9.5C317.1,9.5,314,9.5,314,9.5z"/>
		<path class="st0" d="M325.9,19.7V9c-0.5,0.9-1.1,1.8-1.7,2.8c-0.1-0.4-0.2-1-0.3-1.6c-0.1-0.5-0.2-0.9-0.2-1.1c1.8-3,3.1-6,3.8-9
			l2,0.6c-0.4,1.5-1,3-1.6,4.4v14.7H325.9L325.9,19.7z M328.9,19.8c0-0.1-0.1-0.3-0.2-0.6c-0.2-0.4-0.3-0.7-0.4-0.9
			c2.5-0.3,4.4-0.5,5.8-0.8c-0.8-0.3-1.6-0.7-2.2-1.2c-0.1,0-0.1,0-0.2,0.1c-0.7,0.5-1.3,0.9-1.9,1.1l-1.1-1.1c1.6-0.8,3-1.8,4.2-3
			l0.3,0.1c-0.4-0.3-0.6-0.8-0.6-1.5v-1.2h1.7v1c-0.1,0.6,0.2,0.8,0.9,0.7h2c0.5,0,0.9-0.2,1-0.6c0-0.1,0-0.2,0.1-0.3
			c0-0.2,0.1-0.4,0.2-0.7c0.1,0.1,0.2,0.1,0.4,0.2c0.5,0.2,1,0.4,1.2,0.5c-0.1,0.1-0.1,0.3-0.2,0.5c-0.1,0.3-0.2,0.5-0.2,0.6
			c-0.2,0.8-0.9,1.1-2,1.1h-3.2c-0.1,0.1-0.2,0.2-0.3,0.4c-0.2,0.2-0.3,0.4-0.4,0.5h7.5v1.4c-0.9,0.7-1.8,1.3-2.9,1.6
			c1.4,0.3,3,0.4,5,0.5c-0.4,0.8-0.6,1.3-0.7,1.6c-2.9-0.2-5-0.6-6.6-1.1C334.5,19,332.1,19.5,328.9,19.8L328.9,19.8z M329.7,2.3
			V0.9h13.7v1.4h-7.1L336,3.2h5.9v5.6h1.3v2.5h-1.6c0.6,0.6,1.1,1.2,1.6,1.8l-1.4,0.9c-0.5-0.8-1.1-1.5-1.8-2.3l1.2-0.7v-0.8h-4.9
			c0.5,0.3,1,0.7,1.4,1.1l-1.2,0.9c-0.6-0.6-1.1-1.1-1.6-1.4l0.8-0.6H331V11l1.4,0.7c-0.7,0.9-1.3,1.7-2,2.5
			c-0.4-0.3-0.8-0.6-1.2-0.9c0-0.1,0.1-0.1,0.2-0.2c0.7-0.9,1.2-1.5,1.6-1.9h-1.6V8.8h1.3V3.2h3.5l0.2-0.9L329.7,2.3L329.7,2.3z
			 M332.5,4.3v0.9h7.3V4.3H332.5z M332.5,6.1V7h7.3V6.1H332.5z M332.5,7.9v0.9h7.3V7.9C339.9,7.9,332.5,7.9,332.5,7.9z M339.3,15.6
			h-5.9c0.9,0.6,1.8,1.1,2.8,1.4C337.3,16.7,338.4,16.2,339.3,15.6z"/>
		<path class="st0" d="M357.6,19.3c-0.1-0.7-0.2-1.3-0.4-1.9h1.4c0.9,0,1.6,0.1,2.1,0.1c1.2,0.1,1.8-0.3,1.9-1.3
			c0-0.2,0.1-0.4,0.1-0.7c0-0.3,0.1-0.6,0.1-0.7h-6.4c-0.5,2.5-3.2,4.2-8.1,5.1c-0.3-0.6-0.6-1.2-1.1-1.9c4.2-0.5,6.5-1.6,7-3.2
			h-5.8V13h6.2c0-0.1,0.1-0.3,0.1-0.6c0-0.3,0.1-0.5,0.1-0.6h2.1l-0.1,1.1h8.2c-0.1,1.3-0.1,2.4-0.2,3.3c0,2.1-1.2,3.1-3.7,3
			L357.6,19.3L357.6,19.3z M351.3,0.1h1.9v1.2h3v1.4h-3v1.1h3.5v1.3h-2.4v0.5c-0.1,0.4,0.1,0.6,0.6,0.6h0.3c0.3,0.1,0.5-0.2,0.6-0.8
			c0,0,0.1,0,0.2,0.1c0.4,0.2,0.7,0.2,0.8,0.2c-0.1,1-0.7,1.5-1.6,1.5h-0.7c-1,0.1-1.5-0.4-1.4-1.4V5.1h-1.9c0,1.3-1,2.2-3.1,2.7
			c-0.2-0.3-0.4-0.7-0.8-1.2c1.8-0.2,2.6-0.7,2.6-1.6h-2.5V3.8h3.9V2.7h-3.1V1.3h3.1V0.1z M348.5,8.9V7.7h3V6.6h1.7v1.2h2.8v1.2
			h-2.8V10l3.3-0.2c-0.1,0.5-0.1,1-0.1,1.4c-1.2,0.1-3.3,0.2-6.4,0.3c-1,0.1-1.7,0.1-2.2,0.2l-0.2-1.4l3.9-0.2V8.9H348.5L348.5,8.9z
			 M361.6,10c-0.5-0.3-1-0.7-1.5-1.1c-0.4,1-1.2,2.1-2.3,3.2c-0.2-0.2-0.4-0.5-0.8-1c-0.2-0.2-0.3-0.4-0.4-0.5c1-1,1.7-2,2-2.8
			c-0.1-0.1-0.2-0.1-0.4-0.2c-0.3-0.2-0.7-0.5-1.1-0.9l0.8-1.2l1.1,0.7c0-0.3,0.1-0.8,0.2-1.5c0-0.3,0.1-0.5,0.1-0.7h-2V2.3h2.1V0.1
			h1.8v2.2h3.3c-0.1,3.6-0.1,5.9,0.2,7.1c0.1,0.4,0.2,0.6,0.4,0.6s0.3-0.2,0.3-0.6c0.1-0.5,0.2-1.3,0.2-2.4c0.1,0.1,0.3,0.1,0.5,0.2
			c0.2,0.1,0.4,0.1,0.7,0.2c-0.1,1.1-0.2,2-0.3,2.8c-0.3,1-0.8,1.6-1.6,1.6c-1,0-1.7-0.6-2-1.8c-0.2-0.7-0.2-2.7-0.2-6h-1.6
			c-0.1,1.2-0.2,2.3-0.4,3.2l1.8,1.2L361.6,10L361.6,10z"/>
		<path class="st0" d="M381.7,6.1v2.7c0,2.1-0.9,3.7-2.7,4.7l-0.7-0.9c1.4-0.8,2-1.9,2-3.4h-1.6V6.1H381.7z"/>
		<path class="st0" d="M394,19.7v-19h18.1v19h-2v-0.9h-14v0.9H394L394,19.7z M396,2.5v14.6h14V2.5C410,2.5,396,2.5,396,2.5z
			 M396.8,6.4V4.8h6.8V3h1.8v1.7h1.6l-0.7-1.2l1.1-0.4c0.1,0.2,0.3,0.5,0.6,0.9c0.2,0.3,0.3,0.6,0.4,0.7h0.7v1.6h-3.7
			c0,1.8,0.2,3.3,0.4,4.4c0.6-1,1.2-2.2,1.7-3.6l1.5,0.7c-1,2.2-1.9,3.9-2.8,5.1c0,0.1,0.1,0.2,0.2,0.4c0,0.2,0.1,0.4,0.2,0.5
			c0.2,0.5,0.5,0.7,0.7,0.7c0.3,0,0.4-0.2,0.5-0.7c0.1-0.3,0.3-1,0.5-2.1c0.3,0.2,0.7,0.5,1.2,0.7c-0.1,0.5-0.2,1.1-0.4,1.8
			c-0.1,0.3-0.1,0.5-0.2,0.6c-0.3,1.1-1,1.7-1.9,1.6c-0.9,0-1.6-0.6-2-1.9c-0.2,0.2-0.5,0.6-0.9,1.1c-0.4,0.4-0.8,0.8-1,1
			c-0.2-0.2-0.6-0.7-1.3-1.4h0.1c-1,0.1-2.5,0.3-4.5,0.6c-0.3,0.1-0.5,0.1-0.6,0.1l-0.3-1.7c2.5-0.2,4.6-0.4,6.4-0.7v0.8
			c0.5-0.5,1-1,1.5-1.6c-0.4-1.4-0.7-3.5-0.8-6.4L396.8,6.4L396.8,6.4z M397.5,12.6v-5h5.1v5C402.6,12.6,397.5,12.6,397.5,12.6z
			 M399,9v2.2h2.1V9H399z"/>
		<path class="st0" d="M419.7,8.5c-1.3-0.9-2.5-1.7-3.7-2.4l1.1-1.5c1.1,0.6,2.4,1.3,3.8,2.3L419.7,8.5L419.7,8.5z M417.2,19.5
			l-1-2.2c0.3-0.2,0.7-0.6,1.2-1.1c0.4-0.4,0.8-0.8,1-1v-3.9h-2v-2h4.1v5.8c0.8,1.4,2.4,2,4.6,2h11.2c-0.1,0.1-0.1,0.3-0.2,0.6
			c-0.2,0.5-0.4,1-0.4,1.4h-6.7c-1.6,0-3,0-4.2-0.1c-2.4,0-4.1-0.7-5.2-2.2C418.5,17.9,417.8,18.7,417.2,19.5L417.2,19.5z
			 M420.1,4.7c-1.3-0.9-2.5-1.8-3.7-2.5l1.1-1.4c0.2,0.1,0.4,0.2,0.7,0.4c1.3,0.7,2.3,1.3,3,1.8L420.1,4.7L420.1,4.7z M421.9,4.1
			V2.4h3.6c-0.2-0.2-0.4-0.5-0.7-1c-0.3-0.4-0.6-0.7-0.7-0.9l2-0.5c0.6,0.7,1.2,1.5,1.7,2.4h2l1.4-2.4l2.2,0.5l-1.3,1.9h3.7v1.7
			h-6.4l-0.4,1.6h5.7v10.3h-12V5.7h4.2l0.3-1.6C427.3,4.1,421.9,4.1,421.9,4.1z M424.8,7.2v1.5h7.9V7.2H424.8z M424.8,10v1.5h7.9V10
			H424.8z M424.8,12.9v1.5h7.9v-1.5C432.7,12.9,424.8,12.9,424.8,12.9z"/>
		<path class="st0" d="M452.3,11.6l-1.7,1.6l-4.4-5l1.6-1.4L452.3,11.6L452.3,11.6z"/>
		<path class="st0" d="M462.5,3.5V1.8h8.9V0h2.2v1.8h8.7v1.7H462.5z M463.5,19.5v-9.4h17.9v6.9c0,1.5-0.8,2.3-2.5,2.4
			c-0.7,0-1.7,0.1-3,0.1c-0.1-0.4-0.2-0.9-0.3-1.6c-0.1-0.2-0.1-0.3-0.1-0.3h2.3c1,0,1.5-0.3,1.5-1.1v-4.7h-13.6v7.6L463.5,19.5
			L463.5,19.5z M465.5,9V4.8h13.7V9H465.5z M467.7,6.2v1.4h9.4V6.2H467.7z M467.8,17.4v-4.3h9.1v4.3H467.8z M469.9,14.5v1.6h5v-1.6
			H469.9z"/>
		<path class="st0" d="M503.5,19.5c-1.1,0-1.9-0.7-2.3-2.4c-0.5,0.7-1.2,1.5-2,2.4c-0.1-0.1-0.3-0.3-0.5-0.6
			c-0.3-0.4-0.6-0.6-0.7-0.7l0.2-0.3c-0.8,0-2,0.2-3.6,0.3c-1,0.1-1.8,0.2-2.2,0.2l-0.2-1.6l2.9-0.2v-1.4h-2.3v-1.2h2.3v-1.3h-2.5
			v-1.4h6.9v1.4h-2.5v1.3h2.3v1.2h-2.3v1.3l2.5-0.2v0.2c0.4-0.5,0.9-1.1,1.4-2c-0.3-1.8-0.4-4.2-0.5-7.2l-0.1-1.8h-8V4.3l-0.9,1
			c-0.7-0.8-1.4-1.7-2.1-2.6c-0.5,1-1.2,1.9-1.9,2.8h4.1V7h-1.6v1.9h2v1.6h-2v6c0.3,0,0.7-0.1,1.1-0.2c0.5-0.1,0.9-0.2,1.1-0.2
			c-0.1,0.5-0.1,1.1-0.1,1.6c-0.5,0.1-1.2,0.2-2.2,0.4c-1.6,0.3-2.9,0.5-3.9,0.6l-0.2-1.6l2.5-0.3v-6.2h-2.3V8.9h2.3V7h-1.6V6.4
			l-1.1-1.5c1.4-1.4,2.4-3,3-4.9l1.9,0.2c0,0.1-0.1,0.2-0.2,0.4c-0.1,0.2-0.1,0.3-0.2,0.4c1,1,1.9,2,2.6,2.9l-0.2,0.3h2.7V2.9h-2.5
			V1.5h2.5V0.1h1.9v1.4h2.4v1.4h-2.4v1.3h3.2c-0.1-1.3-0.1-2.7-0.1-4.1h1.8v4.1h3.6v1.5h-3.5v1.7c0.1,1.8,0.2,3.3,0.2,4.5
			c0.5-1.2,1-2.6,1.4-4.1l1.6,0.7c-1,3-1.9,5.2-2.6,6.6v0.4c0,0.2,0.1,0.4,0.1,0.5c0.2,1,0.5,1.5,0.8,1.4c0.3,0,0.5-0.2,0.6-0.8
			c0.1-0.9,0.2-1.8,0.2-2.5c0.2,0.1,0.4,0.2,0.7,0.3c0.2,0.1,0.4,0.1,0.5,0.2c-0.1,1.3-0.2,2.3-0.3,3
			C505.1,18.9,504.5,19.5,503.5,19.5L503.5,19.5z M486.7,15.6c-0.2-1.1-0.5-2.4-1-3.8l1.1-0.2c0.3,1.2,0.7,2.4,1,3.7L486.7,15.6
			L486.7,15.6z M491.1,15.4L490,15c0.2-0.6,0.5-1.4,0.7-2.5c0.1-0.4,0.2-0.8,0.2-1l1.1,0.2C491.8,13,491.4,14.2,491.1,15.4z
			 M492.7,10.4V6.6h6.6v3.8H492.7z M494.4,7.9v1.3h3.2V7.9C497.6,7.9,494.4,7.9,494.4,7.9z M503.8,3.7c-0.4-0.8-0.9-1.7-1.5-2.6
			l1.4-0.7c0.5,0.9,1.1,1.7,1.6,2.5L503.8,3.7L503.8,3.7z"/>
		<path class="st0" d="M509.4,5.5v-2h5.4c-0.2-0.3-0.6-0.8-1.2-1.5c-0.4-0.6-0.8-1-1-1.2l2-0.8c0.7,0.7,1.6,1.6,2.5,2.7l-1.6,0.8
			h4.8c1.1-1.5,1.9-2.7,2.5-3.5l2.3,0.7c-0.2,0.3-0.6,0.9-1.2,1.6c-0.4,0.5-0.7,1-0.9,1.2h5v2h-5.4V17h6v1.9h-19.5V17h6V5.5H509.4
			L509.4,5.5z M512.4,15.2c-0.8-2-1.8-4.4-3-7.2l1.9-0.7c1.1,2.6,2.2,4.9,3.1,7.1L512.4,15.2L512.4,15.2z M517,5.5V17h3.2V5.5H517z
			 M524.7,15.3l-2-0.8c1.2-2,2.2-4.4,3.3-7.2l2,0.7C526.8,10.7,525.7,13.1,524.7,15.3L524.7,15.3z"/>
		<path class="st0" d="M532.5,14c-0.1-0.4-0.3-0.9-0.6-1.6c-0.1-0.2-0.1-0.4-0.2-0.5c1.9-1.6,3.7-3.7,5.4-6.3l1.8,1.2
			c-0.4,0.7-1,1.5-1.9,2.6c-0.1,0.1-0.1,0.1-0.2,0.2v10.2h-2.2v-7.8C534.1,12.6,533.3,13.3,532.5,14L532.5,14z M533.1,7.2
			c-0.4-1-0.7-1.7-1-2.1c2-1.5,3.6-3.2,4.9-5l1.9,1.3C536.9,3.6,535,5.6,533.1,7.2z M539.5,9.6V7.5h12.2v2.1h-3.4v6.6c0,2-1,3-3,3
			h-3.4c-0.2-0.7-0.3-1.3-0.5-2c0.6,0,1.6,0.1,3,0.1c1.2,0,1.7-0.5,1.6-1.5V9.6H539.5L539.5,9.6z M540.5,3.5V1.4h10.3v2.1
			C550.8,3.5,540.5,3.5,540.5,3.5z"/>
		<path class="st0" d="M556.2,19.7c-0.7-0.8-1.2-1.3-1.6-1.7c2.1-2.4,3.1-6.4,3.1-11.9V5.7h-2.5V3.6h2.5V0.1h2.1v3.5h4.5
			c0,5.4-0.1,9.6-0.2,12.6c0,1.9-0.9,2.9-2.6,2.9c-0.5,0-1.3,0.1-2.5,0.1c-0.1-0.8-0.2-1.5-0.4-2.1h1.9c1,0,1.6-0.4,1.6-1.5
			c0.1-3.2,0.2-6.5,0.2-9.9h-2.5v0.5C559.8,12.6,558.6,17.1,556.2,19.7L556.2,19.7z M566.3,19.2v-17h7.7v17h-2.1v-1.9h-3.5v1.9
			L566.3,19.2L566.3,19.2z M568.3,4.3v11.1h3.5V4.3L568.3,4.3L568.3,4.3z"/>
		<path class="st0" d="M578.3,5.8v-2h2.3V0.1h2v3.8h2v2h-2v3.6c0.2-0.1,0.5-0.1,1-0.2c0.4-0.1,0.8-0.1,1-0.2c0,0.8,0,1.5,0.1,2.1
			l-2,0.4v5.7c0,1.4-0.7,2.2-2,2.2h-2c-0.2-0.9-0.4-1.6-0.4-2.1h0.3c0.5,0,0.9,0,1.2,0c0.7,0,1-0.2,0.9-0.8v-4.4
			c-0.1,0-0.2,0-0.4,0.1c-0.5,0.1-1.2,0.3-2,0.5l-0.2-2.4l2.6-0.4v-4H578.3L578.3,5.8z M585.9,4.4V2.5h4.4V0.1h2.1v2.5h4.6v1.9h-4.6
			v2.3h5.5v2h-13v-2h5.4V4.4L585.9,4.4L585.9,4.4z M585,12.7v-2h8V9.3h2.2v1.5h2.6v2h-2.6v4c0,1.8-0.9,2.6-2.8,2.6
			c-1.1,0-2.1,0.1-3.1,0.1c-0.1-0.3-0.1-0.7-0.2-1.3c-0.1-0.4-0.2-0.7-0.2-0.8c0.4,0,1.3,0.1,2.5,0.1c1.1,0.1,1.6-0.3,1.5-1.3v-3.4
			L585,12.7L585,12.7z M588.4,17.1c-0.4-0.5-1.2-1.4-2.3-2.6c0.1,0.1,0,0-0.3-0.3l1.5-1.2c0.4,0.4,1,0.9,1.7,1.6
			c0.5,0.6,0.9,0.9,1.2,1.1L588.4,17.1z"/>
		<path class="st0" d="M93.4,51.9c0-0.1,0-0.3-0.1-0.6c-0.1-0.7-0.2-1.2-0.2-1.5c0.2,0,0.6,0,1,0.1h1c1,0.1,1.6-0.3,1.6-1.3
			c0.1-1.3,0.2-2.5,0.2-3.6h-1.9v0.8h-2.1l0.7-7.4H97v-3.1h-4v-1.9h5.9v6.8h-3.6l-0.2,3h3.7c0,1.9-0.1,3.9-0.2,5.8
			c-0.1,2-1.1,2.9-3.1,2.9L93.4,51.9L93.4,51.9z M100.5,39.2l-0.7-2h1.6c0.7-0.8,1.7-2.4,3-4.7l2.2,0.7c-1.1,1.5-2.1,2.8-3,3.9
			c0.6,0,1.4,0,2.5-0.1h2.3l-1.6-2l1.6-1c1.3,1.4,2.6,2.9,3.8,4.5l-1.7,1.2l-0.8-1.2l-2.9,0.1v2h4.8v6.2h-4.8v2.5
			c0.3,0,0.7,0,1.3-0.1c0.6,0,1,0,1.3-0.1l-0.7-1.5l1.6-0.6c0.2,0.3,0.4,0.8,0.7,1.3c0.7,1.1,1.2,2,1.6,2.8l-1.7,0.7l-0.5-1.1
			c-3.7,0-7.3,0.2-11,0.5l-0.2-1.9c1.9,0,3.8,0,5.7-0.2v-2.5H100v-6.2h4.8v-2l-2.5,0.1c-0.1,0-0.3,0-0.6,0.1
			C101.2,39.1,100.8,39.2,100.5,39.2L100.5,39.2z M102,42.7v2.7h2.8v-2.7H102z M109.7,42.7h-2.9v2.7h2.9V42.7z"/>
		<path class="st0" d="M116.1,40v-2.2h8.3c0.1-1.2,0.1-2.9,0.1-5.2h2.5l-0.2,5.2h8.3V40h-8.2c0.7,4.7,3.6,8,8.6,9.8
			c-0.6,0.5-1.1,1.2-1.6,2c-4.5-2-7.3-4.9-8.3-8.7c-0.9,3.7-3.6,6.7-8.3,9c-0.2-0.2-0.5-0.6-0.9-1.2c-0.3-0.4-0.6-0.7-0.7-0.8
			c5.2-2.2,8.1-5.5,8.4-10H116.1L116.1,40z"/>
		<path class="st0" d="M139.5,51.9V35.8h2.2c0.2-0.6,0.4-1.4,0.7-2.5c0.1-0.3,0.1-0.6,0.2-0.7l2.3,0.3c-0.2,1-0.5,1.9-0.8,2.9h3.5
			v16h-2.1v-1.5h-3.9v1.6H139.5L139.5,51.9z M141.7,37.8v4.3h3.9v-4.3H141.7z M141.7,44.1v4.3h3.9v-4.3H141.7z M150.6,51.8
			c-0.1-0.8-0.2-1.5-0.4-2h1.5c0.7,0,1.3,0.1,1.6,0.1c1.5,0,2.2-0.7,2.2-2.1c0.1-0.9,0.1-2.7,0.2-5.6c0.1-2,0.1-3.5,0.1-4.3h-4.5
			c-0.5,1.1-1,2.1-1.5,3c-0.1,0-0.3-0.2-0.5-0.3c-0.3-0.2-0.7-0.4-1.4-0.7c1.3-2.3,2.2-4.7,3-7.2l2.2,0.5c-0.1,0.2-0.2,0.5-0.3,0.9
			c-0.2,0.8-0.4,1.4-0.7,1.8h5.9c-0.1,6-0.2,10.1-0.3,12.3c0.1,2.5-1.1,3.7-3.5,3.6C153,51.8,151.9,51.8,150.6,51.8L150.6,51.8z
			 M152.3,46.3c-0.9-1.4-1.9-2.9-3-4.3l1.7-1.1c1,1.2,2.1,2.5,3.2,4.2L152.3,46.3L152.3,46.3z"/>
		<path class="st0" d="M180.4,52.1c-3.8-0.9-6.6-2-8.5-3.3c-1.9,1.3-4.8,2.4-8.8,3.5l-1-2.3c3.6-0.7,6.3-1.5,8-2.6
			c-1.2-1.2-2.3-2.7-3.4-4.5l2-1.1c1.1,1.8,2.2,3.2,3.2,4.1c1.1-1,2.1-2.5,2.9-4.3l2.1,1.1c-1,1.9-2.1,3.5-3.2,4.7
			c1.9,1.2,4.6,2,8,2.5c-0.2,0.3-0.5,0.8-0.8,1.5C180.6,51.7,180.5,51.9,180.4,52.1L180.4,52.1z M163.6,43.9c-0.4-0.7-0.9-1.3-1.4-2
			c2.2-1.2,4.3-2.5,6.3-4.2l1.6,1.6C168.2,40.9,166,42.4,163.6,43.9L163.6,43.9z M162.3,37.3v-2.1h8.6v-2.5h2.2v2.5h8.4v2.1H162.3
			L162.3,37.3z M180,43.6c-2.1-1.5-4.2-2.9-6.3-4.2l1.4-1.6c2,1.2,4.1,2.4,6.4,3.9L180,43.6L180,43.6z"/>
		<path class="st0" d="M188.5,40.5c-1.1-0.9-2.3-1.9-3.5-2.9l1.2-1.4c1.1,0.8,2.4,1.7,3.7,2.7L188.5,40.5L188.5,40.5z M186,51.9
			l-1-2.1c0.6-0.5,1.3-1.3,2.3-2.1V43h-2.1v-2h4.2v6.6c0.9,1.5,2.4,2.3,4.5,2.3H205c-0.3,0.6-0.5,1.2-0.7,1.9
			c-3.6,0-7.3-0.1-11.1-0.2c-2.2-0.1-3.8-0.8-4.8-2.2C187.4,50.3,186.6,51.2,186,51.9L186,51.9z M188.8,36.6c-0.6-0.5-1.5-1.3-3-2.5
			c-0.3-0.2-0.5-0.3-0.6-0.4l1.2-1.3c1.1,0.8,2.4,1.7,3.7,2.7L188.8,36.6L188.8,36.6z M199.6,48.9c-0.1-0.5-0.2-1.1-0.4-1.6h1.6
			c0.8,0,1.1-0.4,1.1-1.2v-0.3h-3.3v2.8h-2v-2.8h-3.2v3h-2.1v-11h4.5c-0.3-0.2-0.7-0.4-1.4-0.7c-0.8-0.4-1.4-0.7-1.7-0.9l1.1-1.1
			h-2.8v-1.6h12.6v1.8l-4.6,2.5h4.8v8.5c0.1,1.6-0.7,2.5-2.3,2.5C201.1,48.9,200.5,48.9,199.6,48.9L199.6,48.9z M193.3,39.4v1.7h3.2
			v-1.7H193.3z M193.3,42.6v1.7h3.2v-1.7H193.3z M200.6,35.1h-6.4c0.2,0.1,0.6,0.3,1.1,0.6c0.9,0.5,1.6,1,2.1,1.2L200.6,35.1
			L200.6,35.1z M201.8,39.4h-3.3v1.7h3.3V39.4z M198.5,42.6v1.7h3.3v-1.7H198.5z"/>
		<path class="st0" d="M209.1,35.3c0-0.1,0-0.3-0.1-0.6c-0.1-0.4-0.2-0.8-0.2-1c3,0,6.2-0.1,9.9-0.4l0.4,1.5c-0.4,0-0.9,0-1.6,0.1
			c-1.1,0.1-2,0.2-2.6,0.2v1.4h4.4V38h-4.4v1.2h4.1v6.7h-4.1v1.3h4.1v1.4h-4.1v1.3c0.5,0,1.2,0,2.1-0.1c1,0,1.7,0,2.1-0.1v0.5
			c1.5-1.8,2.3-5.1,2.3-9.9v-1.7H220v-2h1.6v-3.9h2l-0.1,3.9h3.9c0,5.2-0.1,9.3-0.2,12.4c0,1.9-0.8,2.8-2.4,2.8
			c-0.4,0-1.1,0.1-2.1,0.1c-0.1-0.2-0.1-0.5-0.2-1c-0.1-0.5-0.2-0.8-0.2-1h1.7c0.9,0,1.3-0.5,1.3-1.5v-0.7c0.2-4.2,0.2-7.3,0.2-9.2
			h-2.1V40c-0.1,5.6-1.1,9.7-3.1,12.2c-0.4-0.4-0.8-0.8-1.2-1.2c-3.3,0-6.9,0.2-10.7,0.5l-0.2-1.7l4.9-0.1v-1.3h-4.4v-1.4h4.4v-1.3
			H209v-6.7h4.1V38h-4.8v-1.6h4.8v-1.3c-0.4,0-1.1,0.1-2.1,0.1C210.2,35.2,209.6,35.3,209.1,35.3L209.1,35.3z M210.7,40.5v1.3h2.4
			v-1.3H210.7z M210.7,43.2v1.3h2.4v-1.3H210.7z M217.3,40.5h-2.4v1.3h2.4V40.5z M214.9,43.2v1.3h2.4v-1.3H214.9z"/>
		<path class="st0" d="M231.4,39l-0.5-1.9h1.2c1.4-2.1,2.5-3.8,3.2-5l2.1,0.8c-0.9,1.3-1.9,2.6-3,4.1c1.4-0.1,2.8-0.2,4.1-0.2
			l-1.3-1.6l1.5-0.9c1.4,1.6,2.6,3,3.6,4.3l-1.6,1.2c-0.1-0.2-0.2-0.4-0.4-0.7c-0.2-0.3-0.4-0.5-0.5-0.6c-1.1,0-2.7,0.2-4.8,0.3
			C233.3,38.9,232.2,39,231.4,39z M232.3,52V40.4h8.5v9.4c0.1,1.4-0.6,2.1-2.1,2.1h-1c-0.6,0-1,0.1-1.3,0.1
			c-0.1-0.3-0.1-0.7-0.2-1.2c-0.1-0.3-0.1-0.5-0.1-0.6h1.8c0.7,0,1-0.2,1-0.7v-1.2h-4.7V52L232.3,52L232.3,52z M234.2,42v1.6h4.7V42
			H234.2z M234.2,45.1v1.6h4.7v-1.6H234.2z M245.2,41.7c-1.8,0-2.7-0.8-2.6-2.6v-6.4h2.1v3c1.5-0.5,3.1-1.3,4.9-2.3l1.1,1.6
			c-2,1-4,1.9-6.1,2.7v1.1c-0.1,0.8,0.4,1.2,1.2,1.2h1.6c0.8,0,1.3-0.3,1.4-1c0.1-0.5,0.1-0.7,0.1-0.5c0.1-0.6,0.1-1.1,0.2-1.6
			c0.3,0.1,0.7,0.2,1.2,0.3c0.3,0.1,0.5,0.2,0.7,0.2c-0.1,0.6-0.2,1.3-0.3,2.1c0,0,0,0-0.1,0.2c-0.2,1.3-1.1,1.9-2.7,1.9L245.2,41.7
			L245.2,41.7z M245.2,51.8c-1.8,0-2.6-0.8-2.6-2.5v-6.6h2.1v2.6c1.6-0.5,3.3-1.3,5.1-2.4l1.1,1.7c-2.4,1.2-4.5,2-6.2,2.7v1.5
			c-0.1,0.8,0.4,1.1,1.2,1.1h1.7c0.8,0,1.3-0.2,1.3-0.8c0.1-0.6,0.2-1.3,0.2-2.2c0.2,0.1,0.5,0.2,0.9,0.3c0.4,0.2,0.8,0.3,1,0.3
			c-0.1,0.6-0.1,1.3-0.2,2.1l-0.1,0.2c-0.3,1.3-1.2,2-2.7,2L245.2,51.8L245.2,51.8z"/>
		<path class="st0" d="M254.4,37.8v-1.7h6.5v1.7H254.4L254.4,37.8z M254.9,40.8v-1.6h5.6v1.6H254.9z M254.9,43.6v-1.5h5.6v1.5H254.9
			z M261.6,42.2v-1.2h2.5v-1.1h1.8v1.1h3.5v-1.1h1.8v1.1h2.5v1.2h-2.5v1.2h2.4v1.2h-2.4v1.2h3v1.4h-1.7l1.1,1.1
			c-0.2,0.1-0.5,0.3-1,0.6c-0.6,0.4-1.1,0.7-1.4,0.8c0.1,0,0.3,0.1,0.6,0.2c1,0.3,1.9,0.6,2.6,0.7c-0.3,0.5-0.6,1.1-0.9,1.6
			c-3.2-0.9-5.3-2.4-6.4-4.5c-0.5,0.4-1.1,0.7-1.6,1.1v1.6c0.9-0.2,1.9-0.4,3-0.6c0,0.1,0,0.3,0.1,0.7v0.7c-1.7,0.4-3.4,0.8-5.2,1.2
			l-0.6-1.3c0.1,0,0.3,0,0.5-0.1c0.2-0.1,0.3-0.1,0.4-0.2v-1.2c-0.9,0.3-1.8,0.5-2.5,0.7c-0.2-0.3-0.4-0.7-0.7-1.2V52h-1.6v-1.2
			h-2.2V52h-1.6v-6.9h5.4v3.6c2-0.4,3.6-0.9,4.8-1.6h-4.1v-1.4h2.9v-1.2h-2.3v-1.2h2.3v-1.2L261.6,42.2L261.6,42.2z M255.3,34.8
			v-1.6h4.8v1.6H255.3z M256.6,46.8v2.6h2.2v-2.6H256.6z M261.3,35.4V34h5.4v-1.4h1.9V34h5.5v1.4H261.3L261.3,35.4z M261.8,39.7
			v-3.3h5.2v3.3H261.8z M263.4,37.5v1.2h2.2v-1.2H263.4z M265.9,42.2v1.2h3.5v-1.2H265.9z M265.9,44.5v1.2h3.5v-1.2H265.9z
			 M268.2,39.7v-3.3h5.2v3.3H268.2z M269.9,48.7c0.9-0.5,1.8-1,2.5-1.6h-3.9C269,47.8,269.4,48.3,269.9,48.7z M269.7,37.5v1.2h2.2
			v-1.2H269.7z"/>
		<path class="st0" d="M277.5,44.2v-1.9h2.8l0.7-4.9h14c-0.1,1.7-0.1,3.3-0.2,4.9h2.6v1.9h-2.7c0,1.1-0.1,2.1-0.2,3h2.2v1.9h-2.3
			c-0.2,1.9-1.3,2.9-3.5,2.9h-3.6c-0.3-1.1-0.4-1.7-0.5-1.8h3.4c1.1,0,1.8-0.3,1.9-1.1h-10.5l-0.2,0.9h-2.4l0.9-5.8L277.5,44.2
			L277.5,44.2z M278.7,39.6c-0.1-0.3-0.3-0.6-0.6-1.1c-0.2-0.3-0.4-0.6-0.5-0.8c1.9-1.5,3.4-3.3,4.4-5.3l2.4,0.2l-0.3,0.7
			c-0.2,0.3-0.3,0.5-0.4,0.7h13.2v1.8h-14.5C281.9,36.7,280.6,38,278.7,39.6L278.7,39.6z M287.6,47.3c-0.1-0.1-0.3-0.2-0.5-0.4
			c-0.4-0.3-1-0.8-2-1.5l1.1-1.2h-3.9l-0.5,3H287.6L287.6,47.3z M288,42.3c-0.4-0.3-1.1-0.8-2-1.5c-0.3-0.2-0.5-0.3-0.6-0.4l1.1-1.2
			H283l-0.4,3.1H288L288,42.3z M289.4,46.1l-1.1,1.2h4l0.2-3h-5.8L289.4,46.1L289.4,46.1z M289.6,41l-1.1,1.3h4l0.2-3.1H287
			c0.4,0.3,0.9,0.6,1.6,1.1C289,40.6,289.4,40.9,289.6,41L289.6,41z"/>
		<path class="st0" d="M303,52V33.7h15.1V52h-2.3v-1.3h-10.5V52H303z M305.3,35.9v5.3h10.5v-5.3H305.3z M305.3,43.2v5.4h10.5v-5.4
			H305.3z"/>
		<path class="st0" d="M327.2,40.5c-1.1-0.9-2.3-1.9-3.5-2.9l1.2-1.4c1.1,0.8,2.4,1.7,3.7,2.7L327.2,40.5L327.2,40.5z M324.7,51.9
			l-1-2.1c0.5-0.5,1.3-1.3,2.3-2.1V43h-2.1v-2h4.2v6.6c0.9,1.5,2.4,2.3,4.5,2.3h11.2c-0.3,0.6-0.5,1.2-0.7,1.9
			c-3.6,0-7.3-0.1-11.1-0.2c-2.2-0.1-3.8-0.8-4.8-2.2C326.1,50.3,325.3,51.2,324.7,51.9L324.7,51.9z M327.5,36.6
			c-0.5-0.5-1.5-1.3-3-2.5c-0.3-0.2-0.5-0.3-0.6-0.4l1.2-1.3c1.1,0.8,2.4,1.7,3.7,2.7L327.5,36.6L327.5,36.6z M338.3,48.9
			c-0.1-0.5-0.2-1.1-0.4-1.6h1.6c0.8,0,1.1-0.4,1.1-1.2v-0.3h-3.3v2.8h-2v-2.8h-3.2v3h-2v-11h4.5c-0.3-0.2-0.7-0.4-1.4-0.7
			c-0.8-0.4-1.4-0.7-1.7-0.9l1.1-1.1h-2.8v-1.6h12.6v1.8l-4.6,2.5h4.8v8.5c0,1.6-0.7,2.5-2.3,2.5C339.8,48.9,339.2,48.9,338.3,48.9
			L338.3,48.9z M332.1,39.4v1.7h3.2v-1.7H332.1z M332.1,42.6v1.7h3.2v-1.7H332.1z M339.4,35.1H333c0.2,0.1,0.6,0.3,1.1,0.6
			c0.9,0.5,1.6,1,2,1.2L339.4,35.1L339.4,35.1z M340.5,39.4h-3.3v1.7h3.3V39.4z M337.2,42.6v1.7h3.3v-1.7H337.2z"/>
		<path class="st0" d="M358.7,52.3c-0.4-0.4-0.9-0.9-1.4-1.4c-1.3,0-3.6,0.2-7,0.3c-1.5,0-2.6,0.1-3.3,0.2l-0.2-1.6l5-0.1v-1.3h-4.2
			v-1.3h4.2v-1.2h-4.4v-1.4h4.4v-1.2h-4.2v-4.2h4.2v-1.2h-3v-2.5h-2V34h2v-1.5h1.9V34h4v-1.5h1.8V34h1.9v1.6h-1.9v2.5h-3v1.2h4.3
			v4.2h-4.3v1.2h4.4v1.4h-4.4v1.2h4v1.3h-4v1.2l4.3-0.2v0.2c-0.1,0-0.1,0.1-0.1,0.2c1.4-1.7,2.1-5,2.1-9.8c0-0.7,0-1.2,0.1-1.5h-1.7
			v-2h1.7v-4.1h2v4.1h4c0,1,0,3-0.1,5.9c-0.1,3.1-0.1,5.2-0.2,6.2c0,2-0.8,3-2.5,3h-2.2c-0.1-0.7-0.2-1.4-0.4-2h1.8
			c0.9,0,1.3-0.5,1.3-1.6v-0.7c0.2-4,0.2-7,0.2-8.9h-2.1V40c-0.1,3.6-0.4,6-0.7,7.5C360.8,49,360,50.6,358.7,52.3L358.7,52.3z
			 M349.4,40.6v1.5h2.5v-1.5H349.4z M350.8,35.6v1.2h4v-1.2H350.8z M356.2,40.6h-2.5v1.5h2.5V40.6z"/>
		<path class="st0" d="M371.1,51.5l-0.9-1.7c0,0,0.2,0,0.3-0.1c0.2-0.1,0.4-0.2,0.6-0.2V33.5h7.5V44H373v4.6
			c1.2-0.4,2.3-0.9,3.2-1.4c-0.1-0.2-0.3-0.5-0.5-1c-0.3-0.4-0.5-0.8-0.6-1l1.7-0.7c0.4,0.7,1,1.7,1.8,3c0.4,0.7,0.7,1.2,0.9,1.6
			c1.8-1.8,2.9-3.9,3.5-6.2h-1.9l-0.2,0.7h-1.8l1-6.7h1.8l-0.6,4h2c0.1-0.5,0.2-1.2,0.2-1.8c0.1-0.9,0.2-2,0.2-3.4h-4.4v-2h9.8v2
			H386c-0.1,1.4-0.1,2.5-0.2,3.5c-0.1,0.7-0.1,1.2-0.2,1.7h4.3v2h-4.7c-0.1,0.2-0.1,0.4-0.2,0.7c-0.1,0.3-0.2,0.5-0.2,0.6h1.4v4.7
			c-0.1,0.7,0.2,1,0.8,1h0.3c0.5,0,0.9-0.3,0.9-0.9c0-0.4,0-1.3,0.2-2.5c0.3,0.1,0.7,0.3,1.3,0.6c0.1,0.1,0.2,0.1,0.2,0.1
			c0,0.2,0,0.5-0.1,0.9c-0.1,0.8-0.1,1.4-0.2,1.8c-0.2,1.3-1,1.9-2.3,1.8h-1.1c-1.5,0-2.2-0.7-2.1-2.1v-3.8
			c-0.8,2.1-2.4,4.2-4.8,6.5c-0.3-0.3-0.8-0.9-1.5-1.6l0.5-0.5l-0.3,0.2l-0.8-1.3c-0.3,0.1-0.9,0.3-1.7,0.7
			C373.2,50.5,371.7,51.1,371.1,51.5L371.1,51.5z M373,35.4v2.5h3.5v-2.5H373z M373,39.7v2.5h3.5v-2.5H373z"/>
		<path class="st0" d="M393.6,42.9c-0.2-0.7-0.4-1.3-0.6-2c6-1.2,11-2.7,15-4.5l1.1,1.7c-2.2,0.9-4.6,1.7-7.1,2.5h9.1v11.5h-2.1
			v-0.8h-10.9v0.9H396v-9.8L393.6,42.9L393.6,42.9z M394.7,38.9c-0.2-0.3-0.5-0.8-1-1.5c-0.1-0.2-0.2-0.3-0.2-0.3
			c1.6-0.8,3.5-2,5.5-3.5l1.4,1.6C398.6,36.4,396.7,37.6,394.7,38.9L394.7,38.9z M398.1,42.3v1.5h10.9v-1.5H398.1z M398.1,45.3v1.5
			h10.9v-1.5H398.1z M398.1,48.3v1.5h10.9v-1.5H398.1z M399.8,38.4c-0.1-0.3-0.1-0.7-0.2-1.2c-0.1-0.3-0.1-0.5-0.2-0.6
			c0.4,0.1,1,0.1,1.7,0.1c0.7,0,1-0.3,1-1v-3.2h2.2v3.5c0,1.4-0.7,2.2-2.2,2.2C401.5,38.4,400.8,38.4,399.8,38.4L399.8,38.4z
			 M411.9,38.3c-1-0.7-2.4-1.6-4.4-2.7c-0.5-0.3-1-0.6-1.2-0.7l1.2-1.6c1.9,1,3.7,2.1,5.5,3.2L411.9,38.3z"/>
		<path class="st0" d="M417.1,51V34h6.1v16.8h-1.9v-1.2H419V51H417.1L417.1,51z M419,35.9v4.8h2.3v-4.8H419z M419,42.6v5h2.3v-5H419
			z M424.6,37v-1.9h4.1v-2.5h2.1v2.5h4.3V37h-4.3v2.4h5.2v1.9h-12.2v-1.9h4.9V37H424.6z M423.9,45.3v-1.9h7.6v-1.6h2.1v1.6h2.4v1.9
			h-2.4v4c0,1.7-0.8,2.5-2.5,2.5c-0.8,0-1.8,0.1-3,0.1c-0.1-0.3-0.1-0.7-0.2-1.4c-0.1-0.4-0.2-0.6-0.2-0.7c0.7,0,1.5,0.1,2.5,0.1
			c1,0,1.5-0.3,1.4-1.2v-3.5L423.9,45.3L423.9,45.3z M427.3,49.4c-0.7-0.8-1.5-1.7-2.5-2.7l1.6-1.2c0.4,0.4,0.9,0.9,1.6,1.6
			c0.4,0.5,0.8,0.8,1,1.1L427.3,49.4L427.3,49.4z"/>
		<path class="st0" d="M440.7,52.2c-0.3-0.5-0.7-1.3-1.4-2.1c3.5-1,6.3-2.2,8.3-3.8c-2.2-2.3-3.9-5.5-5-9.7c0.3-0.1,0.6-0.2,1-0.2
			c0.5,0,0.9-0.2,1.1-0.3h-3.8v-2.2h15.7v2.3c-1.3,4.4-3.2,7.8-5.6,10.3c1.9,1.4,4.6,2.5,8.1,3.5c-0.2,0.2-0.4,0.6-0.7,1.1
			c-0.3,0.5-0.6,0.8-0.7,1.1c-3.7-1.2-6.5-2.5-8.5-4C447.5,49.2,444.7,50.7,440.7,52.2L440.7,52.2z M444.8,36c1,3.8,2.5,6.8,4.5,8.8
			c2.1-2.2,3.7-5.1,4.7-8.8H444.8L444.8,36z"/>
		<path class="st0" d="M462.9,44.8c-0.2-1-0.4-1.9-0.6-2.9c1.8-2.8,3-5.9,3.9-9.3l2.1,0.5c-0.5,1.5-1,3-1.6,4.5v14.5h-2V41.8
			c-0.1,0.2-0.3,0.5-0.6,0.9C464,43.1,463.6,43.8,462.9,44.8L462.9,44.8z M468.6,35.4v-1.8h13.5v1.8h-5.9V37h5.2v9.9h-1.9v-1.2H476
			c-0.2,1.4-0.7,2.5-1.4,3.5c1.3,0.4,3.9,0.6,7.8,0.7c-0.3,0.7-0.6,1.3-0.9,2c-4-0.3-6.9-0.8-8.5-1.6c-1,0.7-2.5,1.3-4.4,2
			c-0.3-0.6-0.7-1.2-1.1-1.8c1.6-0.4,2.8-0.8,3.7-1.2c-0.7-0.5-1.3-1.1-2-1.9l0.7-0.7H469V37h5.2v-1.6L468.6,35.4L468.6,35.4z
			 M470.7,46.8c0.7,0.5,1.3,1,2,1.5c0.7-0.7,1.1-1.5,1.2-2.5h-3v1.1H470.7z M470.9,38.7v1.9h3.3v-1.9H470.9z M474.1,44.1v-1.9h-3.3
			v1.9H474.1z M476.1,43.2v0.9h3.4v-1.9h-3.4C476.1,42.2,476.1,43.2,476.1,43.2z M479.5,38.7h-3.3v1.9h3.3V38.7z"/>
		<path class="st0" d="M485.8,40.8v-2h4.3v-3c-0.3,0-0.8,0-1.4,0.1c-1.1,0.1-1.9,0.2-2.4,0.2v-0.2c-0.1-0.8-0.2-1.4-0.3-1.8
			c3.7-0.2,6.9-0.5,9.6-0.7l0.4,2c-0.3,0-0.9,0-1.6,0.2c-0.9,0-1.6,0.1-2.1,0.2v3.2h4.1v2h-4.1v2.3l0.7-0.7c1.9,1.5,3.2,2.6,3.8,3.2
			l-1.5,1.6c-0.7-0.7-1.6-1.6-3-2.8v7.7h-2.1v-7.9c-0.9,1.9-2.2,3.6-3.9,5.2c-0.1-0.5-0.3-1.4-0.7-2.8c1.9-1.6,3.3-3.6,4.3-5.9
			L485.8,40.8L485.8,40.8z M497.4,47.3V34.9h2v12.3H497.4z M498.5,51.9c0-0.1,0-0.3-0.1-0.5c-0.1-0.8-0.2-1.3-0.4-1.6
			c0.5,0,1.6,0.1,3,0.1c0.9,0,1.3-0.5,1.2-1.4V32.7h2.1v16.3c0,1.7-0.8,2.6-2.5,2.7h-1.6C499.4,51.8,498.8,51.9,498.5,51.9
			L498.5,51.9z"/>
	</g>
</g>
</svg>
