<?xml version="1.0" encoding="utf-8"?>
<!-- Generator: Adobe Illustrator 27.0.0, SVG Export Plug-In . SVG Version: 6.00 Build 0)  -->
<svg version="1.1" id="_圖層_2" xmlns="http://www.w3.org/2000/svg" xmlns:xlink="http://www.w3.org/1999/xlink" x="0px" y="0px"
	 viewBox="0 0 721.8 56.2" style="enable-background:new 0 0 721.8 56.2;" xml:space="preserve">
<style type="text/css">
	.st0{fill:#FFFFFF;}
</style>
<g id="_圖層_1-2">
	<g>
		<path class="st0" d="M0,22.4h56.2v10.4H0V22.4z"/>
		<path class="st0" d="M60.4,11.1l5.5,0.5c-0.3,3.5-0.8,9.8-1.6,18.9l-5.8-0.7C59.2,23.7,59.8,17.5,60.4,11.1z M87.8,0.7h9.4
			c0,2.6-0.1,5.1-0.2,7.4h13.8V27h3.7v8.8H99.1c2.5,4.6,7.5,8.5,15.2,11.8c-2.6,3.1-4.6,5.7-6,7.8c-7.5-4.2-12.5-8.5-15-13.1
			C91.7,46.8,87.2,51.4,80,56c-0.5-0.8-1.6-2.2-3.5-4.4c-0.8-1.1-1.4-1.8-1.8-2.3v5.8h-8.8V0.5h8.8v10.1c0.6,0.3,1.5,0.8,2.8,1.4
			c1.1,0.6,1.9,1.1,2.5,1.4V8.1h7.8L87.8,0.7L87.8,0.7z M77,35.7V27h10.6c0.2-3.1,0.2-6.5,0.2-10.4H82l-3.2,6.7l-4.2-2.8v27.4
			c7.2-3.7,11.3-7.8,12.2-12.2H77L77,35.7z M97,16.6c-0.2,3.7-0.2,7.1-0.2,10.4h5.3V16.6C102.1,16.6,97,16.6,97,16.6z"/>
		<path class="st0" d="M119.4,40.8h53.2v9.7h-53.2C119.4,50.5,119.4,40.8,119.4,40.8z M123.5,6h45.2v10.1h-45.2
			C123.5,16.1,123.5,6,123.5,6z"/>
		<path class="st0" d="M194.8,4.2H207V0.2h8.8v3.9h15.9v6.9h-15.9v2.1h13.8v8.5h3.5v6.7h-3.5v8.8h-13.8v2.3h14.8v6.2h-14.8v2.5
			c6.4,0.2,12.3,0.2,17.5,0c-0.9,2.2-1.6,4.4-2.1,6.7c-7.5,0-14.4-0.1-20.7-0.2c-5.2,0-8.8-1.4-10.8-4.2c-1.4,1.8-3.1,3.8-5.1,5.8
			l-0.2-0.2c-1.8-2.2-3.4-3.8-4.6-4.8c-0.6,1.8-2.5,3-5.5,3.5c-0.8,0-1.7,0.1-2.8,0.2c-1.2,0-2.2,0.1-3,0.2
			c-0.1-0.6-0.3-1.5-0.5-2.8c-0.3-2.5-0.6-4.4-0.9-5.8c0.9,0.2,1.8,0.2,2.8,0.2c1.8,0,2.7-0.9,2.5-2.8v-7.4
			c-0.5,0.2-1.2,0.3-2.3,0.5c-0.9,0.3-1.7,0.5-2.3,0.7l-0.7-9.7c1.4-0.3,3.1-0.5,5.3-0.7v-8.5h-4.4v-8.5h4.4V0.5h8.3v9.9h3.5v8.5
			h-3.5V26c1.1-0.3,2.3-0.5,3.7-0.7c-0.1,3.4-0.1,6.4,0,9c-0.3,0-0.9,0.1-1.8,0.2c-0.8,0.2-1.4,0.3-1.8,0.5v11.5
			c0,0.9-0.1,1.7-0.2,2.3c3.1-2.2,4.8-5.8,5.3-11.1l8.1,0.9c-0.1,2-0.5,3.8-0.9,5.5c1.2,1.8,2.6,3,4.1,3.5V37.1h-11.1v-6.5H207v-2.3
			h-12v-6.7h12v-2.3h-10.8v-6.2H207v-2.1h-12.2L194.8,4.2L194.8,4.2z M221.7,19.4h-6v2.3h6V19.4z M215.7,30.7h6v-2.3h-6V30.7z"/>
		<path class="st0" d="M236.7,42.6h55.1v9.5h-55.1L236.7,42.6L236.7,42.6z M239.9,4.1h48.4v9.7h-48.4L239.9,4.1L239.9,4.1z
			 M242.7,23.3h43.1v9.4h-43.1C242.7,32.7,242.7,23.3,242.7,23.3z"/>
		<path class="st0" d="M295.5,24.9h5.8v-3.5h-4.1v-5.8c-0.3-0.3-0.7-0.8-1.1-1.6c-0.6-0.9-1.1-1.5-1.4-1.8c3.4-3.5,5.8-7.5,7.4-12
			l7.6,0.5c0,0.3-0.1,0.7-0.2,1.1c-0.1,0.6-0.3,1.1-0.5,1.4c2.6,2.3,4.9,4.6,6.9,6.9l-0.7,0.7h5.8V9h-5.8V3.5h5.8V0.2h7.6v3.2h5.5V9
			h-5.5v1.8h6.7V0.2h7.1V3l5.3-2.3c0.6,1.1,1.5,2.7,2.8,4.8c0.5,0.9,0.8,1.7,1.1,2.3l-5.5,2.5c-0.3-0.8-0.9-1.9-1.8-3.5
			c-0.8-1.7-1.4-2.9-1.8-3.7v7.6h8.8v6.2h-8.5v4.4c0,1.1,0.1,2.5,0.2,4.1c0,2,0.1,3.5,0.2,4.4c0.1-0.5,0.5-1.2,0.9-2.3
			c0.8-1.8,1.4-3.4,1.8-4.6l6,3c-2.6,6.3-5.3,11.8-8.1,16.4c0.1,0.5,0.2,1,0.2,1.6c0.3,1.7,0.7,2.5,1.1,2.5c0.6,0.2,1-0.5,1.1-2.1
			c0-0.5,0.1-1.1,0.2-1.8c0.1-2,0.3-3.8,0.5-5.3c1.7,0.6,3.2,1.2,4.6,1.8c-0.1,1.5-0.3,3.5-0.5,6c-0.3,1.7-0.5,2.9-0.5,3.7
			c-0.9,4.5-2.9,6.7-6,6.7s-5-1.9-6.2-5.8c-0.8,0.9-2,2.3-3.7,4.2c-0.8,0.9-1.4,1.6-1.8,2.1c-0.9-1.5-2-3-3.2-4.4
			c-3.1,0.2-7.5,0.5-13.4,0.9c-0.9,0.2-1.6,0.2-2.1,0.2l-0.7-6.5c2.6,0,5.1-0.1,7.4-0.2v-2.3h-6v-5.1h6v-1.8h-6.5v-5.5h20v5.5H328
			v1.8h5.5v5.1H328v2.1c1.8-0.2,3.5-0.2,5.1-0.2c1.4-1.7,2.6-3.3,3.7-4.8c-0.1-2.3-0.5-6.6-0.9-12.9c0-2.5-0.1-4.4-0.2-5.8
			c0-1.5-0.1-3.2-0.2-5.1h-21.7v-4.1l-1.8,2.1h0.2v6.5h-4.1v3.5h5.3v6.7h-5.3V42c0.1-0.6,0.4-1.5,0.7-2.8c0.6-2.6,1-4.7,1.1-6.2
			l3.7,0.9c-0.6,3.4-1.3,6.6-2.1,9.7l-3.5-0.9v3c1.7-0.3,3.5-0.5,5.3-0.7v6.9c-4.1,0.5-9.8,1.2-17,2.3l-1.1-6.9
			c2.3-0.3,4.4-0.5,6.2-0.7V44l-3.7,1.2c-0.9-4.5-1.7-8.1-2.3-11.1l3.9-0.9c0.3,1.1,0.7,2.6,1.1,4.6c0.5,2.2,0.8,3.8,0.9,4.8V31.6
			h-5.8L295.5,24.9L295.5,24.9z M305.4,9.9c-0.9,1.7-2.1,3.4-3.5,5.1h8.1c-0.5-0.6-1.2-1.5-2.3-2.5C306.6,11.4,305.8,10.5,305.4,9.9
			L305.4,9.9z M314.8,18.7H334v11.1h-19.1C314.8,29.7,314.8,18.7,314.8,18.7z M327,25.4v-2.3h-5.3v2.3H327z"/>
		<path class="st0" d="M372.9,55.3v-24h9.5v12.9h11.3V27.4h-18.2V5.3h9.5v13.1h8.8v-18h10.1v18h8.8V5.3h9.5v22.1h-18.2v16.8h11.3
			V31.3h9.2v24h-9.2v-2.8h-32.7v2.8L372.9,55.3L372.9,55.3z"/>
		<path class="st0" d="M446,55.3h-9V36.9c-1.4,1.4-2.9,2.7-4.6,3.9c-0.1-0.6-0.5-1.6-0.9-3c-0.8-2.8-1.4-4.8-1.8-6
			c4.6-3.7,9.5-8.8,14.8-15.4l7.1,5.3c-0.1,0.1-0.3,0.4-0.5,0.7c-2,2.6-3.7,4.5-5.1,5.8L446,55.3L446,55.3z M443.7,0l7.4,5.8
			c-4.9,5.4-10.6,10.6-17,15.7c-0.3-0.6-0.9-1.8-1.6-3.7c-1.1-2.6-1.8-4.4-2.3-5.3C434.5,9.4,439.1,5.2,443.7,0L443.7,0z
			 M468.3,42.4V29.3h-16.1v-9h33.2v9H478v15.2c0.3,6.5-2.8,9.8-9.5,9.9c-1.7,0-4.1,0.1-7.1,0.2H457c0-0.3-0.1-0.8-0.2-1.6
			c-0.5-3.1-0.9-5.4-1.4-6.9h4.1c2.3,0.2,3.9,0.2,4.8,0.2C467.2,46.3,468.5,45,468.3,42.4L468.3,42.4z M454,3.5h29.5v8.8H454
			C454,12.2,454,3.5,454,3.5z"/>
		<path class="st0" d="M512.3,0.2h9.2v9.9c0,1.8-0.5,3.4-1.4,4.6c4.6-1.8,7.8-3.2,9.7-4.1l-5.3-3.2l4.8-6.4
			c5.2,2.6,10.4,5.5,15.4,8.8l-4.6,7.4c-1.1-0.8-2.8-1.8-5.1-3.2c-2.2-1.4-3.8-2.5-5.1-3.2l4.4,6.9c-4.2,1.7-8.3,3.2-12.5,4.6h18.9
			v33.4h-9v-1.8h-27.7v1.8h-9V29.7l-4.6,1.1c-0.3-1.1-0.8-2.7-1.4-4.8c-0.5-1.4-0.8-2.5-0.9-3.2c10.1-1.8,18.4-3.8,24.9-5.8
			c-1.2,0.1-3.1,0.2-5.8,0.2c-0.1-0.8-0.4-1.8-0.7-3c-0.5-1.2-0.8-2.2-0.9-3c-1.4,0.9-3.6,2.2-6.7,3.9c-2.3,1.2-4,2.1-5.1,2.8
			c-0.1-0.3-0.5-0.8-1.1-1.4c-1.8-2.8-3.2-4.6-4.1-5.5c7.2-3.8,12.5-6.9,15.7-9.2l5.8,6.4c-0.3,0.1-0.8,0.5-1.4,0.9
			c-1.1,0.8-2,1.4-2.8,1.8h4.1c1.5,0.1,2.2-0.7,2.1-2.5L512.3,0.2L512.3,0.2z M504.3,28.8v2.5h27.7v-2.5L504.3,28.8L504.3,28.8z
			 M504.3,36.9v2.5h27.7v-2.5H504.3L504.3,36.9z M504.3,44.7v2.5h27.7v-2.5H504.3L504.3,44.7z"/>
		<path class="st0" d="M549.7,3.5h18.9v48.9h-7.4v-3.5h-3.9v4.4h-7.6L549.7,3.5L549.7,3.5z M557.3,11.3v11.3h3.9V11.3L557.3,11.3
			L557.3,11.3z M557.3,30.2v11.3h3.9V30.2H557.3z M569.5,17.8h12.2v-3.7h-10.1V6.2h10.1V0.5h8.8v5.8h10.6v7.8h-10.6v3.7h13.1v8.1
			h-34.1L569.5,17.8L569.5,17.8z M589.1,26.5h9v3h5.1v7.8h-5.1v9c0.5,5.7-2.2,8.5-8.1,8.5c-2.3,0.2-5.6,0.2-9.9,0.2
			c-0.2-2-0.6-4.6-1.4-7.8l-1.4,1.2c-1.7-2.3-3.8-4.9-6.2-7.8l4.2-3.2h-5.1v-7.8h18.9L589.1,26.5L589.1,26.5z M584,43.1l-4.8,3.9
			c1.5,0.2,3.8,0.2,6.7,0.2c2.5,0,3.5-1.1,3.2-3.2v-6.7h-10.4C580.7,39.3,582.5,41.3,584,43.1L584,43.1z"/>
		<path class="st0" d="M614.9,0.2l8.8,2.3c-0.9,3.5-2.1,7.1-3.5,10.8v35.5c3.2-0.3,5.9-0.8,8.1-1.4c-0.3-0.3-0.8-0.8-1.6-1.4
			c-1.2-1.1-2.2-1.9-3-2.5l2.3-2.1h-1.6V12.7h14.1V9.9h-14.3V2.5h38v7.4h-15.4v2.8h13.8V42h-7.8v-3H646c-0.5,3.2-1.4,5.7-2.8,7.4
			c4,0.6,10.5,0.9,19.6,0.9c-1.4,2.5-2.6,5.1-3.7,7.8c-11.1-0.6-18.6-1.8-22.6-3.5c-3.1,1.5-7.1,3.1-12,4.6c-0.6-1.1-1.6-2.6-3-4.6
			c-0.6-1.1-1.1-1.8-1.4-2.3v6.2h-8.3V30.9c-1.4,2.3-2.8,4.5-4.2,6.4c0-0.5-0.1-1.2-0.2-2.3c-0.3-4.3-0.7-7.8-1.2-10.4
			C610.2,17,613,8.8,614.9,0.2z M634.9,43.8c1.4-1.4,2.3-3,2.8-4.8h-5.3v2.5H631C632.4,42.4,633.7,43.2,634.9,43.8L634.9,43.8z
			 M632.4,19.6v3h6v-3H632.4z M638.2,32v-1.4c0.2-0.8,0.2-1.4,0.2-1.8h-6v3.2L638.2,32L638.2,32z M646.7,28.8c0,0.5-0.1,1.1-0.2,1.8
			V32h6.2v-3.2L646.7,28.8L646.7,28.8z M646.7,19.6v3h6v-3H646.7z"/>
		<path class="st0" d="M683.3,4.2h12.2V0.2h8.8v3.9h15.9v6.9h-15.9v2.1h13.8v8.5h3.5v6.7h-3.5v8.8h-13.8v2.3h14.8v6.2h-14.8v2.5
			c6.5,0.2,12.3,0.2,17.5,0c-0.9,2.2-1.6,4.4-2.1,6.7c-7.5,0-14.4-0.1-20.7-0.2c-5.2,0-8.8-1.4-10.8-4.2c-1.4,1.8-3.1,3.8-5.1,5.8
			l-0.2-0.2c-1.8-2.2-3.4-3.8-4.6-4.8c-0.6,1.8-2.5,3-5.5,3.5c-0.8,0-1.7,0.1-2.8,0.2c-1.2,0-2.2,0.1-3,0.2
			c-0.2-0.6-0.3-1.5-0.5-2.8c-0.3-2.5-0.6-4.4-0.9-5.8c0.9,0.2,1.8,0.2,2.8,0.2c1.8,0,2.7-0.9,2.5-2.8v-7.4
			c-0.5,0.2-1.2,0.3-2.3,0.5c-0.9,0.3-1.7,0.5-2.3,0.7l-0.7-9.7c1.4-0.3,3.2-0.5,5.3-0.7v-8.5h-4.4v-8.5h4.4V0.5h8.3v9.9h3.5v8.5
			h-3.5V26c1.1-0.3,2.3-0.5,3.7-0.7c-0.2,3.4-0.2,6.4,0,9c-0.3,0-0.9,0.1-1.8,0.2c-0.8,0.2-1.4,0.3-1.8,0.5v11.5
			c0,0.9-0.1,1.7-0.2,2.3c3.1-2.2,4.8-5.8,5.3-11.1l8.1,0.9c-0.2,2-0.5,3.8-0.9,5.5c1.2,1.8,2.6,3,4.2,3.5V37.1h-11.1v-6.5h11.1
			v-2.3h-12v-6.7h12v-2.3h-10.8v-6.2h10.8v-2.1h-12.2L683.3,4.2L683.3,4.2z M710.3,19.4h-6v2.3h6V19.4z M704.3,30.7h6v-2.3h-6V30.7z
			"/>
	</g>
</g>
</svg>
