<?xml version="1.0" encoding="utf-8"?>
<!-- Generator: Adobe Illustrator 27.0.0, SVG Export Plug-In . SVG Version: 6.00 Build 0)  -->
<svg version="1.1" id="_圖層_2" xmlns="http://www.w3.org/2000/svg" xmlns:xlink="http://www.w3.org/1999/xlink" x="0px" y="0px"
	 viewBox="0 0 739.8 56.2" style="enable-background:new 0 0 739.8 56.2;" xml:space="preserve">
<style type="text/css">
	.st0{fill:#FFFFFF;}
</style>
<g id="_圖層_1-2">
	<g>
		<path class="st0" d="M6,0.5h8.8v10.1h4.6v8.1h-4.6v6l6.9,5.3l-4.1,7.6l-2.8-2.8v21H6V36.2c-1.2,2.8-2.7,5.6-4.4,8.5
			c-0.2-0.8-0.3-2.1-0.5-3.9c-0.6-4.2-1-7.1-1.1-9c2-3.4,4-7.8,6-13.1H0.5v-8.1H6V0.5z M31.8,27.4c1.5,3.7,3.3,6.8,5.3,9.2
			c2.2-2.6,3.8-5.7,4.8-9.2l8.1,2.8c-1.7,4.8-3.8,8.8-6.5,12.2c3.4,2,7.7,3.7,12.9,5.1c-0.2,0.2-0.3,0.4-0.5,0.7
			c-2.3,3.1-3.9,5.5-4.8,7.1C45.4,53,40.7,50.8,37,48.6c-3.8,2.6-8.8,5-15,7.1c-1.7-2.6-3.5-5.2-5.3-7.6c5.5-1.5,10.1-3.5,13.8-5.8
			c-2.5-3.2-4.6-7.1-6.4-11.5L31.8,27.4L31.8,27.4z M18,24.2c3.8-2.1,7.5-4.9,11.1-8.3h-8.8V7.6h13.1V0.5h8.5v7.2h13.4V16h-9.7
			c0.5,0.3,1.2,0.8,2.1,1.4c2.6,1.8,5.5,4,8.8,6.5l-5.1,6.7c-0.6-0.6-1.6-1.5-3-2.5c-4-3.1-7.2-5.5-9.7-7.1l4.4-4.8H31.6l4.8,4.6
			c-4.8,4.1-9.1,7.5-13.1,10.1C21.6,28.5,19.8,26.3,18,24.2L18,24.2z"/>
		<path class="st0" d="M61.1,55.8V2.1h52.5v53.7h-9v-2.3H70.1v2.3H61.1z M103.2,21.9H71.4v-4.4h12v-1.6H72.8v-4.6h10.6V8.7H70.1V38
			c4.8-1.4,8.3-2.8,10.6-4.2h-7.4V23.7h28.1v9.5l3,2.5c-1.2,1.2-2.5,2.2-3.7,3l3.9,1.8V8.8H91.3v2.5h10.4v4.6H91.3v1.6h12
			L103.2,21.9L103.2,21.9z M72.8,43.8c-0.2-0.3-0.4-0.7-0.7-1.2c-0.9-1.7-1.6-2.8-2.1-3.5v8.5h34.6V41l-3.2,4.6
			c-1.4-0.8-3.9-2.1-7.6-3.9c0,0.5-0.1,1.2-0.2,2.1c0,0.9-0.1,1.6-0.2,2.1c-4.8,0.3-10.4,0.8-17,1.6l-0.9-4.2l6-0.7v-2.8
			C79.1,41.2,76.2,42.5,72.8,43.8L72.8,43.8z M81.1,27.9v1.8h12.4v-1.8H81.1z M92.4,35l3.2,1.4c1.1-0.8,2.1-1.6,3-2.5h-9l-0.9,0.9
			v7.4l5.1-0.5L89,39.2L92.4,35L92.4,35z"/>
		<path class="st0" d="M123.3,55.8V17.3H139l0.7-3.2h-21.2V6.7h13.1c-0.3-0.6-0.9-1.5-1.6-2.8c-0.8-1.1-1.4-1.9-1.8-2.5l10.1-0.9
			c0.6,1.1,1.6,2.6,3,4.6c0.5,0.8,0.8,1.3,0.9,1.6h7.8c1.7-2.5,3.1-4.5,4.1-6.2L165,1.4c-1.5,2-2.8,3.8-3.9,5.3h13.1v7.4h-24.4
			l-0.7,3.2h20.3v38.5H160V53h-27.2v2.8H123.3L123.3,55.8z M132.8,24.4v2.8H160v-2.8H132.8z M132.8,33.9v3H160v-3H132.8z
			 M132.8,43.6v2.8H160v-2.8H132.8z"/>
		<path class="st0" d="M230.5,34.8v11.5c0.1,4.3-2.1,6.4-6.7,6.2c-0.9,0.2-3.1,0.2-6.4,0.2c0-0.3-0.1-0.8-0.2-1.4
			c-0.3-1.4-0.8-3.4-1.4-6c0.8,0.2,2.1,0.2,4.1,0.2c1.4,0,2.1-0.7,2.1-2.1V42h-7.4v13.8H206V41.9h-6.2v10.4h-8.3V34.8H206v-2.5
			h-10.4V23h-5.8v3c0.1,13.4-1.5,23.3-5.1,30c-0.8-0.6-2-1.6-3.7-3c-1.7-1.2-3-2.2-3.9-3c2.9-5.2,4.3-13.5,4.1-24.9V4.6h22.4V0.2
			h9.2v4.4H233v7.6h-8.1v3.5h8.1v7.4h-8.1v9.2h-10.4v2.5H230.5L230.5,34.8z M189.9,12.2v3.5h5.8v-3.5H189.9z M204.2,12.2v3.5h12.2
			v-3.5H204.2z M204.2,23v3h12.2v-3H204.2z"/>
		<path class="st0" d="M280.5,53.9h-11.3V18.4c-5.1,3.7-10.5,6.4-16.1,8.3V17c8.1-3.1,14.4-7.8,18.7-14.1h8.8L280.5,53.9L280.5,53.9
			z"/>
		<path class="st0" d="M287.9,41.2l11.3-2.3c1.1,4.9,3.8,7.5,8.3,7.6c4.8-0.5,7.4-3.3,7.8-8.5c-0.2-5.7-2.9-8.6-8.3-8.8
			c-3.4,0.1-6,1.1-7.8,3H290l1.8-28.8h31.8v9.2h-22.4l-1.1,11.8c3.1-2,6.4-3,9.9-3c10.6,0.3,16.1,5.7,16.6,16.1
			c-0.3,11.1-6.7,16.7-19.1,17C297.1,54.6,290.6,50.1,287.9,41.2L287.9,41.2z"/>
		<path class="st0" d="M382.4,21.2v8.1h-15.2v7.6h18.7v8.5h-18.7v10.4h-9.5V45.4H331v-8.5h7.6V24c-1.1,0.9-2.2,2.1-3.5,3.5
			c-0.5-0.8-1-1.8-1.6-3.2c-1.4-2.6-2.5-4.5-3.2-5.8c5.7-4.6,10.1-10.6,13.1-18l10.8,0.9c-0.9,1.5-1.8,3.2-2.8,4.8h32.7v8.3h-17v6.7
			H382.4L382.4,21.2z M346.4,14.5c-1.5,2.1-3.3,4.4-5.3,6.7h16.6v-6.7C357.7,14.5,346.4,14.5,346.4,14.5z M347.5,29.3v7.6h10.1v-7.6
			C357.6,29.3,347.5,29.3,347.5,29.3z"/>
		<path class="st0" d="M405.2,0.5l10.6,0.7c-0.6,1.1-1.4,2.2-2.3,3.5H434v6l-5.8,5.8h11.5v21.4h-21.2c-0.2,0.2-0.3,0.5-0.5,0.9
			c-0.3,0.5-0.5,0.8-0.7,1.2h6.7v4c-0.2,2.5,0.9,3.6,3.2,3.5h4.6c2.1,0,3.3-0.8,3.5-2.5c0.3-1.8,0.5-3.9,0.7-6.2
			c1.4,0.6,4,1.5,7.8,2.5c0.3,0.2,0.5,0.2,0.7,0.2c-0.3,3.1-0.9,5.7-1.6,7.8c-0.8,3.7-3.8,5.5-9,5.3h-10.4c-5.8,0.3-8.6-2.2-8.3-7.6
			v-3.5c-3.7,4.6-10.5,8.8-20.3,12.7c-1.8-2.8-3.8-5.3-6-7.6c10.3-3.2,16.8-6.8,19.6-10.8H394V22.1c-0.6-0.8-1.7-2.3-3.2-4.6
			c-0.8-1.1-1.3-1.8-1.6-2.3C396.5,11.1,401.8,6.1,405.2,0.5L405.2,0.5z M402.9,23.7v6.7h8.5c0.5-2.3,0.8-4.5,0.9-6.7H402.9z
			 M421.5,12h-13.8c-1.4,1.5-2.9,3-4.6,4.4h14.1L421.5,12L421.5,12z M431,30.4v-6.7h-9.5c-0.2,1.2-0.4,2.8-0.7,4.8
			c-0.2,0.9-0.2,1.5-0.2,1.8H431V30.4z"/>
		<path class="st0" d="M503.8,42.4h-14.5c2.6,2.9,7.6,4.8,15,5.8c-0.6,0.9-1.5,2.5-2.5,4.8c-0.5,1.1-0.9,1.8-1.1,2.3
			c-8.5-1.7-14-4.5-16.6-8.3c-2.1,3.5-7.8,6.5-17,9c-0.2-0.3-0.5-0.8-0.9-1.4c-1.5-2.8-2.7-4.6-3.5-5.5c8.8-1.8,14.1-4.1,15.9-6.7
			H465v-6.9h15v-4.1c-0.5,0.5-1.1,0.9-2.1,1.1c-0.9-1.2-2-2.4-3.2-3.5v4.6h-7.4V18.9l-1.8-3.2v3.7h-3.7v7.1l3.5-0.5
			c-0.2,3.4-0.2,6.3,0,8.8c-1.1,0.2-2.2,0.4-3.5,0.7v11.8c0.1,4.9-1.9,7.6-6.2,8.1c-1.5,0.2-3.5,0.2-5.8,0.2
			c-0.2-2.9-0.6-5.7-1.4-8.3h2.8c1.5,0,2.3-0.8,2.3-2.5v-7.4l-4.4,0.9l-0.9-9.5l5.3-0.7v-8.8h-4.6v-8.5h4.6V0.9h8.3v9.9h3.7v1.8
			c4-3.4,7.3-7.4,9.9-12h9.9c-0.6,1.4-1.3,2.6-2.1,3.7h15.4v5.8l-3.2,3.7h6.2v19.8h-7.4v-5.3l-3.2,3.9c-1.4-1.1-3.5-2.5-6.5-4.4
			c-0.5,0.5-1.3,1.1-2.5,2.1c0.8-0.6,0.6-0.5-0.5,0.5h6.7c0,2-0.1,3.7-0.2,5.1h15.9L503.8,42.4L503.8,42.4z M480.8,20.5l7.1,0.5
			c0,0.1-0.1,0.4-0.2,0.7c-0.2,0.8-0.3,1.2-0.5,1.4c3.4,1.8,5.7,3.1,6.9,3.7v-6.4h-19.6v6.9C477.9,25.7,480,23.4,480.8,20.5
			L480.8,20.5z M478.2,10.6c-0.9,1.2-1.8,2.3-2.8,3.2h10.1l2.8-3.2H478.2z"/>
		<path class="st0" d="M511.4,2.5h48.9v15.7h-40.1v9c0.5,11.5-1.7,21.1-6.5,28.8c-0.2-0.2-0.3-0.4-0.5-0.7c-1.8-2-3.9-4.1-6.2-6.2
			c1.8-3.4,3-6.8,3.5-10.4c0.6-3.1,0.9-8.2,0.9-15.4V2.5L511.4,2.5z M521.8,19.8H560v6.5h-7.4c1.5,1.2,3.5,2.9,6,5.1
			c1.2,1.1,2.2,1.8,2.8,2.3l-6,4.8l-2.8-2.8l-7.8,0.2v2.8h15v6.5h-15v2.3h17.8V54h-44.5v-6.5h18v-2.3h-14.8v-6.5h14.8v-2.5l-7.1,0.2
			c-1.7,0-3.5,0.2-5.5,0.5l-2.3-6.2h4.4c1.4-1.4,2.8-2.8,4.2-4.4H522L521.8,19.8L521.8,19.8z M520.2,9.5V12h31.3V9.5H520.2z
			 M546.9,30.4c-0.9-0.8-1.9-1.7-3-2.8l2.3-1.4h-5.8l-4.4,4.4C539.8,30.7,543.4,30.6,546.9,30.4L546.9,30.4z"/>
		<path class="st0" d="M566.3,39.2h26.5l3.5-2.5H578v-6.2h32.5V36l-5.3,3.2H622v6.9h-20.7v2.3c0,4.5-2.4,6.8-7.1,6.9h-5.8
			c-3.1,0.2-5.2,0.2-6.5,0.2c-0.8-3.8-1.3-6.1-1.6-6.7c0.8,0.2,3.6,0.2,8.5,0.2c2.2,0,3.2-0.8,3-2.3V46h-25.6L566.3,39.2L566.3,39.2
			z M598.5,0l3.9,3.5c-1.4,0.9-2.6,1.8-3.7,2.8c1.1,0.6,2.3,1.4,3.7,2.3l-2.3,2.8l2.3,2.1c-0.3,0.3-0.9,0.8-1.8,1.4
			c-0.8,0.8-1.4,1.3-1.8,1.6c1.1,0.8,2.5,1.6,4.2,2.5l-3,3.7h10.1v-2.3h-6.7V16h6.9v-2.1h-6.9V9.5h7.1V7.2h-8.1V1.6h16.8l-1.2,21h3
			v12h-8.3v-6.2h-37.1v6.2h-8.3v-12h2.5l-0.9-20c6.5-0.9,11.4-1.8,14.8-2.5l2.1,6.4c-2.2,0.5-4.8,0.9-8.1,1.4v1.6h7.1v4.4H578V16
			h6.9v4.4h-6.7v2.3h9.7c-0.2-0.3-0.5-0.8-0.9-1.4c-0.8-1.4-1.4-2.3-1.8-2.8c1.7-0.8,3.1-1.5,4.2-2.1c-0.5-0.3-1.2-0.8-2.1-1.4
			c-0.6-0.5-1.2-0.8-1.6-1.1l2.1-2.1c-0.9-0.9-1.8-2-2.5-3.2c0.5-0.3,1.2-0.7,2.3-1.2c0.9-0.6,1.6-1,2.1-1.2
			c-0.5-0.3-1.1-0.8-1.8-1.4c-0.9-0.5-1.6-0.8-2.1-1.2l3-3.5c1.1,0.5,2.5,1.3,4.4,2.5c0.5,0.3,0.8,0.5,1.2,0.7
			c0.5-0.5,1.2-1.1,2.3-1.8C597.4,0.8,598.1,0.3,598.5,0L598.5,0z M594.2,19.6c-1.5,1.1-3.2,2.1-4.8,3h8.8c-0.5-0.5-1.2-1.1-2.3-1.8
			C595,20.3,594.5,19.9,594.2,19.6L594.2,19.6z M594.2,9.4c-0.8,0.5-1.9,1.1-3.5,1.8c0.6,0.3,1.4,0.8,2.3,1.4
			c0.5,0.3,0.8,0.5,1.2,0.7c0.5-0.1,1.1-0.6,1.8-1.4c0.5-0.3,0.8-0.5,0.9-0.7c-0.3-0.3-0.8-0.6-1.4-0.9
			C594.9,9.9,594.4,9.6,594.2,9.4L594.2,9.4z"/>
		<path class="st0" d="M628.3,9.7V2.3h51.6v7.4h-40.8v35.7c-0.2,1.4,0.5,2,2.1,1.8h39.2v7.1h-43.1c-4.8,0-7.1-2.2-7.1-6.7v-38h-1.9
			V9.7z M641.4,28.8h17.3v16.1h-17.3V28.8z M645.3,26.7V12h29v14.8L645.3,26.7L645.3,26.7z M648.1,34.6v4.8h3.9v-4.8H648.1z
			 M653.6,17.8V21h12.7v-3.2H653.6z M661,29.1h17.5v16.1H661V29.1L661,29.1z M667.7,34.6v4.8h3.9v-4.8H667.7z"/>
		<path class="st0" d="M707.5,0.9h9.7V6h21v14H732l1.2,5.8c-1.4,0.1-3.6,0.3-6.7,0.5c-6.5,0.5-11.4,0.9-14.8,1.1v4.1l27.4-1.8
			l0.7,8.5l-11.1,0.7c2.6,0.9,5.6,1.8,9,2.8c-0.2,0.3-0.3,0.9-0.5,1.8c-0.6,2.5-1.1,4.3-1.4,5.5c-0.6,3.5-3.8,5.2-9.7,5.1h-14.3
			c-6.6,0-9.9-3.2-9.9-9.7v-3.7l-16.6,1.2l-0.7-8.8l17.3-0.9v-4.4L691,28.6l-1.4-8.1h-3.5V6h21.4V0.9L707.5,0.9z M695.6,19.8
			c7.1-0.3,17.3-0.9,30.7-1.8c1.1-0.1,1.9-0.2,2.5-0.2v-3.2h-33.2V19.8z M727.6,43.3c0.3-1.4,0.5-2.8,0.7-4.4l-16.6,1.2v2.5
			c-0.3,2.8,1,4,3.9,3.7h7.8C725.9,46.5,727.3,45.5,727.6,43.3L727.6,43.3z"/>
	</g>
</g>
</svg>
