<?xml version="1.0" encoding="utf-8"?>
<!-- Generator: Adobe Illustrator 27.0.0, SVG Export Plug-In . SVG Version: 6.00 Build 0)  -->
<svg version="1.1" id="_圖層_2" xmlns="http://www.w3.org/2000/svg" xmlns:xlink="http://www.w3.org/1999/xlink" x="0px" y="0px"
	 viewBox="0 0 663.8 57.4" style="enable-background:new 0 0 663.8 57.4;" xml:space="preserve">
<style type="text/css">
	.st0{fill:#FFFFFF;}
</style>
<g id="_圖層_1-2">
	<g>
		<path class="st0" d="M4.4,9.9l1.4,0.9C7,8.7,8.5,5.5,10.4,1.4l8.1,2.5c-0.6,0.9-1.5,2.4-2.8,4.4c-2,2.9-3.5,5-4.4,6.2
			c0.9,0.8,1.8,1.4,2.8,1.8c0.5-0.6,1-1.5,1.6-2.8c1.1-1.5,1.8-2.7,2.3-3.5l6.9,3.5c-1.7,2.5-4.7,6.8-9,12.9l4.4-1.6l3,8.8l4.4-4.1
			c2.1,1.2,4.5,2.8,7.1,4.8L30,39.6c-1.4-1.1-3.3-2.5-5.8-4.4c0.3,0.3,0.1,0.2-0.7-0.5c0.1,0.3,0.4,0.8,0.7,1.4
			c0.1,0.6,0.3,1.1,0.5,1.4l-6,1.8v-0.5c-0.1-0.8-0.5-1.6-0.9-2.5h-1.8v20.7H8.8V36.9H8.1c-0.8,0.2-1.7,0.3-2.8,0.5
			c-0.8,0.2-1.4,0.2-1.8,0.2l-2.3-6.7c0.5,0,1.1-0.1,1.8-0.2h1.6c0.3-0.5,0.8-1.1,1.4-2.1c1.7-2.6,3.1-4.7,4.2-6.2L0,15.2L4.4,9.9z
			 M7.8,41.2c-0.2,3.5-0.5,7.8-1.2,12.9l-5.5-0.7c0.6-3.1,1.2-7.3,1.6-12.7L7.8,41.2z M15.2,27.4c-0.5,0.5-0.9,1.1-1.4,1.8
			c-0.3,0.5-0.5,0.8-0.7,0.9l2.8-0.2L15.2,27.4L15.2,27.4z M21.4,39.6c0.8,2.5,1.6,5.6,2.5,9.5c0.3,0.9,0.5,1.6,0.7,2.1l-5.3,1.2
			c-0.3-1.4-0.9-3.9-1.6-7.6c-0.5-1.8-0.8-3.2-0.9-4.2L21.4,39.6L21.4,39.6z M24.2,20.7l3.2-18.9h8.3l-0.5,3H53l-1.8,17.8h5.5v6.7
			h-3.9l4.6,5.5c-2.5,2-5,3.8-7.6,5.5c1.7,2.2,4.3,4.2,7.8,6.2c-0.5,0.8-1.2,1.9-2.3,3.5c-0.9,1.5-1.7,2.7-2.3,3.5
			c-4-3.2-7.1-6.5-9.2-9.9v6c0,4.3-2,6.6-6,6.9c-0.9,0-2.2,0.1-3.7,0.2h-3.7c-0.8-2.6-1.4-5-1.8-7.1h4.6c1.8,0.2,2.7-0.6,2.5-2.3
			v-2.5c-0.6,0.5-1.7,1.1-3.2,1.8c-2.6,1.7-4.8,2.9-6.5,3.7l-3-6.9c2.9-1.4,7.1-3.5,12.7-6.5v-7.6H22.4v-6.7h20.5l0.2-3H33v1.1
			L24.2,20.7L24.2,20.7z M44,11.3h-9.7l-0.5,2.3h9.9L44,11.3z M52.6,29.3h-8.8c0.8,2,1.5,3.8,2.1,5.3c0.8-0.6,1.9-1.5,3.5-2.8
			C50.7,30.7,51.8,29.9,52.6,29.3L52.6,29.3z"/>
		<path class="st0" d="M65.7,17.3c0.6,0.5,1.5,1.1,2.8,2.1c1.5,1.1,3.7,2.8,6.4,5.3l-6,6.7c-0.9-0.9-2.4-2.2-4.4-3.9
			c-2-1.8-3.5-3.1-4.6-3.9L65.7,17.3L65.7,17.3z M65.2,33.9l8.8,2.5c-2.2,8.3-3.8,15-5.1,20l-8.8-2.3C62,48.3,63.7,41.6,65.2,33.9
			L65.2,33.9z M66.6,1.8c3.7,2.8,6.8,5.1,9.2,6.9l-6,7.1c-1.5-1.5-3.9-3.6-7.1-6.2c-0.8-0.8-1.4-1.3-1.8-1.6L66.6,1.8L66.6,1.8z
			 M83.6,1.4l9.9,0.5l-0.7,1.4c-0.3,0.5-0.7,1.2-1.2,2.3h23v7.4H87.3c-0.5,0.8-1.1,1.5-1.8,2.3h27c-0.2,4.5-0.2,8.9-0.2,13.4h3.9V36
			H112v5.8h3.5v7.4h-3.9c-0.3,4.9-3.4,7.3-9.2,7.1l-10.6,0.2c-0.6-2-1.4-4.2-2.3-6.5c3.2,0.2,6.5,0.2,9.9,0.2c1.8,0,3-0.4,3.5-1.2
			H83.9l-0.2,1.6h-9l1.8-14.8h-3v-7.4h3.9l0.7-6.2c-1.5-2-3.3-4-5.3-6C77.4,12.5,81,7.5,83.6,1.4L83.6,1.4z M92.9,41.7l-3.7-2.8l3-3
			h-6.7l-0.7,5.8L92.9,41.7L92.9,41.7z M93.3,28.6c-0.5-0.5-1.2-1-2.1-1.6c-0.8-0.6-1.4-1.1-1.8-1.4l3.2-3h-5.8l-0.7,6H93.3
			L93.3,28.6z M100.7,38.7l-3,3h5.8v-2.5c0.2-1.4,0.2-2.5,0.2-3.2h-7.6L100.7,38.7L100.7,38.7z M101.2,25.3l-3,3.2h5.5
			c0-2.1,0.1-4.1,0.2-6h-7.1L101.2,25.3L101.2,25.3z"/>
		<path class="st0" d="M120.1,21.2h7.8v-4.8c-0.5,0.5-1.3,1.2-2.5,2.3c-1.1,0.9-1.9,1.7-2.5,2.3c-0.3-0.5-0.7-1.3-1.2-2.5
			c-1.4-2.8-2.3-4.5-2.8-5.3c5.1-3.4,8.7-7.1,10.8-11.3l9.4,0.5c-0.9,1.5-1.9,3-3,4.4h37.1v7.8h-4.8v6.7h6.2v7.4h-6.2v6.9h4.8v7.6
			h-51.2v-7.6h5.8v-6.9h-7.8L120.1,21.2L120.1,21.2z M124.9,44.2l8.8,1.2l-4.8,11.3c-1.5-0.3-3.5-0.6-5.8-0.9
			c-1.4-0.2-2.5-0.3-3.2-0.5c0.5-0.9,1.2-2.5,2.1-4.6C123.4,47.8,124.4,45.6,124.9,44.2z M143.4,44.9c0.9,3.4,1.8,6.8,2.8,10.1
			l-9.2,0.7c-0.3-1.8-0.9-4.9-1.8-9.2c-0.1-0.5-0.2-0.8-0.2-1.2L143.4,44.9L143.4,44.9z M135.5,14.5v6.7h3.2v-6.7H135.5z
			 M135.5,28.6v6.9h3.2v-6.9H135.5z M146.3,14.5v6.7h3.5v-6.7C149.8,14.5,146.3,14.5,146.3,14.5z M146.3,28.6v6.9h3.5v-6.9H146.3z
			 M156,44.7l4.1,9.9l-9.2,0.9c-0.5-1.5-1.1-3.6-2.1-6.2c-0.6-1.7-1.1-3-1.4-3.9L156,44.7L156,44.7z M157.4,14.5v6.7h3.5v-6.7H157.4
			z M157.4,28.6v6.9h3.5v-6.9H157.4z M169.2,44c0.6,1.1,1.4,2.6,2.3,4.6c1.4,2.5,2.5,4.5,3.2,6l-9.2,1.4l-5.3-10.8L169.2,44z"/>
		<path class="st0" d="M178.6,24.4v-9h4.6V1.6h9v13.8h4.4v9h-4.4v15.4l4.6-0.9c0,2.3,0.1,5.3,0.5,9c-0.3,0.2-0.9,0.3-1.6,0.5
			c-7.1,1.5-12.5,3-16.4,4.4l-1.4-9.7l5.3-1.2V24.4H178.6L178.6,24.4z M197.3,57.2l-1.8-8.1l3-0.5V3.7h32.7v30.6h-1.4l4.1,5.3
			c-0.6,0.3-1.4,0.8-2.3,1.4c-1.2,0.8-3,1.8-5.3,3c2.3,1.4,5.1,2.7,8.3,3.9c-1.2,2-2.7,4.6-4.4,7.8c-6-2.5-10.7-5.5-14.1-9.2v6.2
			C208.8,54,202.5,55.5,197.3,57.2L197.3,57.2z M207,11.8v3.5h15.7v-3.5H207z M207,26.3h15.7v-3.5H207V26.3z M215,44.9
			c-2.1-2.9-3.9-6.5-5.3-10.6H207v12.5c0.8-0.2,1.8-0.4,3.2-0.7C211.1,46,212.7,45.6,215,44.9L215,44.9z M220.8,39
			c1.8-1.4,3.8-2.9,5.8-4.6h-8.3C219,36,219.9,37.6,220.8,39L220.8,39z"/>
		<path class="st0" d="M259.5,16.8c0.3,0.1,0.7,0.5,1.1,0.9c3.5,2.8,6.4,5.1,8.5,6.9l-6.2,7.1c-2.9-2.9-6-5.8-9.2-8.5L259.5,16.8
			L259.5,16.8z M260.2,33.6l8.8,2.5c-1.2,3.8-2.3,7.8-3.2,12c6.5-7.8,9.5-19.7,9.2-35.5h-4.6V4.2h34.1v8.8l-4.8,6.5h8.5v8.5
			c-2.1,6.2-4.7,11.1-7.6,14.8c2.8,1.8,6,3.8,9.7,5.8c-1.2,1.5-2.8,3.9-4.8,7.1c0.1-0.3,0-0.1-0.5,0.7c-4.1-2.6-7.8-4.9-10.8-6.9
			c-3.7,2.5-8.1,5-13.4,7.6c-1.2-2.3-2.9-4.7-5.1-7.1c-0.3,0.3-0.8,0.8-1.4,1.6c-0.5,0.8-1.6,2.3-3.5,4.6c-2-3.2-3.8-5.7-5.3-7.4
			l-2.1,7.6l-8.8-3C257.1,45.9,259,39.3,260.2,33.6L260.2,33.6z M260.9,1.8c3.2,2.3,6.4,4.7,9.5,7.1l-6.2,6.9
			c-1.1-0.9-2.6-2.3-4.6-4.1c-1.8-1.5-3.3-2.8-4.4-3.7L260.9,1.8L260.9,1.8z M281.6,35c-1.1,5.1-2.9,9.8-5.5,14.1
			c4.3-1.8,8.1-3.8,11.3-6C285.1,40.6,283.2,37.9,281.6,35z M283.7,12.7c0,2.3-0.1,4.5-0.2,6.7h6.7l4.6-6.7H283.7L283.7,12.7z
			 M298.7,27.6h-12c1.7,3.5,4,6.7,6.9,9.5C295.8,34.3,297.5,31.2,298.7,27.6z"/>
		<path class="st0" d="M313.7,12.2V4.4h28.1v7.8h-2.1v44.2h-8.1v-7.6c-1.5,0.2-3.6,0.5-6.2,0.9c-4.3,0.3-8.1,0.8-11.3,1.4l-1.6-8.1
			l3.9-0.5V12.2H313.7L313.7,12.2z M324.3,12.2v5.1h7.4v-5.1C331.7,12.2,324.3,12.2,324.3,12.2z M324.3,24v5.3h7.4V24H324.3z
			 M324.3,41.7l7.4-0.9V36h-7.4V41.7z M350.5,14.8c1.2,7.8,2.6,13.7,4.1,17.5c1.7-3.4,3-9.3,3.9-17.8h-15.9V6h24.4v8.3
			c-1.2,12-3.6,21-7.1,27c2.5,2.5,5.5,4.8,9.2,7.1c-0.8,1.1-1.8,2.8-3.2,5.3c-0.8,1.2-1.3,2.2-1.6,2.8c-3.7-2.8-6.8-5.4-9.5-7.8
			c-3.7,3.5-6.9,6.5-9.7,8.8c-1.5-2.9-3.2-5.5-5.1-7.8c3.8-2.8,6.9-5.5,9.2-8.3c-3.2-6-5.5-14.2-6.9-24.7L350.5,14.8L350.5,14.8z"/>
		<path class="st0" d="M373.6,15.4h21c0.3-6.8,0.5-11.3,0.5-13.6h10.4c-0.3,5.5-0.5,10.1-0.5,13.6h21.2v9.2h-21.2
			c2.5,11.7,10.1,19.2,22.8,22.6c-0.6,0.8-1.5,1.8-2.8,3.2c-2,2.5-3.4,4.3-4.1,5.5c-10.5-4-17.4-10.6-21-19.8
			c-2.6,8-9.8,14.8-21.7,20.5c-2-3.2-4.1-6-6.5-8.3c13.5-5.2,20.9-13.1,22.1-23.7h-20.3V15.4z"/>
		<path class="st0" d="M451,1.4l11.5,0.7c-0.3,0.8-0.8,2.2-1.4,4.2c-0.1,0.8-0.3,1.3-0.5,1.6h21.7v48.6h-9.7v-3.2H445v3.2h-9.7V7.8
			h14.3C450.4,5.4,450.9,3.2,451,1.4L451,1.4z M472.7,15.9H445V21h27.7C472.7,21,472.7,15.9,472.7,15.9z M445,28.4v4.8h27.7v-4.8
			C472.7,28.4,445,28.4,445,28.4z M445,40.6v5.1h27.7v-5.1H445z"/>
		<path class="st0" d="M504.5,15.4c0.3,0.1,0.8,0.5,1.6,0.9s1.9,1.2,3.5,2.3c0.1-0.3,0.4-0.8,0.7-1.6c0.5-1.4,0.8-2.4,0.9-3h-8.1
			c-2.8,4.6-6.2,9-10.4,13.1c-0.5-2.9-1.2-6.1-2.3-9.7c4.3-4.1,7.5-9.6,9.5-16.4l8.8,1.4c-0.6,1.2-1.1,2.5-1.6,3.9h12v8.1h4.4V9.2
			c0.2-3.4,0.2-5.9,0.2-7.6h8.5c0,1.4-0.1,3.5-0.2,6.4c0,2.9-0.1,5.1-0.2,6.4h12.5v7.8h-9.9c1.8,5.5,5.8,9.7,12,12.5
			c-2,2.5-3.8,4.9-5.5,7.4c-6.2-4-10.2-8.6-12.2-13.8c-1.7,5.7-5.7,10.7-12,15c-1.2-1.5-3.1-3.7-5.5-6.5l-0.2-0.5
			c7.1-4.3,11-9,11.8-14.1h-4.6v-3.7c-3.1,9.7-9.5,17.7-19.1,24l6.2,1.6c-0.5,1.1-1.1,2.7-2.1,4.8c-0.9,2-2.1,4.5-3.5,7.6
			c-2.1-0.6-5.1-1.5-9-2.5c0.5-1.1,1.3-2.6,2.5-4.6c1.2-2.5,2.2-4.5,3-6c-0.6-0.6-1.5-1.6-2.8-3c-1.4-1.4-2.4-2.4-3-3
			c3.2-1.5,6-3.2,8.3-5.1c-0.5-0.5-1.2-1.1-2.3-1.8c-1.1-0.9-1.9-1.5-2.5-1.8l5.1-5.5c0.6,0.5,1.6,1.1,3,1.8
			c1.2,0.8,2.1,1.4,2.8,1.8c0.1-0.3,0.5-0.7,0.9-1.1c0.3-0.3,0.5-0.6,0.7-0.9c-1.8-1.4-3.8-2.8-6-4.1L504.5,15.4L504.5,15.4z
			 M514.2,43.6c1.2,3.8,2.2,7.5,2.8,11.1l-9.2,0.9c-0.5-3.4-1.2-7.2-2.3-11.5L514.2,43.6L514.2,43.6z M526.9,42.9
			c0.6,1.7,1.5,4.1,2.8,7.1c0.6,1.7,1.1,2.9,1.4,3.7l-9.2,1.4c-0.8-2.8-2-6.5-3.7-11.3L526.9,42.9L526.9,42.9z M539.3,41.5
			c2.2,4,4.2,8,6.2,12l-9,2.3c-1.5-3.7-3.4-7.8-5.5-12.2L539.3,41.5L539.3,41.5z M538.4,3.5c2.2,2.8,3.8,5.1,5.1,7.1l-6.7,3.7
			c-1.1-1.8-2.6-4.4-4.6-7.6L538.4,3.5L538.4,3.5z"/>
		<path class="st0" d="M599.5,2.8l4.8,6.4c-2.9,1.4-7.4,3.2-13.4,5.5c-1.1,0.5-1.9,0.9-2.5,1.1v2.3c0,1.7,0.8,2.5,2.5,2.5h2.5
			c1.4,0,2.2-0.8,2.5-2.3c0-0.5,0.2-1.1,0.5-2.1c0.2-1.4,0.3-2.5,0.5-3.2c0.6,0.1,1.5,0.5,2.8,0.9c2.2,0.6,3.8,1.1,4.8,1.6
			c-0.3,2.2-0.8,4.5-1.4,7.1c-1.1,3.7-3.7,5.5-7.8,5.5h-7.8c-5.2,0-7.8-2.8-7.8-8.5v-0.7l-5.5,3.5l-2.1-3.2
			c-2.2,0.1-5.4,0.4-9.7,0.7c-6.3,0.5-10.9,0.8-13.8,0.9l-0.9-7.4h2.8C554.1,8.5,557,4,559.1,0l8.8,3c-0.8,0.9-2.1,2.6-3.9,5.1
			c-1.8,2.3-3.2,4-3.9,5.1l7.6-0.5c-0.5-0.5-1.1-1.2-1.8-2.3c-0.3-0.6-0.5-1.1-0.7-1.4l6-3.5c1.8,2.2,4.2,5.1,6.9,8.8
			c0.8,1.1,1.3,1.8,1.6,2.3V2.1h8.8v6c0.2,0,0.4-0.1,0.7-0.2C593.2,6,596.7,4.3,599.5,2.8L599.5,2.8z M558.9,56.2H551V23h26v26
			c0,4.3-2.1,6.6-6.2,6.9h-3.2c-1.8,0.2-3.2,0.2-4.2,0.2c0-0.3-0.1-0.8-0.2-1.4c-0.5-2.3-0.9-4.1-1.4-5.3h4.8c1.5,0,2.3-0.7,2.3-2.1
			V47h-10.1L558.9,56.2L558.9,56.2z M558.9,29.7v2.5H569v-2.5H558.9z M558.9,38.5V41H569v-2.5H558.9z M599.2,29.7l4.8,6.4
			c-5.5,2.6-10.8,4.9-15.7,6.9v3c0,1.7,0.8,2.5,2.5,2.5h2.5c1.7,0,2.6-0.8,2.8-2.3c0.3-1.7,0.5-3.7,0.7-6c2.2,0.9,4.7,1.8,7.6,2.5
			c-0.5,3.4-0.9,5.9-1.4,7.6c-0.6,3.5-3.2,5.3-7.6,5.3h-7.8c-5.4,0-8.1-2.6-8.1-7.8V29.7h8.8V35c1.1-0.5,1.5-0.6,1.2-0.5
			C593.5,32.7,596.8,31.1,599.2,29.7L599.2,29.7z"/>
		<path class="st0" d="M612.8,26.5h46.1v16.4h-18.4v1.6h19.6v4.6h-19.6v1.2h23.3v4.8H608v-4.8h23.3v-1.2h-19.6v-4.6h19.6v-1.6h-18.4
			L612.8,26.5L612.8,26.5z M608.2,24.9V20h55.3v4.8H608.2z M612.6,18.7V2.8h46.5v15.9H612.6z M621.8,7.6v1.6h28.1V7.6
			C649.9,7.6,621.8,7.6,621.8,7.6z M621.8,14.3h28.1v-1.6h-28.1V14.3z M621.8,30.6v2.1h9.5v-2.1C631.3,30.7,621.8,30.7,621.8,30.6z
			 M621.8,36.6v2.1h9.5v-2.1H621.8z M649.9,30.6h-9.5v2.1h9.5C649.9,32.7,649.9,30.7,649.9,30.6z M649.9,38.7v-2.1h-9.5v2.1H649.9z"
			/>
	</g>
</g>
</svg>
