<?xml version="1.0" encoding="UTF-8"?>
<svg id="_圖層_2" data-name="圖層 2" xmlns="http://www.w3.org/2000/svg" viewBox="0 0 243.21 56.52">
  <defs>
    <style>
      .cls-1 {
        fill: #263a30;
      }

      .cls-2 {
        fill: #4a7b83;
        fill-rule: evenodd;
      }
    </style>
  </defs>
  <g id="_圖層_1-2" data-name="圖層 1">
    <g>
      <path class="cls-2" d="M31.75,56.31c.54-.06,1.13-.14,1.74-.23V18.09l-1.74-1.08V56.31Zm-2.44,.2s.58-.02,1.48-.1V16.41l-1.48-.91V56.52Zm-11.13-13.34c-4.76-3.24-7.88-8.7-7.88-14.89,0-9.57,7.47-17.39,16.89-17.98V0C12.07,.59,0,13.03,0,28.29c0,12.37,7.93,22.88,18.98,26.73,3.28,1.32,8.3,1.5,8.3,1.5V15.5l-9.1,5.62v22.06ZM29.44,0V10.31c9.42,.59,16.89,8.41,16.89,17.98,0,6.21-3.15,11.68-7.93,14.92V21.12l-1.24-.76V55.17c.16-.05,.32-.11,.48-.17v.02c11.05-3.86,18.98-14.37,18.98-26.73C56.62,13.03,44.55,.59,29.44,0Zm5.02,55.9c.59-.12,1.18-.25,1.74-.42V19.76l-1.74-1.08V55.9Z"/>
      <g>
        <path class="cls-1" d="M65.6,12.86h2.6v.71c0,1.61-.82,2.42-2.46,2.42h.46v1.42h1.33v2.31h-1.33v2.31h1.33v2.31h-1.33v2.86h2.08V12.69h9.95v14.52h1.97v-2.86h-1.53v-2.23h1.53v-2.4h-1.53v-2.31h1.53v-1.68h-1.71v-2.43h4.34v13.91h.81v2.4h-20.8v-2.4h.75V14.03h1.35c.43,0,.65-.21,.65-.64v-.52Zm2.32,17.21h3.51c-.51,1.27-.99,2.07-1.46,2.4-.49,.37-1.06,.55-1.69,.55h-5.16v-2.08h3.98c.32,0,.59-.29,.81-.87Zm7.95-2.86V14.92h-5.24v12.29h5.24Zm-.46-10.88v2.05h-4.23v-2.05h4.23Zm-4.14,3.21h4.05v5.1c0,.82-.36,1.23-1.06,1.23h-2.99v-6.34Zm2.24,4.83c.18,0,.28-.15,.28-.46v-2.87h-.98v3.33h.71Zm1.46,5.7h3.51l.25,.51c.15,.24,.4,.35,.74,.35h3.79v2.08h-5.13c-1.14,0-1.94-.47-2.41-1.42l-.76-1.53Z"/>
        <path class="cls-1" d="M93.07,12.6h13.64l1.5,2.84c.26,.65,.54,.98,.83,.98h.99v2.86h-2.34c-.28,0-.52-.07-.74-.21v1.91h-14.54v-1.8c-.17,.06-.35,.09-.53,.09h-2.36v-2.86h.99c.32,0,.62-.33,.9-.98l1.64-2.84Zm-2.82,10.24h18.89v7.73c0,1.31-.81,1.96-2.43,1.96h-16.46v-9.69Zm3.24-4.72h12.69l-1.64-2.66h-9.32l-1.73,2.66Zm11.49,11.74c.54,0,.81-.2,.81-.61v-3.73h-12.18v4.34h11.37Z"/>
        <path class="cls-1" d="M116.43,14.14h4.58l.12-1.71h3.35l-.14,1.71h12.04V30.34c0,1.66-1.01,2.48-3.04,2.48h-4.53v-2.86h3.44c.48,0,.72-.17,.72-.52v-12.38h-8.83l-.88,11.39c-.23,2.92-.97,4.37-2.22,4.37h-4.88v-2.75h2.89c.51,0,.85-.83,1.02-2.48l.74-10.53h-4.37v-2.92Z"/>
        <path class="cls-1" d="M150.17,13.21h3.7v-.9h2.78v.9h5.61v3.59h1.07v2.2h-1.07v1.43c0,1.36-.84,2.04-2.53,2.04h-3.08v1.1h5.16v2.31h-5.16v1.07h5.69v2.31h-5.69v.81h-2.78v-.81h-4.49l.32,.72c.17,.35,.5,.53,.99,.53h12.65v2.43h-13.92c-1,0-1.67-.45-1.99-1.35l-.51-1.19-.32,1.05c-.37,.99-1.09,1.48-2.15,1.48h-1.71v-2.43h.65c.45,0,.81-.36,1.09-1.07l.65-2.03h-2.2v-2.52h3l.6-1.88h-3.61v-2.21l3.07-5.08h-3.07v-2.52h6.34v2.32l-3.08,5.08h3.08v2.58l-1.11,3.41,1.02,2.19v-1.85h4.7v-1.07h-4.16v-2.31h4.16v-1.1h-3.7v-2.31h3.7v-1.16h-4.6v-2.2h4.6v-1.27h-3.7v-2.31Zm6.48,2.31v1.27h2.72v-1.27h-2.72Zm0,3.47v1.16h2.09c.42,0,.63-.14,.63-.43v-.73h-2.72Z"/>
        <path class="cls-1" d="M179.17,12.52v2.31h-1.71l.14,.41c.11,.32,.3,.48,.58,.48h.99v1.88h-2.71c-.52,0-.97-.33-1.34-.99l-.83-1.79h-.44c-.22,0-.39,.12-.51,.36l-.93,1.48c-.26,.49-.81,.73-1.64,.73h-1.55v-2.23c.66,0,1.1-.21,1.32-.61l1.13-1.7c.12-.23,.39-.34,.81-.34h6.68Zm10.57,13.36v2.49l-8.39,.03v4.54h-2.98v-4.54h-8.95v-2.52h8.95v-.55h2.98v.55h8.39Zm-10.67-7.93v2.4h-3.33v2.14h3.61v2.49h-9.84v-2.49h3.51v-2.14h-3.15v-2.4h9.2Zm-4.87,10.95h3.61l-1.73,2.94c-.35,.65-.98,.98-1.87,.98h-4.6v-2.23h3.26c.29,0,.51-.13,.65-.39l.69-1.3Zm15.63-16.39v2.31h-1.69l.11,.35c.11,.31,.3,.46,.58,.46h.9v1.97h-2.61c-.54,0-1-.33-1.39-.99l-.85-1.79h-.65c-.22,0-.39,.14-.53,.41l-.95,1.64c-.28,.53-.85,.8-1.71,.8h-1.6v-2.23c.68,0,1.14-.23,1.39-.68l1.2-1.88c.12-.24,.4-.36,.83-.36h6.96Zm-6.7,5.44h6.17v4.63c0,.35,.15,.52,.44,.52h.28v2.43h-1.61c-1.26,0-1.89-.62-1.89-1.87v-3.4h-3.38v.61h1.99l.46,1.59c.09,.3,.27,.45,.53,.45v1.87h-.99c-.42,0-.77-.33-1.06-.98l-.93-2.44v1.91c0,1.18-.6,1.77-1.8,1.77h-1.61v-2.14h.25c.3,0,.45-.14,.45-.43v-4.54h2.71Zm-1.07,10.95h3.61l.56,1.3c.11,.26,.31,.39,.62,.39h2.8v2.23h-4.6c-.57,0-1.06-.33-1.46-.98l-1.53-2.94Z"/>
        <path class="cls-1" d="M196.37,12.4h19.7V31.4c0,1.06-.73,1.59-2.17,1.59h-17.53V12.4Zm16.06,18.46c.48,0,.72-.17,.72-.52V14.54h-13.89V30.86h13.17Zm.1-15.76v1.79h-4.88v.52h4.45v4.9c0,.67-.24,1.09-.73,1.25h1.53c-.08,.87-.32,1.47-.74,1.82-.3,.24-.69,.39-1.17,.46v.48h1.53v1.79h-1.53v1.4c0,.71-.55,1.06-1.64,1.06h-3.14v-1.76h1.71c.23,0,.35-.09,.35-.27v-.43h-8.21v-1.79h8.21v-.46h-8.49v-1.76h5.25v-.43h-4.6v-6.25h4.6v-.52h-5.16v-1.79h5.16v-.35h2.6v.35h4.88Zm-11.09,13.28h2.89l.28,.56c.06,.11,.18,.16,.35,.16h.81v1.39h-2.27c-.4,0-.74-.17-1.02-.52l-1.04-1.59Zm1.62-8.65h2v-.52h-2v.52Zm2,2.14v-.55h-2v.55h2Zm2.6-2.66v.52h1.82v-.52h-1.82Zm1.63,2.66c.13,0,.19-.13,.19-.41v-.14h-1.82v.55h1.63Zm-1.63,2.23h1.71c.35,0,.62-.14,.79-.43h-2.5v.43Z"/>
        <path class="cls-1" d="M225.85,31.75v1.35h-2.78V12.77h6.77v6.86c0,1.05-.43,1.82-1.27,2.3,.85,.47,1.27,1.09,1.27,1.87v5.54c0,1.52-.79,2.32-2.37,2.39h-1.62Zm0-16.32v5.26h.89c.31,0,.47-.18,.47-.55v-4.72h-1.36Zm0,7.81v5.84h1.01c.23,0,.35-.18,.35-.55v-4.83c0-.31-.3-.46-.89-.46h-.47Zm5.06-10.84h3.14l.67,2.51h3.52l.97-2.51h3.17l-.97,2.51h1.78v2.55h-7.22l-.35,1.3h3.68v2.83h.44c.25,0,.37-.15,.37-.46v-2.94h2.72v4.47c0,.94-.54,1.42-1.63,1.42h-1.9v.89h2.52l.62,4.03c.08,.52,.2,.78,.37,.78h.37v2.75h-1.46c-.8,0-1.33-.6-1.57-1.8l-.85-4.38v4.49c0,1.45-.84,2.18-2.52,2.18h-2.08v-1.71c-.32,.35-.81,.52-1.46,.52h-2.98v-2.31h1.99c.14,0,.25-.11,.35-.34l.46-1.78h2.89l-.88,3.19h.72c.42,0,.63-.14,.63-.43v-8.85h-1.55c-.4,.73-1.12,1.1-2.15,1.1h-2.36v-2.52h1.27c.26,0,.48-.21,.65-.62l.51-1.81h-2.7v-2.55h1.48l-.65-2.51Zm1.91,10.27h2.89l-.92,3.18c-.25,.73-.85,1.1-1.8,1.1h-2.34v-2.31h1.34c.14,0,.25-.11,.35-.34l.48-1.62Z"/>
      </g>
      <g>
        <path class="cls-1" d="M64.62,40.35v1.35c0,.3,.04,.49,.13,.58,.09,.08,.29,.12,.6,.12h.2v.22h-2.59v-.22h.07c.3,0,.49-.04,.59-.13,.09-.09,.14-.28,.14-.57v-3.62c0-.29-.05-.48-.14-.57-.09-.09-.29-.13-.59-.13h-.07v-.22h2.5c.53,0,.9,.02,1.13,.06,.23,.04,.43,.13,.61,.26,.33,.24,.5,.58,.5,1.03,0,.56-.25,1.02-.74,1.35-.49,.33-1.16,.5-2,.5h-.34Zm0-.22h.25c.63,0,1.11-.13,1.43-.38,.32-.26,.47-.64,.47-1.15,0-.44-.13-.76-.39-.94-.26-.18-.7-.28-1.32-.28h-.44v2.75Z"/>
        <path class="cls-1" d="M71.65,39.67v2.02c0,.29,.06,.48,.16,.57,.11,.09,.34,.13,.7,.13h.06v.22h-2.55v-.22h.08c.31,0,.51-.04,.61-.13,.09-.09,.14-.28,.14-.57v-1.55c0-.35-.03-.57-.09-.67-.06-.09-.22-.18-.49-.27l-.26-.09v-.06l1.62-.48v.79c.3-.26,.58-.46,.83-.59,.25-.13,.48-.2,.68-.2,.36,0,.66,.15,.9,.45l-.64,.58c-.21-.3-.45-.45-.71-.45-.23,0-.55,.15-.97,.46-.01,0-.04,.03-.09,.07Z"/>
        <path class="cls-1" d="M78.54,42.72c-.7,0-1.28-.19-1.74-.58-.45-.39-.68-.88-.68-1.49s.23-1.1,.68-1.49c.45-.39,1.04-.58,1.74-.58s1.29,.19,1.74,.58c.46,.39,.68,.88,.68,1.49s-.23,1.1-.68,1.49c-.46,.39-1.04,.58-1.74,.58Zm0-.25c.44,0,.79-.17,1.06-.5,.27-.34,.4-.78,.4-1.32s-.13-.98-.4-1.32c-.27-.33-.62-.5-1.06-.5s-.79,.17-1.06,.5c-.27,.34-.4,.78-.4,1.32s.13,.99,.4,1.32c.27,.33,.62,.5,1.06,.5Z"/>
        <path class="cls-1" d="M83.66,42.45l-.11-1.01h.33v.07c.14,.65,.54,.98,1.22,.98,.29,0,.55-.08,.76-.23,.21-.15,.32-.33,.32-.54,0-.13-.05-.25-.16-.35-.11-.1-.37-.24-.79-.42l-.41-.18c-.78-.35-1.17-.74-1.17-1.17,0-.32,.14-.57,.43-.75,.29-.19,.67-.28,1.16-.28,.41,0,.87,.07,1.36,.22v.82h-.33v-.07c-.03-.11-.06-.21-.1-.29-.03-.08-.09-.15-.15-.21-.07-.06-.16-.12-.28-.17-.12-.05-.29-.08-.52-.08-.24,0-.44,.06-.6,.17-.15,.11-.23,.26-.23,.44,0,.26,.3,.53,.91,.8l.45,.2c.44,.2,.75,.38,.92,.55,.17,.17,.25,.38,.25,.63,0,.34-.17,.61-.5,.82-.33,.21-.77,.31-1.32,.31-.58,0-1.06-.09-1.46-.26Z"/>
        <path class="cls-1" d="M93.49,42.12v.34c-.55,.18-1.08,.26-1.61,.26-.72,0-1.31-.18-1.76-.55-.45-.36-.68-.84-.68-1.42,0-.63,.25-1.15,.74-1.56,.49-.41,1.12-.61,1.88-.61,.6,0,1.13,.14,1.59,.44l-.6,.54c-.37-.49-.82-.73-1.33-.73-.41,0-.74,.15-.99,.46-.24,.31-.36,.72-.36,1.24,0,.57,.16,1.02,.48,1.34,.32,.32,.76,.48,1.33,.48,.47,0,.91-.07,1.3-.22Z"/>
        <path class="cls-1" d="M98.37,42.72c-.71,0-1.28-.19-1.74-.58-.45-.39-.68-.88-.68-1.49s.23-1.1,.68-1.49c.46-.39,1.03-.58,1.74-.58s1.29,.19,1.74,.58c.45,.39,.68,.88,.68,1.49s-.23,1.1-.68,1.49c-.46,.39-1.04,.58-1.74,.58Zm0-.25c.44,0,.79-.17,1.06-.5,.27-.34,.4-.78,.4-1.32s-.13-.98-.4-1.32c-.27-.33-.62-.5-1.06-.5s-.79,.17-1.06,.5c-.27,.34-.4,.78-.4,1.32s.13,.99,.4,1.32c.27,.33,.62,.5,1.06,.5Z"/>
        <path class="cls-1" d="M113.15,42.5c-.7,.18-1.36,.28-1.96,.28-1,0-1.79-.26-2.37-.78-.58-.52-.88-1.23-.88-2.12s.29-1.57,.87-2.09c.58-.53,1.35-.79,2.31-.79,.71,0,1.36,.07,1.96,.22l.13,1.08h-.33v-.06c-.08-.32-.26-.57-.56-.75-.3-.18-.69-.27-1.16-.27-.66,0-1.2,.25-1.62,.75-.42,.5-.64,1.14-.64,1.91s.22,1.45,.66,1.94c.44,.49,1.01,.74,1.71,.74,.95,0,1.51-.35,1.66-1.05v-.06h.34l-.13,1.06Z"/>
        <path class="cls-1" d="M118.34,42.72c-.71,0-1.29-.19-1.74-.58-.46-.39-.68-.88-.68-1.49s.23-1.1,.68-1.49c.45-.39,1.03-.58,1.74-.58s1.29,.19,1.74,.58c.45,.39,.68,.88,.68,1.49s-.23,1.1-.68,1.49c-.45,.39-1.04,.58-1.74,.58Zm0-.25c.44,0,.79-.17,1.06-.5,.27-.34,.4-.78,.4-1.32s-.13-.98-.4-1.32c-.27-.33-.62-.5-1.06-.5s-.79,.17-1.06,.5c-.27,.34-.4,.78-.4,1.32s.13,.99,.4,1.32c.27,.33,.62,.5,1.06,.5Z"/>
        <path class="cls-1" d="M124.81,39.59v2.11c0,.29,.05,.48,.14,.57,.09,.09,.29,.13,.59,.13h.05v.22h-2.38v-.22h.08c.29,0,.48-.04,.58-.13,.09-.09,.14-.28,.14-.57v-1.59c0-.33-.03-.54-.09-.63-.06-.09-.21-.18-.46-.27l-.25-.09v-.06l1.59-.48v.8c.34-.27,.67-.48,.98-.61,.31-.14,.59-.2,.87-.2,.39,0,.71,.11,.97,.33,.26,.23,.39,.63,.39,1.23v1.58c0,.29,.05,.48,.14,.57,.09,.09,.29,.13,.59,.13h.06v.22h-2.38v-.22h.07c.3,0,.49-.04,.59-.13,.09-.09,.14-.28,.14-.57v-1.59c0-.35-.07-.6-.21-.76-.14-.15-.37-.23-.68-.23-.23,0-.47,.04-.73,.12-.25,.08-.52,.2-.79,.36Z"/>
        <path class="cls-1" d="M131.33,42.45l-.1-1.01h.33v.07c.14,.65,.54,.98,1.22,.98,.29,0,.55-.08,.76-.23,.21-.15,.32-.33,.32-.54,0-.13-.05-.25-.16-.35-.11-.1-.37-.24-.79-.42l-.41-.18c-.78-.35-1.17-.74-1.17-1.17,0-.32,.14-.57,.43-.75,.29-.19,.67-.28,1.16-.28,.41,0,.87,.07,1.36,.22v.82h-.34v-.07c-.03-.11-.06-.21-.1-.29-.03-.08-.09-.15-.15-.21-.07-.06-.16-.12-.28-.17-.12-.05-.29-.08-.52-.08s-.44,.06-.6,.17c-.16,.11-.23,.26-.23,.44,0,.26,.3,.53,.91,.8l.45,.2c.44,.2,.75,.38,.92,.55,.17,.17,.25,.38,.25,.63,0,.34-.17,.61-.5,.82-.33,.21-.77,.31-1.32,.31-.57,0-1.06-.09-1.46-.26Z"/>
        <path class="cls-1" d="M139.4,42.37c-.33,0-.57-.11-.72-.32-.15-.21-.22-.55-.22-1.01v-2.09h1.52v-.28h-1.52v-1l-1.57,1.27h.78v2.21c0,.56,.1,.97,.31,1.2,.21,.24,.56,.36,1.04,.36,.39,0,.76-.09,1.11-.26v-.32c-.31,.16-.55,.24-.73,.24Z"/>
        <path class="cls-1" d="M144.14,39.61c.42-.31,.74-.46,.97-.46,.26,0,.49,.15,.71,.45l.64-.58c-.24-.3-.54-.45-.9-.45-.2,0-.43,.07-.68,.2-.25,.13-.53,.33-.83,.59v-.79l-1.62,.48v.06l.26,.09c.27,.09,.43,.18,.49,.27,.06,.09,.09,.32,.09,.67v1.55c0,.29-.05,.48-.14,.57-.1,.09-.3,.13-.61,.13h-.08v.22h2.55v-.22h-.06c-.36,0-.59-.04-.7-.13-.11-.09-.16-.28-.16-.57v-2.02s.08-.06,.09-.07Z"/>
        <path class="cls-1" d="M152.34,41.95c-.29,.26-.58,.45-.88,.57-.3,.13-.61,.19-.92,.19-.48,0-.83-.12-1.05-.38-.22-.25-.34-.64-.34-1.17v-1.03c0-.35-.03-.57-.08-.67-.05-.09-.21-.18-.47-.27l-.24-.09v-.06l1.59-.48v2.36c0,.51,.06,.85,.2,1.02,.13,.17,.36,.25,.68,.25,.26,0,.5-.04,.7-.11,.2-.07,.47-.21,.81-.41v-1.56c0-.34-.03-.56-.08-.66-.06-.09-.21-.18-.47-.27l-.25-.09v-.06l1.59-.48v3.12c0,.19,.06,.32,.17,.38,.11,.07,.32,.1,.62,.1h.04v.22l-1.62,.32v-.77Z"/>
        <path class="cls-1" d="M160.36,42.12v.34c-.55,.18-1.08,.26-1.61,.26-.72,0-1.31-.18-1.76-.55-.45-.36-.67-.84-.67-1.42,0-.63,.24-1.15,.74-1.56,.49-.41,1.12-.61,1.88-.61,.6,0,1.13,.14,1.59,.44l-.6,.54c-.37-.49-.82-.73-1.33-.73-.41,0-.74,.15-.99,.46-.24,.31-.36,.72-.36,1.24,0,.57,.16,1.02,.48,1.34,.32,.32,.76,.48,1.33,.48,.47,0,.9-.07,1.31-.22Z"/>
        <path class="cls-1" d="M165.84,42.14v.32c-.35,.18-.73,.26-1.11,.26-.49,0-.83-.12-1.05-.36-.21-.24-.31-.64-.31-1.2v-2.21h-.78l1.57-1.27v1h1.52v.28h-1.52v2.09c0,.46,.08,.8,.22,1.01,.15,.21,.39,.32,.72,.32,.18,0,.42-.08,.73-.24Z"/>
        <path class="cls-1" d="M169.72,38.58v3.12c0,.29,.05,.48,.14,.57,.09,.09,.29,.13,.59,.13h.07v.22h-2.38v-.22h.08c.29,0,.48-.04,.57-.13,.09-.09,.14-.28,.14-.57v-1.56c0-.35-.03-.57-.08-.65-.05-.08-.22-.17-.5-.28l-.22-.09v-.06l1.59-.48Zm-.53-.5c-.16,0-.29-.04-.4-.13-.11-.09-.16-.2-.16-.33s.05-.24,.16-.33c.11-.09,.24-.13,.4-.13s.29,.05,.4,.13c.11,.09,.16,.2,.16,.33s-.05,.24-.16,.33c-.11,.09-.24,.13-.4,.13Z"/>
        <path class="cls-1" d="M175.32,42.72c-.7,0-1.28-.19-1.74-.58-.46-.39-.68-.88-.68-1.49s.22-1.1,.68-1.49c.46-.39,1.03-.58,1.74-.58s1.29,.19,1.74,.58c.46,.39,.68,.88,.68,1.49s-.23,1.1-.68,1.49c-.46,.39-1.04,.58-1.74,.58Zm0-.25c.44,0,.8-.17,1.06-.5,.27-.34,.41-.78,.41-1.32s-.14-.98-.41-1.32c-.27-.33-.62-.5-1.06-.5s-.79,.17-1.06,.5c-.27,.34-.4,.78-.4,1.32s.13,.99,.4,1.32c.27,.33,.62,.5,1.06,.5Z"/>
        <path class="cls-1" d="M182.58,39.22c.25-.08,.49-.12,.73-.12,.32,0,.54,.08,.68,.23,.14,.16,.21,.41,.21,.76v1.59c0,.29-.05,.48-.14,.57-.09,.09-.29,.13-.59,.13h-.07v.22h2.38v-.22h-.06c-.3,0-.5-.04-.59-.13-.1-.09-.14-.28-.14-.57v-1.58c0-.59-.13-1-.39-1.23-.26-.22-.58-.33-.97-.33-.27,0-.56,.07-.87,.2-.31,.14-.63,.34-.98,.61v-.8l-1.59,.48v.06l.24,.09c.25,.09,.41,.18,.46,.27,.06,.09,.09,.3,.09,.63v1.59c0,.29-.05,.48-.14,.57-.09,.09-.28,.13-.58,.13h-.08v.22h2.38v-.22h-.05c-.3,0-.5-.04-.59-.13-.09-.09-.14-.28-.14-.57v-2.11c.28-.16,.54-.28,.79-.36Z"/>
        <path class="cls-1" d="M197.95,42.5c-.7,.18-1.36,.28-1.96,.28-1,0-1.79-.26-2.37-.78-.59-.52-.88-1.23-.88-2.12s.29-1.57,.87-2.09c.58-.53,1.35-.79,2.31-.79,.71,0,1.36,.07,1.96,.22l.13,1.08h-.33v-.06c-.08-.32-.26-.57-.56-.75-.3-.18-.69-.27-1.17-.27-.66,0-1.2,.25-1.62,.75-.42,.5-.64,1.14-.64,1.91s.22,1.45,.65,1.94c.44,.49,1.01,.74,1.72,.74,.95,0,1.51-.35,1.66-1.05v-.06h.34l-.13,1.06Z"/>
        <path class="cls-1" d="M203.15,42.72c-.7,0-1.28-.19-1.74-.58-.46-.39-.68-.88-.68-1.49s.23-1.1,.68-1.49c.45-.39,1.04-.58,1.74-.58s1.29,.19,1.74,.58c.46,.39,.68,.88,.68,1.49s-.23,1.1-.68,1.49c-.45,.39-1.04,.58-1.74,.58Zm0-.25c.44,0,.8-.17,1.06-.5,.27-.34,.4-.78,.4-1.32s-.13-.98-.4-1.32c-.27-.33-.62-.5-1.06-.5s-.79,.17-1.06,.5c-.27,.34-.41,.78-.41,1.32s.14,.99,.41,1.32c.27,.33,.62,.5,1.06,.5Z"/>
        <path class="cls-1" d="M209.01,42.78c-.18,0-.34-.05-.47-.16-.13-.11-.19-.24-.19-.39s.06-.27,.19-.38c.13-.11,.29-.16,.47-.16s.34,.05,.47,.16c.13,.1,.19,.23,.19,.38s-.06,.28-.19,.39c-.13,.1-.29,.16-.47,.16Z"/>
        <path class="cls-1" d="M214.14,42.33c0-.19-.06-.34-.18-.46-.12-.12-.28-.18-.47-.18-.42,0-.66,.2-.72,.6l.72,.3c-.04,.5-.28,.87-.72,1.1v.23c.91-.46,1.37-.99,1.37-1.6Z"/>
        <path class="cls-1" d="M225.95,41.39h.33l-.15,1.3c-1-.05-1.97-.07-2.91-.07h-1.69v-.22h.08c.3,0,.49-.04,.58-.13,.09-.09,.14-.28,.14-.57v-3.62c0-.29-.04-.48-.14-.57-.09-.09-.29-.13-.58-.13h-.08v-.22h2.45v.22h-.07c-.29,0-.49,.04-.58,.13-.09,.09-.14,.28-.14,.57v3.62c0,.24,.11,.39,.32,.48,.21,.08,.62,.12,1.22,.12h.22c.36,0,.59-.06,.69-.17,.15-.17,.25-.39,.3-.65v-.08Z"/>
        <path class="cls-1" d="M231.44,42.14v.32c-.36,.18-.72,.26-1.11,.26-.49,0-.83-.12-1.04-.36-.21-.24-.31-.64-.31-1.2v-2.21h-.78l1.57-1.27v1h1.52v.28h-1.52v2.09c0,.46,.08,.8,.22,1.01,.15,.21,.39,.32,.72,.32,.18,0,.42-.08,.73-.24Z"/>
        <path class="cls-1" d="M237.62,41.99c-.32,.24-.63,.42-.93,.55-.3,.12-.59,.18-.87,.18-.58,0-1.06-.18-1.43-.55-.37-.37-.56-.83-.56-1.4,0-.65,.25-1.18,.74-1.59,.49-.41,1.13-.61,1.92-.61,.18,0,.37,0,.55,.03,.19,.02,.38,.05,.59,.09v-.7c0-.15-.03-.26-.1-.32-.06-.06-.22-.13-.48-.22l-.26-.09v-.06l1.62-.48v4.89c0,.18,.05,.3,.16,.37,.1,.07,.3,.1,.6,.1h.03v.22l-1.58,.32v-.74Zm0-.3v-2.32c-.17-.16-.38-.3-.63-.4-.25-.1-.5-.15-.74-.15-.45,0-.82,.16-1.12,.47-.29,.32-.44,.72-.44,1.21s.15,.88,.44,1.19c.29,.31,.68,.46,1.14,.46,.21,0,.43-.04,.65-.11,.23-.08,.46-.19,.69-.34Z"/>
        <path class="cls-1" d="M242.54,42.78c-.18,0-.34-.05-.47-.16-.13-.11-.2-.24-.2-.39s.07-.27,.2-.38c.13-.11,.28-.16,.47-.16s.34,.05,.47,.16c.13,.1,.2,.23,.2,.38s-.07,.28-.2,.39c-.13,.1-.29,.16-.47,.16Z"/>
      </g>
    </g>
  </g>
</svg>