<?xml version="1.0" encoding="utf-8"?>
<!-- Generator: Adobe Illustrator 27.0.0, SVG Export Plug-In . SVG Version: 6.00 Build 0)  -->
<svg version="1.1" id="_圖層_2" xmlns="http://www.w3.org/2000/svg" xmlns:xlink="http://www.w3.org/1999/xlink" x="0px" y="0px"
	 viewBox="0 0 706 56.5" style="enable-background:new 0 0 706 56.5;" xml:space="preserve">
<style type="text/css">
	.st0{fill:#FFFFFF;}
</style>
<g id="_圖層_1-2">
	<g>
		<path class="st0" d="M0,19h20.5V1.5h10V19H51v9.3H30.5V53h-10V28.3H0C0,28.3,0,19,0,19z"/>
		<path class="st0" d="M102.7,45.2c-0.3,4.5-2.7,6.8-7.1,6.9c-1.6,0.1-4.2,0.2-7.8,0.2c-0.2-0.7-0.4-2-0.7-3.9
			c-0.2-0.7-0.3-1.2-0.4-1.5c-2.2,2.2-5.1,4.4-8.7,6.7c-0.6-0.6-1.4-1.5-2.6-2.8c-1.2-1.2-2-2.1-2.6-2.8c0,2.5-1.3,3.8-3.9,4.1
			c-0.6,0.1-1.5,0.2-2.8,0.2c-1,0.1-1.9,0.2-2.6,0.2c-0.2-0.4-0.4-1.3-0.7-2.6c-0.4-1.7-0.8-2.9-1.1-3.5c-0.4,2-1.2,4.4-2.2,7.1
			c-1.9-2.5-3.6-4.7-5.2-6.7c1.6-4.3,2.3-11,2.2-19.9V3.2h16.4v26.8c2.6-1.3,4.8-2.7,6.7-4.3H74v-6.5h10.4c0.1-0.3,0.3-0.6,0.4-1.1
			c0.1-0.6,0.2-0.9,0.2-1.1h-9.7v-6.5H79C78.5,10,77.9,9.2,77,8c-0.7-0.9-1.3-1.6-1.7-2.2l5.2-3.5c1,1,2.2,2.3,3.5,3.9
			c0.7,0.9,1.3,1.5,1.7,1.9L82,10.6h4.1C86.2,8,86.3,5,86.3,1.5h7.1c0,3.5-0.2,6.5-0.4,9.1h4.5l-3-2.4c1.9-2,3.5-4,5-5.8l5.6,3.5
			c-1.4,1.7-2.8,3.3-4.1,4.8h4.3v6.5h-7.8c0.1,0.1,0.3,0.5,0.4,1.1c0.1,0.4,0.2,0.8,0.2,1.1h8.7v6.5H101c1.7,2.3,4.1,3.9,7.1,4.8
			c-1.6,2.9-2.6,5-3,6.5c-0.2-0.1-0.4-0.2-0.7-0.2c-0.4-0.3-0.9-0.6-1.3-0.9c0,0.4-0.1,1-0.2,1.7C102.8,40.1,102.7,42.6,102.7,45.2
			L102.7,45.2z M64.9,45.9c1,0,1.5-0.6,1.5-1.7v-7.6h-3.2c0,3.2-0.4,6.3-1.1,9.3H64.9z M66.4,10h-3v6.5h3V10z M63.4,27v2.8h3v-6.5
			h-3V27z M73.1,46.3c0,0.4-0.1,0.9-0.2,1.3c5.3-2.3,8.7-4.8,9.9-7.6h-5.6v-3.5c-0.9,0.4-1.7,0.8-2.6,1.1c0-0.1-0.1-0.5-0.2-1.1
			c-0.3-0.6-0.7-1.7-1.3-3.2L73.1,46.3L73.1,46.3z M85,33.5l0.4-2.6c-0.4,0.6-1.2,1.2-2.2,1.9c-0.4,0.3-0.7,0.5-0.9,0.7
			C82.4,33.5,85,33.5,85,33.5z M93,29.2c0,1.6-0.2,3-0.4,4.3h7.1c-2.3-1.7-4-4.3-5.2-7.8h-5.4c-0.6,1.3-1.3,2.5-2.2,3.5L93,29.2
			L93,29.2z M95.6,40h-4.5c-0.6,2.2-1.7,4.1-3.2,5.8h4.8c1.7,0.1,2.7-0.6,2.8-2.2C95.4,42.5,95.5,41.3,95.6,40L95.6,40z M93,19.2
			c-0.3-0.7-0.4-1.4-0.4-2.2h-0.4c0,0.1-0.1,0.5-0.2,1.1c0,0.4-0.1,0.8-0.2,1.1H93z"/>
		<path class="st0" d="M114.6,1.5h6.9v9.3h2.8v7.8h-2.8v3.5c0.7,0.4,1.7,1.2,2.8,2.4c0.7,0.6,1.2,1,1.5,1.3l-2.4,7.6l-1.9-2.2v22.1
			h-6.9V34c-1,2.9-2.2,5.6-3.5,8.2c-0.2-0.6-0.3-1.5-0.4-2.8c-0.4-3.9-0.8-6.8-1.1-8.6c1.6-2.5,3.1-6.5,4.5-12.1h-3.7v-7.8h4.1
			L114.6,1.5L114.6,1.5z M125,29.2h15.1l-0.4-3.7l-2.6,1.3c0-0.1-0.1-0.4-0.2-0.9c-0.1-0.3-0.3-0.5-0.4-0.6c-4,0.3-7.4,0.6-9.9,0.9
			l-2.2-5h2.6c0.7-1,1.6-2.5,2.6-4.3c0.4-0.7,0.8-1.2,1.1-1.5c-2.2-2.4-4.2-4.7-6.3-6.7l3-3c0.3,0.3,0.6,0.6,0.9,0.9
			c0.1-0.4,0.4-1,0.9-1.7c0.7-1.3,1.2-2.3,1.5-3l5.6,2.2c-0.4,0.7-1.1,1.7-1.9,2.8c-1.2,1.4-1.9,2.6-2.4,3.5l1.1,1.3l1.9-3.2
			l4.1,2.4V1.5h7.1v5.6l2.2-2.2l1.5,1.7c1-1.7,1.8-3.3,2.4-4.8l5.4,1.7l-4.5,6.1l1.3,1.5l2.2-3.7l4.5,2.2c-0.4,0.7-1.2,1.9-2.4,3.7
			c-1.2,1.9-2,3.2-2.6,4.1l2.8-1.3c0.6,1.3,1.6,3.8,3,7.4c-0.1-0.4,0,0,0.4,1.3l-4.1,1.5c0-0.3-0.1-0.6-0.2-0.9
			c-0.1-0.4-0.3-0.7-0.4-0.9c-0.6,0-1.7,0.1-3.2,0.2c-2.7,0.1-4.8,0.3-6.3,0.4l-1.5-4.8h2.4c0.6-1,1.4-2.3,2.4-3.9
			c0.3-0.6,0.5-1,0.6-1.3c-1.9-2.2-3.8-4.2-5.8-6.3c0,4.5,0.1,8.9,0.4,13.2c0,0.9,0.1,2,0.2,3.5c0,1.6,0.1,2.7,0.2,3.5h3.7l-1.1-2.8
			l6.3-0.9l1.7,3.7h4.3v6.5H156l3.7,3c-2,1.9-4.7,4-8,6.5c0.6,0.7,1.3,1.1,2.2,1.1s1.5-0.4,1.9-1.3c0.3-0.4,0.6-1.2,1.1-2.2l0.6-1.3
			c1.6,1.3,3.4,2.5,5.4,3.5c-0.7,2-1.7,3.8-3,5.4c-1.3,1.9-3.3,2.8-6.1,2.8c-3.3,0-6.1-1.5-8.2-4.5c-2.6,1.6-5.5,3.1-8.6,4.5
			c-0.3-0.4-0.8-1.2-1.5-2.2c-1-1.6-1.8-2.7-2.4-3.5l4.1-1.5c-1.2-0.9-2.4-1.7-3.7-2.4c-0.9,3-2.9,6.5-6.1,10.4
			c-1.2-1.6-3-3.5-5.4-5.6c3.8-3.3,5.7-7.6,5.8-12.8H125L125,29.2L125,29.2z M134.5,21l-1.1-2.4l-1.7,2.6L134.5,21z M137.1,16.6
			c0.1,0.6,0.5,1.4,1.1,2.4c0.6,1.3,1,2.3,1.3,3c0-1.9-0.1-5.1-0.4-9.7c0.3,3.2,0.3,2.7,0-1.3l-5.2,7.1L137.1,16.6L137.1,16.6z
			 M134.8,35.7v2c1.9,0.9,3.9,1.7,6.1,2.6l-3,5.6c1.7-0.9,3.4-1.7,5-2.6c-0.6-1.4-1.2-3.8-1.7-6.9c0,0.3-0.1,0.1-0.2-0.7H134.8z
			 M148.8,39.4c0.9-0.4,2-1.3,3.5-2.6c0.7-0.4,1.2-0.8,1.5-1.1h-5.8c0.1,0.4,0.3,1.2,0.4,2.2C148.7,38.6,148.8,39.1,148.8,39.4
			L148.8,39.4z M156,20.3l-0.6-1.7c-0.4,0.7-0.9,1.3-1.3,1.7H156z"/>
		<path class="st0" d="M212.8,2.6l4.5,6.1c-2.7,1.3-6.9,3-12.6,5.2c-1,0.4-1.8,0.8-2.4,1.1v2.2c0,1.6,0.8,2.4,2.4,2.4h2.4
			c1.3,0,2.1-0.7,2.4-2.2c0-0.4,0.1-1.1,0.4-1.9c0.1-1.3,0.3-2.3,0.4-3c0.6,0.1,1.4,0.4,2.6,0.9c2,0.6,3.5,1.1,4.5,1.5
			c-0.3,2-0.7,4.3-1.3,6.7c-1,3.5-3.5,5.2-7.4,5.2h-7.4c-4.9,0-7.4-2.7-7.4-8V18l-5.2,3.2l-1.9-3c-2,0.1-5.1,0.4-9.1,0.6
			c-5.9,0.4-10.2,0.7-13,0.9l-0.9-6.9h2.6C170.2,8,173,3.8,175,0l8.2,2.8c-0.7,0.9-1.9,2.5-3.7,4.8c-1.7,2.2-3,3.7-3.7,4.8l7.1-0.4
			c-0.4-0.4-1-1.1-1.7-2.2c-0.3-0.6-0.5-1-0.6-1.3l5.6-3.2c1.7,2,3.9,4.8,6.5,8.2c0.7,1,1.2,1.7,1.5,2.2V2h8.2v5.6
			c0.1,0,0.4-0.1,0.6-0.2C207,5.6,210.2,4,212.8,2.6L212.8,2.6z M174.8,52.8h-7.4V21.6h24.4v24.4c0,4-1.9,6.2-5.8,6.5h-3
			c-1.7,0.1-3,0.2-3.9,0.2c0-0.3-0.1-0.7-0.2-1.3c-0.4-2.2-0.9-3.8-1.3-5h4.5c1.4,0,2.2-0.7,2.2-2v-0.4h-9.5L174.8,52.8L174.8,52.8z
			 M174.8,27.9v2.4h9.5v-2.4C184.3,27.9,174.8,27.9,174.8,27.9z M174.8,36.1v2.4h9.5v-2.4H174.8z M212.6,27.9l4.5,6.1
			c-5.2,2.5-10.1,4.6-14.7,6.5v2.8c0,1.6,0.8,2.4,2.4,2.4h2.4c1.6,0,2.4-0.7,2.6-2.2c0.3-1.6,0.5-3.5,0.6-5.6c2,0.9,4.4,1.7,7.1,2.4
			c-0.4,3.2-0.9,5.5-1.3,7.1c-0.6,3.3-3,5-7.1,5h-7.4c-5.1,0-7.6-2.5-7.6-7.3V27.9h8.2v5c1-0.4,1.4-0.6,1.1-0.4
			C207.3,30.7,210.3,29.2,212.6,27.9L212.6,27.9z"/>
		<path class="st0" d="M287.7,11.2c-0.6,1-1.6,2.7-3,5.2c-0.1,0.4-0.3,0.7-0.4,0.9h4.1v8.4h-7.6v-2.4h-18.6v2h2.2l-0.6,2.2h7.1v5.4
			c-0.4,2.3-0.9,4.5-1.3,6.5h2.2V28.8h6.5v-2.6h6.5v2.6h4.3v6.1h-4.3v4.5h5v6.1h-5v7.8h-6.5v-7.8h-9.3v-4.1
			c-1.7,4.5-5.5,8.6-11.5,12.5c-1-1.4-2.4-3-4.3-4.5h-8.4v2.8h-6.7v-48h16v30.7c1.6-2.2,2.9-5.2,3.9-9.1H255v-8.4h3.5l-2.2-5
			l6.7-1.7c0.3,0.4,0.8,1.3,1.5,2.6c0.6,1.3,1,2.2,1.3,2.8l-4.3,1.3h8c-0.9-2.3-1.6-4.2-2.2-5.8l6.7-1.3c0.9,1.6,1.7,3.5,2.6,5.6
			l-6.5,1.5h6.7c0.4-0.7,1-1.9,1.7-3.5c0.7-1.6,1.2-2.7,1.5-3.5L287.7,11.2L287.7,11.2z M244.6,11.7v5.4h3v-5.4H244.6z M244.6,24.2
			v5.4h3v-5.4H244.6z M244.6,36.6v5.6h3v-5.6H244.6z M253.9,47.6c2.9-1.2,5.1-2.7,6.5-4.8c-0.3-0.3-0.7-0.7-1.3-1.3
			c-0.6-0.4-1-0.8-1.3-1.1l-1.5,2l-2.4-3.9L253.9,47.6L253.9,47.6z M255,3.9c9.2,0,19.8-0.4,31.8-1.1l1.3,6.5
			c-9.4,0.4-20,0.8-31.8,1.1C255.9,7.6,255.4,5.5,255,3.9L255,3.9z M264.8,32.4h-2.6c-0.1,0.3-0.3,0.7-0.4,1.3
			c-0.3,0.7-0.5,1.2-0.6,1.5l2.6,2C264.1,35.8,264.5,34.2,264.8,32.4z M276.2,34.8v4.5h2v-4.5H276.2z"/>
		<path class="st0" d="M293.5,3h22.7v21h-14.9v29h-7.8L293.5,3L293.5,3z M301.3,8.9v2.6h7.6V8.9C308.9,8.9,301.3,8.9,301.3,8.9z
			 M301.3,18.4h7.6v-2.6h-7.6V18.4z M330.7,26.2v19.9h1.3c1.7,0,2.6-0.9,2.6-2.6V24h-14.7V3h22.5v42c0.3,5.2-2.1,7.8-7.1,7.8
			c-1.9,0.1-4.3,0.2-7.1,0.2c-0.1-0.6-0.4-1.6-0.6-3c-0.1-0.9-0.3-1.6-0.4-2.2h-21.9V26.2L330.7,26.2L330.7,26.2z M312.8,31.8v2.8
			H323v-2.8C323,31.8,312.8,31.8,312.8,31.8z M312.8,42.6H323v-2.8h-10.2V42.6z M327.1,8.9v2.6h7.6V8.9H327.1z M327.1,15.8v2.6h7.6
			v-2.6H327.1z"/>
		<path class="st0" d="M363.6,24.9c3.2,1,5.5,1.7,7.1,2c-0.3,4.6-0.6,8.2-0.9,10.8c-0.9,4.8-3.5,7.1-7.8,7.1h-3
			c-4.8,0-7.1-2.6-7.1-7.8V23.4l-5,0.4l-0.4-8.6l5.4-0.4V1.5h8.4v12.3l6.5-0.4l0.4,8.4l-6.9,0.6v11.3c0,1.4,0.4,2.2,1.1,2.2h0.6
			c0.6,0,0.9-0.7,1.1-2c0.1-0.6,0.2-2.1,0.2-4.5C363.5,27.5,363.6,26,363.6,24.9L363.6,24.9z M397.1,42.2c0.3,6.3-2.5,9.5-8.2,9.5
			c-2.3,0.1-5,0.2-8.2,0.2c-0.1-1-0.4-2.6-0.9-4.8c-0.4-1.6-0.7-2.7-0.9-3.5c-1.7,3.3-4.1,6.7-7.1,10.2c-2-2-4.2-4.1-6.7-6.3
			c3.6-3.2,6-6.6,7.1-10.2c1.1-3.2,1.9-9,2.2-17.5v-2.6c0.1-2.3,0.2-4,0.2-5.2h-7.6V3.7H398C397.6,23.3,397.3,36.1,397.1,42.2
			L397.1,42.2z M389.1,12.1h-6.3c0,3.6-0.1,5.9-0.2,6.9c-0.1,11.4-1.3,19.5-3.5,24.4h5.4c3,0.4,4.4-1.1,4.1-4.5
			C388.8,34.7,389,25.8,389.1,12.1z"/>
		<path class="st0" d="M454.7,40.7H441c2.5,2.7,7.1,4.5,14.1,5.4c-0.6,0.9-1.4,2.4-2.4,4.5c-0.4,1-0.8,1.7-1.1,2.2
			c-7.9-1.6-13.1-4.2-15.6-7.8c-2,3.3-7.4,6.1-16,8.4c-0.1-0.3-0.4-0.7-0.9-1.3c-1.4-2.6-2.5-4.3-3.2-5.2c8.2-1.7,13.2-3.8,14.9-6.3
			h-12.8v-6.5h14.1v-3.9c-0.4,0.4-1.1,0.8-2,1.1c-0.9-1.1-1.9-2.2-3-3.2v4.3h-6.9V18.6l-1.7-3V19h-3.5v6.7l3.2-0.4
			c-0.1,3.2-0.1,5.9,0,8.2c-1,0.1-2.1,0.4-3.2,0.7v11c0.1,4.6-1.8,7.1-5.8,7.6c-1.4,0.1-3.2,0.2-5.4,0.2c-0.1-2.7-0.6-5.3-1.3-7.8
			h2.6c1.4,0,2.2-0.8,2.2-2.4v-6.9l-4.1,0.9l-0.9-8.9l5-0.6V19h-4.3v-8h4.3V1.7h7.8V11h3.5v1.7c3.8-3.2,6.9-6.9,9.3-11.2h9.3
			c-0.6,1.3-1.2,2.5-2,3.5h14.5v5.4l-3,3.5h5.8v18.6h-6.9v-5l-3,3.7c-1.3-1-3.3-2.4-6.1-4.1c-0.4,0.4-1.2,1.1-2.4,2
			c0.7-0.6,0.6-0.4-0.4,0.4h6.3c0,1.9-0.1,3.5-0.2,4.8h14.9L454.7,40.7L454.7,40.7z M433,20.1l6.7,0.4c0,0.1-0.1,0.4-0.2,0.6
			c-0.1,0.7-0.3,1.2-0.4,1.3c3.2,1.7,5.3,2.9,6.5,3.5v-6.1h-18.4v6.5C430.4,24.9,432.3,22.9,433,20.1z M430.6,10.8
			c-0.9,1.2-1.7,2.2-2.6,3h9.5l2.6-3H430.6z"/>
		<path class="st0" d="M506.1,27.9c-0.9,15.4-8.7,23.6-23.6,24.4c-15-0.9-22.9-9-23.8-24.4c0.7-16,8.6-24.3,23.8-24.9
			C497.3,3.9,505.1,12.2,506.1,27.9z M494.2,27.9C494,18,490,12.8,482.3,12.3c-7.8,0.4-11.9,5.6-12.3,15.6
			c0.3,9.8,4.3,14.9,12.1,15.4C489.9,43,493.9,37.8,494.2,27.9L494.2,27.9z"/>
		<path class="st0" d="M554.2,51.5h-11l-18.8-29.9c-1.3-2.2-2.2-3.7-2.6-4.5c0.1,2.2,0.2,4.9,0.2,8.2v26.2h-10.2V3.7h11.7l18.2,29.4
			c1.3,1.9,2.2,3.5,2.6,4.8v-0.2c-0.2-1.6-0.2-4-0.2-7.4V3.7h10.2L554.2,51.5L554.2,51.5z"/>
		<path class="st0" d="M576.7,0.9l-11,55.6H558l11-55.6H576.7z"/>
		<path class="st0" d="M626.6,27.9c-0.9,15.4-8.7,23.6-23.6,24.4c-15-0.9-22.9-9-23.8-24.4C580,11.9,587.9,3.6,603,3
			C617.8,3.9,625.6,12.2,626.6,27.9z M614.7,27.9c-0.3-9.9-4.2-15.1-11.9-15.6c-7.8,0.4-11.9,5.6-12.3,15.6
			c0.3,9.8,4.3,14.9,12.1,15.4C610.4,43,614.4,37.8,614.7,27.9L614.7,27.9z"/>
		<path class="st0" d="M666.4,12.5h-23.4V24h20.3v8.9h-20.3v18.6h-10.8V3.7h34.2V12.5z"/>
		<path class="st0" d="M706,12.5h-23.4V24H703v8.9h-20.3v18.6h-10.8V3.7H706V12.5z"/>
	</g>
</g>
</svg>
