<?xml version="1.0" encoding="utf-8"?>
<!-- Generator: Adobe Illustrator 27.0.0, SVG Export Plug-In . SVG Version: 6.00 Build 0)  -->
<svg version="1.1" id="_圖層_2" xmlns="http://www.w3.org/2000/svg" xmlns:xlink="http://www.w3.org/1999/xlink" x="0px" y="0px"
	 viewBox="0 0 518.2 145.5" style="enable-background:new 0 0 518.2 145.5;" xml:space="preserve">
<style type="text/css">
	.st0{fill:#0097A2;}
</style>
<g id="_圖層_1-2">
	<g>
		<path d="M48.9,4.9L57,0.3c2.6,2.4,5,4.8,7.3,7.4L58.7,11h8.7v9.9H47.5c0.2,6.2,0.7,11.5,1.7,15.9c2.2-4,4.6-8.8,7-14.3l9.5,4.4
			c-4.1,9.2-8.4,16.6-12.8,22.2c0.2,0.7,0.6,1.7,1.1,2.8c0.2,0.4,0.4,0.6,0.6,0.8c0.6,0.9,1.1,1.4,1.7,1.4c0.7,0,1.2-0.5,1.4-1.7
			c0.6-2.2,1.1-5.4,1.7-9.6c1.1,0.5,2.7,1.2,4.8,1.9c1.9,0.5,3.2,1,3.9,1.4c-0.8,5.1-1.6,9.3-2.5,12.6c-1.3,4.6-4.2,7-8.7,7.1
			c-4.8,0-8.9-2.7-12-8c-0.2,0.2-0.6,0.4-1.1,0.5c-2.4,2.2-5.9,4.9-10.3,8.2c-2-2.8-4.4-5.5-7-8.2c5.6-3.5,10.3-7.1,14.2-11
			c-2-7.3-3.3-16.2-3.9-26.6H15.9v6.3h18.2c0,4.8-0.2,11-0.6,18.7c-0.2,7.1-3.4,10.8-9.5,11c-2,0.2-4.7,0.3-7.8,0.3
			c-0.2-1.5-0.7-4.2-1.4-8.2C14.2,54,12.5,60,9.5,66.7c-0.9-0.6-2.2-1.5-3.9-2.8c-2.4-1.7-4.3-2.8-5.6-3.6c3.5-7.1,5.2-15.8,5-25.8
			V11h31.3V0.6h10.9V11h7C52.5,9.2,50.7,7.1,48.9,4.9L48.9,4.9z M15.9,36.5c0,0.7-0.1,1.8-0.3,3.3c0,3.1-0.2,5.5-0.6,7.1h4.8
			c2.2,0.2,3.4-0.8,3.4-3c0-0.9,0.1-2.2,0.3-3.8v-3.6C23.5,36.5,15.9,36.5,15.9,36.5z"/>
		<path d="M113.1,0.3h10.6v4.9h18.2v8.2h-18.2v2.5h16.8v19.2H96.3v-8.8c-0.6,0.7-1.4,1.8-2.5,3.3c-1.1,1.6-2,2.8-2.5,3.6v33H81.2
			V44.5c-1.9,1.8-3.3,3.1-4.2,3.8c-0.2-1.8-0.7-4.4-1.4-7.7c-0.4-1.5-0.7-2.7-0.8-3.6c5.6-5.3,10.2-11.3,14-17.9l7.5,4.9v-8.2h16.8
			v-2.5H95.2V9.3c-4.1,4.8-9.3,10.1-15.6,15.9c-1.1-3.9-2.4-7.4-3.9-10.7c4.7-4,8.9-8.6,12.8-13.7l6.7,5.5V5.2h17.9L113.1,0.3
			L113.1,0.3z M124.5,51.9c2.2,0.9,4.5,1.7,6.7,2.2c-0.8-1.8-1.6-3.3-2.5-4.4l8.1-3c1.1,1.8,2.4,4.3,3.9,7.4c1.1,2.2,2,3.8,2.5,4.7
			l-8.1,3.3c-0.8-1.8-1.6-3.5-2.5-4.9c-0.6,0.9-0.9,1.9-1.1,3c-1.1,3.7-4.3,5.4-9.5,5.2h-9.5c-5.6,0.2-8.3-2.2-8.1-7.1v-6.6
			c-0.6,1.3-1.3,3.1-2.2,5.5c-1.1,2.4-2,4.2-2.5,5.5c-3-1.3-5.7-2.2-8.1-2.8c1.7-2.9,3.4-7,5.3-12.1l7.5,2.2v-2.2h9.5v6.9
			c-0.2,2.4,0.9,3.5,3.3,3.3h2.8c2.1,0,3.2-0.7,3.3-2.2C124,54.7,124.3,53.4,124.5,51.9z M142.4,45.9h-19c0.9,1.7,1.8,3.4,2.5,5.2
			l-8.4,3.8c-0.8-2.8-2-5.8-3.6-9.1H94.6v-8.2h47.8L142.4,45.9L142.4,45.9z M105.3,23.1v4.7h3.6v-4.7H105.3z M116.4,23.1v4.7h3.9
			v-4.7H116.4z M131.5,27.8v-4.7h-3.6v4.7H131.5z"/>
		<path d="M152.1,66.2v-64h63.7v64h-10.6v-2.8h-42.7v2.8H152.1z M197.7,23.9l7,3.6c-2.8,5.7-5.8,10.7-8.9,15.1v0.5
			c0.6,1.3,1.1,1.9,1.7,1.9c0.7,0,1.2-0.5,1.4-1.7c0.4-0.4,0.9-1.7,1.7-4.1c0.2-0.5,0.3-0.9,0.3-1.1c0.6,0.5,1.6,1.4,3.1,2.5
			c0.6,0.5,1,0.9,1.4,1.1V11h-42.7v43.9h42.7V44.8c-0.6,1.3-1.2,2.7-2,4.1c-1.7,3.7-4.1,5.4-7.3,5.2c-2.6,0-4.8-1.3-6.4-3.8
			c-1.5,1.5-3,2.9-4.5,4.4c-0.2-0.2-0.6-0.6-1.1-1.4c-0.6-0.5-0.9-1-1.1-1.4c-5.6,0.5-11.6,1.1-18.2,1.7l-1.4-8
			c2.1-0.2,5.6-0.4,10.6-0.5c4.5-0.4,7.5-0.5,9.2-0.5c1.3-1.1,2.5-2.3,3.6-3.6c-0.9-4.2-1.5-10.2-1.7-17.9h-21.2v-7.7h20.9
			c0-0.4-0.1-0.9-0.3-1.6v-1.4h8.9v3h2.5l-0.6-2.5l6.1-0.6l0.6,3h2v7.7h-10.3c0,0.9,0.1,2.1,0.3,3.6c0,1.8,0.1,3.1,0.3,3.9
			c0.2-0.5,0.6-1.3,1.1-2.2C196.4,26.5,197.1,25,197.7,23.9z M165,25.3h18.4v17.9H165C165,43.1,165,25.3,165,25.3z M176.2,31.9h-3.9
			v4.7h3.9V31.9z"/>
		<path d="M235.1,14.6l12,2.8c-3.4,11.2-7.1,22.4-11.2,33.8L224.7,47C228.8,36,232.3,25.2,235.1,14.6L235.1,14.6z M253.8,1.1h12.3
			v51.4c0.6,7.9-3.5,11.8-12,11.8c-3.4,0.2-7.3,0.3-11.7,0.3c-0.2-2.2-0.8-5-1.7-8.5c-0.4-1.3-0.6-2.2-0.8-2.8
			c2.1,0.2,5.1,0.3,9.2,0.3c3.4,0,4.9-1.5,4.8-4.7L253.8,1.1L253.8,1.1z M281.7,14c1.5,4.4,4,11.4,7.5,20.9
			c1.9,5.3,3.3,9.2,4.2,11.8l-12,3.8c-3.4-11.4-7.1-22.4-11.2-33.2C270.3,17.3,281.7,14,281.7,14z"/>
		<path d="M310.7,0l10.9,0.8l-2,3.9h14.8v5.5c2.8-3.3,4.9-6.7,6.4-10.2l10.9,0.8c-0.2,0.4-0.5,1-0.8,1.9c-0.4,0.7-0.6,1.4-0.8,1.9
			h17.3v8h-9.8l3.1,3.9l-10.3,1.4c-0.2-0.4-0.6-1.1-1.4-2.2c-0.9-1.3-1.7-2.3-2.2-3h-2c-1.3,1.8-2.8,3.7-4.5,5.5h23.8v19.8h-24.6
			v3.3h27.4c-0.2,4.4-0.5,8-0.8,10.7c0,6.2-3.5,9.4-10.6,9.6H344c-0.2-1.1-0.6-2.8-1.1-5.2c-0.4-1.5-0.7-2.6-0.8-3.3h4.5
			c2.8,0.2,4.9,0.3,6.4,0.3c1.7,0,2.6-0.6,2.8-1.9l0.3-1.9h-16.5v16.8h-10.9V54.7c-5.2,4.4-12.8,8.2-22.6,11.3c-0.8-1.3-2.4-4-5-8.2
			c-0.4-0.2-0.6-0.4-0.6-0.5c9.3-2.2,16-4.8,20.1-7.7H314l-0.3,2.2h-10.6l3.1-22h22.4v-3.3h-22.9v-6c-0.4-0.4-1-1-2-1.9
			c-1.9-2-3.2-3.3-3.9-3.9C304.8,10,308.5,5.1,310.7,0L310.7,0z M338.9,18.1l-6.4-5.5h-5l3.1,3.9l-10.6,1.4
			c-0.4-0.5-0.9-1.5-1.7-2.8c-0.8-0.9-1.3-1.7-1.7-2.5h-2c-1.3,1.8-2.8,3.7-4.5,5.5L338.9,18.1L338.9,18.1z M316,37.9l-0.6,3.3h13.1
			v-3.3H316z M353.4,26.4h-14v3.3h14V26.4z"/>
		<path d="M375.2,26.6h68.2V39h-68.2C375.2,39,375.2,26.6,375.2,26.6z"/>
		<path d="M451.1,44.5l-0.8-11.3l6.4-1.4v-9.1h-4.8V12.4h4.8V0.8H467v11.5h3.6v10.4H467v7.1l4.5-1.1v10.7l-4.5,1.1V56
			c0.2,5.9-2.3,9-7.5,9.3h-3.4c-1.5,0.2-2.7,0.3-3.6,0.3c-0.4-3.3-1-6.6-2-9.9h3.4c1.9,0.2,2.8-0.9,2.8-3.3v-9.3L451.1,44.5
			L451.1,44.5z M473.2,26.9h8.4v-6.3h-8.9v-9.9h8.9V0.6h10.3v42.9c0.4,10.8-2.9,18.8-9.8,23.9c-3.4-2.6-6.6-4.4-9.8-5.5
			c4.3-2.9,6.9-6,7.8-9.1c-3.4,0.5-6.3,0.8-8.9,0.8l-1.1-9.6c3.4-0.4,7.2-0.6,11.5-0.8v-6.6h-8.4L473.2,26.9L473.2,26.9z M496.1,0.6
			h10.6v10.2h10.6v9.9h-10.6v6.3h9.2v9.6h-9.2v6.6h11.4v9.6h-11.5v13.5h-10.6L496.1,0.6L496.1,0.6z"/>
		<path class="st0" d="M17.6,135.2h21.1v7.7H5.9v-5.7c3.7-5.5,8.1-10.1,13.1-13.7c7-5.1,10.2-9,9.7-11.5c-0.1-3.8-2.1-5.7-6-5.7
			c-4-0.1-6.5,2.3-7.4,7.3l-9.1-1.8C7.8,103,13.8,98.6,24,98.6c9.2,0.4,14.2,4.6,14.9,12.5c0.7,5.5-2.6,10.4-9.9,14.4
			C24.3,128.8,20.5,132,17.6,135.2L17.6,135.2z"/>
		<path d="M65.4,124.5H44.3v-6.7h21.1V124.5z"/>
		<path class="st0" d="M70.2,132.3l10.1-2c0.7,4.2,3.2,6.3,7.4,6.3c4.2-0.1,6.3-2.2,6.4-6.1c0.1-4.1-3.1-6.1-9.7-6.1h-4V117h3.8
			c5.9,0,8.8-1.9,8.8-5.7c-0.1-3.7-2-5.5-5.6-5.5c-3.8,0.3-6.1,2.4-7,6.3l-9.5-1.8c1.9-7.8,7.7-11.7,17.3-11.9
			c9.2,0.3,14.2,4.1,14.9,11.5c0.1,5.4-3,8.8-9.5,10.3v0.2c6.4,1.1,9.9,4.6,10.5,10.7c-0.5,8-6.2,12.2-17.1,12.5
			C78,144.1,72.4,140.3,70.2,132.3L70.2,132.3z"/>
		<path d="M133.8,120.2h7.2v3.2h17.3v5.3h-22.9v1c-0.1,0.5-0.2,0.9-0.2,1.2h19.5c-0.1,2.6-0.3,5.1-0.6,7.3c-0.1,4.4-2.6,6.4-7.4,6.1
			c-1.7,0.1-4.9,0.2-9.5,0.2c-0.4-1.9-0.9-3.8-1.6-5.7h7.4c2.1,0.1,3.2-0.3,3.2-1.4l0.2-1.4h-12.3c-1.2,3.2-4.4,6.3-9.5,9.5
			c-1.2-1.2-3.2-2.8-5.8-4.9c6-3.2,8.8-7.1,8.4-11.9h-5.8c-0.5,4.9-2.6,10.3-6.2,16.2c-0.5-0.5-1.5-1.4-3-2.8
			c-1.3-1.4-2.4-2.5-3.2-3.2c3.6-5.3,5.3-12.3,5-21.2V98.6c14.9-0.1,28.3-0.7,40.2-1.6l3,5.9c-5.9,0.3-15.6,0.7-29.2,1.4
			c-2.8,0.1-4.8,0.2-6,0.2v1.8h34.4v13.3h-34.4l-0.2,3.8h11.9V120.2L133.8,120.2z M148.7,111.5h-26.6v2.8h26.6V111.5z"/>
		<path d="M193.1,135.2h21.1v7.7h-32.8v-5.7c3.8-5.5,8.1-10.1,13.1-13.7c7-5.1,10.2-9,9.7-11.5c-0.1-3.8-2.1-5.7-6-5.7
			c-4-0.1-6.5,2.3-7.4,7.3l-9.1-1.8c1.7-8.8,7.7-13.3,17.9-13.3c9.2,0.4,14.2,4.6,14.9,12.5c0.7,5.5-2.6,10.4-9.9,14.4
			C199.8,128.8,196,132,193.1,135.2L193.1,135.2z"/>
		<path d="M237.5,142.7h-10.1c1.3-12.1,6.2-23.8,14.5-35H220v-7.9h32.8v6.9C243.5,118.2,238.4,130.2,237.5,142.7L237.5,142.7z"/>
		<path d="M268,120.4v-0.2c-5.4-1.3-8.1-4.7-8.2-10.1c0.8-7.4,6.1-11.3,15.9-11.7c9.8,0.4,15.1,4.3,15.9,11.7
			c0,5.3-3.1,8.6-9.2,10.1c6.7,1.3,10.2,4.9,10.5,10.7c-0.1,8.4-6.2,12.7-18.1,12.7c-10.5-0.3-15.9-4.4-16.3-12.3
			C258.6,125.6,261.8,122,268,120.4L268,120.4z M282.7,131.1c0.1-3.6-2.4-5.9-7.4-7.1c-4.6,1.2-6.8,3.5-6.8,6.9
			c0.3,3.8,2.6,5.9,7,6.1C280.2,136.9,282.6,134.9,282.7,131.1L282.7,131.1z M281.5,110.7c0-3.4-2-5.1-5.8-5.1
			c-3.8,0.1-5.7,1.8-5.8,5.1c-0.1,2.9,1.8,4.9,5.8,5.9C279.6,115.6,281.5,113.6,281.5,110.7z"/>
		<path d="M298.6,132.1l9.9-2c0.9,4.2,3.4,6.4,7.2,6.5c4.2-0.4,6.4-2.8,6.8-7.3c-0.1-4.9-2.5-7.4-7.2-7.5c-3,0.1-5.2,1-6.8,2.6h-8
			l1.6-24.7h27.8v7.9h-19.5l-1,10.1c2.7-1.7,5.6-2.6,8.6-2.6c9.2,0.3,14.1,4.9,14.5,13.8c-0.3,9.5-5.8,14.4-16.7,14.6
			C306.7,143.5,301,139.7,298.6,132.1L298.6,132.1z"/>
		<path d="M359.1,124.5H338v-6.7h21.1V124.5z"/>
		<path d="M363.7,132.1l9.9-2c0.9,4.2,3.4,6.4,7.2,6.5c4.2-0.4,6.4-2.8,6.8-7.3c-0.1-4.9-2.5-7.4-7.2-7.5c-3,0.1-5.2,1-6.8,2.6h-8
			l1.6-24.7h27.8v7.9h-19.5l-1,10.1c2.7-1.7,5.6-2.6,8.6-2.6c9.3,0.3,14.1,4.9,14.5,13.8c-0.3,9.5-5.8,14.4-16.7,14.6
			C371.8,143.5,366.1,139.7,363.7,132.1L363.7,132.1z"/>
		<path d="M403.7,132.1l9.9-2c0.9,4.2,3.4,6.4,7.2,6.5c4.2-0.4,6.4-2.8,6.8-7.3c-0.1-4.9-2.5-7.4-7.2-7.5c-3,0.1-5.2,1-6.8,2.6h-8
			l1.6-24.7h27.8v7.9h-19.5l-1,10.1c2.7-1.7,5.6-2.6,8.6-2.6c9.3,0.3,14.1,4.9,14.5,13.8c-0.3,9.5-5.8,14.4-16.7,14.6
			C411.8,143.5,406.1,139.7,403.7,132.1L403.7,132.1z"/>
		<path d="M443.7,132.1l9.9-2c0.9,4.2,3.4,6.4,7.2,6.5c4.2-0.4,6.4-2.8,6.8-7.3c-0.1-4.9-2.5-7.4-7.2-7.5c-3,0.1-5.2,1-6.8,2.6h-8
			l1.6-24.7h27.8v7.9h-19.5l-1,10.1c2.7-1.7,5.6-2.6,8.6-2.6c9.3,0.3,14.1,4.9,14.5,13.8c-0.3,9.5-5.8,14.4-16.7,14.6
			C451.8,143.5,446.1,139.7,443.7,132.1L443.7,132.1z"/>
		<path d="M483.7,132.1l9.9-2c0.9,4.2,3.4,6.4,7.2,6.5c4.2-0.4,6.4-2.8,6.8-7.3c-0.1-4.9-2.5-7.4-7.2-7.5c-3,0.1-5.2,1-6.8,2.6h-8
			l1.6-24.7h27.8v7.9h-19.5l-1,10.1c2.7-1.7,5.6-2.6,8.6-2.6c9.3,0.3,14.1,4.9,14.5,13.8c-0.3,9.5-5.8,14.4-16.7,14.6
			C491.8,143.5,486.1,139.7,483.7,132.1L483.7,132.1z"/>
	</g>
</g>
</svg>
