<?xml version="1.0" encoding="UTF-8"?>
<svg id="_圖層_2" data-name="圖層 2" xmlns="http://www.w3.org/2000/svg" xmlns:xlink="http://www.w3.org/1999/xlink" viewBox="0 0 760.8 239.83">
  <defs>
    <style>
      .cls-1 {
        fill: #433216;
      }

      .cls-2 {
        fill: url(#_未命名漸層_3);
      }

      .cls-3 {
        fill: url(#_未命名漸層_3-9);
      }

      .cls-4 {
        fill: url(#_未命名漸層_3-4);
      }

      .cls-5 {
        fill: url(#_未命名漸層_3-6);
      }

      .cls-6 {
        fill: url(#_未命名漸層_3-7);
      }

      .cls-7 {
        fill: url(#_未命名漸層_3-8);
      }

      .cls-8 {
        fill: url(#_未命名漸層_3-2);
      }

      .cls-9 {
        fill: url(#_未命名漸層_3-3);
      }

      .cls-10 {
        fill: url(#_未命名漸層_3-5);
      }
    </style>
    <linearGradient id="_未命名漸層_3" data-name="未命名漸層 3" x1="336.02" y1="19" x2="336.02" y2="184.28" gradientUnits="userSpaceOnUse">
      <stop offset="0" stop-color="#2b5639"/>
      <stop offset="1" stop-color="#004351"/>
    </linearGradient>
    <linearGradient id="_未命名漸層_3-2" data-name="未命名漸層 3" x1="473.76" y1="19" x2="473.76" y2="184.28" xlink:href="#_未命名漸層_3"/>
    <linearGradient id="_未命名漸層_3-3" data-name="未命名漸層 3" x1="404.44" y1="19" x2="404.44" y2="184.28" xlink:href="#_未命名漸層_3"/>
    <linearGradient id="_未命名漸層_3-4" data-name="未命名漸層 3" x1="448.16" y1="19" x2="448.16" y2="184.28" xlink:href="#_未命名漸層_3"/>
    <linearGradient id="_未命名漸層_3-5" data-name="未命名漸層 3" x1="77.37" y1="19" x2="77.37" y2="184.28" xlink:href="#_未命名漸層_3"/>
    <linearGradient id="_未命名漸層_3-6" data-name="未命名漸層 3" x1="53.59" y1="19" x2="53.59" y2="184.28" xlink:href="#_未命名漸層_3"/>
    <linearGradient id="_未命名漸層_3-7" data-name="未命名漸層 3" x1="184.75" y1="22.28" x2="184.75" y2="179.47" xlink:href="#_未命名漸層_3"/>
    <linearGradient id="_未命名漸層_3-8" data-name="未命名漸層 3" x1="566.39" y1="19" x2="566.39" y2="184.28" xlink:href="#_未命名漸層_3"/>
    <linearGradient id="_未命名漸層_3-9" data-name="未命名漸層 3" x1="665.52" y1="19" x2="665.52" y2="184.28" xlink:href="#_未命名漸層_3"/>
  </defs>
  <g id="_圖層_1-2" data-name="圖層 1">
    <g>
      <g>
        <g>
          <path class="cls-2" d="M384.83,74.13c1.19-1.8-.4-5.41,0-7.67-.79-1.35-.4-4.51-1.59-5.41-2.78,3.61-3.98,8.12-7.16,11.73,0,2.71-2.39,3.16-3.58,4.51-1.19,4.06-4.78,6.77-7.96,9.47-2.79,.45-4.38,5.41-7.56,4.06v-4.06c-.4-1.81,1.59-5.41,0-8.12,1.59-1.35-.79-4.96,1.59-6.32,5.17-3.61,9.95-7.22,14.72-11.28,3.98-3.16,6.77-6.32,8.75-11.28l-1.19-.45c-.4-.45,0-.9,.4-1.35,.8-.45,1.19,.45,1.19,.9,1.19-3.16-1.99-4.96-3.58-7.22-3.98-.9-6.36-3.61-10.34-3.61-3.18-1.8-7.56-1.35-9.15-6.32-.4-2.71-.79-6.32,0-9.47-1.59-4.06,.4-8.12,0-12.63-1.19-1.8-4.38-3.61-6.76-3.16-4.38,3.61-13.53-.45-15.92,6.77-1.19,2.26-.4,5.42,.4,7.67,2.39,3.61,1.59,7.22,1.99,11.28-1.99,8.57-1.19,17.6-1.59,25.72-3.58,5.41-9.55,6.32-13.13,10.83-1.19,.9-2.39,.45-3.18,1.8-3.58-1.35-5.57,3.61-8.35,4.06-5.97,1.35-10.74,5.42-16.71,7.22l-4.38,1.35c-1.59,1.36-3.98-.9-5.17-.45,1.99,1.36,1.19,4.06,3.58,4.51,.8,4.06,4.38,6.32,5.97,9.48,2.79,1.35,5.57,1.35,7.96,.9,1.19-2.26,2.79,1.8,3.98-.9,.8,2.26,1.99,0,3.18,0,1.99-.45,6.76-2.71,6.37,1.8-.79,2.26-3.18,3.16-3.98,5.42-.79,4.06-3.98,7.67-6.37,10.83-2.39,4.06-3.98,9.93-7.56,13.08,.4,2.26-2.39,2.71-1.99,4.96-.79,2.26-.4,4.96,.8,6.77-.4,3.61,1.59,4.96,3.18,7.67,1.19,.45,2.79,0,3.98,.9,1.19,0,2.79-2.26,3.98-.45,4.38-2.71,4.78-11.73,11.54-11.28,1.19-2.71,4.78-1.81,7.16-3.16,1.19,3.61,.79,6.77,.4,9.93-3.18,1.8-.4,4.06-2.79,6.32,1.59,3.16,3.18,8.12,5.57,9.92-.79,4.96,4.38,8.12,7.16,11.28,1.19,1.81,3.98,.45,3.98,3.15,1.59,0,2.78-1.35,4.38-2.26-.4-4.96,4.78-5.86,7.16-8.57l.4-2.26c2.39-2.26,.4-5.41,1.59-8.57-1.59-2.26,.79-4.06,.79-6.32-1.59-3.16,.8-5.86-1.99-8.57l.8-1.35c1.19-.9,0-2.26-.4-3.61,1.99-2.71,0-5.41,.8-9.02,.4-1.35-1.59-3.16,.4-4.51,0-1.8-.4-4.96-1.99-5.86,0-1.8,1.99-1.35,2.39-3.16,.8-.45,1.59-.45,2.79,.9,2.79-.9,4.78,2.26,7.56,0,1.99,1.35,3.18-1.8,4.78-3.16,5.57-7.67,9.15-16.69,12.34-25.26-.8-3.16,2.39-4.96,.4-8.12Z"/>
          <path class="cls-8" d="M497.69,53.79c-7.74-2.78-15.48-4.87-23.93-6.96-10.56-1.39-21.12-2.09-32.37-.7l1.41,1.39c4.93,2.78,7.75,5.57,13.37,8.35,4.94,6.96,11.97,12.53,19.71,16.01,2.11,4.18,7.74,.7,10.56,3.48,5.63-1.39,8.44-6.96,12.67-10.44,.71-4.18,5.63-4.87,7.04-8.35-2.81-1.39-5.63-1.39-8.45-2.78Z"/>
          <path class="cls-9" d="M422.74,54.49c-3.52-4.87-8.45-11.14-15.49-10.44,0,2.78,0,4.18-1.41,6.26,.7,7.66-7.74,9.05-10.56,14.62-4.22,1.39-4.22,7.66-9.15,9.05,3.52,3.48,9.86,3.48,14.78,2.09,6.33-4.18,14.78-5.57,20.41-11.84,1.41-2.78,1.41-6.96,1.41-9.75Z"/>
          <path class="cls-4" d="M468.41,114.37c-.92,.69-3.69,.69-3.69,2.09,1.84,2.78,4.6,4.87,3.69,8.35-.92,2.09-2.77,2.09-4.6,2.09-3.69-.7-4.6-3.48-5.52-5.57,0,1.39-.93,4.17,.92,5.57-1.84,6.26-10.12,5.57-15.65,6.96-4.6,3.48-12.89,4.87-19.33,4.18-3.68-7.66,4.6-12.54,8.28-18.8,8.29-9.04,17.49-16.7,25.78-25.75,.92-2.79,3.68-6.27,0-9.05-4.6-1.39-8.29-6.26-12.89-4.18-4.6-2.78-10.13,0-14.73-2.78-.92,2.78,2.76,4.87,3.68,8.35,3.68,2.78,1.84,6.26,1.84,9.75-9.2,9.74-13.81,20.88-23.01,29.93-6.45,5.57-16.57,11.14-18.41,19.5,2.76,3.48,4.6,7.65,9.2,9.74,10.12,4.18,12.89-5.57,21.17-5.57,7.36-4.87,16.57-7.65,23.94-11.14,3.68,.69,7.35-2.79,11.96-1.4,5.53,6.96-8.28,11.84-11.04,17.4,7.36,0,13.81-3.48,20.24-2.08,7.37-1.4,11.97-6.96,19.33-7.66,4.6-2.09,11.05-4.18,11.96-9.74-1.83-5.57-5.52-11.14-11.04-15.32-7.37-1.39-13.81-4.17-22.1-4.87Z"/>
        </g>
        <g>
          <path class="cls-10" d="M63.72,31.06c.91-3.12,2.69-.8,4.85-1.9,.54,1.53,2.03-1.22,3.73,.84,1.85-.9,4.83-.27,7.27,1.9,1.66-.9,3.34,1.21,5.78,2.54,.44,2.8,3.61,2.8,6.9,3.81,1.65-2.07,4.35-1.96,6.9-3.17,4.44-.16,4.63-6.82,7.46-9.72-.13-5.13-3.02-8.2-3.92-11.42-1.89-4.49,.25-9.77-3.36-11.21-4.88-3.96-10.28,.59-14.92-.63-3.47-.57-7.29-.57-9.51,0-1.7-.47-.77-2.06-1.12-1.9-2.54-.47-4.68,.06-6.16,.42-4.96,.38-8.5,1.01-12.49,1.9-2.34-1-3.74-1.95-5.22-.42-1.78,1.43,1.01,.38,1.31,2.75,1.94,.9,3.81,3.34,6.71,5.71,.17,3.12,5.02,1.43,5.78,6.34-1.51,2.28-3.56,4.6-4.1,8.04-2.72,1.11-3.84,4.18-5.97,5.92l-5.53,6.75c.84-.71,1.86-1.33,2.91-1.67,3.81-1.96,7.35-5.66,12.68-4.86Z"/>
          <path class="cls-5" d="M105.5,99.79c-3.66,7-7.39,13.66-11.19,21.36-2.08,.12-2.82,1.92-2.24,4.44-6.46,8.16-11.77,16.82-17.91,25.37-2.16-.1-3,1.6-4.29,2.54-1.23,.64-3,1.17-2.61,3.59-5.42,2.34-10.37,6.56-15.1,9.31-4.4,2.85-9.24,1.9-12.87,5.71-3.27-.74-6.63,1.48-8.39-.21-3.92-8.35,3.07-13.95,5.22-19.67,1.39-1.57,1.3-4.96,3.55-4.23,.55-1.57,1.57-2.32,2.42-3.17,2.23-.84,3.72-4.96,7.09-5.08,1.57-3.69,3.9-6.96,5.22-10.36,.83-7.91-4.67-13.41-8.77-16.28-1.69-1.56-2.81-3.46-3.91-2.33-7.37-5.47-15.11-7.59-20.33-13.75-1.59-3.88-5.41-4.83-5.41-7.4-2.7-2.61-2.05-6.52-4.1-7.82l-.93,2.54c-2.15,6.59-8.02,11.34-10.07,18.82-2.04,2.99,0,6.37,1.12,10.36,.1,2.24,1.87,4.36,2.42,7.61,1.4,3.72,.75,10.27,5.59,13.11,1.12-.09,2.34,.86,4.66,2.33,3.55,1.81,5.97,6.57,7.46,12.05,1.3,4.14-.28,10.05-2.24,15.23-1.58,3.39-4.47,6.66-4.47,11.63,.56,2.12,.28,5.92,3.73,8.04,1.95,5.7,6.71,10.46,11.38,15.86,2.79,1.68,5.96,3.37,9.7,5.5,.83,1.15,2.6-.64,4.48,1.48,1.2-2.01,3.72-1.28,5.78-2.32,3.06-1.18,5.67-4.03,9.14-5.29,4.93-2.34,5.58-9.95,11.38-11.85,3.61-8.14,10.7-14.06,13.43-21.99l.56,.42c-.21-2.63,1.56-4.12,3.17-4.87,1.56-5.38,4.64-9.82,5.97-14.17,2.49-4.01,3.42-8.66,4.48-12.68,1.65-4.42,2.21-9.08,3.17-13.11,.72-2.41,1-5.05,1.49-6.56,.81-1.77,.53-3.99,1.87-4.86-1.24-5.05,2.3-8.11,2.05-11.21l-1.68,1.9Z"/>
          <path class="cls-6" d="M288.11,153.9c-3.09-2.78-3.61-7.78-7.21-11.11-3.09-.55-4.13-5-7.21-5.56-1.54-2.78-5.66-1.11-6.7-5-7.73-3.89-15.97-6.11-24.73-7.22-2.58,1.11-6.18,1.11-8.76,1.11-5.15-2.78-11.85,0-17.52-1.11-3.6,2.22-7.73,0-11.33,2.78-1.55,.56-4.64,.56-5.15-1.67,0-3.89-1.03-7.78,.52-10.56-1.55-4.44,0-9.44,0-14.45-.52-7.22,1.54-13.89,.51-22.22,.52-3.89,5.15-7.22,8.24-8.33,3.09-2.22,7.21-3.89,9.79-7.22,.52-4.44,5.67-5.56,5.67-9.45-1.03-3.33-4.12-5-6.7-5.56-3.61,.56-8.24-.55-12.36,1.11-.52,0-2.06-1.11-2.06-2.22,1.55-3.89,0-9.45,2.58-13.33,.52-5.56-3.61-10.56-7.73-13.34-.51,1.67-.51,3.89-2.58,3.89-1.03,0-2.06-1.11-2.58,0-2.58-2.78-6.7-3.89-7.73-7.78l.52-.56c-5.15-6.11-11.85-1.67-18.03,0-2.58,2.22-5.67,5-7.21,8.89,1.03,2.22,4.64,1.11,5.67,1.11,4.64,1.11,9.79,2.78,11.33,8.33,.52,8.33,1.55,17.78,.52,26.11-2.58,3.33-7.21,5-10.82,7.22-5.66,2.22-12.88,2.22-18.54,5-1.55,0-2.06,2.78-3.61,1.67-2.58-2.22-4.64,1.67-6.7,1.67-4.12-.55-6.7,3.89-10.82,2.22-4.12,3.33-9.79,4.44-14.94,5,0,5.56,6.18,3.89,8.76,7.78,4.12,1.11,8.24,2.22,12.36,2.78,.52-1.11-.51-2.22-.51-2.78,1.03-3.33,3.09-1.11,5.15-2.22,2.58,1.11,6.18-.56,8.24,3.33,.52,1.11-1.03,1.67-.51,2.22,4.12,2.78,8.76-1.67,11.85,1.11-2.58,3.33-4.64,7.78-7.73,10.56-7.73,4.44-10.3,13.33-17.52,18.89-6.18,10-14.94,18.89-24.21,26.11-7.73,7.78-16.48,16.67-23.18,26.11-3.6,.56-2.06,5-5.15,6.11h.52s0-.56,.52-.56c8.24-2.22,14.94-8.89,24.21-6.67,3.61-2.22,8.24-1.67,11.34-5,8.76-3.89,14.42-12.22,23.18-16.67,7.21-10,17.52-17.22,24.73-28.34,2.58-3.89,6.7-7.22,9.28-10,1.03-.56,1.54-.56,2.58,0,1.54,5,0,10,.52,15-1.03,4.44,1.03,10-2.06,13.33-1.54,0-3.09-1.67-4.64-2.78-1.03,3.89,0,8.33-.52,11.67,1.55,11.11-2.06,24.45,6.18,32.78,2.06,.55,2.58,1.11,3.09,3.33,4.12,.55,6.7,.55,10.3-1.11,5.67-1.67,5.67-8.33,8.76-12.78,2.58-14.45-.51-27.78,2.06-42.78,9.79,0,18.54,6.11,27.82,11.11,3.09,.56,5.15,5,9.27,5.56,6.18,4.44,12.36,9.45,18.55,15,2.06,1.11,5.15,.55,6.7,2.78,8.25,1.67,17,6.11,24.73,.55,3.61-3.33,2.58-10,1.03-13.89Z"/>
        </g>
        <g>
          <path class="cls-7" d="M591.08,59.63c3.9-6.87,11.64-6.01,15.04-13.09-.06-1.96,.02-4.03-1.06-4.99-.36-3.26-3.93-3-4.4-5.34-3.47-4.54-8.55-.41-11.54-4.13-3.24,.45-4.07-4.19-6.68-3.1-1.49-1.79-3.92,.11-4.86-1.72-4.45,.63-6.42,5.79-9.11,8.95-2.24,3.64-6.12,6.05-9.11,8.44-4.37,1.14-8.01,3.8-11.69,5.86-3,3.28-6.18,2-8.96,4.48-2.31-.07-4.13,.1-6.07,.52-1.7-1.88-3.37-3.17-3.95-4.82-2.15,1.56-2.38,5.18-1.52,8.27,.58,2.16,3.01,2.16,3.95,4.48,3.16,3.97,5.51,9.74,10.33,13.09,1.33-.17,3.61,.61,4.56-.86l.61,1.38c1.18,.09,2.54,1.21,4.4,1.03,3-1.29,6.19-2.06,10.17-2.07,.95,.18,1.86,1.47,1.52,3.27-.72,2.93-.12,6.11-.91,9.13-.65,3.19-4.22,3.1-5.92,4.99-4.97-.77-6.72,4.65-11.09,4.65-1.4,2.75-5.04,.52-5.47,4.31-3.9,2.67-3.75,7.31-4.86,11.71-.11,4.38-1.25,8.94,1.52,13.09,.8,1.28,2.24,2.91,3.95,3.79l2.28,4.65c4.52,6.96,3.69,15.91,4.86,24.8,2.24,.49,2.77,4.36,5.62,4.48,.65,.67,2.01,.67,3.19,1.38l.46-1.03c.19,2.04,1.93-.46,3.04,.17,.34-1.06,1.25-1.74,1.82-2.41,.8,2.13,3.98-.46,6.08-.34,1.86-2.43,4.74-.37,7.44-1.89,1.25-1.75,3.75-2.26,6.08-2.76,1.77,.93,2.91-2.52,5.31-.86,1.24-1.48,3.06-2.69,4.86-3.62,1.92-1.82,.48-4.49,.76-6.2-2.02-1.91-.81-4.84-2.28-6.2-.96-3.2-3.54-3.63-4.86-5.68-1.34-1.39-3.92-.1-3.65-2.07,.26-1.73,1.55-2.42,2.73-2.41,2.53-5.43,6.93-8.88,10.33-13.6,3.14-4.74,6.55-9.22,9.11-14.46,.4-4.05-3.17-6.72-3.34-9.99-.89-1.03-1.49-2.32-2.28-2.07-3.09-2.24-5.9-2.67-8.66-3.62-2.18,1.04-3.62-.6-5.32,.17-2.48-2.75,.11-6.54-.45-9.3,.26-7.4,2.76-14.37,8.05-18.42Zm-31.89,58.37c.19,3.52,1.02,6.88-.76,10.33-1.41,1.02-2.7,.25-3.65,0-2.54-5-10.29-7.07-6.38-13.09,3.38-2.16,6.42-4.74,10.33-6.37,2.01-.61,.8,2.58,1.82,4.13-.87,1.54-.12,3.35-1.37,4.99Z"/>
          <path class="cls-3" d="M760.38,79.62c-2.29-2-2.29-6.01-4.58-8.01-2.75-1.5-5.49-2.5-8.25-3.5-5.04-2.5-10.99,1.5-15.12-1-2.29,1-5.5,.5-7.79-.5-2.75,0-5.04,1-7.33,3-2.75,0-4.58,.5-6.87,1.5,1.83-.5,3.21,2,5.04,2,.46,0,1.83,0,1.38,1.5-1.83,.5-3.67,2.5-6.41,2.5-1.83,2-5.04,.5-6.87,2.5-4.13,0-7.79,3.5-11.45,2,.46-4.51,1.83-9.51,1.83-13.52-.46-2.5-.46-5.01,.92-7.51,4.58-1.5,10.54-3,12.37-8.51-.46-1.5-.46-3.51-1.83-4.51-5.04-5.01-12.37-5.01-18.33-4-.46-.5-1.38-.5-.92-1.5,5.5-5.51,11.45-11.52,16.03-18.52,3.21-4,9.16-7.51,7.79-14.02l-4.12-5.51c-5.5-3-12.83-5.51-19.24-3-2.29,.5-4.58,2-6.41,2-4.58,2-9.16,3.5-13.74,5.01-2.75,1-5.96,2-9.16,3-2.29,2-6.41,.5-8.7,3,6.41,2.5,13.74,4,20.62,3,2.29-1.5,5.96,1,8.25-.5,3.66-.5,8.25-.5,11.45-.5,.46,3-2.75,6.01-5.04,7.51-3.66,7.01-8.7,14.52-14.66,20.53,.46,2.5,3.21,.5,5.04,1.5,.46,0,1.83-1,2.29,.5,.46,.5,0,1.5-.46,2-4.13,1.5-9.16,1-12.37,4.01-5.95-.5-10.54,3.5-16.03,5.5l.46,.5c7.33,2.5,15.12,4.51,23.37,5.01,1.83,0,6.41-1.5,7.79,1.5-3.21,8.01-3.66,17.02-7.79,24.53-2.29,3-5.5,3.5-8.25,4.5-5.96,3.51-12.37,4.5-17.87,8.51-2.75-1-4.58,2.5-6.87,2.5-3.21,0-4.58,3-7.79,3-1.37,2-3.66,2-4.58,4.01-1.37,.5-3.21,1.5-4.12,0,.92-7.51,3.67-14.52,5.96-21.53,2.29-5.01,1.83-11.01,5.04-15.52-.46-4.51,3.21-7.01,3.21-11.01,.92-1.5-.46-5.51,2.29-6.01,.46-3.5,1.83-6.01,2.75-9.01,.92-4,3.21-8.01,2.29-12.01,0-5.01-3.21-10.51-7.33-13.02-7.79-1-2.29,10.01-4.58,15.02-.46,2-.92,5.01-1.83,7.01-2.75,19.52-9.16,37.04-12.83,56.07-1.83,3-2.29,6.51-3.66,10.01-6.41,19.52-11.91,39.55-21.53,57.07-1.83,7.01-5.96,12.51-8.7,19.02h-1.83c-2.75-3-5.96-5.5-7.33-10.01-.46,0-1.37,.5-1.83,1-.92,4.01,0,9.51-.92,14.02,0,3.5,.46,7.51-.91,10.51,1.37,5.01,1.37,11.52,6.87,14.02,4.12-2,8.7-4.51,11.45-9.01,4.58-3.5,5.04-10.51,8.7-15.52,1.37-7.51,5.04-14.52,6.87-22.53,2.29-3.5,1.83-8.01,3.21-12.01,.91-2,2.29-3.5,2.29-6.01,2.29-5.01,3.66-11.52,4.58-17.52,2.75-5.51,2.75-12.02,5.96-17.02,2.75-3,5.96-4,9.62-5.01,2.29-1,4.58-1,6.87-1.5,4.12-.5,7.79-1.5,11.45-4,5.5,1.5,10.54-4.51,15.58-2-.46,4.01-3.66,7.51-5.95,10.51-3.67,6.01-8.71,12.51-13.29,17.52-2.75,3.5-5.5-1-7.79-2-2.75,2,1.37,3,.91,5.51-.46,1.5,.46,4,.92,6.01,5.96,10.51,7.33,24.03,16.95,32.04,.92,2,3.66,3.5,2.29,6.01,.91,3,4.12,5.01,5.95,6.51,10.99,2.5,21.99-1.01,32.99-3.51l1.37,1.01c7.33-2,16.49-.5,21.99-7.51,1.83-4.01-4.12-6.01-5.04-9.52,3.66-5.5,7.33-10.51,10.08-16.52,3.2-3,3.2-7.51,3.66-12.01-.46-5.51-4.58-10.01-8.71-14.02-3.21-2.5-7.33-2-10.99-3-3.66,.5-7.79,3-11.45,3-5.96,3-12.37,3.5-18.33,6.51-4.58-1-7.79,4-12.37,4-1.38,2-3.67,0-5.04,2.5-4.58-1.5-6.87,4.01-11.45,3-1.83-2-5.5-2.5-6.41-5.51,.91-2,3.21-2.5,5.04-2.5,5.04-2.5,10.08-4.51,14.2-8.01,6.87-3,12.37-9.51,16.95-15.52,3.21-3,4.12-9.01,9.16-10.51,1.83,1.5,4.58,0,6.87-1,5.04-1.5,10.54-1,16.03-3.5,5.96-1.5,13.74,.5,19.24-3.5,8.71,0,17.87-1,26.11-4,1.83-2,4.13-4.01,2.75-7.51Zm-102.62,64.58c3.21,2.5,4.58-2.5,6.87,.5,1.83-1,4.12-2.5,6.87-1,5.96-.5,11.45-3,16.95-3,3.67-1,6.87-2,10.08-2.5l.91,1c-6.41,9.01-13.29,16.52-21.53,23.03-2.29,3-5.96,4.5-9.16,6.51-3.67-5.51-4.58-13.02-8.25-18.52,.46-3-4.58-3-2.75-6.01Z"/>
        </g>
      </g>
      <g>
        <path class="cls-1" d="M330.03,209.52v-.6c.27-.09,.65-.24,1.14-.46,.22-.09,.36-.17,.42-.23,.04-.04,.06-.08,.08-.13,.05-.2,.1-.9,.14-2.1,.04-1.21,.06-2.65,.06-4.34,0-2.48,0-4.01-.03-4.59-.04-1.47-.11-2.32-.2-2.53-.04-.09-.12-.16-.23-.21-.24-.12-1.04-.2-2.4-.23v-1.03c1.32,.04,2.84,.07,4.55,.07,1.9,0,3.71-.03,5.41-.07v1.03c-1.18,.04-1.9,.11-2.16,.21-.11,.05-.2,.12-.25,.23-.05,.11-.1,.59-.15,1.45-.05,.86-.07,1.95-.07,3.27,0,.14,0,1.27,.01,3.4,.01,1.12,.02,2.23,.03,3.33s.01,1.77,.02,2.01c1.45,.05,2.43,.07,2.95,.07,1.59,0,2.97-.07,4.16-.21,.42-.05,.68-.1,.77-.15,.08-.05,.17-.2,.27-.43,.21-.6,.42-1.28,.61-2.05h1.3c-.03,.22-.05,.35-.05,.39l-.39,2.38c-.08,.75-.13,1.19-.14,1.34-.3,.06-.61,.11-.91,.13-.64,.04-1.63,.06-2.96,.06-.19,0-1.42-.02-3.69-.06-1.73-.03-2.93-.04-3.61-.04-1.02,0-2.59,.03-4.67,.1Z"/>
        <path class="cls-1" d="M365.41,193.06v1.03c-1.06,.02-1.68,.05-1.88,.09-.2,.03-.34,.08-.42,.13-.09,.05-.15,.11-.18,.19-.07,.13-.13,.39-.16,.77-.02,.2-.03,.59-.04,1.15-.04,1.93-.06,2.97-.06,3.12v4.74l.05,2.15c0,.81,.05,1.33,.15,1.58,.04,.11,.11,.19,.22,.25,.1,.06,.25,.1,.47,.14,.22,.03,.84,.06,1.86,.08v1.03c-1.7-.05-3.52-.07-5.46-.07-1.68,0-3.18,.02-4.5,.07v-1.03c1.08-.03,1.71-.06,1.88-.08,.22-.03,.37-.08,.45-.13,.08-.06,.13-.12,.15-.19,.03-.09,.08-.46,.13-1.1,.08-.94,.13-1.81,.13-2.61v-4.92c0-1.56-.01-2.57-.03-3.01-.05-1-.11-1.62-.19-1.87-.03-.1-.08-.18-.15-.24-.07-.05-.2-.1-.38-.14-.18-.03-.84-.07-1.98-.1v-1.03c1.32,.04,2.83,.07,4.53,.07,1.92,0,3.73-.03,5.43-.07Z"/>
        <path class="cls-1" d="M388.07,203.8h-1.25c-.03-.98-.12-1.57-.27-1.77-.08-.1-.27-.18-.57-.22-.77-.1-1.99-.15-3.67-.15-.24,0-.66,0-1.25,0v1.31c0,1.86,.03,3.16,.08,3.91,.06,.75,.14,1.19,.25,1.31,.07,.09,.2,.15,.39,.21s1.01,.11,2.46,.19v.93l-6.15-.08c-.89,0-2.3,.03-4.22,.08v-.98c1.2-.02,1.9-.05,2.09-.1,.09-.03,.17-.07,.23-.13,.09-.09,.17-.3,.22-.61,.03-.18,.07-.75,.13-1.7,.05-.95,.08-1.64,.08-2.05v-4.87c0-.11-.04-1.21-.14-3.29-.03-.6-.08-1.03-.17-1.28-.03-.09-.08-.15-.15-.19s-.22-.09-.44-.12c-.23-.04-.84-.08-1.85-.13v-.99l5.57,.07,7.55-.09c1.06,0,2.06,.04,3,.12l.14,.16c-.11,.45-.22,1.02-.3,1.71s-.13,1.29-.14,1.81h-1.29c0-.19-.03-.61-.08-1.27-.02-.34-.05-.55-.09-.62-.03-.06-.08-.09-.14-.12-.19-.09-.63-.18-1.31-.28-.69-.09-1.49-.14-2.41-.14-.18,0-.67,.01-1.48,.03-.81,.03-1.37,.04-1.66,.06-.11,.78-.17,2.2-.17,4.25v1.64c1.33,.03,2.24,.05,2.71,.05,1.36,0,2.21-.05,2.57-.14,.14-.03,.24-.12,.3-.27,.09-.2,.15-.64,.17-1.34h1.37c-.08,1.33-.11,3.04-.11,5.11Z"/>
        <path class="cls-1" d="M399.08,209.52v-.64c.63-.22,1.14-.45,1.54-.68,.06-.33,.11-.86,.16-1.6,.08-1.35,.13-2.33,.13-2.94v-5.29c0-.2-.02-.97-.05-2.29-.03-.89-.1-1.43-.22-1.63-.05-.08-.13-.14-.23-.17-.28-.09-1.03-.16-2.26-.21v-1l3.64,.06c.73,0,1.42,.01,2.07,.01,1.43,0,3.02-.01,4.78-.03l3.18-.06c.38,0,1.14,.02,2.29,.05,.11,0,.28,.02,.52,.07l.11,.15-.3,1.69c-.01,.12-.06,.68-.16,1.7h-1.23c-.02-.93-.06-1.5-.14-1.7-.04-.11-.11-.19-.19-.24-.13-.07-.55-.13-1.25-.19-1.04-.09-2.05-.13-3.04-.13-.93,0-1.89,.03-2.85,.08-.15,.89-.22,2.01-.22,3.37v2.41c.71,.04,1.45,.06,2.23,.06,.24,0,1.11-.02,2.61-.05,.56,0,.89-.03,.99-.08,.1-.04,.18-.13,.23-.25,.13-.3,.2-.79,.22-1.49h1.27l-.06,2.59,.06,2.58h-1.35c.01-.91-.06-1.47-.23-1.68-.13-.16-.35-.26-.68-.29-.72-.09-1.64-.13-2.77-.13-1.02,0-1.85,.02-2.51,.07v4.99c0,.56,.01,1.04,.04,1.44,.85,.05,1.85,.07,3.01,.07s2.18-.03,3.13-.08c.96-.05,1.54-.13,1.76-.23,.08-.03,.14-.1,.2-.21,.19-.38,.39-1.09,.59-2.14h1.29c-.23,1.55-.35,2.83-.35,3.84l-.2,.15c-.67,.05-1.62,.08-2.85,.08l-2.53-.03c-2.49-.03-4.2-.03-5.14-.03-.25,0-2,.02-5.24,.07Z"/>
        <path class="cls-1" d="M439.35,201.48c0-1.44,.29-2.69,.87-3.75,.58-1.07,1.41-1.97,2.49-2.72,1.08-.75,2.25-1.28,3.52-1.61,1.62-.41,3.38-.62,5.3-.62s3.63,.2,5.17,.6c1.15,.31,2.17,.75,3.06,1.32,.88,.58,1.55,1.17,2.01,1.77s.81,1.27,1.04,1.99,.35,1.52,.35,2.39c0,1.47-.34,2.84-1.02,4.11-.51,.94-1.24,1.77-2.21,2.51-.97,.73-2.07,1.29-3.3,1.68-1.69,.53-3.62,.79-5.8,.79-2.35,0-4.38-.32-6.06-.96-1.69-.64-3.02-1.58-3.98-2.83-.96-1.25-1.44-2.8-1.44-4.66Zm4.83-.7c0,1.83,.33,3.34,1,4.54,.67,1.2,1.53,2.04,2.57,2.54,1.04,.49,2.28,.74,3.7,.74,1.32,0,2.5-.24,3.54-.71,1.04-.47,1.86-1.27,2.45-2.39,.59-1.12,.89-2.48,.89-4.08,0-1.1-.16-2.1-.48-3.01-.32-.91-.77-1.69-1.37-2.32-.6-.64-1.3-1.13-2.11-1.46-.81-.34-1.89-.51-3.23-.51-1.52,0-2.82,.27-3.9,.81-1.07,.54-1.85,1.33-2.33,2.38-.49,1.05-.73,2.21-.73,3.48Z"/>
        <path class="cls-1" d="M486.04,203.8h-1.25c-.03-.98-.12-1.57-.27-1.77-.08-.1-.27-.18-.57-.22-.77-.1-1.99-.15-3.67-.15-.24,0-.66,0-1.25,0v1.31c0,1.86,.03,3.16,.08,3.91,.06,.75,.14,1.19,.25,1.31,.07,.09,.2,.15,.39,.21s1.01,.11,2.46,.19v.93l-6.15-.08c-.89,0-2.3,.03-4.22,.08v-.98c1.2-.02,1.9-.05,2.09-.1,.09-.03,.17-.07,.23-.13,.09-.09,.17-.3,.22-.61,.03-.18,.07-.75,.13-1.7,.05-.95,.08-1.64,.08-2.05v-4.87c0-.11-.04-1.21-.14-3.29-.03-.6-.08-1.03-.17-1.28-.03-.09-.08-.15-.15-.19s-.22-.09-.44-.12c-.23-.04-.84-.08-1.85-.13v-.99l5.57,.07,7.55-.09c1.06,0,2.06,.04,3,.12l.14,.16c-.11,.45-.22,1.02-.3,1.71s-.13,1.29-.14,1.81h-1.29c0-.19-.03-.61-.08-1.27-.02-.34-.05-.55-.09-.62-.03-.06-.08-.09-.14-.12-.19-.09-.63-.18-1.31-.28-.69-.09-1.49-.14-2.41-.14-.18,0-.67,.01-1.48,.03-.81,.03-1.37,.04-1.66,.06-.11,.78-.17,2.2-.17,4.25v1.64c1.33,.03,2.24,.05,2.71,.05,1.36,0,2.21-.05,2.57-.14,.14-.03,.24-.12,.3-.27,.09-.2,.15-.64,.17-1.34h1.37c-.08,1.33-.11,3.04-.11,5.11Z"/>
        <path class="cls-1" d="M300.9,239.42v-.63c.63-.22,1.14-.45,1.54-.68,.06-.33,.11-.86,.16-1.6,.08-1.35,.13-2.33,.13-2.94v-5.29c0-.2-.02-.97-.05-2.29-.03-.89-.1-1.43-.22-1.63-.05-.08-.13-.14-.23-.17-.28-.09-1.03-.16-2.26-.21v-1l3.64,.06c.73,0,1.42,.01,2.07,.01,1.43,0,3.02-.01,4.78-.03l3.18-.06c.38,0,1.14,.02,2.29,.05,.11,0,.28,.02,.52,.07l.11,.15-.3,1.69c-.01,.12-.06,.68-.16,1.7h-1.23c-.02-.93-.06-1.5-.14-1.7-.04-.11-.11-.19-.19-.24-.13-.07-.55-.13-1.25-.19-1.04-.09-2.05-.13-3.04-.13-.93,0-1.89,.03-2.85,.08-.15,.89-.22,2.01-.22,3.37v2.41c.71,.04,1.45,.06,2.23,.06,.24,0,1.11-.02,2.61-.05,.56,0,.89-.03,.99-.08,.1-.04,.18-.13,.23-.25,.13-.3,.2-.79,.22-1.49h1.27l-.06,2.59,.06,2.58h-1.35c.01-.91-.06-1.47-.23-1.68-.13-.16-.35-.26-.68-.29-.72-.09-1.64-.13-2.77-.13-1.02,0-1.85,.02-2.51,.07v4.98c0,.56,.01,1.04,.04,1.44,.85,.04,1.85,.06,3.01,.06s2.18-.03,3.13-.08c.96-.06,1.54-.14,1.76-.24,.08-.03,.14-.1,.2-.21,.19-.37,.39-1.09,.59-2.14h1.29c-.23,1.56-.35,2.83-.35,3.84l-.2,.15c-.67,.06-1.62,.08-2.85,.08l-2.53-.04c-2.49-.03-4.2-.03-5.14-.03-.25,0-2,.02-5.24,.07Z"/>
        <path class="cls-1" d="M327.17,239.42v-.6c.27-.08,.65-.23,1.14-.46,.22-.09,.36-.16,.42-.23,.04-.04,.06-.09,.08-.13,.05-.2,.1-.89,.14-2.1,.04-1.21,.06-2.65,.06-4.34,0-2.48,0-4.01-.03-4.59-.04-1.47-.11-2.32-.2-2.53-.04-.09-.12-.16-.23-.21-.24-.12-1.04-.2-2.4-.23v-1.03c1.32,.04,2.84,.07,4.55,.07,1.9,0,3.71-.03,5.41-.07v1.03c-1.18,.04-1.9,.11-2.16,.21-.11,.05-.2,.12-.25,.23-.05,.11-.1,.59-.15,1.45-.05,.86-.07,1.95-.07,3.27,0,.14,0,1.27,.01,3.4,.01,1.12,.02,2.23,.03,3.33s.01,1.77,.02,2.01c1.45,.05,2.43,.08,2.95,.08,1.59,0,2.97-.08,4.16-.22,.42-.05,.68-.1,.77-.15,.08-.06,.17-.2,.27-.44,.21-.6,.42-1.28,.61-2.05h1.3c-.03,.22-.05,.35-.05,.39l-.39,2.38c-.08,.75-.13,1.19-.14,1.34-.3,.06-.61,.11-.91,.13-.64,.04-1.63,.06-2.96,.06-.19,0-1.42-.02-3.69-.06-1.73-.03-2.93-.04-3.61-.04-1.02,0-2.59,.03-4.67,.1Z"/>
        <path class="cls-1" d="M352.99,239.42v-.63c.63-.22,1.14-.45,1.54-.68,.06-.33,.11-.86,.16-1.6,.08-1.35,.13-2.33,.13-2.94v-5.29c0-.2-.02-.97-.05-2.29-.03-.89-.1-1.43-.22-1.63-.05-.08-.13-.14-.23-.17-.28-.09-1.03-.16-2.26-.21v-1l3.64,.06c.73,0,1.42,.01,2.07,.01,1.43,0,3.02-.01,4.78-.03l3.18-.06c.38,0,1.14,.02,2.29,.05,.11,0,.28,.02,.52,.07l.11,.15-.3,1.69c-.01,.12-.06,.68-.16,1.7h-1.23c-.02-.93-.06-1.5-.14-1.7-.04-.11-.11-.19-.19-.24-.13-.07-.55-.13-1.25-.19-1.04-.09-2.05-.13-3.04-.13-.93,0-1.89,.03-2.85,.08-.15,.89-.22,2.01-.22,3.37v2.41c.71,.04,1.45,.06,2.23,.06,.24,0,1.11-.02,2.61-.05,.56,0,.89-.03,.99-.08,.1-.04,.18-.13,.23-.25,.13-.3,.2-.79,.22-1.49h1.27l-.06,2.59,.06,2.58h-1.35c.01-.91-.06-1.47-.23-1.68-.13-.16-.35-.26-.68-.29-.72-.09-1.64-.13-2.77-.13-1.02,0-1.85,.02-2.51,.07v4.98c0,.56,.01,1.04,.04,1.44,.85,.04,1.85,.06,3.01,.06s2.18-.03,3.13-.08c.96-.06,1.54-.14,1.76-.24,.08-.03,.14-.1,.2-.21,.19-.37,.39-1.09,.59-2.14h1.29c-.23,1.56-.35,2.83-.35,3.84l-.2,.15c-.67,.06-1.62,.08-2.85,.08l-2.53-.04c-2.49-.03-4.2-.03-5.14-.03-.25,0-2,.02-5.24,.07Z"/>
        <path class="cls-1" d="M400.09,227.72h-1.26c0-.25-.02-.62-.06-1.12-.03-.35-.08-.64-.15-.88-.27-.24-.54-.43-.85-.58-.68-.34-1.47-.61-2.35-.81-.89-.2-1.9-.29-3.01-.29-2.62,0-4.71,.61-6.28,1.82-1.58,1.22-2.37,2.89-2.37,5.01,0,2.32,.83,4.17,2.49,5.54,1.66,1.37,3.69,2.06,6.1,2.06,.7,0,1.38-.06,2.04-.16,.66-.11,1.32-.28,1.95-.49,.03-.21,.06-.62,.08-1.22,.03-.61,.03-.97,.03-1.1,0-.75-.04-1.2-.12-1.34-.06-.09-.21-.16-.42-.2-.37-.08-1.36-.15-2.99-.22v-.96l4.69,.05,4.72-.05v.78c-.61,.09-1,.22-1.19,.39-.09,.08-.15,.29-.18,.65-.05,.9-.08,1.55-.08,1.94,0,.59,.05,1.21,.14,1.83-1.94,.54-3.64,.91-5.09,1.13-1.45,.22-2.9,.33-4.34,.33-2.35,0-4.43-.3-6.24-.89-1.27-.42-2.35-.97-3.25-1.63-.9-.67-1.58-1.39-2.06-2.16-.74-1.19-1.11-2.52-1.11-3.98,0-1.23,.25-2.31,.73-3.22,.49-.92,1.16-1.72,2.04-2.41,.87-.69,1.85-1.24,2.95-1.67,1.1-.43,2.26-.73,3.47-.92,1.21-.19,2.53-.28,3.98-.28,1.78,0,3.43,.12,4.96,.37,1.53,.24,2.73,.51,3.59,.8l.13,.22c-.25,.69-.48,1.91-.69,3.66Z"/>
        <path class="cls-1" d="M411.07,239.42v-.97c.84-.05,1.35-.09,1.51-.13,.16-.04,.3-.09,.41-.16,.12-.08,.23-.19,.35-.35,.12-.16,.48-.76,1.08-1.8,.27-.48,.8-1.44,1.57-2.88l4.09-7.58,1.38-2.67h2.23l7.01,12.28,.97,1.61,.63,1.08c.1,.15,.2,.25,.3,.31s.2,.11,.32,.15c.12,.03,.42,.05,.92,.08,.16,.02,.39,.04,.69,.06v.97l-4.36-.07-5.51,.07v-.97c1.27-.04,1.98-.09,2.14-.16,.16-.06,.24-.18,.24-.33,0-.2-.12-.52-.36-.97l-1.35-2.59h-8.07l-.69,1.41c-.52,1.08-.78,1.76-.78,2.02,0,.18,.09,.32,.25,.4,.25,.11,1,.18,2.25,.22v.97l-3.62-.07-3.61,.07Zm6.93-6.36c.99,.02,2.1,.03,3.35,.03s2.28-.01,3.23-.03l-3.35-6.07-3.22,6.07Z"/>
        <path class="cls-1" d="M442.95,238.42c1.23-.05,1.94-.09,2.12-.13,.11-.04,.21-.09,.29-.15,.08-.08,.14-.22,.2-.44,.06-.29,.13-1.01,.22-2.16,.04-.65,.06-1.5,.06-2.54v-3.78l-.06-3.42c0-.57-.04-.95-.09-1.12-.05-.17-.13-.3-.23-.38-.09-.08-.26-.15-.49-.2-.23-.05-.9-.1-2.01-.15v-.99c1.33,.04,2.3,.07,2.94,.07l2.27-.03,1.44-.03c2.16,2.11,4.76,4.54,7.83,7.29,2.2,1.98,4.04,3.54,5.48,4.66v-2.72c0-4.22-.06-6.7-.18-7.45-.04-.29-.14-.48-.28-.57-.24-.14-1.06-.22-2.45-.23v-.99c1.28,.04,2.45,.07,3.52,.07s2.37-.03,4-.07v.99c-1.28,.02-2.04,.09-2.28,.21-.08,.04-.14,.1-.17,.18-.16,.39-.26,1.29-.3,2.69-.05,1.4-.07,2.43-.07,3.1,0,5.22,.06,8.38,.2,9.5l-.2,.1c-.88-.11-1.78-.21-2.68-.3-3.38-2.83-8.17-7.08-14.37-12.75v5.86c0,1.22,.03,2.48,.09,3.8,.04,.9,.11,1.46,.19,1.66,.04,.09,.11,.17,.21,.23,.1,.05,.28,.09,.53,.12,.68,.06,1.18,.09,1.49,.09,.06,0,.16,0,.32-.01v.95c-1.99-.01-3.12-.02-3.39-.02-1.01,0-2.39,.02-4.12,.07v-1Z"/>
        <path class="cls-1" d="M497.27,237.29l-.72,1.18c-1.3,.52-2.48,.87-3.52,1.07-1.04,.19-2.34,.28-3.9,.28-2.21,0-4.18-.26-5.88-.79-1.34-.42-2.47-.98-3.4-1.68-.94-.7-1.65-1.45-2.15-2.27-.77-1.23-1.14-2.57-1.14-4.01,0-2.47,1.13-4.49,3.38-6.05,2.25-1.56,5.43-2.35,9.55-2.35,1.41,0,2.68,.08,3.8,.24,1.13,.15,2.43,.43,3.92,.84l.08,.15c-.16,.37-.3,.83-.39,1.39-.15,.89-.25,1.7-.3,2.46h-1.22c-.02-.86-.08-1.55-.16-2.07-.7-.55-1.49-.96-2.36-1.23-.87-.27-1.99-.4-3.35-.4-2.46,0-4.43,.58-5.9,1.75-1.47,1.16-2.21,2.79-2.21,4.88,0,1.26,.25,2.36,.74,3.31,.5,.94,1.16,1.72,1.99,2.33,.83,.62,1.66,1.06,2.49,1.35,1.14,.37,2.52,.56,4.14,.56,1.06,0,2.07-.09,3.02-.27,.96-.18,1.99-.49,3.11-.94l.39,.28Z"/>
        <path class="cls-1" d="M506.45,239.42v-.63c.63-.22,1.14-.45,1.54-.68,.06-.33,.11-.86,.16-1.6,.08-1.35,.13-2.33,.13-2.94v-5.29c0-.2-.02-.97-.05-2.29-.03-.89-.1-1.43-.22-1.63-.05-.08-.13-.14-.23-.17-.28-.09-1.03-.16-2.26-.21v-1l3.64,.06c.73,0,1.42,.01,2.07,.01,1.43,0,3.02-.01,4.78-.03l3.18-.06c.38,0,1.14,.02,2.29,.05,.11,0,.28,.02,.52,.07l.11,.15-.3,1.69c-.01,.12-.06,.68-.16,1.7h-1.23c-.02-.93-.06-1.5-.14-1.7-.04-.11-.11-.19-.19-.24-.13-.07-.55-.13-1.25-.19-1.04-.09-2.05-.13-3.04-.13-.93,0-1.89,.03-2.85,.08-.15,.89-.22,2.01-.22,3.37v2.41c.71,.04,1.45,.06,2.23,.06,.24,0,1.11-.02,2.61-.05,.56,0,.89-.03,.99-.08,.1-.04,.18-.13,.23-.25,.13-.3,.2-.79,.22-1.49h1.27l-.06,2.59,.06,2.58h-1.35c.01-.91-.06-1.47-.23-1.68-.13-.16-.35-.26-.68-.29-.72-.09-1.64-.13-2.77-.13-1.02,0-1.85,.02-2.51,.07v4.98c0,.56,.01,1.04,.04,1.44,.85,.04,1.85,.06,3.01,.06s2.18-.03,3.13-.08c.96-.06,1.54-.14,1.76-.24,.08-.03,.14-.1,.2-.21,.19-.37,.39-1.09,.59-2.14h1.29c-.23,1.56-.35,2.83-.35,3.84l-.2,.15c-.67,.06-1.62,.08-2.85,.08l-2.53-.04c-2.49-.03-4.2-.03-5.14-.03-.25,0-2,.02-5.24,.07Z"/>
      </g>
    </g>
  </g>
</svg>