<?xml version="1.0" encoding="UTF-8"?>
<svg id="_圖層_2" data-name="圖層 2" xmlns="http://www.w3.org/2000/svg" xmlns:xlink="http://www.w3.org/1999/xlink" viewBox="0 0 951.64 141.05">
  <defs>
    <style>
      .cls-1 {
        fill: #fff;
      }

      .cls-2 {
        fill: none;
        stroke: url(#_鍊踑臇蜸馯鳺艜_6);
        stroke-miterlimit: 10;
        stroke-width: 2px;
      }

      .cls-3 {
        filter: url(#drop-shadow-1);
      }
    </style>
    <linearGradient id="_鍊踑臇蜸馯鳺艜_6" data-name="鍊踑臇蜸馯鳺艜 6" x1="12.97" y1="-49.86" x2="938.67" y2="190.91" gradientUnits="userSpaceOnUse">
      <stop offset="0" stop-color="#d5b065"/>
      <stop offset=".06" stop-color="#c6a35b"/>
      <stop offset=".18" stop-color="#9f8343"/>
      <stop offset=".26" stop-color="#806a30"/>
      <stop offset=".52" stop-color="#f3f1be"/>
      <stop offset=".58" stop-color="#e6e2af"/>
      <stop offset=".68" stop-color="#c7bd88"/>
      <stop offset=".82" stop-color="#948249"/>
      <stop offset=".88" stop-color="#806a30"/>
      <stop offset="1" stop-color="#d5b065"/>
    </linearGradient>
    <filter id="drop-shadow-1" filterUnits="userSpaceOnUse">
      <feOffset dx="4" dy="3"/>
      <feGaussianBlur result="blur" stdDeviation="2"/>
      <feFlood flood-color="#213a12" flood-opacity=".75"/>
      <feComposite in2="blur" operator="in"/>
      <feComposite in="SourceGraphic"/>
    </filter>
  </defs>
  <g id="_圖層_1-2" data-name="圖層 1">
    <rect class="cls-2" x="1" y="1" width="949.64" height="139.05"/>
    <g class="cls-3">
      <path class="cls-1" d="M60.07,33.39c-1.64,4.64-3.63,9.46-5.88,14.1V111.57h-11.42v-44.63c-1.73,2.41-3.46,4.64-5.28,6.62-1.04-2.84-4.24-9.46-6.23-12.38,7.01-7.57,13.76-19.44,17.65-31.22l11.16,3.44Zm53.29,9.2v9.98H56.87v-9.98h24.05c-1.3-3.01-3.2-6.54-4.76-9.29l10.56-4.04c2.34,3.61,5.02,8.43,6.32,11.61l-3.98,1.72h24.31Zm-51.91,39.04h47.07v29.15h-10.99v-1.98h-25.52v2.24h-10.56v-29.41Zm45.85-16.17H62.84v-9.63h44.47v9.63Zm-44.47,3.1h44.47v9.63H62.84v-9.63Zm9.17,22.88v7.57h25.52v-7.57h-25.52Z"/>
      <path class="cls-1" d="M194.09,90.33c-2.51,3.27-5.62,6.11-9.08,8.69,1.12,.6,2.42,.95,3.63,.95,1.99,0,2.51-1.2,2.94-5.42,2.34,2.15,6.14,3.96,9.08,4.82-1.73,9.98-5.02,11.87-12.63,11.87-5.45,0-10.21-2.15-14.1-5.76-5.28,2.41-10.9,4.3-16.52,5.85-1.13-2.49-4.15-7.48-6.06-9.8,5.62-1.03,11.16-2.49,16.18-4.39-1.47-2.75-2.77-5.76-3.81-9.03h-14.88v1.89l11.42-.52-.09,8.26-11.33,.77v2.41c0,5.25-1.13,7.57-4.85,8.94-3.72,1.38-8.48,1.46-14.88,1.46-.61-2.92-2.08-6.79-3.46-9.46,3.29,.26,8.13,.26,9.34,.17,1.3,0,1.73-.34,1.73-1.46v-1.2c-5.71,.34-11.07,.69-15.75,.95l-.95-9.29c4.67-.09,10.38-.34,16.7-.52v-2.41h-16.44v-9.03h16.44v-1.98c-4.15,.34-8.31,.52-12.2,.6-.35-2.06-1.47-5.33-2.51-7.31,9-.43,19.03-1.38,26.39-2.67h-27.95v-9.29h32.27v-1.89h-23.62v-8.43h23.62v-1.89h-28.12v-9.03h13.93c-.78-1.46-1.64-2.92-2.6-4.13l11.07-3.44c2.08,2.15,3.98,5.25,4.93,7.57h16.01c1.21-2.41,2.51-5.5,3.2-7.74l14.02,2.49c-1.47,1.98-2.77,3.7-4.07,5.25h13.24v9.03h-28.64v1.89h24.23v8.43h-24.23v1.89h32.7v9.29h-14.54c4.33,1.81,9,4.3,11.68,6.45l-4.67,4.9h8.13v9.03h-11.59l6.66,2.24Zm-32.62-11.27c-.61-3.27-1.04-6.71-1.21-10.32h11.94c.17,3.61,.61,7.05,1.38,10.32h10.9c-3.2-2.06-7.35-4.21-10.9-5.59l5.62-5.76h-25.87l6.14,6.19c-3.2,.77-6.84,1.46-10.64,1.98v3.18h12.63Zm14.97,9.03c.52,1.29,1.12,2.41,1.73,3.53,1.56-1.12,3.03-2.24,4.24-3.53h-5.97Z"/>
      <path class="cls-1" d="M285.54,96.78v12.21h-78.73v-12.21h32.7v-14.79h-22.41v-12.04h22.41v-13.16h-16.61c-2.42,4.47-4.93,8.51-7.53,11.7-2.51-2.15-8.13-5.85-11.33-7.57,6.66-7.05,12.2-18.83,15.14-30.44l13.06,2.92c-1.04,3.78-2.34,7.48-3.81,11.18h11.07v-14.96h13.15v14.96h28.29v12.21h-28.29v13.16h24.83v12.04h-24.83v14.79h32.88Z"/>
      <path class="cls-1" d="M308.22,72.95c-3.55-2.49-11.25-6.62-16.35-9.29l6.75-9.29c4.76,2.15,12.72,5.85,16.61,8.17l-7.01,10.41Zm-15.49,28.98c4.59-6.36,11.16-16.77,16.44-26.83l9.26,8.34c-4.59,9.03-9.78,18.32-15.05,26.92l-10.64-8.43Zm18.86-52.72c-3.37-2.49-10.81-6.62-15.57-9.46l7.09-9.03c4.59,2.32,12.2,6.11,15.92,8.43l-7.44,10.06Zm40.66,17.29v9.12h17.48v35.26h-11.94v-3.1h-23.36v3.44h-11.33v-35.6h17.22v-9.12h-22.15v-11.95h22.15v-7.91c-5.28,.77-10.64,1.38-15.75,1.81-.43-3.01-2.08-7.91-3.37-10.66,14.53-1.38,30.02-4.3,39.63-8.34l9.6,9.8c-5.54,2.15-11.68,3.96-18.17,5.25v10.06h21.11v11.95h-21.11Zm5.54,20.38h-23.36v9.63h23.36v-9.63Z"/>
      <path class="cls-1" d="M456.95,32.19V111.31h-12.2v-2.75h-51.74v2.75h-11.59V32.19h75.53Zm-12.2,66.22V42.68h-51.74v31.99c3.03-1.38,5.62-3.01,7.96-4.9h-6.14v-7.31h12.8c.43-.69,.87-1.46,1.3-2.24h-11.94v-6.97h4.84c-.52-1.89-1.64-4.21-2.86-6.02l7.44-2.67c1.64,2.15,3.2,4.99,3.55,7.14l-4.33,1.55h6.32c1.04-3.01,1.73-6.19,2.25-9.72l10.04,1.12c-.52,3.01-1.21,5.93-1.99,8.6h4.15c1.13-2.75,2.34-6.02,2.94-8.51l9.34,1.98c-1.21,2.32-2.34,4.56-3.37,6.54h5.71v6.97h-21.28c-.26,.77-.61,1.55-.95,2.24h23.97v7.31h-5.71c2.16,2.15,4.85,4.04,7.7,5.25-2.16,1.72-5.19,5.25-6.58,7.57-2.94-1.63-5.71-4.04-7.96-6.88-.26,5.5-.69,8.51-2.08,9.98-1.12,1.29-2.68,1.89-4.5,1.98-1.47,.17-4.07,.26-6.58,.09-.17-1.89-.87-4.56-1.82-6.19,1.9,.26,3.37,.26,4.24,.26,.69,0,1.21-.09,1.64-.6,.26-.34,.43-.86,.52-1.81h-8.22v7.57c0,2.41,.69,2.75,4.07,2.75h10.56c2.51,0,3.11-.77,3.46-5.25,1.99,1.29,5.62,2.49,8.13,2.92-.95,7.65-3.55,9.72-10.56,9.72h-12.8c-9.6,0-12.46-2.15-12.46-9.98v-7.22c-1.73,1.2-3.55,2.24-5.54,3.27-.95-1.72-3.37-4.99-5.28-7.05v22.27h51.74Zm-30.37-28.64c-.69,1.03-1.47,1.98-2.34,2.92h15.92c-.61-.95-1.21-1.89-1.73-2.92h-11.85Z"/>
      <path class="cls-1" d="M530.92,47.5c-.35,1.72-.69,3.44-1.04,4.99h31.58v46.61c0,5.68-1.38,8.34-5.28,10.06-3.89,1.72-9.08,1.81-16.01,1.81-.61-3.1-2.51-7.65-4.07-10.41,3.55,.26,9,.26,10.3,.17,1.56,0,2.08-.43,2.08-1.72V63.92h-13.67l7.53,1.38c-1.04,2.84-2.08,5.68-3.03,8.08h4.5v9.55h-12.89v3.96h14.97v9.89h-14.97v11.52h-11.85v-11.52h-14.53v-9.89h14.53v-3.96h-12.72v-9.55h5.36c-.61-2.41-1.73-5.5-2.68-7.83l7.27-1.63h-14.53v47.13h-12.63V52.49h28.2c.26-1.55,.52-3.27,.78-4.99h-31.41v-11.61h32.62c.26-2.24,.35-4.39,.43-6.36l14.02,1.2c-.26,1.72-.52,3.44-.78,5.16h30.89v11.61h-32.96Zm-2.16,25.89c.87-3.01,1.73-6.62,2.25-9.46h-11.77c1.3,2.67,2.51,6.11,3.12,8.34l-4.15,1.12h10.56Z"/>
      <path class="cls-1" d="M584.31,72.09c-3.03-2.67-9.6-6.71-14.19-9.29l7.09-8.94c4.41,2.24,11.16,5.76,14.53,8.26l-7.44,9.98Zm32.18,20.98v3.35c0,3.35,.69,3.78,5.45,3.78h13.41c3.81,0,4.5-1.2,5.02-8.34,2.34,1.63,6.92,3.27,9.86,3.87-1.38,11.27-4.41,14.36-13.93,14.36h-15.49c-11.68,0-15.05-2.92-15.05-13.5v-13.42c-2.08,2.32-4.33,4.47-6.66,6.19-1.21-1.81-3.2-4.21-5.19-6.28-3.2,8.6-7.01,17.54-10.81,25.71l-11.07-7.05c3.55-6.54,8.57-16.86,12.46-26.83l6.49,4.73c5.36-3.53,10.38-9.2,13.76-15.14h-11.85v-11.18h13.32v-4.47h-10.12v-8.43l-7.27,9.03c-2.94-2.67-9.34-6.79-13.84-9.55l7.44-8.69c4.07,2.24,10.21,5.76,13.67,8.26v-1.72h10.12v-8.08h12.2v8.08h9.26v-8.08h12.37v8.08h10.21v11.09h-10.21v4.47h12.89v11.18h-12.29c3.37,5.42,8.31,10.49,13.5,13.67-2.86,2.24-6.92,6.79-8.82,9.89-2.51-1.81-4.85-4.13-7.01-6.71v11.7h-21.8Zm.78-28.55c-.87,2.06-1.82,4.04-2.86,6.02h16.61c-1.04-1.98-1.99-4.04-2.86-6.02h-10.9Zm11.33,14.71h-12.11v5.16h12.11v-5.16Zm-10.21-25.89h9.26v-4.47h-9.26v4.47Z"/>
      <path class="cls-1" d="M658.55,32.62h34.69v10.23h-8.39v5.93h7.87v60.72h-8.83v-3.96h-16.09v5.16h-8.39V48.79h7.87v-5.93h-8.74v-10.23Zm23.27,45.67c-3.72,0-4.85-1.2-4.85-6.45v-12.81h-2.08v6.71c0,4.56-.61,10.58-3.72,14.62-.61-.77-2.25-2.15-3.37-2.92v5.93h16.09v-5.07h-2.08Zm-14.02-19.26v16.94c1.82-3.27,1.99-7.05,1.99-10.32v-6.62h-1.99Zm16.09,36.98v-4.21h-16.09v4.21h16.09Zm-6.75-53.15h-2.34v5.93h2.34v-5.93Zm4.85,28.9c0,1.12,.09,1.2,.52,1.2h.52c.43,0,.69,0,.87-.09v-13.85h-1.9v12.73Zm57.27,24.94h-15.4v3.1c0,5.33-.95,8.17-4.85,9.8-3.81,1.55-8.57,1.55-14.53,1.55-.43-3.27-1.99-7.65-3.37-10.66,3.11,.17,7.61,.17,8.82,.17,1.21-.09,1.56-.26,1.56-1.2v-2.75h-17.65v-9.98h17.65v-3.1c1.47-.69,3.03-1.63,4.5-2.58h-19.9v-9.2h31.92l2.34-.52,6.49,5.68c-3.81,3.01-8.31,6.19-12.98,8.86v.86h15.4v9.98Zm-.43-49.19h-44.3v-9.89h16.52c-.69-1.63-1.47-3.18-2.34-4.56l9.69-3.87c1.82,2.49,3.46,5.76,4.33,8.43h16.09v9.89Zm-40.84,22.27v-20.04h36.86v20.04h-36.86Zm11.16-8.6h14.02v-2.92h-14.02v2.92Z"/>
      <path class="cls-1" d="M782.36,65.9h-37.38v-8.77h13.5v-2.15h-10.04v-8.17h10.04v-2.06h-12.37v-8.51h12.37v-6.62h10.9v6.62h12.29v8.51h-12.29v2.06h10.21v8.17h-10.21v2.15h12.98v8.77Zm-3.37,34.49c0,4.56-.69,7.31-3.37,8.94-2.68,1.72-5.88,1.89-10.04,1.89-.43-3.01-1.82-7.31-3.11-9.98,1.9,.09,4.24,.09,5.02,.09s1.04-.26,1.04-1.12v-2.49h-9.34v13.59h-10.12v-43.34h29.93v32.42Zm-19.81-23.56v2.49h9.34v-2.49h-9.34Zm9.34,12.99v-2.58h-9.34v2.58h9.34Zm57.97-10.41h-4.85v12.9h-15.92v6.97c0,5.76-.87,8.86-4.15,10.58-3.2,1.72-7.44,1.89-13.06,1.89-.35-3.35-1.73-8.26-3.03-11.44,3.11,.17,7.18,.17,8.31,.17s1.56-.34,1.56-1.55v-6.62h-11.94v-9.72h11.94v-3.18h-13.58v-10.58h13.58v-2.84h-11.16v-9.72h2.51c-.95-2.67-2.51-5.76-4.07-8.17l5.1-2.67-2.86,.17c-.26-2.67-1.47-6.88-2.51-9.37,12.54-.95,26.56-3.01,35.13-6.11l7.18,8.77c-2.68,.95-5.54,1.72-8.57,2.49l9.17,2.58c-2.34,4.82-4.85,9.2-6.83,12.3h3.2v12.56h4.85v10.58Zm-25.61-35.35c-3.37,.52-6.83,.86-10.21,1.12,1.99,2.84,3.72,6.45,4.5,9.03l-3.63,2.06h8.22c-.35-3.18-1.38-7.74-2.68-11.09l3.81-1.12Zm8.57,9.55c1.99-3.27,4.41-8.17,5.71-12.04-3.2,.77-6.49,1.38-9.86,1.89,1.3,3.35,2.51,7.74,2.94,10.75l-6.49,2.06h16.09l-8.39-2.67Zm-3.72,15.22h6.66v-2.84h-6.66v2.84Zm6.66,10.58h-6.66v3.18h6.66v-3.18Z"/>
      <path class="cls-1" d="M893.63,97.38c4.5,0,5.28-1.72,5.97-11.35,2.94,2.15,8.74,4.3,12.54,5.16-1.64,14.36-5.45,18.49-17.39,18.49h-15.23c-14.19,0-18-3.96-18-16.51v-6.28l-27.77,2.75-1.56-12.13,29.33-2.67v-7.14c-5.97,.77-12.03,1.38-17.82,1.81-.43-3.18-2.16-8.17-3.63-11.01,17.56-1.55,36.16-4.64,48.1-9.29l9.6,10.41c-6.75,2.41-14.45,4.39-22.41,5.85v8.08l33.48-3.01,1.47,11.61-34.95,3.44v7.4c0,3.96,.69,4.39,5.71,4.39h12.55Zm-47.07-40.68h-12.8v-20.3h31.41c-.61-1.63-1.21-3.27-1.9-4.64l12.54-3.61c1.38,2.49,2.86,5.59,3.63,8.26h29.5v20.3h-13.5v-8.51h-48.88v8.51Z"/>
    </g>
  </g>
</svg>